<?xml version="1.0" encoding="UTF-8" standalone="no"?>
<svg
   width="275mm"
   height="115mm"
   viewBox="0 0 1039.3701 434.64567"
   version="1.1"
   id="svg8"
   sodipodi:docname="flap.svg"
   inkscape:version="1.1.1 (3bf5ae0d25, 2021-09-20)"
   xmlns:inkscape="http://www.inkscape.org/namespaces/inkscape"
   xmlns:sodipodi="http://sodipodi.sourceforge.net/DTD/sodipodi-0.dtd"
   xmlns="http://www.w3.org/2000/svg"
   xmlns:svg="http://www.w3.org/2000/svg">
  <defs
     id="defs12" />
  <sodipodi:namedview
     id="namedview10"
     pagecolor="#505050"
     bordercolor="#eeeeee"
     borderopacity="1"
     inkscape:pageshadow="0"
     inkscape:pageopacity="0"
     inkscape:pagecheckerboard="0"
     showgrid="false"
     units="mm"
     width="275mm"
     inkscape:zoom="0.91228661"
     inkscape:cx="458.73741"
     inkscape:cy="181.41229"
     inkscape:window-width="1920"
     inkscape:window-height="1057"
     inkscape:window-x="-8"
     inkscape:window-y="-8"
     inkscape:window-maximized="1"
     inkscape:current-layer="layer1"
     inkscape:document-units="mm" />
  <desc
     id="desc2">Outline to SVG export</desc>
  <g
     id="g6"
     transform="matrix(37.761835,0,0,37.697961,-70.744745,-354.94915)"
     sodipodi:insensitive="true"
     style="display:none">
    <path
       fill-rule="evenodd"
       fill="#000000"
       stroke="#555555"
       stroke-width="0"
       opacity="1"
       d="m 2.1737118,9.8646097 v 3e-7 0.265309 0 h 2e-7 0.741277 1e-6 1e-6 9e-7 l 9e-7,1e-6 h 9e-7 l 9e-7,10e-7 h 8e-7 l 7e-7,1e-6 6e-7,10e-7 h 6e-7 l 5e-7,1e-6 4e-7,10e-7 4e-7,10e-7 2e-7,1e-6 2e-7,10e-7 v 1e-6 10.013297 1e-6 h 3e-7 H 26.955 v 0 -1e-6 -10.013297 -1e-6 -10e-7 -1e-6 l 1e-6,-10e-7 v -10e-7 l 1e-6,-1e-6 v 0 l 1e-6,-10e-7 10e-7,-1e-6 v 0 l 1e-6,-10e-7 h 1e-6 l 10e-7,-1e-6 h 1e-6 1e-6 1e-6 0.741277 v 0 0 -0.265309 -3e-7 0 h -0.741277 -1e-6 l -1e-6,-2e-7 -1e-6,-2e-7 -10e-7,-3e-7 -1e-6,-5e-7 -1e-6,-5e-7 v -6e-7 l -10e-7,-6e-7 -1e-6,-7e-7 v -8e-7 l -1e-6,-9e-7 v -9e-7 l -1e-6,-9e-7 v -9e-7 -10e-7 -1e-6 -0.1482184 -2e-7 0 h -24.0400007 -3e-7 v 2e-7 0.1482184 1e-6 l -2e-7,10e-7 -2e-7,9e-7 -4e-7,9e-7 -4e-7,9e-7 -5e-7,9e-7 -6e-7,8e-7 -6e-7,7e-7 -7e-7,6e-7 -8e-7,6e-7 -9e-7,5e-7 -9e-7,5e-7 -9e-7,3e-7 -9e-7,2e-7 -1e-6,2e-7 h -1e-6 z"
       id="path4" />
  </g>
  <g
     inkscape:groupmode="layer"
     id="layer1"
     inkscape:label="Layer 1">
    <path
       style="fill:none;stroke:none;stroke-width:0;stroke-linecap:butt;stroke-linejoin:miter;stroke-opacity:1;stroke-miterlimit:4;stroke-dasharray:none"
       d="M 39.330978,11.338606 H 947.12552 l 2.2e-4,5.587889 27.99213,3.8e-5 v 10.001608 l -27.99235,3.77e-4 V 404.40944 H 39.330978 l -1.2e-5,-377.480922 -27.992357,-3.77e-4 -8e-6,-10.001608 27.992025,-1.1e-5 z"
       id="path1172" />
  </g>
</svg>
