<?xml version="1.0" encoding="UTF-8" standalone="no"?>
<svg
   width="300mm"
   height="230mm"
   viewBox="0 0 1133.8583 869.29135"
   version="1.1"
   id="svg8"
   sodipodi:docname="plate_L_10mm.svg"
   inkscape:version="1.1.1 (3bf5ae0d25, 2021-09-20)"
   xmlns:inkscape="http://www.inkscape.org/namespaces/inkscape"
   xmlns:sodipodi="http://sodipodi.sourceforge.net/DTD/sodipodi-0.dtd"
   xmlns="http://www.w3.org/2000/svg"
   xmlns:svg="http://www.w3.org/2000/svg">
  <defs
     id="defs12" />
  <sodipodi:namedview
     id="namedview10"
     pagecolor="#505050"
     bordercolor="#eeeeee"
     borderopacity="1"
     inkscape:pageshadow="0"
     inkscape:pageopacity="0"
     inkscape:pagecheckerboard="0"
     showgrid="false"
     units="mm"
     width="300mm"
     inkscape:zoom="0.32254202"
     inkscape:cx="-296.08545"
     inkscape:cy="711.53519"
     inkscape:window-width="1920"
     inkscape:window-height="1057"
     inkscape:window-x="-8"
     inkscape:window-y="-8"
     inkscape:window-maximized="1"
     inkscape:current-layer="layer1"
     inkscape:snap-nodes="false"
     inkscape:snap-others="false"
     inkscape:document-units="mm" />
  <desc
     id="desc2">Outline to SVG export</desc>
  <g
     id="g6"
     sodipodi:insensitive="true">
    <path
       fill-rule="evenodd"
       fill="#000000"
       stroke="#555555"
       stroke-width="0"
       opacity="1"
       d="m 11.338583,244.57903 v 0 l 7.2e-5,12.15183 -7.2e-5,11.90008 v 0 l 7.2e-5,11.56905 -7.2e-5,11.17353 v 0 l 7.2e-5,10.77196 -7.2e-5,10.37916 v 0 l 7.2e-5,9.99494 v 0 l 7.2e-5,9.61944 -7.2e-5,9.25255 v 0 l 7.2e-5,8.89444 -7.2e-5,8.54489 v 0 l 7.2e-5,8.20409 -7.2e-5,7.87188 v 0 l 7.2e-5,7.54838 -7.2e-5,7.23353 -7.2e-5,6.92739 v 0 l 7.2e-5,6.62988 -7.2e-5,6.34103 v 0 l 7.2e-5,6.06091 -7.2e-5,5.79078 v 0 l 7.2e-5,5.53623 -7.2e-5,5.2987 v 0 l 7.2e-5,5.07809 v 0 l 7.2e-5,4.8745 -7.2e-5,4.68785 v 0 l 7.2e-5,4.51813 -7.2e-5,4.36541 v 0 l 7.2e-5,4.22968 -7.2e-5,4.11096 v 0 l 7.2e-5,4.00904 -7.2e-5,3.92424 -7.2e-5,3.85637 v 0 l 7.2e-5,3.80551 -7.2e-5,3.77149 v 0 l 7.2e-5,3.75444 -7.2e-5,3.75179 v 0 l 7.2e-5,3.7518 -7.2e-5,3.75179 v 0 l 7.2e-5,3.7518 7.2e-5,3.75179 -7.2e-5,3.75179 v 0 l 7.2e-5,3.7518 -7.2e-5,3.75179 v 0 l 7.2e-5,3.7518 -7.2e-5,3.7518 v 0 l 7.2e-5,3.75179 -7.2e-5,3.7518 -7.2e-5,3.75178 v 0 l 7.2e-5,3.7518 -7.2e-5,3.75179 v 0 l 7.2e-5,3.7518 -7.2e-5,3.7518 v 0 l 7.2e-5,3.75179 -7.2e-5,3.7518 v 0 l 7.2e-5,3.75178 7.2e-5,3.7518 -7.2e-5,3.7518 v 0 l 7.2e-5,3.75179 -7.2e-5,3.7518 v 0 l 7.2e-5,3.75179 -7.2e-5,3.7518 v 0 l 7.2e-5,3.75179 -7.2e-5,3.75179 v 0 l -7.2e-5,3.7518 v 0 l 7.2e-5,3.75179 -7.2e-5,3.7518 v 0 l 7.2e-5,3.75179 -7.2e-5,3.7518 v 0 l 7.2e-5,3.7518 -7.2e-5,3.75179 v 0 l 7.2e-5,3.75179 7.2e-5,3.75179 -7.2e-5,3.7518 v 0 l 7.2e-5,3.75179 -7.2e-5,3.7518 v 0 l 7.2e-5,3.7518 -7.2e-5,3.75179 v 0 l 7.2e-5,3.75179 -7.2e-5,3.75179 -7.2e-5,3.7518 v 0 l 7.2e-5,3.75179 -7.2e-5,3.7518 v 0 l 7.2e-5,3.7518 -7.2e-5,3.75254 v 0 l 7.2e-5,3.75672 -7.2e-5,3.76505 v 0 l 7.2e-5,3.77791 7.2e-5,3.79462 -7.2e-5,3.81562 v 0 l 7.2e-5,3.84092 -7.2e-5,3.87044 v 0 l 7.2e-5,3.9041 -7.2e-5,3.94207 v 0 l 7.2e-5,3.98409 -7.2e-5,4.03052 v 0 l -7.2e-5,4.08109 v 0 l 7.2e-5,4.13587 -7.2e-5,4.19482 v 0 l 7.2e-5,4.25796 -7.2e-5,4.32153 v 0 l 7.2e-5,4.3695 -7.2e-5,4.39823 v 0 l 7.2e-5,4.40739 v 0 l 7.2e-5,4.39728 -7.2e-5,4.36772 v 0 l 7.2e-5,4.31888 -7.2e-5,4.25062 v 0 l 7.2e-5,4.1629 -7.2e-5,4.05592 v 0 l 7.2e-5,3.92946 -7.2e-5,3.7836 -7.2e-5,3.61853 v 0 l 7.2e-5,3.43378 -7.2e-5,3.23011 v 0 l 7.2e-5,3.00635 -7.2e-5,2.76936 v 0 l 7.2e-5,2.54183 -7.2e-5,2.32945 v 0 l 7.2e-5,2.13182 v 0 l 7.2e-5,1.94972 -7.2e-5,1.78239 v 0 l 7.2e-5,1.63019 -7.2e-5,1.49315 v 0 l 7.2e-5,1.37124 -7.2e-5,1.26448 v 0 l 7.2e-5,1.17248 -7.2e-5,1.09601 -7.2e-5,1.0343 v 0 l 7.2e-5,0.98811 -7.2e-5,0.95669 v 0 l 7.2e-5,0.94041 -7.2e-5,0.937 v 0 l 7.2e-5,0.93814 -7.2e-5,0.94116 v 0 l 7.2e-5,0.94648 7.2e-5,0.95403 -7.2e-5,0.9635 v 0 l 7.2e-5,0.97525 -7.2e-5,0.98886 v 0 l 7.2e-5,1.00477 -7.2e-5,1.02295 v 0 l 7.2e-5,1.043 -7.2e-5,1.06534 v 0 l -7.2e-5,1.08996 v 0 l 7.2e-5,1.11644 -7.2e-5,1.14523 v 0 l 7.2e-5,1.17627 -7.2e-5,1.20845 v 0 l 7.2e-5,1.23911 -7.2e-5,1.26827 v 0 l 7.2e-5,1.29514 7.2e-5,1.31976 -1.44e-4,1.34246 v 0 l 1.44e-4,1.36292 -7.2e-5,1.38146 v 0 1.39812 0 l 7.2e-5,1.41251 v 1.425 l -7.2e-5,1.43522 v 0 1.44355 0 l 7.2e-5,1.44962 -7.2e-5,1.45376 v 0 1.45567 l 1e-6,4e-5 h 8e-6 l 1.549444,-8e-5 1.546931,8e-5 v 0 h 1.542316 v 0 l 1.535182,-8e-5 1.525814,8e-5 v 0 h 1.51385 v 0 l 1.499865,-8e-5 1.483142,8e-5 v 0 h 1.464341 v 0 l 1.442991,-8e-5 h 1.41941 l 1.393335,8e-5 v 0 l 1.365144,-8e-5 1.334234,8e-5 v 0 l 1.301129,-8e-5 1.265833,8e-5 v 0 l 1.2288,-8e-5 1.193241,8e-5 v 0 l 1.160249,-8e-5 1.129527,8e-5 v 0 h 1.101147 v 0 l 1.075035,-8e-5 h 1.051454 l 1.030217,8e-5 v 0 h 1.011322 v 0 l 0.994731,-8e-5 h 0.980562 l 0.968732,8e-5 v 0 l 0.959362,-8e-5 0.952219,8e-5 v 0 l 0.947458,-8e-5 0.945152,8e-5 v 0 l 0.9515,-8e-5 0.992088,8e-5 v 0 l 1.073296,-8e-5 1.194979,8e-5 v 0 h 1.357511 v 0 l 1.560251,-8e-5 h 1.803955 l 2.087906,8e-5 v 0 h 2.41282 v 0 l 2.777979,-8e-5 h 3.183952 l 3.63032,8e-5 v 0 l 4.11751,-8e-5 4.645119,8e-5 v 0 l 5.213416,-8e-5 5.822254,8e-5 v 0 l 6.452571,-8e-5 v 0 l 7.0283,8e-5 v 0 l 7.53017,-8e-5 7.95828,8e-5 v 0 h 8.31268 v 0 l 8.59314,-8e-5 h 8.80007 l 8.93306,8e-5 v 0 h 8.99234 v 0 l 8.97777,-8e-5 h 8.8896 l 8.72748,8e-5 v 0 l 8.4917,-8e-5 8.18211,8e-5 v 0 l 7.79878,-8e-5 7.34164,8e-5 v 0 l 6.82857,-8e-5 6.33084,8e-5 v 0 l 5.86633,-8e-5 5.43492,8e-5 v 0 h 5.03691 v 0 l 4.67178,-8e-5 h 4.33998 l 4.04136,8e-5 v 0 h 3.77597 v 0 l 3.54362,-8e-5 h 3.3446 l 3.17862,8e-5 v 0 l 3.04599,-8e-5 2.94644,8e-5 v 0 l 2.88,-8e-5 2.84688,8e-5 v 0 l 2.84131,-8e-5 2.84131,8e-5 v 0 l 2.8414,-8e-5 2.84131,8e-5 v 0 h 2.84139 v 0 l 2.84132,-8e-5 h 2.84131 l 2.84139,8e-5 v 0 h 2.84132 v 0 l 2.84138,-8e-5 h 2.84132 l 2.84131,8e-5 v 0 l 2.84132,-8e-5 2.84139,8e-5 v 0 l 2.84131,-8e-5 2.84132,8e-5 v 0 l 2.84131,-8e-5 2.84139,8e-5 v 0 l 2.84132,-8e-5 2.84138,8e-5 v 0 h 2.84131 v 0 l 2.84133,-8e-5 h 2.84138 l 2.84131,8e-5 v 0 h 2.84132 v 0 l 2.84139,-8e-5 h 2.84139 l 2.8414,8e-5 v 0 l 2.84138,-8e-5 2.84139,8e-5 v 0 l 2.8414,-8e-5 2.84138,8e-5 v 0 l 2.84139,-8e-5 2.84139,8e-5 v 0 l 2.84139,-8e-5 2.84139,8e-5 v 0 h 2.84139 v 0 l 2.84139,-8e-5 h 2.84139 l 2.84139,8e-5 v 0 h 2.84139 v 0 l 2.84139,-8e-5 h 2.84139 l 2.84139,8e-5 v 0 l 2.84139,-8e-5 2.84139,8e-5 v 0 l 2.84139,-8e-5 2.84139,8e-5 v 0 l 2.84139,-8e-5 2.84139,8e-5 v 0 l 2.84139,-8e-5 2.84139,8e-5 v 0 h 2.84138 v 0 l 2.8414,-8e-5 h 2.84139 l 2.84138,8e-5 v 0 h 2.8414 v 0 l 2.84139,-8e-5 h 2.84138 l 2.8414,8e-5 v 0 l 2.84139,-8e-5 2.84138,8e-5 v 0 l 2.8414,-8e-5 2.84139,8e-5 v 0 l 2.84139,-8e-5 2.84139,8e-5 v 0 l 2.84139,-8e-5 2.84139,8e-5 v 0 h 2.84139 v 0 l 2.84139,-8e-5 h 2.84139 l 2.84139,8e-5 v 0 h 2.84139 v 0 l 2.84139,-8e-5 h 2.84138 l 2.8414,8e-5 v 0 l 2.84139,-8e-5 2.84138,8e-5 v 0 l 2.8414,-8e-5 2.84139,8e-5 v 0 l 2.84138,-8e-5 2.8414,8e-5 v 0 l 2.84139,-8e-5 2.84138,8e-5 v 0 h 2.8414 v 0 l 2.84139,-8e-5 h 2.84138 l 2.8414,8e-5 v 0 h 2.84139 v 0 l 2.84138,-8e-5 h 2.8414 l 2.84139,8e-5 v 0 l 2.84138,-8e-5 2.84139,8e-5 v 0 l 2.8414,-8e-5 2.84138,8e-5 v 0 l 2.85651,-8e-5 2.94758,8e-5 v 0 l 3.12972,-8e-5 3.40257,8e-5 v 0 h 3.76685 v 0 l 4.22173,-8e-5 h 4.76786 l 5.40502,8e-5 v 0 h 6.13312 v 0 l 6.95231,-8e-5 h 7.86245 l 8.86366,8e-5 v 0 l 9.95591,-8e-5 11.13908,8e-5 v 0 l 12.41343,-8e-5 13.7786,8e-5 v 0 l 15.18819,-8e-5 16.45505,8e-5 v 0 l 17.53242,-8e-5 18.42036,8e-5 v 0 l 19.11882,-8e-5 h 19.628 l 19.94752,8e-5 v 0 h 20.07773 l 20.01847,-8e-5 h 19.76979 l 19.33158,8e-5 v 0 h 18.70401 v 0 l 17.88696,-8e-5 16.88052,8e-5 v 0 l 15.68444,-8e-5 14.29916,8e-5 v 0 l 12.77231,-8e-5 11.29599,8e-5 v 0 l 9.91792,-8e-5 8.63833,8e-5 v 0 l 7.4573,-8e-5 h 6.3746 l 5.3903,8e-5 v 0 h 4.5044 v 0 l 3.717,-8e-5 h 3.028 l 2.4376,8e-5 v 0 h 1.9453 v 0 l 1.5517,-8e-5 1.2565,8e-5 v 0 l 1.0596,-8e-5 0.961,8e-5 v 0 l 0.9451,-8e-5 0.9474,8e-5 v 0 l 0.9519,-8e-5 0.9587,8e-5 v 0 l 0.9678,-8e-5 h 0.9791 l 0.9927,8e-5 v 0 h 1.0086 v 0 l 1.0267,-8e-5 h 1.0472 l 1.0698,8e-5 v 0 h 1.0948 v 0 l 1.122,-8e-5 1.1515,8e-5 v 0 l 1.1831,-8e-5 1.2172,8e-5 v 0 l 1.2527,-8e-5 1.2868,8e-5 v 0 l 1.3184,-8e-5 1.348,8e-5 v 0 l 1.3751,-8e-5 h 1.4005 l 1.4228,8e-5 v 0 h 1.4435 1.4617 v 0 l 1.4772,-8e-5 1.4912,8e-5 v 0 l 1.5021,-8e-5 1.5117,8e-5 v 0 l 1.5183,-8e-5 1.5229,8e-5 v 0 h 1.5252 v 0 -4e-5 -10.07503 l 10e-5,-1.39812 v 0 l -10e-5,-1.38146 v -2.70538 l 10e-5,-1.31976 v 0 l -10e-5,-1.29514 10e-5,-1.26827 v 0 l -10e-5,-1.23911 10e-5,-1.20845 v 0 l -10e-5,-1.17627 10e-5,-1.14523 v 0 l -10e-5,-1.11644 10e-5,-1.08996 v 0 l -10e-5,-1.06534 v -7.8988 l 10e-5,-0.94116 v 0 l -10e-5,-0.93814 10e-5,-0.937 v 0 l -10e-5,-0.94041 v 0 l 10e-5,-0.95669 v 0 l -10e-5,-0.98811 10e-5,-1.0343 v 0 l -10e-5,-1.09601 v -12.7954 l 10e-5,-2.32944 v 0 l -10e-5,-2.54183 10e-5,-2.76936 v 0 l -10e-5,-3.00636 2e-4,-3.2301 v 0 l 3e-4,-3.43379 7e-4,-3.61853 9e-4,-3.78359 v -3.92946 -4.05592 -4.16291 -4.25062 -4.31887 l 0.01,-4.36772 0.01,-4.39728 0.01,-4.40747 0.01,-4.39816 0.01,-4.3695 0.012,-4.32153 0.013,-4.25796 0.014,-4.19482 0.015,-4.13587 0.016,-4.08109 0.016,-4.03051 0.016,-3.98409 v 0 l 0.016,-3.94207 v 0 l 0.016,-3.90411 v 0 l 0.015,-3.87044 v 0 l 0.014,-3.84099 v 0 l 0.012,-3.81554 v 0 l 0.011,-3.79462 v 0 l 0.01,-3.77792 v 0 l 0.01,-3.76504 v 0 -3.75672 0 -3.75255 0 -3.75179 0 -3.75179 0 l -0.01,-3.7518 v 0 l -0.01,-3.7518 v 0 l -0.01,-3.75179 v 0 l -0.011,-3.7518 v 0 l -0.012,-3.75179 v -3e-5 l -0.012,-3.7518 v 0 l -0.012,-3.7518 -0.012,-3.75179 -0.011,-3.7518 -0.01,-3.75179 -0.01,-3.7518 -0.01,-3.75179 v -3.75179 -3.7518 -3.75179 -3.7518 l 0.01,-3.75179 0.01,-3.7518 0.011,-3.75179 0.012,-3.7518 0.014,-3.75179 0.015,-3.75179 0.015,-3.7518 0.016,-3.75179 0.016,-3.7518 v 0 l 0.016,-3.7518 v 0 l 0.016,-3.75179 v 0 l 0.015,-3.75179 v 0 l 0.014,-3.75179 v 0 l 0.013,-3.7518 v 0 l 0.012,-3.75179 v 0 l 0.01,-3.7518 v 0 l 0.01,-3.7518 v 0 l 0.01,-3.75179 v 0 l 0.01,-3.7518 v 0 l 0.01,-3.75178 v 0 -3.7518 0 -3.7518 0 -3.75179 0 -3.7518 0 -3.75179 0 l 9e-4,-3.7518 v 0 l 7e-4,-3.75179 v 0 l 4e-4,-3.75179 v 0 -3.7518 -3.75179 0 -3.75445 l -10e-5,-3.77147 v 0 l -3e-4,-3.80553 v 0 l -7e-4,-3.85636 v 0 l -9e-4,-3.92424 v 0 -4.00908 0 -4.11092 0 -4.22968 0 -4.36545 0 -4.51809 0 l -0.01,-4.68785 v 0 l -0.01,-4.8745 v 0 l -0.01,-5.07809 v 0 l -0.01,-5.2987 v 0 l -0.01,-5.53623 v 0 l -0.011,-5.79078 v 0 l -0.013,-6.06091 v 0 l -0.014,-6.34103 v 0 l -0.015,-6.62988 v 0 l -0.016,-6.92735 v 0 l -0.017,-7.23357 -0.018,-7.54842 v 0 l -0.018,-7.87184 -0.018,-8.20409 -0.018,-8.54489 -0.018,-8.8944 -0.018,-9.25259 -0.017,-9.61944 -0.016,-9.99494 -0.015,-10.37916 -0.014,-10.77196 -0.013,-11.17353 -0.011,-11.56905 -0.01,-11.90008 -0.01,-12.15184 -0.01,-12.32437 -0.01,-12.41783 -0.01,-12.43201 v -12.367 -12.22275 -11.99934 -11.69678 -11.31492 -10.85391 l -5e-4,-10.31376 -3e-4,-9.69425 -2e-4,-8.99571 10e-5,-8.21793 v 0 l -10e-5,-7.382971 v -38.46269 l 10e-5,-1.486407 v 0 l -10e-5,-1.27118 10e-5,-1.1096 v 0 l -10e-5,-1.001513 10e-5,-0.946846 v 0 l -10e-5,-0.937154 10e-5,-0.937721 v 0 l -10e-5,-0.940145 v -7.82089 l 10e-5,-1.041719 v 0 l -10e-5,-1.061822 10e-5,-1.08378 v 0 l -10e-5,-1.10748 10e-5,-1.132921 v 0 l -10e-5,-1.159611 10e-5,-1.185166 v 0 l -10e-5,-1.208941 10e-5,-1.231126 v 0 l -10e-5,-1.251532 v -2.557618 l 10e-5,-1.302679 v 0 -1.316347 0 l -10e-5,-1.328158 v -8.124229 -7e-6 -4e-6 l -1.5252,3.8e-5 -1.5229,-3.8e-5 v 0 l -1.5183,7.2e-5 -1.5117,-3.4e-5 v 0 h -1.5021 l -1.4912,-3.8e-5 v 0 l -1.4772,3.8e-5 h -1.4617 v 0 l -1.4435,3.4e-5 -1.4228,-3.4e-5 v 0 l -1.4005,3.4e-5 -1.3751,-3.4e-5 -1.348,-3.8e-5 v 0 h -1.3184 -4.9403 v 0 l -1.1515,3.8e-5 v 0 l -1.122,3.4e-5 h -1.0948 l -1.0698,-3.4e-5 v 0 l -1.0472,3.4e-5 -1.0267,-3.4e-5 v 0 l -1.0086,3.4e-5 -0.9927,-3.4e-5 v 0 l -0.9791,3.4e-5 -0.9678,-3.4e-5 v 0 h -0.9587 l -0.9519,-3.8e-5 v 0 h -0.9474 -2.9657 v 0 l -1.2565,3.8e-5 -1.5516,3.4e-5 h -1.9454 l -2.4375,-3.4e-5 v 0 l -3.0281,3.4e-5 -3.717,-3.4e-5 v 0 l -4.5044,3.4e-5 -5.3903,-3.4e-5 v 0 l -6.3746,3.4e-5 -7.4573,-3.4e-5 v 0 h -8.63832 l -9.91793,-3.8e-5 v 0 h -11.29598 -42.75592 v 0 l -16.88051,3.8e-5 -17.88696,3.4e-5 h -18.70402 l -19.33158,-3.4e-5 v 0 l -19.76978,3.4e-5 -20.01848,-3.4e-5 v 0 l -20.07772,3.4e-5 -19.94752,-3.4e-5 v 0 l -19.628,3.4e-5 -19.11883,-3.4e-5 v 0 H 722.744 l -17.53242,-3.8e-5 v 0 h -16.45715 -41.38015 v 0 l -11.13916,3.8e-5 h -9.9559 v 0 l -8.86367,3.4e-5 -7.86244,-3.4e-5 v 0 l -6.95232,3.4e-5 -6.13311,-3.4e-5 v 0 l -5.40503,3.4e-5 -4.76785,-3.4e-5 v 0 l -4.22173,3.4e-5 h -3.76686 l -3.40256,-3.4e-5 -3.12972,-3.8e-5 v 0 h -2.94759 -8.5391 v 0 l -2.84138,3.8e-5 h -2.84139 v 0 l -2.84139,3.4e-5 -2.84139,-3.4e-5 v 0 l -2.84139,3.4e-5 -2.84139,-3.4e-5 v 0 l -2.84139,3.4e-5 -2.84139,-3.4e-5 v 0 l -2.84139,3.4e-5 h -2.84139 l -2.84139,-3.4e-5 -2.84139,-3.8e-5 v 0 h -2.84139 -8.52398 v 0 l -2.84139,3.8e-5 h -2.84139 v 0 l -2.84139,3.4e-5 -2.84139,-3.4e-5 v 0 l -2.84139,3.4e-5 -2.84138,-3.4e-5 v 0 l -2.8414,3.4e-5 -2.84139,-3.4e-5 v 0 l -2.84138,3.4e-5 h -2.8414 l -2.84139,-3.4e-5 v 0 l -2.84139,-3.8e-5 v 0 h -2.84139 -8.52402 v 0 l -2.84139,3.8e-5 h -2.84138 v 0 l -2.8414,3.4e-5 -2.84139,-3.4e-5 v 0 l -2.84138,3.4e-5 -2.8414,-3.4e-5 v 0 l -2.84139,3.4e-5 -2.84139,-3.4e-5 v 0 l -2.84139,3.4e-5 h -2.84139 l -2.84139,-3.4e-5 -2.84138,-3.8e-5 v 0 h -2.8414 -8.52398 v 0 l -2.84139,3.8e-5 h -2.84138 v 0 l -2.8414,3.4e-5 -2.84139,-3.4e-5 v 0 l -2.84138,3.4e-5 -2.8414,-3.4e-5 v 0 l -2.84139,3.4e-5 -2.84138,-3.4e-5 v 0 l -2.8414,3.4e-5 h -2.84139 l -2.84138,-3.4e-5 -2.8414,-3.8e-5 v 0 h -2.84139 -8.52394 v 0 l -2.84139,3.8e-5 h -2.84139 v 0 l -2.84139,3.4e-5 -2.84139,-3.4e-5 v 0 l -2.84139,3.4e-5 -2.84132,-3.4e-5 v 0 l -2.84131,3.4e-5 -2.84138,-3.4e-5 v 0 l -2.84133,3.4e-5 h -2.84131 l -2.84138,-3.4e-5 -2.84132,-3.8e-5 v 0 h -2.84139 -8.52462 v 0 l -2.84138,3.8e-5 h -2.84133 v 0 l -2.84131,3.4e-5 -2.84138,-3.4e-5 v 0 l -2.84131,3.4e-5 -2.8414,-3.4e-5 v 0 l -2.84131,3.4e-5 -2.84131,-3.4e-5 v 0 l -2.84133,3.4e-5 h -2.84138 l -2.84131,-3.4e-5 v 0 l -2.8414,-3.8e-5 v 0 h -2.84131 -8.56799 v 0 l -2.94644,3.8e-5 h -3.04599 v 0 l -3.17865,3.4e-5 -3.3446,-3.4e-5 v 0 l -3.54363,3.4e-5 -3.77596,-3.4e-5 v 0 l -4.04132,3.4e-5 -4.34002,-3.4e-5 v 0 l -4.67178,3.4e-5 h -5.0368 l -5.43496,-3.4e-5 v 0 l -5.86637,-3.8e-5 v 0 h -6.33083 -21.96897 v 0 l -8.18212,3.8e-5 h -8.49169 v 0 l -8.72749,3.4e-5 -8.88955,-3.4e-5 v 0 l -8.97782,3.4e-5 -8.99234,-3.4e-5 v 0 l -8.93305,3.4e-5 -8.80004,-3.4e-5 v 0 l -8.59317,3.4e-5 h -8.31269 l -7.95828,-3.4e-5 -7.53017,-3.8e-5 H 83.040024 v 0 l -4.645119,3.8e-5 h -4.11751 v 0 l -3.63032,3.4e-5 -3.183952,-3.4e-5 v 0 l -2.777979,3.4e-5 -2.41282,-3.4e-5 v 0 l -2.087906,3.4e-5 -1.803955,-3.4e-5 v 0 l -1.560251,3.4e-5 h -1.357511 l -1.194979,-3.4e-5 v 0 l -1.073297,-3.8e-5 v 0 h -0.992087 -2.84411 v 0 l -0.952219,3.8e-5 h -0.959362 v 0 l -0.968732,3.4e-5 -0.980562,-3.4e-5 v 0 l -0.994731,3.4e-5 -1.011322,-3.4e-5 v 0 l -1.030217,3.4e-5 -1.051454,-3.4e-5 v 0 l -1.075035,3.4e-5 h -1.10126 l -1.129451,-3.4e-5 v 0 l -1.160175,-3.8e-5 v 0 h -1.19324 -5.130022 v 0 l -1.365144,3.8e-5 -1.393335,3.4e-5 -1.419411,-3.4e-5 v 0 l -1.442991,3.4e-5 -1.464341,-3.4e-5 v 0 l -1.483214,-3.8e-5 v 0 l -1.499721,7.2e-5 -1.513922,-3.4e-5 v 0 h -1.525814 -3.07743 l -1.547075,-3.8e-5 v 0 h -1.549371 l -9e-6,4e-6 -1e-6,7e-6 v 5.438895 0 l 7.2e-5,1.346935 v 1.338418 l -7.2e-5,1.328234 v 0 1.316233 0 l 7.2e-5,1.302716 -1.44e-4,1.287271 v 0 l 1.44e-4,1.270348 -7.2e-5,1.251607 v 0 0 l -7.2e-5,1.231051 v 0 l 7.2e-5,1.208979 -7.2e-5,1.185166 v 0 l 7.2e-5,1.159611 -7.2e-5,1.13292 v 0 l 7.2e-5,1.10748 -7.2e-5,1.08378 v 0 l 7.2e-5,1.061823 v 0 l 7.2e-5,1.041681 -7.2e-5,1.023283 v 0 l 7.2e-5,1.006775 -7.2e-5,0.991821 v 0 l 7.2e-5,0.978836 -7.2e-5,0.967516 v 0 l 7.2e-5,0.95809 -7.2e-5,0.950253 -7.2e-5,0.944346 v 0 l 7.2e-5,0.940145 -7.2e-5,0.937759 v 0 l 7.2e-5,0.937116 -7.2e-5,0.946884 v 0 l 7.2e-5,1.001437 -7.2e-5,1.109638 v 0 l 7.2e-5,1.271218 7.2e-5,1.486369 -7.2e-5,1.754864 v 0 l 7.2e-5,2.07704 -7.2e-5,2.452523 v 0 2.881726 0 l 7.2e-5,3.364197 -7.2e-5,3.900299 v 0 l -7.2e-5,4.489854 v 0 l 7.2e-5,5.132883 7.2e-5,5.829451 -7.2e-5,6.579459 v 0 7.382934 8.217942 0 l 7.2e-5,8.9957 -7.2e-5,9.69429 v 0 l -7.2e-5,10.31371 v 0 l 7.2e-5,10.85392 7.2e-5,11.31496 -7.2e-5,11.69674 v 0 11.99934 0 l 7.2e-5,12.22279 -7.2e-5,12.36696 v 0 l 7.2e-5,12.43201 -7.2e-5,12.4178 z M 1044.3399,829.53751 v 0 l -0.4716,-0.0363 v 0 l -0.4698,-0.0606 v 0 l -0.4663,-0.0833 v 0 l -0.4622,-0.106 v 0 l -0.4565,-0.12872 v -4e-5 l -0.4501,-0.15144 v 0 l -0.4425,-0.17036 v 0 l -0.4338,-0.19307 v 0 l -0.4244,-0.21201 v 0 l -0.4134,-0.23473 v 0 l -0.4013,-0.25365 v -4e-5 l -0.3885,-0.27258 v 0 l -0.3742,-0.29151 v -4e-5 l -0.359,-0.31044 v -4e-5 l -0.3439,-0.32559 v -4e-5 l -0.325,-0.34451 v -4e-5 l -0.3099,-0.35965 v 0 l -0.291,-0.3748 v -4e-5 l -0.272,-0.38919 v -4e-5 l -0.2532,-0.40205 v 0 l -0.2305,-0.41417 v 0 l -0.2117,-0.42478 v -4e-5 l -0.1928,-0.43462 v 0 l -0.17,-0.44332 v 0 l -0.1512,-0.4509 v -4e-5 l -0.1285,-0.45733 v -3e-5 l -0.1058,-0.46302 v -3e-5 l -0.083,-0.46718 v 0 l -0.061,-0.47058 v 0 l -0.036,-0.47286 v -4e-5 l -0.012,-0.47361 v -4e-5 l 0.012,-0.47399 v 0 l 0.036,-0.47247 v -4e-5 l 0.061,-0.47058 v -4e-5 l 0.083,-0.46718 v 0 l 0.1058,-0.46301 v 0 l 0.1285,-0.45734 v 0 l 0.1512,-0.45089 v -4e-5 l 0.17,-0.44333 v -4e-5 l 0.1928,-0.43461 v -4e-5 l 0.2117,-0.42477 v -4e-5 l 0.2343,-0.41417 v 0 l 0.2531,-0.40207 v 0 l 0.2721,-0.38918 v -4e-5 l 0.291,-0.3748 v -4e-5 l 0.3099,-0.35966 v -4e-5 l 0.325,-0.34451 v 0 l 0.3439,-0.32558 v 0 l 0.359,-0.31044 v 0 l 0.3741,-0.29152 10e-5,-3e-5 0.3884,-0.27259 v 0 l 0.4014,-0.25365 v 0 l 0.4134,-0.23472 v 0 l 0.424,-0.21201 v 0 l 0.4338,-0.19307 v 0 l 0.4426,-0.17038 v 0 l 0.45,-0.15142 v 0 l 0.4565,-0.12873 v -3e-5 l 0.4622,-0.106 v 0 l 0.4663,-0.0833 v 0 l 0.4697,-0.0606 v 0 l 0.4716,-0.0365 h 10e-5 l 0.4731,-0.0121 v 0 l 0.4728,0.0121 v 0 l 0.472,0.0365 v 0 l 0.4697,0.0606 h 10e-5 l 0.4663,0.0833 v 0 l 0.4621,0.106 v 3e-5 l 0.4565,0.12873 v 0 l 0.4501,0.15142 v 0 l 0.4426,0.17038 v 0 l 0.4338,0.19307 h 1e-4 l 0.4243,0.21201 h 10e-5 l 0.4134,0.23472 v 0 l 0.4017,0.25365 v 0 l 0.3885,0.27259 v 3e-5 l 0.3741,0.29152 v 0 l 0.359,0.31044 v 0 l 0.3439,0.32558 h 10e-5 l 0.3249,0.34451 v 4e-5 l 0.3099,0.35966 v 4e-5 l 0.291,0.3748 v 4e-5 l 0.2721,0.38918 v 0 l 0.2532,0.40207 v 0 l 0.2343,0.41417 v 4e-5 l 0.2116,0.42477 v 4e-5 l 0.1927,0.43461 v 4e-5 l 0.1701,0.44333 v 4e-5 l 0.1512,0.45089 v 0 l 0.1284,0.45734 h 1e-4 l 0.1058,0.46301 v 0 l 0.083,0.46718 v 4e-5 l 0.061,0.47058 v 4e-5 l 0.036,0.47247 v 0 l 0.012,0.47399 v 4e-5 l -0.012,0.47361 v 4e-5 l -0.036,0.47286 v 0 l -0.061,0.47058 v 0 l -0.083,0.46718 v 3e-5 l -0.1058,0.46302 -1e-4,3e-5 -0.1284,0.45733 v 4e-5 l -0.1512,0.4509 v 0 l -0.1701,0.44332 v 0 l -0.1927,0.43462 v 4e-5 l -0.2116,0.42478 v 0 l -0.2343,0.41417 v 0 l -0.2532,0.40205 v 4e-5 l -0.2721,0.38919 v 4e-5 l -0.291,0.3748 v 0 l -0.3099,0.35965 v 4e-5 l -0.325,0.34451 v 4e-5 l -0.3439,0.32559 v 4e-5 l -0.359,0.31044 v 4e-5 l -0.3741,0.29151 h -10e-5 l -0.3885,0.27258 v 4e-5 l -0.4013,0.25365 v 0 l -0.4134,0.23473 v 0 l -0.424,0.21201 h -10e-5 l -0.4338,0.19307 v 0 l -0.4425,0.17036 h -10e-5 l -0.45,0.15144 v 4e-5 l -0.4565,0.12872 v 0 l -0.4622,0.106 v 0 l -0.4663,0.0833 h -10e-5 l -0.4697,0.0606 v 0 l -0.472,0.0363 v 0 l -0.4728,0.0121 v 0 z m -8.2491,-777.457759 v -1.5e-5 l -0.1929,-0.434693 v -1.9e-5 l -0.17,-0.443363 v -1.9e-5 l -0.1512,-0.451049 v -1.5e-5 l -0.1285,-0.457408 v -1.9e-5 l -0.1058,-0.462973 v -2e-5 l -0.083,-0.467251 v -1.9e-5 l -0.061,-0.470508 v -1.8e-5 l -0.036,-0.472666 v -1.9e-5 l -0.012,-0.473726 v -1.9e-5 l 0.012,-0.473801 v -1.9e-5 l 0.036,-0.472665 v -1.9e-5 l 0.061,-0.47047 v -1.9e-5 l 0.083,-0.46729 v -1.8e-5 l 0.1058,-0.46286 v -1.9e-5 l 0.1285,-0.457523 v -1.9e-5 l 0.1512,-0.450934 v -1.9e-5 l 0.17,-0.443439 v -1.5e-5 l 0.1929,-0.434656 v -1.5e-5 l 0.2116,-0.425 v -1.7e-5 l 0.2305,-0.414021 v -1.5e-5 l 0.2532,-0.402211 v -1.9e-5 l 0.2721,-0.38915 v -1.5e-5 l 0.2909,-0.375179 v -1.5e-5 l 0.3099,-0.359657 v -1.1e-5 l 0.325,-0.343757 v -1.5e-5 l 0.3439,-0.326343 10e-5,-1.1e-5 0.359,-0.308548 v -1.1e-5 l 0.3741,-0.290376 v -1.2e-5 l 0.3885,-0.271825 v -1.1e-5 l 0.4013,-0.252518 v -1.1e-5 l 0.4134,-0.232831 v -8e-6 l 0.424,-0.212765 10e-5,-8e-6 0.4338,-0.192322 v -7e-6 l 0.4425,-0.171501 v -7e-6 l 0.4501,-0.14992 v -4e-6 l 0.4565,-0.127962 v -8e-6 l 0.4621,-0.106004 v -4e-6 l 0.4663,-0.08329 10e-5,-4e-6 0.4697,-0.05982 v 0 l 0.4716,-0.03629 h 10e-5 l 0.4727,-0.01217 v 0 l 0.4728,0.01217 v 0 l 0.472,0.03629 v 0 l 0.4697,0.05982 10e-5,4e-6 0.4663,0.08329 v 4e-6 l 0.4621,0.106004 v 4e-6 l 0.4565,0.127963 v 3e-6 l 0.4501,0.14992 v 8e-6 l 0.4426,0.1715 v 8e-6 l 0.4338,0.192321 10e-5,8e-6 0.424,0.212766 v 7e-6 l 0.4134,0.232831 v 1.2e-5 l 0.4013,0.252517 v 1.1e-5 l 0.3885,0.271447 v 1.1e-5 l 0.3742,0.290376 v 1.1e-5 l 0.359,0.308549 v 1.1e-5 l 0.3439,0.326342 v 1.1e-5 l 0.325,0.343757 v 1.5e-5 l 0.3099,0.360036 v 1.5e-5 l 0.2909,0.375179 1e-4,1.5e-5 0.2721,0.389151 v 1.5e-5 l 0.2532,0.40221 v 1.5e-5 l 0.2342,0.414022 v 1.6e-5 l 0.2117,0.424963 v 1.9e-5 l 0.1927,0.434693 v 1.5e-5 l 0.17,0.443402 10e-5,1.8e-5 0.1511,0.450973 v 1.5e-5 l 0.1285,0.457522 10e-5,1.9e-5 0.1058,0.462898 v 1.9e-5 l 0.083,0.467251 v 1.9e-5 l 0.061,0.47047 v 1.9e-5 l 0.036,0.472666 v 2.2e-5 l 0.012,0.473764 v 1.8e-5 l -0.012,0.473765 v 1.9e-5 l -0.036,0.472703 v 1.8e-5 l -0.061,0.47047 v 1.9e-5 l -0.083,0.467251 v 2e-5 l -0.1058,0.462936 v 1.9e-5 l -0.1285,0.457446 v 1.5e-5 l -0.1512,0.45101 v 1.6e-5 l -0.1701,0.443362 v 1.5e-5 l -0.1927,0.434732 v 1.5e-5 l -0.2116,0.424926 v 1.9e-5 l -0.2343,0.414098 v 1.5e-5 l -0.2532,0.40221 v 1.5e-5 l -0.2721,0.389112 v 1.5e-5 l -0.291,0.37518 v 1.5e-5 l -0.3098,0.360036 v 1.5e-5 l -0.325,0.343757 -10e-5,1.1e-5 -0.3438,0.326342 -10e-5,1.5e-5 -0.359,0.308548 v 1.1e-5 l -0.3741,0.290376 v 1.2e-5 l -0.3885,0.271825 v 8e-6 l -0.4017,0.252517 v 7e-6 l -0.4134,0.232831 v 8e-6 l -0.4244,0.212766 -10e-5,7e-6 -0.4338,0.192323 v 7e-6 l -0.4425,0.1715 -10e-5,7e-6 -0.45,0.149921 v 7e-6 l -0.4565,0.128341 v 4e-6 l -0.4622,0.106004 v 4e-6 l -0.4663,0.08329 -10e-5,4e-6 -0.4697,0.05982 v 4e-6 l -0.4716,0.03625 -10e-5,4e-6 -0.4727,0.01216 v 0 l -0.4728,-0.0122 v 0 l -0.472,-0.03629 v -4e-6 l -0.4697,-0.05982 v -4e-6 l -0.4664,-0.08329 v -4e-6 l -0.4621,-0.106004 v -4e-6 l -0.4565,-0.12834 v -4e-6 l -0.4501,-0.149921 v -3e-6 l -0.4425,-0.171501 v -8e-6 l -0.4338,-0.192321 -10e-5,-1.1e-5 -0.424,-0.212766 v -8e-6 l -0.4134,-0.232831 v -8e-6 l -0.4013,-0.252512 v -8e-6 l -0.3885,-0.271447 v -1.1e-5 l -0.3741,-0.290376 v -1.5e-5 l -0.359,-0.308549 v -1.5e-5 l -0.3439,-0.326342 -10e-5,-1.5e-5 -0.325,-0.343378 v -1.5e-5 l -0.3098,-0.360036 v -1.5e-5 l -0.291,-0.37518 v -1.5e-5 l -0.2721,-0.389187 v -1.5e-5 l -0.2532,-0.402173 v -1.5e-5 l -0.2305,-0.414136 v -1.5e-5 z M 928.30332,733.85169 v -4e-5 l -0.26452,-0.18172 v -4e-5 l -0.25319,-0.19308 h -4e-5 l -0.23807,-0.20822 v -4e-5 l -0.22674,-0.22337 v 0 l -0.21162,-0.24608 v -4e-5 l -0.20029,-0.26879 v 0 l -0.18894,-0.29909 v 0 l -0.17761,-0.33315 v -4e-5 l -0.16628,-0.37102 v -3e-5 l -0.15493,-0.41114 v 0 l -0.1436,-0.45621 v 0 l -0.13227,-0.50504 v 0 l -0.12092,-0.55765 v 0 l -0.10959,-0.61444 v -4e-5 l -0.0983,-0.67464 v -4e-5 l -0.0907,-0.73938 v 0 l -0.0793,-0.80752 v 0 l -0.0718,-0.8787 v 0 l -0.0605,-0.94723 v 0 l -0.0529,-1.01197 v 0 l -0.0453,-1.07328 v 0 l -0.0378,-1.13046 v 0 l -0.0326,-1.18422 v 0 l -0.0268,-1.2342 v 0 l -0.0213,-1.28038 v 0 l -0.0167,-1.32316 v 0 l -0.0125,-1.36177 v 0 l -0.009,-1.39661 v 0 l -0.006,-1.42803 v 0 l -0.004,-1.45567 v 0 l -0.002,-1.47952 -7.1e-4,-1.49958 -8e-5,-1.51586 1.5e-4,-1.52836 5.7e-4,-1.53478 0.002,-1.53517 v 0 l 0.004,-1.52987 v 0 l 0.006,-1.51814 v 0 l 0.009,-1.49996 v 0 l 0.0125,-1.4761 v 0 l 0.0167,-1.4462 v 0 l 0.0213,-1.41024 v 0 l 0.0268,-1.36783 v 0 l 0.0326,-1.31938 v 0 l 0.0378,-1.26486 v 0 l 0.0453,-1.20428 v 0 l 0.0529,-1.13765 v 0 l 0.0605,-1.06497 v 0 l 0.0718,-0.98622 v 0 l 0.0794,-0.90293 v -4e-5 l 0.0907,-0.82266 v 0 l 0.0983,-0.74695 v 0 l 0.10958,-0.67616 v -4e-5 l 0.12093,-0.6099 v 0 l 0.13226,-0.54858 v 0 l 0.1436,-0.49178 v 0 l 0.15494,-0.43991 v -4e-5 l 0.16627,-0.3926 v -3e-5 l 0.17761,-0.34831 v 0 l 0.18895,-0.31044 3e-5,-4e-5 0.2003,-0.28015 v 0 l 0.21162,-0.24987 v 0 l 0.22673,-0.22715 v -4e-5 l 0.23808,-0.20822 v -4e-5 l 0.25318,-0.19307 h 4e-5 l 0.26453,-0.18173 v 0 l 0.27586,-0.17415 h 4e-5 l 0.2872,-0.16279 v 0 l 0.29854,-0.15143 v 0 l 0.30987,-0.14008 h 4e-5 l 0.31743,-0.12872 v 0 l 0.32877,-0.11737 v 0 l 0.33632,-0.106 h 4e-5 l 0.3401,-0.0947 v -4e-5 l 0.34767,-0.0832 v 0 l 0.35145,-0.0719 v 0 l 0.35522,-0.0606 v 0 l 0.35899,-0.0454 v 0 l 0.36278,-0.0336 v 0 l 0.36278,-0.0203 h 4e-5 l 0.36655,-0.007 v 0 l 0.36657,0.007 h 4e-5 l 0.36277,0.0203 v 0 l 0.36278,0.0336 v 0 l 0.359,0.0454 v 0 l 0.35522,0.0606 v 0 l 0.35144,0.0719 v 0 l 0.34767,0.0832 v 4e-5 l 0.3401,0.0947 4e-5,4e-5 0.33633,0.106 v 0 l 0.32876,0.11737 v 0 l 0.31743,0.12871 h 4e-5 l 0.30987,0.14008 v 0 l 0.29854,0.15144 v 0 l 0.29099,0.16278 h 3e-5 l 0.27587,0.17416 v 0 l 0.26452,0.18172 h 4e-5 l 0.25319,0.19308 v 4e-5 l 0.23807,0.20822 4e-5,4e-5 0.22673,0.22715 v 0 l 0.21162,0.24987 h 4e-5 l 0.20028,0.28015 4e-5,4e-5 0.18895,0.31044 v 0 l 0.17762,0.3483 v 0 l 0.16627,0.3926 v 4e-5 l 0.15494,0.43953 v 0 l 0.1436,0.49178 v 0 l 0.13226,0.54858 v 0 l 0.12092,0.61028 v 0 l 0.10959,0.67616 v 4e-5 l 0.0983,0.74695 v 0 l 0.0907,0.82266 v 4e-5 l 0.0794,0.90293 v 0 l 0.0718,0.98622 v 0 l 0.0605,1.06497 v 0 l 0.0529,1.13765 v 0 l 0.0453,1.20428 v 0 l 0.0378,1.26486 v 0 l 0.0326,1.31938 v 0 l 0.0267,1.36783 v 0 l 0.0214,1.40986 v 0 l 0.0167,1.4462 v 0 l 0.0126,1.47611 v 0 l 0.009,1.50033 v 0 l 0.006,1.51814 v 0 l 0.004,1.52987 v 0 l 0.002,1.53554 6.5e-4,1.53479 7e-5,1.52836 -7e-5,1.51586 -6.5e-4,1.49958 -0.002,1.47952 v 0 l -0.004,1.45567 v 0 l -0.006,1.42803 v 0 l -0.009,1.39661 v 0 l -0.0125,1.36177 v 0 l -0.0167,1.32316 v 0 l -0.0213,1.28038 v 0 l -0.0267,1.2342 v 0 l -0.0326,1.18459 v 0 l -0.0378,1.13046 v 0 l -0.0453,1.0733 v 0 l -0.0529,1.01196 v 0 l -0.0605,0.94722 v 0 l -0.0718,0.8787 v 0 l -0.0794,0.80753 v 0 l -0.0907,0.73937 v 0 l -0.0983,0.67503 v 3e-5 l -0.10959,0.61407 v 0 l -0.12092,0.55766 v 0 l -0.13226,0.50503 v 0 l -0.1436,0.4562 v 0 l -0.15494,0.41114 v 0 l -0.16627,0.37102 v 4e-5 l -0.17762,0.33315 v 0 l -0.18895,0.29909 h -4e-5 l -0.20028,0.26879 -4e-5,4e-5 -0.21162,0.24608 v 0 l -0.22673,0.22337 -4e-5,4e-5 -0.23807,0.20822 v 0 l -0.25319,0.19308 -4e-5,4e-5 -0.26452,0.18172 v 4e-5 l -0.27587,0.17415 h -3e-5 l -0.28721,0.16279 v 0 l -0.29854,0.15144 v 0 l -0.30987,0.14007 -4e-5,4e-5 -0.31743,0.12872 v 0 l -0.32877,0.11736 v 0 l -0.33632,0.10601 h -4e-5 l -0.3401,0.0947 v 0 l -0.34767,0.0833 v 3e-5 l -0.35144,0.0719 h -4e-5 l -0.35522,0.0606 v 0 l -0.359,0.0454 v 0 l -0.36278,0.0336 v 0 l -0.36277,0.0202 h -4e-5 l -0.36657,0.007 v 0 l -0.36655,-0.007 h -4e-5 l -0.36278,-0.0202 v 0 l -0.36278,-0.0336 v 0 l -0.35899,-0.0454 v 0 l -0.35522,-0.0606 v 0 l -0.35145,-0.0719 v -3e-5 l -0.34766,-0.0833 v 0 l -0.34011,-0.0947 h -4e-5 l -0.33632,-0.10601 h -4e-5 l -0.32877,-0.11736 h -3e-5 l -0.31743,-0.12872 v -4e-5 l -0.30988,-0.14007 v 0 l -0.29854,-0.15144 v 0 l -0.29098,-0.16279 h -4e-5 z M 435.34606,588.19229 v 0 l -0.57327,0.0757 v 0 l -0.57402,0.0681 v 0 l -0.57516,0.0606 v 0 l -0.5759,0.053 h -4e-5 l -0.57668,0.0454 v 0 l -0.57704,0.0366 h -4e-5 l -0.57742,0.0285 v 0 l -0.57781,0.0203 v 0 l -0.57817,0.0123 v 0 l -0.57818,0.004 v 0 l -0.57817,-0.004 v 0 l -0.57819,-0.0123 v 0 l -0.5778,-0.0203 v 0 l -0.57742,-0.0285 h -4e-5 l -0.57704,-0.0366 h -4e-5 l -0.57667,-0.0454 v 0 l -0.57591,-0.053 v 0 l -0.57515,-0.0606 v 0 l -0.57441,-0.0681 v 0 l -0.57326,-0.0757 v 0 l -0.57213,-0.0833 h -4e-5 l -0.571,-0.0947 v 0 l -0.56949,-0.10222 v 0 l -0.56798,-0.10979 v 0 l -0.56646,-0.11736 h -4e-5 l -0.56457,-0.12493 v 0 l -0.56269,-0.13251 v 0 l -0.56079,-0.14007 v 0 l -0.55891,-0.14765 h -3e-5 l -0.55664,-0.15523 v 0 l -0.55438,-0.16279 v 0 l -0.5521,-0.17036 v 0 l -0.54983,-0.17794 v 0 l -0.54719,-0.18929 v 0 l -0.54456,-0.19686 v 0 l -0.5419,-0.20444 v 0 l -0.53887,-0.21201 v 0 l -0.53585,-0.21958 v -4e-5 l -0.53284,-0.22716 v 0 l -0.52943,-0.23472 v 0 l -0.52641,-0.2385 v 0 l -0.52262,-0.24608 v 0 l -0.51924,-0.25366 v 0 l -0.51544,-0.26123 v 0 l -0.51205,-0.26879 v -4e-5 l -0.50826,-0.27637 v 0 l -0.50412,-0.28386 v 0 l -0.50033,-0.29151 v 0 l -0.49618,-0.29908 v 0 l -0.49163,-0.30666 v 0 l -0.48749,-0.31044 h -3e-5 l -0.48296,-0.31801 v 0 l -0.47879,-0.32559 v 0 l -0.47426,-0.33315 v 0 l -0.46934,-0.33695 v 0 l -0.46444,-0.34451 h -4e-5 l -0.45952,-0.35208 v 0 l -0.4546,-0.35966 v 0 l -0.44969,-0.36345 v 0 l -0.44441,-0.37101 v 0 l -0.43912,-0.37858 v -4e-5 l -0.43382,-0.38314 v 0 l -0.42853,-0.38918 v 0 l -0.42324,-0.39524 v 0 l -0.41719,-0.40093 v 0 l -0.41192,-0.4066 v 0 l -0.40623,-0.41266 v 0 l -0.40019,-0.41834 v 0 l -0.39452,-0.42364 v 0 l -0.38847,-0.42932 v 0 l -0.38244,-0.43462 v 0 l -0.37789,-0.43991 v 0 l -0.37034,-0.44522 v 0 l -0.36278,-0.45051 v -4e-5 l -0.35899,-0.45545 v 0 l -0.35144,-0.46035 v 0 l -0.3439,-0.46528 v 0 l -0.33632,-0.47022 v 0 l -0.33255,-0.47474 v 0 l -0.32499,-0.47968 v 0 l -0.31743,-0.48382 v 0 l -0.30987,-0.48838 v -4e-5 l -0.30609,-0.49254 v 0 l -0.29855,-0.49708 v 0 l -0.29097,-0.50125 v 0 l -0.28342,-0.50503 v 0 l -0.27587,-0.50921 v 0 l -0.2683,-0.51298 v 0 l -0.26075,-0.51678 v 0 l -0.25318,-0.52017 v 0 l -0.24563,-0.52359 v 0 l -0.23809,-0.52736 v 0 l -0.23051,-0.53041 v 0 l -0.22674,-0.53381 v 0 l -0.21918,-0.53683 h -3e-5 l -0.21162,-0.53987 v 0 l -0.20407,-0.54251 v -4e-5 l -0.1965,-0.54554 v -4e-5 l -0.18895,-0.5482 v 0 l -0.17761,-0.55084 v -4e-5 l -0.17005,-0.55311 v 0 l -0.16249,-0.55577 v 0 l -0.15495,-0.55765 v 0 l -0.14738,-0.55994 v 0 l -0.13982,-0.56182 v -4e-5 l -0.13226,-0.56371 v 0 l -0.1247,-0.56561 v 0 l -0.11715,-0.5675 v 0 l -0.10959,-0.56902 v 0 l -0.10203,-0.57053 v 0 l -0.0945,-0.57166 v 0 l -0.0831,-0.57318 v 0 l -0.0756,-0.57432 v 0 l -0.068,-0.57507 v 0 l -0.0605,-0.57622 v -3e-5 l -0.0529,-0.57696 v 0 l -0.0453,-0.57773 v 0 l -0.0366,-0.5781 v 0 l -0.0284,-0.57886 v 0 l -0.0203,-0.57886 v 0 l -0.0122,-0.57923 v -4e-5 l -0.004,-0.57925 v 0 l 0.004,-0.57923 v 0 l 0.0122,-0.57924 v 0 l 0.0203,-0.57923 v 0 l 0.0284,-0.57848 v 0 l 0.0366,-0.57811 v 0 l 0.0453,-0.57772 v 0 l 0.0529,-0.57697 v 0 l 0.0605,-0.5762 v -4e-5 l 0.068,-0.57508 v 0 l 0.0756,-0.57431 v -4e-5 l 0.0831,-0.57318 v 0 l 0.0945,-0.57167 v -4e-5 l 0.10203,-0.57052 v -4e-5 l 0.10959,-0.56902 v 0 l 0.11715,-0.5675 v 0 l 0.1247,-0.56561 v 0 l 0.13227,-0.5641 v 0 l 0.13982,-0.56182 v 0 l 0.14737,-0.55992 v 0 l 0.15495,-0.55766 v -4e-5 l 0.16249,-0.55576 v 0 l 0.17006,-0.55313 v 0 l 0.17761,-0.55084 v 0 l 0.18894,-0.54819 v 0 l 0.19651,-0.54554 v 0 l 0.20406,-0.54251 v -4e-5 l 0.21162,-0.53987 v 0 l 0.21918,-0.53684 v 0 l 0.22673,-0.53381 v 0 l 0.2343,-0.5304 v -3e-5 l 0.23808,-0.52699 v 0 l 0.24563,-0.52359 v 0 l 0.25319,-0.52018 v -4e-5 l 0.26074,-0.51638 v 0 l 0.26827,-0.513 v 0 l 0.27586,-0.50921 v 0 l 0.28342,-0.50502 v 0 l 0.29098,-0.50088 v 0 l 0.29854,-0.49708 v 0 l 0.3061,-0.49254 v 0 l 0.30987,-0.48838 v 0 l 0.31743,-0.48422 v 0 l 0.32499,-0.47928 v 0 l 0.33254,-0.47475 v 0 l 0.33633,-0.47021 v 0 l 0.34389,-0.46528 v 0 l 0.35144,-0.46036 v 0 l 0.359,-0.45544 v 0 l 0.36277,-0.45051 v 0 l 0.37034,-0.44523 h 4e-5 l 0.37789,-0.43992 v 0 l 0.38244,-0.43461 v -4e-5 l 0.38847,-0.42932 v 0 l 0.39414,-0.42364 v 0 l 0.40019,-0.41833 v 0 l 0.40624,-0.41266 v 0 l 0.41191,-0.40698 v 0 l 0.41757,-0.40093 v -4e-5 l 0.42286,-0.39524 v 0 l 0.42854,-0.38919 v 0 l 0.43382,-0.38313 v 0 l 0.43912,-0.37858 v 0 l 0.4444,-0.37102 v -3e-5 l 0.44969,-0.36345 v 0 l 0.45461,-0.35966 v -4e-5 l 0.45952,-0.35208 3e-5,-3e-5 0.46444,-0.34452 v 0 l 0.46935,-0.33694 v 0 l 0.47425,-0.33316 v 0 l 0.47841,-0.32559 v 0 l 0.48334,-0.31801 v 0 l 0.48748,-0.31044 v 0 l 0.49164,-0.30665 v -4e-5 l 0.49617,-0.29908 v 0 l 0.50033,-0.29152 v 0 l 0.50412,-0.28394 v 0 l 0.50827,-0.27636 v 0 l 0.51204,-0.26881 v 0 l 0.51583,-0.26121 v 0 l 0.51923,-0.25366 v 0 l 0.52263,-0.24608 v 0 l 0.5264,-0.23851 v 0 l 0.52943,-0.23473 v 0 l 0.53284,-0.22714 v 0 l 0.53585,-0.21959 v 0 l 0.53888,-0.212 v 0 l 0.5419,-0.20444 v 0 l 0.54455,-0.19687 v 0 l 0.54719,-0.1893 v 0 l 0.54983,-0.17792 v 0 l 0.5521,-0.17037 v 0 l 0.55476,-0.16279 v 0 l 0.55664,-0.15523 h 3e-5 l 0.55891,-0.14764 v 0 l 0.56079,-0.14008 v 0 l 0.56269,-0.13251 v 0 l 0.56458,-0.12493 3e-5,-4e-5 0.56647,-0.11736 v 0 l 0.56797,-0.10979 v 0 l 0.56949,-0.10222 v 0 l 0.571,-0.0947 h 4e-5 l 0.57213,-0.0833 v 0 l 0.57326,-0.0757 v 0 l 0.57441,-0.0681 v 0 l 0.57515,-0.0606 v 0 l 0.57591,-0.053 v 0 l 0.57667,-0.0454 h 4e-5 l 0.57704,-0.0366 h 4e-5 l 0.5778,-0.0285 v 0 l 0.5778,-0.0203 v 0 l 0.57818,-0.0122 v 0 l 0.57818,-0.004 v 0 l 0.57818,0.004 v 0 l 0.57817,0.0122 v 0 l 0.57781,0.0203 v 0 l 0.57742,0.0285 h 4e-5 l 0.57704,0.0366 v 0 l 0.57668,0.0454 h 3e-5 l 0.57591,0.053 v 0 l 0.57516,0.0606 v 0 l 0.57439,0.0681 v 0 l 0.57328,0.0757 v 0 l 0.57213,0.0833 v 0 l 0.57099,0.0947 v 0 l 0.56949,0.10222 v 0 l 0.56798,0.10979 v 0 l 0.56646,0.11736 v 4e-5 l 0.56457,0.12493 v 0 l 0.56306,0.13251 v 0 l 0.56081,0.14008 v 0 l 0.5589,0.14764 v 0 l 0.55664,0.15523 v 0 l 0.55474,0.16279 v 0 l 0.55212,0.17037 v 0 l 0.54983,0.18171 h 4e-5 l 0.54719,0.1893 v 0 l 0.54454,0.19686 v 0 l 0.54191,0.20444 v 0 l 0.53887,0.21201 v 0 l 0.53586,0.21957 v 0 l 0.53283,0.22716 v 0 l 0.52943,0.23472 v 0 l 0.52641,0.23852 v 0 l 0.52262,0.24608 v 0 l 0.51923,0.25365 v 0 l 0.51545,0.26122 v 0 l 0.51205,0.2688 v 0 l 0.50827,0.27637 v 0 l 0.5041,0.28394 v 0 l 0.49997,0.29151 v 0 l 0.49617,0.29908 4e-5,4e-5 0.49164,0.30666 v 0 l 0.48748,0.31043 h 4e-5 l 0.48295,0.31802 h 4e-5 l 0.47841,0.32558 v 0 l 0.47388,0.33316 v 0 l 0.46934,0.33694 v 0 l 0.46443,0.34451 v 4e-5 l 0.45953,0.35209 v 0 l 0.45461,0.35966 v 0 l 0.44969,0.36344 v 4e-5 l 0.4444,0.37101 v 0 l 0.43911,0.37859 h 4e-5 l 0.43383,0.38313 v 0 l 0.42853,0.38918 v 0 l 0.42287,0.39526 v 3e-5 l 0.41757,0.40092 v 0 l 0.4119,0.40661 v 0 l 0.40625,0.41265 v 0 l 0.40018,0.41834 v 0 l 0.39452,0.42365 v 0 l 0.38848,0.42931 v 3e-5 l 0.38243,0.43462 v 0 l 0.3779,0.43993 v 0 l 0.37033,0.44521 v 0 l 0.36278,0.45052 v 0 l 0.359,0.45544 v 0 l 0.35144,0.46036 v 0 l 0.34388,0.46528 v 0 l 0.33633,0.47021 v 0 l 0.33255,0.47475 v 0 l 0.32499,0.47929 v 0 l 0.31743,0.48421 v 0 l 0.30987,0.48837 v 0 l 0.3061,0.49254 v 0 l 0.29853,0.4971 v 0 l 0.29099,0.50086 v 0 l 0.28342,0.50504 v 0 l 0.27586,0.50919 v 0 l 0.2683,0.51299 v 0 l 0.26075,0.51677 v 0 l 0.25319,0.52018 v 0 l 0.24563,0.52358 v 0 l 0.23807,0.527 v 4e-5 l 0.23429,0.5304 v 0 l 0.22675,0.5338 v 0 l 0.21918,0.53684 v 0 l 0.21162,0.53986 v 4e-5 l 0.20406,0.54252 v 0 l 0.19651,0.54554 v 0 l 0.18894,0.54819 v 0 l 0.18139,0.55085 v 0 l 0.17005,0.55311 v 0 l 0.1625,0.55577 v 3e-5 l 0.15493,0.55766 v 0 l 0.14738,0.55993 v 0 l 0.13982,0.56183 v 0 l 0.13227,0.56409 v 0 l 0.12471,0.56561 v 0 l 0.11714,0.5675 v 0 l 0.10959,0.56901 v 4e-5 l 0.10203,0.57054 v 3e-5 l 0.0945,0.57167 v 0 l 0.0831,0.57318 v 4e-5 l 0.0756,0.57431 v 0 l 0.068,0.57507 v 4e-5 l 0.0605,0.57621 v 0 l 0.0529,0.57697 v 0 l 0.0453,0.57773 v 0 l 0.0365,0.5781 v 0 l 0.0284,0.57886 v 0 l 0.0203,0.57886 v 0 l 0.0122,0.57923 v 0 l 0.004,0.57924 v 0 l -0.004,0.57923 v 4e-5 l -0.0122,0.57924 v 0 l -0.0203,0.57886 v 0 l -0.0284,0.57886 v 0 l -0.0365,0.5781 v 0 l -0.0453,0.57772 v 0 l -0.0529,0.57697 v 4e-5 l -0.0605,0.57621 v 0 l -0.068,0.57507 v 0 l -0.0756,0.57431 v 0 l -0.0831,0.57318 v 0 l -0.0945,0.57167 v 0 l -0.10203,0.57054 v 0 l -0.10959,0.56901 v 0 l -0.11714,0.5675 v 0 l -0.12471,0.56561 v 0 l -0.13227,0.56372 v 3e-5 l -0.13982,0.56183 v 0 l -0.14738,0.55993 v 0 l -0.15493,0.55766 v 0 l -0.1625,0.55576 v 0 l -0.17005,0.55311 v 4e-5 l -0.18139,0.55085 v 0 l -0.18894,0.54819 v 3e-5 l -0.19651,0.54555 -4e-5,3e-5 -0.20406,0.54253 v 0 l -0.21162,0.53986 v 0 l -0.21918,0.53683 v 0 l -0.22674,0.53381 v 0 l -0.2343,0.5304 v 0 l -0.23807,0.52737 v 0 l -0.24563,0.52359 v 0 l -0.25319,0.52018 v 0 l -0.26074,0.51677 v 0 l -0.26831,0.51298 v 0 l -0.27586,0.5092 v 0 l -0.28342,0.50504 v 0 l -0.29099,0.50125 v 0 l -0.29853,0.49708 v 0 l -0.3061,0.49254 v 4e-5 l -0.30987,0.48837 v 0 l -0.31743,0.48422 v 0 l -0.32499,0.47929 v 0 l -0.33255,0.47475 v 0 l -0.33633,0.4702 v 0 l -0.34388,0.46529 v 0 l -0.35144,0.46036 v 0 l -0.359,0.45543 v 4e-5 l -0.36277,0.45052 v 0 l -0.37034,0.44522 v 0 l -0.3779,0.43992 v 0 l -0.38243,0.43462 v 0 l -0.38847,0.42931 v 0 l -0.39452,0.42364 v 0 l -0.40019,0.41834 v 0 l -0.40625,0.41266 v 0 l -0.41152,0.4066 v 0 l -0.41757,0.40092 v 0 l -0.42287,0.39525 v 0 l -0.42853,0.38918 v 0 l -0.43383,0.38313 -4e-5,4e-5 -0.43911,0.37859 v 0 l -0.4444,0.37102 v 0 l -0.44969,0.36344 v 0 l -0.45461,0.35965 v 0 l -0.45953,0.35209 v 0 l -0.46443,0.34452 v 0 l -0.46934,0.33694 v 0 l -0.47388,0.33316 v 0 l -0.47841,0.32557 h -4e-5 l -0.48295,0.31802 h -4e-5 l -0.48748,0.31045 v 0 l -0.49164,0.30665 h -4e-5 l -0.49617,0.29909 v 0 l -0.50034,0.2915 v 0 l -0.50411,0.28394 v 0 l -0.50789,0.27637 v 0 l -0.51205,0.2688 v 0 l -0.51545,0.26122 v 0 l -0.51923,0.25365 v 0 l -0.52262,0.24608 h -4e-5 l -0.52603,0.23852 v 0 l -0.52943,0.23472 v 0 l -0.53283,0.22716 v 3e-5 l -0.53586,0.21958 v 0 l -0.53887,0.21201 v 0 l -0.54191,0.20443 v 0 l -0.54454,0.19687 v 0 l -0.54719,0.18929 h -4e-5 l -0.54983,0.17794 v 0 l -0.55212,0.17037 v 0 l -0.55474,0.16279 v 0 l -0.55664,0.15522 v 0 l -0.5589,0.14764 v 0 l -0.56081,0.14008 v 0 l -0.56268,0.13251 v 0 l -0.56457,0.12493 v 0 l -0.56646,0.11737 v 0 l -0.56798,0.10979 v 0 l -0.56949,0.10222 v 0 l -0.57062,0.0947 v 0 z M 45.47451,57.784134 l -1.5e-5,-8e-6 -0.433899,-0.192322 -1.5e-5,-8e-6 -0.424225,-0.212766 -1.5e-5,-7e-6 -0.413341,-0.232831 -1.5e-5,-1.2e-5 -0.401475,-0.252516 -1.5e-5,-1.2e-5 -0.388476,-0.271826 -1.1e-5,-1.1e-5 -0.374494,-0.290376 -1.5e-5,-1.1e-5 -0.359,-0.308548 -1.5e-5,-1.5e-5 -0.343128,-0.326342 -1.5e-5,-1.5e-5 -0.325746,-0.343757 -1.1e-5,-1.5e-5 -0.307984,-0.360036 -1.1e-5,-1.5e-5 -0.289846,-0.37518 -1.1e-5,-1.5e-5 -0.271329,-0.389111 -1.1e-5,-1.6e-5 -0.252055,-0.402172 -8e-6,-1.5e-5 -0.232405,-0.414099 -8e-6,-1.5e-5 -0.212377,-0.424926 -7e-6,-1.5e-5 -0.191971,-0.434731 -3e-6,-1.5e-5 -0.171187,-0.443363 -7e-6,-1.9e-5 -0.149646,-0.45101 -4e-6,-1.9e-5 -0.127729,-0.457408 -7e-6,-1.9e-5 -0.105811,-0.462936 -4e-6,-2e-5 -0.08276,-0.467213 -3e-6,-1.9e-5 -0.05971,-0.470545 -4e-6,-1.9e-5 -0.03625,-0.472628 v -1.9e-5 l -0.01211,-0.473764 v -1.9e-5 l 0.01218,-0.473801 v -1.9e-5 l 0.03618,-0.472665 4e-6,-1.9e-5 0.05971,-0.470546 3e-6,-1.9e-5 0.08314,-0.467176 4e-6,-1.5e-5 0.105811,-0.462897 7e-6,-1.9e-5 0.127729,-0.457523 4e-6,-1.9e-5 0.149645,-0.450934 8e-6,-1.9e-5 0.171186,-0.443439 4e-6,-1.5e-5 0.191971,-0.434656 7e-6,-1.5e-5 0.212377,-0.424963 8e-6,-1.5e-5 0.232405,-0.41406 7e-6,-1.5e-5 0.252056,-0.402211 1.1e-5,-1.9e-5 0.271328,-0.38915 1.2e-5,-1.5e-5 0.289846,-0.375179 1.1e-5,-1.5e-5 0.307984,-0.359657 1.1e-5,-1.5e-5 0.325746,-0.343757 1.5e-5,-1.5e-5 0.343128,-0.326343 1.1e-5,-1.1e-5 0.359378,-0.308548 1.5e-5,-1.1e-5 0.374494,-0.290376 1.5e-5,-1.1e-5 0.388325,-0.271826 1.9e-5,-1.1e-5 0.401474,-0.252517 1.5e-5,-8e-6 0.413342,-0.232831 1.5e-5,-8e-6 0.424149,-0.212766 1.5e-5,-7e-6 0.433974,-0.192322 1.5e-5,-7e-6 0.442553,-0.171501 1.8e-5,-7e-6 0.450111,-0.14992 1.9e-5,-4e-6 0.456724,-0.127962 1.5e-5,-4e-6 0.462014,-0.106004 1.5e-5,-4e-6 0.466397,-0.08291 1.9e-5,-3e-6 0.469648,-0.05982 h 1.9e-5 l 0.471801,-0.03629 h 1.9e-5 l 0.472897,-0.01224 h 1.9e-5 l 0.472898,0.0122 h 1.9e-5 l 0.471801,0.03632 h 1.9e-5 l 0.469647,0.05982 h 1.9e-5 l 0.466398,0.08329 1.9e-5,4e-6 0.462089,0.106005 1.9e-5,4e-6 0.456572,0.127961 1.9e-5,4e-6 0.450261,0.149921 1.6e-5,7e-6 0.442476,0.1715 1.5e-5,7e-6 0.433976,0.192323 1.9e-5,8e-6 0.424148,0.212765 1.5e-5,8e-6 0.413417,0.23283 1.5e-5,8e-6 0.401324,0.252517 1.5e-5,1.2e-5 0.388476,0.271447 1.5e-5,1.1e-5 0.374494,0.290376 1.5e-5,1.1e-5 0.358999,0.308548 1.2e-5,1.1e-5 0.343128,0.326343 1.2e-5,1.5e-5 0.325745,0.343757 1.2e-5,1.5e-5 0.307983,0.359657 1.2e-5,1.5e-5 0.289845,0.375179 1.1e-5,1.5e-5 0.270951,0.38915 1.2e-5,1.6e-5 0.252055,0.40221 1.1e-5,1.5e-5 0.232406,0.414098 7e-6,1.6e-5 0.212377,0.424962 8e-6,1.5e-5 0.19197,0.434656 8e-6,1.5e-5 0.171185,0.443439 8e-6,1.9e-5 0.149646,0.450934 4e-6,1.6e-5 0.128107,0.457522 4e-6,1.9e-5 0.105432,0.46286 3e-6,1.9e-5 0.08314,0.467289 4e-6,2e-5 0.05971,0.470507 4e-6,1.9e-5 0.03625,0.472665 4e-6,1.9e-5 0.01211,0.473726 v 1.9e-5 l -0.01218,0.473839 -4e-6,1.9e-5 -0.03618,0.472666 -4e-6,1.8e-5 -0.05971,0.470508 -4e-6,1.5e-5 -0.08314,0.467177 -3e-6,1.9e-5 -0.105432,0.462935 -4e-6,1.5e-5 -0.128107,0.457484 -4e-6,1.5e-5 -0.149646,0.450973 -8e-6,1.9e-5 -0.171185,0.443401 -8e-6,1.9e-5 -0.19197,0.434768 -8e-6,1.5e-5 -0.212377,0.424851 -7e-6,1.5e-5 -0.232406,0.414136 -1.1e-5,1.5e-5 -0.252055,0.402211 -1.2e-5,1.8e-5 -0.271329,0.389112 -7e-6,1.5e-5 -0.289845,0.37518 -1.2e-5,1.5e-5 -0.307983,0.360036 -1.2e-5,1.1e-5 -0.325745,0.343757 -1.2e-5,1.1e-5 -0.343128,0.326342 -1.2e-5,1.5e-5 -0.358999,0.308548 -1.5e-5,1.1e-5 -0.374494,0.290377 -1.5e-5,1.1e-5 -0.388552,0.271447 -1.5e-5,1.1e-5 -0.4014,0.252518 -1.5e-5,1.1e-5 -0.413341,0.232831 -1.5e-5,8e-6 -0.424073,0.212765 -1.8e-5,8e-6 -0.434051,0.192322 -1.5e-5,7e-6 -0.442477,0.1715 -1.5e-5,3e-6 -0.450186,0.149921 -1.5e-5,4e-6 -0.45661,0.12834 -1.9e-5,8e-6 -0.462127,0.106005 -1.9e-5,4e-6 -0.466398,0.08329 -1.9e-5,4e-6 -0.469647,0.05982 h -1.9e-5 l -0.471725,0.03625 h -1.9e-5 l -0.472898,0.0122 h -1.9e-5 l -0.472898,-0.0122 h -1.8e-5 l -0.471802,-0.03625 h -1.9e-5 l -0.469723,-0.0602 -1.8e-5,-4e-6 -0.466398,-0.08291 -1.5e-5,-4e-6 -0.461938,-0.106005 -1.5e-5,-4e-6 -0.456725,-0.12834 -1.9e-5,-8e-6 -0.450034,-0.149921 -1.9e-5,-7e-6 z M 42.035895,831.23487 h -1.9e-5 l -0.456723,-0.12872 h -1.9e-5 l -0.45011,-0.15143 h -1.5e-5 l -0.442628,-0.17036 h -1.9e-5 l -0.433899,-0.19309 h -1.5e-5 l -0.424149,-0.21201 h -1.5e-5 l -0.413341,-0.23472 h -1.6e-5 l -0.401475,-0.25365 h -1.5e-5 l -0.388399,-0.27258 h -1.6e-5 l -0.374493,-0.29151 h -1.5e-5 l -0.359379,-0.31044 h -1.5e-5 l -0.343128,-0.32559 -1.5e-5,-4e-5 -0.325745,-0.34451 -1.5e-5,-4e-5 -0.307984,-0.35966 h -1.5e-5 l -0.289846,-0.3748 -1.1e-5,-4e-5 -0.271329,-0.38918 h -7e-6 l -0.252056,-0.40207 h -7e-6 l -0.232405,-0.41417 h -8e-6 l -0.212377,-0.42516 -7e-6,-3e-5 -0.191971,-0.43461 h -7e-6 L 35.293,825.10312 h -4e-6 l -0.149646,-0.45089 h -8e-6 l -0.128106,-0.45733 h -3e-6 l -0.105811,-0.46301 h -4e-6 l -0.08276,-0.46717 v -4e-5 l -0.05971,-0.47059 v 0 l -0.03618,-0.47247 v -4e-5 l -0.01218,-0.47362 v -3e-5 l 0.01211,-0.47362 v -4e-5 l 0.03626,-0.47285 v 0 l 0.05971,-0.47058 v -4e-5 l 0.08314,-0.46717 h 4e-6 l 0.105811,-0.46302 h 3e-6 l 0.128106,-0.45733 h 8e-6 l 0.149646,-0.4509 4e-6,-4e-5 0.170809,-0.44332 7e-6,-4e-5 0.191971,-0.435 7e-6,-4e-5 0.212377,-0.42477 8e-6,-4e-5 0.232405,-0.41416 h 1.1e-5 l 0.252056,-0.40207 h 7e-6 l 0.271328,-0.38918 1.2e-5,-5e-5 0.289846,-0.37479 h 1.5e-5 l 0.307983,-0.35966 1.5e-5,-4e-5 0.325746,-0.34451 1.5e-5,-4e-5 0.343128,-0.32559 h 1.5e-5 l 0.359378,-0.31044 h 1.5e-5 l 0.374494,-0.29151 h 1.5e-5 l 0.388475,-0.27258 h 1.5e-5 l 0.401476,-0.25366 h 1.5e-5 l 0.413266,-0.23472 h 1.5e-5 l 0.4243,-0.21201 h 1.5e-5 l 0.433823,-0.19308 h 1.9e-5 l 0.442628,-0.17036 h 1.5e-5 l 0.45011,-0.15143 h 1.9e-5 l 0.456724,-0.12873 h 1.8e-5 l 0.462014,-0.106 1.9e-5,-4e-5 0.466323,-0.0833 h 1.5e-5 l 0.469647,-0.0606 h 1.9e-5 l 0.471802,-0.0363 h 1.9e-5 l 0.472897,-0.0122 h 2.2e-5 l 0.472935,0.0122 h 1.9e-5 l 0.471803,0.0363 h 1.8e-5 l 0.469572,0.0606 h 1.5e-5 l 0.466398,0.0833 1.9e-5,4e-5 0.462127,0.106 h 1.9e-5 l 0.45661,0.12873 h 1.9e-5 l 0.450185,0.15143 h 1.6e-5 l 0.442476,0.17036 h 1.9e-5 l 0.43405,0.19308 h 1.5e-5 l 0.424074,0.21201 h 1.5e-5 l 0.413417,0.23472 h 1.5e-5 l 0.401324,0.25366 h 1.5e-5 l 0.388476,0.27258 h 1.5e-5 l 0.374494,0.29151 h 1.5e-5 l 0.359377,0.31044 h 1.5e-5 l 0.343129,0.32559 1.5e-5,4e-5 0.325745,0.34451 1.5e-5,4e-5 0.307985,0.35966 h 1.5e-5 l 0.289845,0.37479 1.1e-5,5e-5 0.27095,0.38918 h 1.2e-5 l 0.252056,0.40207 h 8e-6 l 0.232405,0.41416 7e-6,4e-5 0.212377,0.42477 8e-6,4e-5 0.19197,0.435 8e-6,4e-5 0.171185,0.44332 4e-6,4e-5 0.149647,0.4509 h 7e-6 l 0.127729,0.45733 h 4e-6 l 0.10581,0.46302 h 4e-6 l 0.08314,0.46717 4e-6,4e-5 0.05971,0.47058 v 0 l 0.03618,0.47285 v 4e-5 l 0.01218,0.47362 v 3e-5 l -0.01218,0.47362 v 4e-5 l -0.03618,0.47247 v 0 l -0.05971,0.47059 -4e-6,4e-5 -0.08314,0.46717 h -4e-6 l -0.10581,0.46301 h -4e-6 l -0.127729,0.45733 h -7e-6 l -0.149647,0.45089 h -4e-6 l -0.171185,0.44334 h -8e-6 l -0.19197,0.43461 -8e-6,3e-5 -0.212377,0.42516 h -7e-6 l -0.232405,0.41417 h -8e-6 l -0.252056,0.40207 h -1.2e-5 l -0.271328,0.38918 -1.1e-5,4e-5 -0.289845,0.3748 h -1.1e-5 l -0.307985,0.35966 -1.1e-5,4e-5 -0.325745,0.34451 -1.5e-5,4e-5 -0.343129,0.32559 h -1.5e-5 l -0.359377,0.31044 h -1.5e-5 l -0.374494,0.29151 h -1.5e-5 l -0.388476,0.27258 h -1.5e-5 l -0.401325,0.25365 h -1.5e-5 l -0.413417,0.23472 h -1.5e-5 l -0.424149,0.21201 h -1.5e-5 l -0.433974,0.19309 h -1.9e-5 l -0.442477,0.17036 h -1.5e-5 l -0.450186,0.15143 h -1.9e-5 l -0.45661,0.12872 h -1.8e-5 l -0.462128,0.10601 -1.9e-5,4e-5 -0.466397,0.0833 h -1.5e-5 l -0.469647,0.0606 h -1.9e-5 l -0.471803,0.0363 h -1.9e-5 l -0.472897,0.0122 h -2.2e-5 l -0.472898,-0.0122 h -1.8e-5 l -0.471802,-0.0363 h -1.9e-5 l -0.469647,-0.0606 h -1.5e-5 l -0.466399,-0.0833 -1.8e-5,-4e-5 z"
       id="path4"
       sodipodi:insensitive="true" />
  </g>
  <g
     inkscape:groupmode="layer"
     id="layer1"
     inkscape:label="Layer 1">
    <path
       id="rect884"
       style="opacity:0.386792;fill:none;fill-opacity:0.652681;stroke-width:0"
       d="M 11.338677,11.338583 H 1084.3393 V 857.95278 H 11.338677 Z" />
    <path
       id="circle1484"
       style="opacity:0.386792;fill:none;stroke-width:0"
       d="m 941.76938,684.10726 c -2e-5,-4.69657 -3.80733,-8.50388 -8.5039,-8.5039 -4.69657,2e-5 -8.50389,3.80733 -8.50391,8.5039 2e-5,4.69657 2e-5,38.04171 0,42.73828 2e-5,4.69657 3.80734,8.50389 8.50391,8.50391 4.69657,-2e-5 8.50388,-3.80734 8.5039,-8.50391 -2e-5,-4.69657 -2e-5,-38.04171 0,-42.73828 z"
       sodipodi:nodetypes="csccscc" />
    <path
       id="circle1363"
       style="opacity:0.386792;fill:none;stroke-width:0"
       d="m 58.976997,48.841765 a 9.8267717,9.8267717 0 0 1 -9.826771,9.826772 9.8267717,9.8267717 0 0 1 -9.826772,-9.826772 9.8267717,9.8267717 0 0 1 9.826772,-9.826772 9.8267717,9.8267717 0 0 1 9.826771,9.826772 z" />
    <path
       id="circle1463"
       style="opacity:0.386792;fill:none;stroke-width:0"
       d="m 54.234578,821.88242 a 9.8267717,9.8267717 0 0 1 -9.826772,9.82677 9.8267717,9.8267717 0 0 1 -9.826772,-9.82677 9.8267717,9.8267717 0 0 1 9.826772,-9.82677 9.8267717,9.8267717 0 0 1 9.826772,9.82677 z" />
    <path
       id="circle1718"
       style="opacity:0.386792;fill:none;stroke-width:0"
       d="m 1054.6468,819.89778 a 9.8267717,9.8267717 0 0 1 -9.8267,9.82677 9.8267717,9.8267717 0 0 1 -9.8268,-9.82677 9.8267717,9.8267717 0 0 1 9.8268,-9.82677 9.8267717,9.8267717 0 0 1 9.8267,9.82677 z" />
    <path
       id="circle1741"
       style="opacity:0.386792;fill:none;stroke-width:0"
       d="m 1054.6321,47.910084 a 9.8267717,9.8267717 0 0 1 -9.8267,9.826772 9.8267717,9.8267717 0 0 1 -9.8268,-9.826772 9.8267717,9.8267717 0 0 1 9.8268,-9.826771 9.8267717,9.8267717 0 0 1 9.8267,9.826771 z" />
    <path
       id="path1057"
       style="opacity:0.386792;fill:none;stroke-width:0"
       d="m 471.18474,547.27426 a 41.574789,41.574789 0 0 1 -41.57479,41.57478 41.574789,41.574789 0 0 1 -41.57482,-41.57478 41.574789,41.574789 0 0 1 41.57482,-41.57478 41.574789,41.574789 0 0 1 41.57479,41.57478 z" />
  </g>
</svg>
