M48
; DRILL file {KiCad 7.0.2} date Fri Jun  2 09:35:28 2023
; FORMAT={-:-/ absolute / metric / decimal}
; #@! TF.CreationDate,2023-06-02T09:35:28+02:00
; #@! TF.GenerationSoftware,Kicad,Pcbnew,7.0.2
; #@! TF.FileFunction,Plated,1,2,PTH
FMAT,2
METRIC
; #@! TA.AperFunction,Plated,PTH,ComponentDrill
T1C0.800
; #@! TA.AperFunction,Plated,PTH,ComponentDrill
T2C1.000
; #@! TA.AperFunction,Plated,PTH,ComponentDrill
T3C1.100
; #@! TA.AperFunction,Plated,PTH,ComponentDrill
T4C1.300
%
G90
G05
T1
X97.79Y-45.72
X97.79Y-68.6
X97.79Y-70.6
X99.79Y-45.72
T2
X74.93Y-45.72
X74.93Y-48.26
X74.93Y-50.8
X74.93Y-53.34
X74.93Y-55.88
X74.93Y-58.42
X74.93Y-60.96
X76.2Y-71.12
X76.2Y-73.66
X76.2Y-76.2
X76.2Y-78.74
X76.2Y-81.28
X76.2Y-83.82
X76.2Y-86.36
X76.2Y-88.9
X88.9Y-71.12
X88.9Y-73.66
X88.9Y-76.2
X88.9Y-78.74
X88.9Y-81.28
X88.9Y-83.82
X88.9Y-86.36
X88.9Y-88.9
X90.17Y-45.72
X90.17Y-48.26
X90.17Y-50.8
X90.17Y-53.34
X90.17Y-55.88
X90.17Y-58.42
X90.17Y-60.96
X96.52Y-78.74
X96.52Y-81.28
X96.52Y-83.82
X96.52Y-86.36
X96.52Y-88.9
X99.06Y-78.74
X99.06Y-81.28
X99.06Y-83.82
X99.06Y-86.36
X99.06Y-88.9
T3
X97.465Y-53.34
X97.465Y-55.88
X97.465Y-58.42
T4
X111.76Y-62.0
X111.76Y-69.5
T0
M30
