G04 #@! TF.GenerationSoftware,KiCad,Pcbnew,7.0.2*
G04 #@! TF.CreationDate,2023-06-02T09:34:51+02:00*
G04 #@! TF.ProjectId,split_flap,73706c69-745f-4666-9c61-702e6b696361,rev?*
G04 #@! TF.SameCoordinates,Original*
G04 #@! TF.FileFunction,Legend,Top*
G04 #@! TF.FilePolarity,Positive*
%FSLAX46Y46*%
G04 Gerber Fmt 4.6, Leading zero omitted, Abs format (unit mm)*
G04 Created by KiCad (PCBNEW 7.0.2) date 2023-06-02 09:34:51*
%MOMM*%
%LPD*%
G01*
G04 APERTURE LIST*
%ADD10C,0.150000*%
%ADD11C,0.120000*%
%ADD12C,3.200000*%
%ADD13R,1.700000X1.700000*%
%ADD14O,1.700000X1.700000*%
%ADD15R,2.500000X2.500000*%
%ADD16C,2.500000*%
%ADD17R,1.600000X1.600000*%
%ADD18C,1.600000*%
%ADD19R,2.000000X1.905000*%
%ADD20O,2.000000X1.905000*%
G04 APERTURE END LIST*
D10*
X80605000Y-88476192D02*
X80652619Y-88380954D01*
X80652619Y-88380954D02*
X80652619Y-88190478D01*
X80652619Y-88190478D02*
X80605000Y-88095240D01*
X80605000Y-88095240D02*
X80509761Y-88047621D01*
X80509761Y-88047621D02*
X80462142Y-88047621D01*
X80462142Y-88047621D02*
X80366904Y-88095240D01*
X80366904Y-88095240D02*
X80319285Y-88190478D01*
X80319285Y-88190478D02*
X80319285Y-88333335D01*
X80319285Y-88333335D02*
X80271666Y-88428573D01*
X80271666Y-88428573D02*
X80176428Y-88476192D01*
X80176428Y-88476192D02*
X80128809Y-88476192D01*
X80128809Y-88476192D02*
X80033571Y-88428573D01*
X80033571Y-88428573D02*
X79985952Y-88333335D01*
X79985952Y-88333335D02*
X79985952Y-88190478D01*
X79985952Y-88190478D02*
X80033571Y-88095240D01*
X79985952Y-87761906D02*
X79985952Y-87380954D01*
X79652619Y-87619049D02*
X80509761Y-87619049D01*
X80509761Y-87619049D02*
X80605000Y-87571430D01*
X80605000Y-87571430D02*
X80652619Y-87476192D01*
X80652619Y-87476192D02*
X80652619Y-87380954D01*
X80605000Y-86666668D02*
X80652619Y-86761906D01*
X80652619Y-86761906D02*
X80652619Y-86952382D01*
X80652619Y-86952382D02*
X80605000Y-87047620D01*
X80605000Y-87047620D02*
X80509761Y-87095239D01*
X80509761Y-87095239D02*
X80128809Y-87095239D01*
X80128809Y-87095239D02*
X80033571Y-87047620D01*
X80033571Y-87047620D02*
X79985952Y-86952382D01*
X79985952Y-86952382D02*
X79985952Y-86761906D01*
X79985952Y-86761906D02*
X80033571Y-86666668D01*
X80033571Y-86666668D02*
X80128809Y-86619049D01*
X80128809Y-86619049D02*
X80224047Y-86619049D01*
X80224047Y-86619049D02*
X80319285Y-87095239D01*
X79985952Y-86190477D02*
X80985952Y-86190477D01*
X80033571Y-86190477D02*
X79985952Y-86095239D01*
X79985952Y-86095239D02*
X79985952Y-85904763D01*
X79985952Y-85904763D02*
X80033571Y-85809525D01*
X80033571Y-85809525D02*
X80081190Y-85761906D01*
X80081190Y-85761906D02*
X80176428Y-85714287D01*
X80176428Y-85714287D02*
X80462142Y-85714287D01*
X80462142Y-85714287D02*
X80557380Y-85761906D01*
X80557380Y-85761906D02*
X80605000Y-85809525D01*
X80605000Y-85809525D02*
X80652619Y-85904763D01*
X80652619Y-85904763D02*
X80652619Y-86095239D01*
X80652619Y-86095239D02*
X80605000Y-86190477D01*
X79985952Y-85285715D02*
X80985952Y-85285715D01*
X80033571Y-85285715D02*
X79985952Y-85190477D01*
X79985952Y-85190477D02*
X79985952Y-85000001D01*
X79985952Y-85000001D02*
X80033571Y-84904763D01*
X80033571Y-84904763D02*
X80081190Y-84857144D01*
X80081190Y-84857144D02*
X80176428Y-84809525D01*
X80176428Y-84809525D02*
X80462142Y-84809525D01*
X80462142Y-84809525D02*
X80557380Y-84857144D01*
X80557380Y-84857144D02*
X80605000Y-84904763D01*
X80605000Y-84904763D02*
X80652619Y-85000001D01*
X80652619Y-85000001D02*
X80652619Y-85190477D01*
X80652619Y-85190477D02*
X80605000Y-85285715D01*
X80605000Y-84000001D02*
X80652619Y-84095239D01*
X80652619Y-84095239D02*
X80652619Y-84285715D01*
X80652619Y-84285715D02*
X80605000Y-84380953D01*
X80605000Y-84380953D02*
X80509761Y-84428572D01*
X80509761Y-84428572D02*
X80128809Y-84428572D01*
X80128809Y-84428572D02*
X80033571Y-84380953D01*
X80033571Y-84380953D02*
X79985952Y-84285715D01*
X79985952Y-84285715D02*
X79985952Y-84095239D01*
X79985952Y-84095239D02*
X80033571Y-84000001D01*
X80033571Y-84000001D02*
X80128809Y-83952382D01*
X80128809Y-83952382D02*
X80224047Y-83952382D01*
X80224047Y-83952382D02*
X80319285Y-84428572D01*
X80652619Y-83523810D02*
X79985952Y-83523810D01*
X80176428Y-83523810D02*
X80081190Y-83476191D01*
X80081190Y-83476191D02*
X80033571Y-83428572D01*
X80033571Y-83428572D02*
X79985952Y-83333334D01*
X79985952Y-83333334D02*
X79985952Y-83238096D01*
X80605000Y-81714286D02*
X80652619Y-81809524D01*
X80652619Y-81809524D02*
X80652619Y-82000000D01*
X80652619Y-82000000D02*
X80605000Y-82095238D01*
X80605000Y-82095238D02*
X80557380Y-82142857D01*
X80557380Y-82142857D02*
X80462142Y-82190476D01*
X80462142Y-82190476D02*
X80176428Y-82190476D01*
X80176428Y-82190476D02*
X80081190Y-82142857D01*
X80081190Y-82142857D02*
X80033571Y-82095238D01*
X80033571Y-82095238D02*
X79985952Y-82000000D01*
X79985952Y-82000000D02*
X79985952Y-81809524D01*
X79985952Y-81809524D02*
X80033571Y-81714286D01*
X80652619Y-81142857D02*
X80605000Y-81238095D01*
X80605000Y-81238095D02*
X80557380Y-81285714D01*
X80557380Y-81285714D02*
X80462142Y-81333333D01*
X80462142Y-81333333D02*
X80176428Y-81333333D01*
X80176428Y-81333333D02*
X80081190Y-81285714D01*
X80081190Y-81285714D02*
X80033571Y-81238095D01*
X80033571Y-81238095D02*
X79985952Y-81142857D01*
X79985952Y-81142857D02*
X79985952Y-81000000D01*
X79985952Y-81000000D02*
X80033571Y-80904762D01*
X80033571Y-80904762D02*
X80081190Y-80857143D01*
X80081190Y-80857143D02*
X80176428Y-80809524D01*
X80176428Y-80809524D02*
X80462142Y-80809524D01*
X80462142Y-80809524D02*
X80557380Y-80857143D01*
X80557380Y-80857143D02*
X80605000Y-80904762D01*
X80605000Y-80904762D02*
X80652619Y-81000000D01*
X80652619Y-81000000D02*
X80652619Y-81142857D01*
X79985952Y-80380952D02*
X80652619Y-80380952D01*
X80081190Y-80380952D02*
X80033571Y-80333333D01*
X80033571Y-80333333D02*
X79985952Y-80238095D01*
X79985952Y-80238095D02*
X79985952Y-80095238D01*
X79985952Y-80095238D02*
X80033571Y-80000000D01*
X80033571Y-80000000D02*
X80128809Y-79952381D01*
X80128809Y-79952381D02*
X80652619Y-79952381D01*
X79985952Y-79619047D02*
X79985952Y-79238095D01*
X79652619Y-79476190D02*
X80509761Y-79476190D01*
X80509761Y-79476190D02*
X80605000Y-79428571D01*
X80605000Y-79428571D02*
X80652619Y-79333333D01*
X80652619Y-79333333D02*
X80652619Y-79238095D01*
X80652619Y-78904761D02*
X79985952Y-78904761D01*
X80176428Y-78904761D02*
X80081190Y-78857142D01*
X80081190Y-78857142D02*
X80033571Y-78809523D01*
X80033571Y-78809523D02*
X79985952Y-78714285D01*
X79985952Y-78714285D02*
X79985952Y-78619047D01*
X80652619Y-78142856D02*
X80605000Y-78238094D01*
X80605000Y-78238094D02*
X80557380Y-78285713D01*
X80557380Y-78285713D02*
X80462142Y-78333332D01*
X80462142Y-78333332D02*
X80176428Y-78333332D01*
X80176428Y-78333332D02*
X80081190Y-78285713D01*
X80081190Y-78285713D02*
X80033571Y-78238094D01*
X80033571Y-78238094D02*
X79985952Y-78142856D01*
X79985952Y-78142856D02*
X79985952Y-77999999D01*
X79985952Y-77999999D02*
X80033571Y-77904761D01*
X80033571Y-77904761D02*
X80081190Y-77857142D01*
X80081190Y-77857142D02*
X80176428Y-77809523D01*
X80176428Y-77809523D02*
X80462142Y-77809523D01*
X80462142Y-77809523D02*
X80557380Y-77857142D01*
X80557380Y-77857142D02*
X80605000Y-77904761D01*
X80605000Y-77904761D02*
X80652619Y-77999999D01*
X80652619Y-77999999D02*
X80652619Y-78142856D01*
X80652619Y-77238094D02*
X80605000Y-77333332D01*
X80605000Y-77333332D02*
X80509761Y-77380951D01*
X80509761Y-77380951D02*
X79652619Y-77380951D01*
X80652619Y-76714284D02*
X80605000Y-76809522D01*
X80605000Y-76809522D02*
X80509761Y-76857141D01*
X80509761Y-76857141D02*
X79652619Y-76857141D01*
X80605000Y-75952379D02*
X80652619Y-76047617D01*
X80652619Y-76047617D02*
X80652619Y-76238093D01*
X80652619Y-76238093D02*
X80605000Y-76333331D01*
X80605000Y-76333331D02*
X80509761Y-76380950D01*
X80509761Y-76380950D02*
X80128809Y-76380950D01*
X80128809Y-76380950D02*
X80033571Y-76333331D01*
X80033571Y-76333331D02*
X79985952Y-76238093D01*
X79985952Y-76238093D02*
X79985952Y-76047617D01*
X79985952Y-76047617D02*
X80033571Y-75952379D01*
X80033571Y-75952379D02*
X80128809Y-75904760D01*
X80128809Y-75904760D02*
X80224047Y-75904760D01*
X80224047Y-75904760D02*
X80319285Y-76380950D01*
X80652619Y-75476188D02*
X79985952Y-75476188D01*
X80176428Y-75476188D02*
X80081190Y-75428569D01*
X80081190Y-75428569D02*
X80033571Y-75380950D01*
X80033571Y-75380950D02*
X79985952Y-75285712D01*
X79985952Y-75285712D02*
X79985952Y-75190474D01*
X82272619Y-83190476D02*
X81748809Y-83190476D01*
X81748809Y-83190476D02*
X81653571Y-83238095D01*
X81653571Y-83238095D02*
X81605952Y-83333333D01*
X81605952Y-83333333D02*
X81605952Y-83523809D01*
X81605952Y-83523809D02*
X81653571Y-83619047D01*
X82225000Y-83190476D02*
X82272619Y-83285714D01*
X82272619Y-83285714D02*
X82272619Y-83523809D01*
X82272619Y-83523809D02*
X82225000Y-83619047D01*
X82225000Y-83619047D02*
X82129761Y-83666666D01*
X82129761Y-83666666D02*
X82034523Y-83666666D01*
X82034523Y-83666666D02*
X81939285Y-83619047D01*
X81939285Y-83619047D02*
X81891666Y-83523809D01*
X81891666Y-83523809D02*
X81891666Y-83285714D01*
X81891666Y-83285714D02*
X81844047Y-83190476D01*
X81605952Y-82285714D02*
X82272619Y-82285714D01*
X81225000Y-82523809D02*
X81939285Y-82761904D01*
X81939285Y-82761904D02*
X81939285Y-82142857D01*
X82272619Y-81714285D02*
X82272619Y-81523809D01*
X82272619Y-81523809D02*
X82225000Y-81428571D01*
X82225000Y-81428571D02*
X82177380Y-81380952D01*
X82177380Y-81380952D02*
X82034523Y-81285714D01*
X82034523Y-81285714D02*
X81844047Y-81238095D01*
X81844047Y-81238095D02*
X81463095Y-81238095D01*
X81463095Y-81238095D02*
X81367857Y-81285714D01*
X81367857Y-81285714D02*
X81320238Y-81333333D01*
X81320238Y-81333333D02*
X81272619Y-81428571D01*
X81272619Y-81428571D02*
X81272619Y-81619047D01*
X81272619Y-81619047D02*
X81320238Y-81714285D01*
X81320238Y-81714285D02*
X81367857Y-81761904D01*
X81367857Y-81761904D02*
X81463095Y-81809523D01*
X81463095Y-81809523D02*
X81701190Y-81809523D01*
X81701190Y-81809523D02*
X81796428Y-81761904D01*
X81796428Y-81761904D02*
X81844047Y-81714285D01*
X81844047Y-81714285D02*
X81891666Y-81619047D01*
X81891666Y-81619047D02*
X81891666Y-81428571D01*
X81891666Y-81428571D02*
X81844047Y-81333333D01*
X81844047Y-81333333D02*
X81796428Y-81285714D01*
X81796428Y-81285714D02*
X81701190Y-81238095D01*
X81701190Y-80666666D02*
X81653571Y-80761904D01*
X81653571Y-80761904D02*
X81605952Y-80809523D01*
X81605952Y-80809523D02*
X81510714Y-80857142D01*
X81510714Y-80857142D02*
X81463095Y-80857142D01*
X81463095Y-80857142D02*
X81367857Y-80809523D01*
X81367857Y-80809523D02*
X81320238Y-80761904D01*
X81320238Y-80761904D02*
X81272619Y-80666666D01*
X81272619Y-80666666D02*
X81272619Y-80476190D01*
X81272619Y-80476190D02*
X81320238Y-80380952D01*
X81320238Y-80380952D02*
X81367857Y-80333333D01*
X81367857Y-80333333D02*
X81463095Y-80285714D01*
X81463095Y-80285714D02*
X81510714Y-80285714D01*
X81510714Y-80285714D02*
X81605952Y-80333333D01*
X81605952Y-80333333D02*
X81653571Y-80380952D01*
X81653571Y-80380952D02*
X81701190Y-80476190D01*
X81701190Y-80476190D02*
X81701190Y-80666666D01*
X81701190Y-80666666D02*
X81748809Y-80761904D01*
X81748809Y-80761904D02*
X81796428Y-80809523D01*
X81796428Y-80809523D02*
X81891666Y-80857142D01*
X81891666Y-80857142D02*
X82082142Y-80857142D01*
X82082142Y-80857142D02*
X82177380Y-80809523D01*
X82177380Y-80809523D02*
X82225000Y-80761904D01*
X82225000Y-80761904D02*
X82272619Y-80666666D01*
X82272619Y-80666666D02*
X82272619Y-80476190D01*
X82272619Y-80476190D02*
X82225000Y-80380952D01*
X82225000Y-80380952D02*
X82177380Y-80333333D01*
X82177380Y-80333333D02*
X82082142Y-80285714D01*
X82082142Y-80285714D02*
X81891666Y-80285714D01*
X81891666Y-80285714D02*
X81796428Y-80333333D01*
X81796428Y-80333333D02*
X81748809Y-80380952D01*
X81748809Y-80380952D02*
X81701190Y-80476190D01*
X81701190Y-79714285D02*
X81653571Y-79809523D01*
X81653571Y-79809523D02*
X81605952Y-79857142D01*
X81605952Y-79857142D02*
X81510714Y-79904761D01*
X81510714Y-79904761D02*
X81463095Y-79904761D01*
X81463095Y-79904761D02*
X81367857Y-79857142D01*
X81367857Y-79857142D02*
X81320238Y-79809523D01*
X81320238Y-79809523D02*
X81272619Y-79714285D01*
X81272619Y-79714285D02*
X81272619Y-79523809D01*
X81272619Y-79523809D02*
X81320238Y-79428571D01*
X81320238Y-79428571D02*
X81367857Y-79380952D01*
X81367857Y-79380952D02*
X81463095Y-79333333D01*
X81463095Y-79333333D02*
X81510714Y-79333333D01*
X81510714Y-79333333D02*
X81605952Y-79380952D01*
X81605952Y-79380952D02*
X81653571Y-79428571D01*
X81653571Y-79428571D02*
X81701190Y-79523809D01*
X81701190Y-79523809D02*
X81701190Y-79714285D01*
X81701190Y-79714285D02*
X81748809Y-79809523D01*
X81748809Y-79809523D02*
X81796428Y-79857142D01*
X81796428Y-79857142D02*
X81891666Y-79904761D01*
X81891666Y-79904761D02*
X82082142Y-79904761D01*
X82082142Y-79904761D02*
X82177380Y-79857142D01*
X82177380Y-79857142D02*
X82225000Y-79809523D01*
X82225000Y-79809523D02*
X82272619Y-79714285D01*
X82272619Y-79714285D02*
X82272619Y-79523809D01*
X82272619Y-79523809D02*
X82225000Y-79428571D01*
X82225000Y-79428571D02*
X82177380Y-79380952D01*
X82177380Y-79380952D02*
X82082142Y-79333333D01*
X82082142Y-79333333D02*
X81891666Y-79333333D01*
X81891666Y-79333333D02*
X81796428Y-79380952D01*
X81796428Y-79380952D02*
X81748809Y-79428571D01*
X81748809Y-79428571D02*
X81701190Y-79523809D01*
X83280476Y-70582619D02*
X83613809Y-71582619D01*
X83613809Y-71582619D02*
X83947142Y-70582619D01*
X84280476Y-71582619D02*
X84280476Y-70582619D01*
X84280476Y-70582619D02*
X84613809Y-71296904D01*
X84613809Y-71296904D02*
X84947142Y-70582619D01*
X84947142Y-70582619D02*
X84947142Y-71582619D01*
X85613809Y-70582619D02*
X85804285Y-70582619D01*
X85804285Y-70582619D02*
X85899523Y-70630238D01*
X85899523Y-70630238D02*
X85994761Y-70725476D01*
X85994761Y-70725476D02*
X86042380Y-70915952D01*
X86042380Y-70915952D02*
X86042380Y-71249285D01*
X86042380Y-71249285D02*
X85994761Y-71439761D01*
X85994761Y-71439761D02*
X85899523Y-71535000D01*
X85899523Y-71535000D02*
X85804285Y-71582619D01*
X85804285Y-71582619D02*
X85613809Y-71582619D01*
X85613809Y-71582619D02*
X85518571Y-71535000D01*
X85518571Y-71535000D02*
X85423333Y-71439761D01*
X85423333Y-71439761D02*
X85375714Y-71249285D01*
X85375714Y-71249285D02*
X85375714Y-70915952D01*
X85375714Y-70915952D02*
X85423333Y-70725476D01*
X85423333Y-70725476D02*
X85518571Y-70630238D01*
X85518571Y-70630238D02*
X85613809Y-70582619D01*
X86328095Y-70582619D02*
X86899523Y-70582619D01*
X86613809Y-71582619D02*
X86613809Y-70582619D01*
X117620238Y-60451904D02*
X117572619Y-60547142D01*
X117572619Y-60547142D02*
X117572619Y-60689999D01*
X117572619Y-60689999D02*
X117620238Y-60832856D01*
X117620238Y-60832856D02*
X117715476Y-60928094D01*
X117715476Y-60928094D02*
X117810714Y-60975713D01*
X117810714Y-60975713D02*
X118001190Y-61023332D01*
X118001190Y-61023332D02*
X118144047Y-61023332D01*
X118144047Y-61023332D02*
X118334523Y-60975713D01*
X118334523Y-60975713D02*
X118429761Y-60928094D01*
X118429761Y-60928094D02*
X118525000Y-60832856D01*
X118525000Y-60832856D02*
X118572619Y-60689999D01*
X118572619Y-60689999D02*
X118572619Y-60594761D01*
X118572619Y-60594761D02*
X118525000Y-60451904D01*
X118525000Y-60451904D02*
X118477380Y-60404285D01*
X118477380Y-60404285D02*
X118144047Y-60404285D01*
X118144047Y-60404285D02*
X118144047Y-60594761D01*
X118572619Y-59975713D02*
X117572619Y-59975713D01*
X117572619Y-59975713D02*
X118572619Y-59404285D01*
X118572619Y-59404285D02*
X117572619Y-59404285D01*
X118572619Y-58928094D02*
X117572619Y-58928094D01*
X117572619Y-58928094D02*
X117572619Y-58689999D01*
X117572619Y-58689999D02*
X117620238Y-58547142D01*
X117620238Y-58547142D02*
X117715476Y-58451904D01*
X117715476Y-58451904D02*
X117810714Y-58404285D01*
X117810714Y-58404285D02*
X118001190Y-58356666D01*
X118001190Y-58356666D02*
X118144047Y-58356666D01*
X118144047Y-58356666D02*
X118334523Y-58404285D01*
X118334523Y-58404285D02*
X118429761Y-58451904D01*
X118429761Y-58451904D02*
X118525000Y-58547142D01*
X118525000Y-58547142D02*
X118572619Y-58689999D01*
X118572619Y-58689999D02*
X118572619Y-58928094D01*
X85264762Y-45182619D02*
X85598095Y-46182619D01*
X85598095Y-46182619D02*
X85931428Y-45182619D01*
X86264762Y-46182619D02*
X86264762Y-45182619D01*
X86740952Y-46182619D02*
X86740952Y-45182619D01*
X86740952Y-45182619D02*
X87312380Y-46182619D01*
X87312380Y-46182619D02*
X87312380Y-45182619D01*
X95147142Y-91855000D02*
X95289999Y-91902619D01*
X95289999Y-91902619D02*
X95528094Y-91902619D01*
X95528094Y-91902619D02*
X95623332Y-91855000D01*
X95623332Y-91855000D02*
X95670951Y-91807380D01*
X95670951Y-91807380D02*
X95718570Y-91712142D01*
X95718570Y-91712142D02*
X95718570Y-91616904D01*
X95718570Y-91616904D02*
X95670951Y-91521666D01*
X95670951Y-91521666D02*
X95623332Y-91474047D01*
X95623332Y-91474047D02*
X95528094Y-91426428D01*
X95528094Y-91426428D02*
X95337618Y-91378809D01*
X95337618Y-91378809D02*
X95242380Y-91331190D01*
X95242380Y-91331190D02*
X95194761Y-91283571D01*
X95194761Y-91283571D02*
X95147142Y-91188333D01*
X95147142Y-91188333D02*
X95147142Y-91093095D01*
X95147142Y-91093095D02*
X95194761Y-90997857D01*
X95194761Y-90997857D02*
X95242380Y-90950238D01*
X95242380Y-90950238D02*
X95337618Y-90902619D01*
X95337618Y-90902619D02*
X95575713Y-90902619D01*
X95575713Y-90902619D02*
X95718570Y-90950238D01*
X96004285Y-91235952D02*
X96385237Y-91235952D01*
X96147142Y-90902619D02*
X96147142Y-91759761D01*
X96147142Y-91759761D02*
X96194761Y-91855000D01*
X96194761Y-91855000D02*
X96289999Y-91902619D01*
X96289999Y-91902619D02*
X96385237Y-91902619D01*
X97099523Y-91855000D02*
X97004285Y-91902619D01*
X97004285Y-91902619D02*
X96813809Y-91902619D01*
X96813809Y-91902619D02*
X96718571Y-91855000D01*
X96718571Y-91855000D02*
X96670952Y-91759761D01*
X96670952Y-91759761D02*
X96670952Y-91378809D01*
X96670952Y-91378809D02*
X96718571Y-91283571D01*
X96718571Y-91283571D02*
X96813809Y-91235952D01*
X96813809Y-91235952D02*
X97004285Y-91235952D01*
X97004285Y-91235952D02*
X97099523Y-91283571D01*
X97099523Y-91283571D02*
X97147142Y-91378809D01*
X97147142Y-91378809D02*
X97147142Y-91474047D01*
X97147142Y-91474047D02*
X96670952Y-91569285D01*
X97575714Y-91235952D02*
X97575714Y-92235952D01*
X97575714Y-91283571D02*
X97670952Y-91235952D01*
X97670952Y-91235952D02*
X97861428Y-91235952D01*
X97861428Y-91235952D02*
X97956666Y-91283571D01*
X97956666Y-91283571D02*
X98004285Y-91331190D01*
X98004285Y-91331190D02*
X98051904Y-91426428D01*
X98051904Y-91426428D02*
X98051904Y-91712142D01*
X98051904Y-91712142D02*
X98004285Y-91807380D01*
X98004285Y-91807380D02*
X97956666Y-91855000D01*
X97956666Y-91855000D02*
X97861428Y-91902619D01*
X97861428Y-91902619D02*
X97670952Y-91902619D01*
X97670952Y-91902619D02*
X97575714Y-91855000D01*
X98480476Y-91235952D02*
X98480476Y-92235952D01*
X98480476Y-91283571D02*
X98575714Y-91235952D01*
X98575714Y-91235952D02*
X98766190Y-91235952D01*
X98766190Y-91235952D02*
X98861428Y-91283571D01*
X98861428Y-91283571D02*
X98909047Y-91331190D01*
X98909047Y-91331190D02*
X98956666Y-91426428D01*
X98956666Y-91426428D02*
X98956666Y-91712142D01*
X98956666Y-91712142D02*
X98909047Y-91807380D01*
X98909047Y-91807380D02*
X98861428Y-91855000D01*
X98861428Y-91855000D02*
X98766190Y-91902619D01*
X98766190Y-91902619D02*
X98575714Y-91902619D01*
X98575714Y-91902619D02*
X98480476Y-91855000D01*
X99766190Y-91855000D02*
X99670952Y-91902619D01*
X99670952Y-91902619D02*
X99480476Y-91902619D01*
X99480476Y-91902619D02*
X99385238Y-91855000D01*
X99385238Y-91855000D02*
X99337619Y-91759761D01*
X99337619Y-91759761D02*
X99337619Y-91378809D01*
X99337619Y-91378809D02*
X99385238Y-91283571D01*
X99385238Y-91283571D02*
X99480476Y-91235952D01*
X99480476Y-91235952D02*
X99670952Y-91235952D01*
X99670952Y-91235952D02*
X99766190Y-91283571D01*
X99766190Y-91283571D02*
X99813809Y-91378809D01*
X99813809Y-91378809D02*
X99813809Y-91474047D01*
X99813809Y-91474047D02*
X99337619Y-91569285D01*
X100242381Y-91902619D02*
X100242381Y-91235952D01*
X100242381Y-91426428D02*
X100290000Y-91331190D01*
X100290000Y-91331190D02*
X100337619Y-91283571D01*
X100337619Y-91283571D02*
X100432857Y-91235952D01*
X100432857Y-91235952D02*
X100528095Y-91235952D01*
X79271905Y-71058809D02*
X79605238Y-71058809D01*
X79748095Y-71582619D02*
X79271905Y-71582619D01*
X79271905Y-71582619D02*
X79271905Y-70582619D01*
X79271905Y-70582619D02*
X79748095Y-70582619D01*
X80176667Y-71582619D02*
X80176667Y-70582619D01*
X80176667Y-70582619D02*
X80748095Y-71582619D01*
X80748095Y-71582619D02*
X80748095Y-70582619D01*
X85598095Y-47770238D02*
X85502857Y-47722619D01*
X85502857Y-47722619D02*
X85360000Y-47722619D01*
X85360000Y-47722619D02*
X85217143Y-47770238D01*
X85217143Y-47770238D02*
X85121905Y-47865476D01*
X85121905Y-47865476D02*
X85074286Y-47960714D01*
X85074286Y-47960714D02*
X85026667Y-48151190D01*
X85026667Y-48151190D02*
X85026667Y-48294047D01*
X85026667Y-48294047D02*
X85074286Y-48484523D01*
X85074286Y-48484523D02*
X85121905Y-48579761D01*
X85121905Y-48579761D02*
X85217143Y-48675000D01*
X85217143Y-48675000D02*
X85360000Y-48722619D01*
X85360000Y-48722619D02*
X85455238Y-48722619D01*
X85455238Y-48722619D02*
X85598095Y-48675000D01*
X85598095Y-48675000D02*
X85645714Y-48627380D01*
X85645714Y-48627380D02*
X85645714Y-48294047D01*
X85645714Y-48294047D02*
X85455238Y-48294047D01*
X86074286Y-48722619D02*
X86074286Y-47722619D01*
X86074286Y-47722619D02*
X86645714Y-48722619D01*
X86645714Y-48722619D02*
X86645714Y-47722619D01*
X87121905Y-48722619D02*
X87121905Y-47722619D01*
X87121905Y-47722619D02*
X87360000Y-47722619D01*
X87360000Y-47722619D02*
X87502857Y-47770238D01*
X87502857Y-47770238D02*
X87598095Y-47865476D01*
X87598095Y-47865476D02*
X87645714Y-47960714D01*
X87645714Y-47960714D02*
X87693333Y-48151190D01*
X87693333Y-48151190D02*
X87693333Y-48294047D01*
X87693333Y-48294047D02*
X87645714Y-48484523D01*
X87645714Y-48484523D02*
X87598095Y-48579761D01*
X87598095Y-48579761D02*
X87502857Y-48675000D01*
X87502857Y-48675000D02*
X87360000Y-48722619D01*
X87360000Y-48722619D02*
X87121905Y-48722619D01*
X118191666Y-75151904D02*
X118191666Y-74390000D01*
X118572619Y-74770952D02*
X117810714Y-74770952D01*
X118572619Y-73390000D02*
X118572619Y-73961428D01*
X118572619Y-73675714D02*
X117572619Y-73675714D01*
X117572619Y-73675714D02*
X117715476Y-73770952D01*
X117715476Y-73770952D02*
X117810714Y-73866190D01*
X117810714Y-73866190D02*
X117858333Y-73961428D01*
X117667857Y-73009047D02*
X117620238Y-72961428D01*
X117620238Y-72961428D02*
X117572619Y-72866190D01*
X117572619Y-72866190D02*
X117572619Y-72628095D01*
X117572619Y-72628095D02*
X117620238Y-72532857D01*
X117620238Y-72532857D02*
X117667857Y-72485238D01*
X117667857Y-72485238D02*
X117763095Y-72437619D01*
X117763095Y-72437619D02*
X117858333Y-72437619D01*
X117858333Y-72437619D02*
X118001190Y-72485238D01*
X118001190Y-72485238D02*
X118572619Y-73056666D01*
X118572619Y-73056666D02*
X118572619Y-72437619D01*
X117572619Y-72151904D02*
X118572619Y-71818571D01*
X118572619Y-71818571D02*
X117572619Y-71485238D01*
X118572619Y-71151904D02*
X117572619Y-71151904D01*
X117572619Y-71151904D02*
X117572619Y-70913809D01*
X117572619Y-70913809D02*
X117620238Y-70770952D01*
X117620238Y-70770952D02*
X117715476Y-70675714D01*
X117715476Y-70675714D02*
X117810714Y-70628095D01*
X117810714Y-70628095D02*
X118001190Y-70580476D01*
X118001190Y-70580476D02*
X118144047Y-70580476D01*
X118144047Y-70580476D02*
X118334523Y-70628095D01*
X118334523Y-70628095D02*
X118429761Y-70675714D01*
X118429761Y-70675714D02*
X118525000Y-70770952D01*
X118525000Y-70770952D02*
X118572619Y-70913809D01*
X118572619Y-70913809D02*
X118572619Y-71151904D01*
X118477380Y-69580476D02*
X118525000Y-69628095D01*
X118525000Y-69628095D02*
X118572619Y-69770952D01*
X118572619Y-69770952D02*
X118572619Y-69866190D01*
X118572619Y-69866190D02*
X118525000Y-70009047D01*
X118525000Y-70009047D02*
X118429761Y-70104285D01*
X118429761Y-70104285D02*
X118334523Y-70151904D01*
X118334523Y-70151904D02*
X118144047Y-70199523D01*
X118144047Y-70199523D02*
X118001190Y-70199523D01*
X118001190Y-70199523D02*
X117810714Y-70151904D01*
X117810714Y-70151904D02*
X117715476Y-70104285D01*
X117715476Y-70104285D02*
X117620238Y-70009047D01*
X117620238Y-70009047D02*
X117572619Y-69866190D01*
X117572619Y-69866190D02*
X117572619Y-69770952D01*
X117572619Y-69770952D02*
X117620238Y-69628095D01*
X117620238Y-69628095D02*
X117667857Y-69580476D01*
X82462619Y-61119047D02*
X83462619Y-60452381D01*
X82462619Y-60452381D02*
X83462619Y-61119047D01*
X83462619Y-60071428D02*
X82795952Y-60071428D01*
X82462619Y-60071428D02*
X82510238Y-60119047D01*
X82510238Y-60119047D02*
X82557857Y-60071428D01*
X82557857Y-60071428D02*
X82510238Y-60023809D01*
X82510238Y-60023809D02*
X82462619Y-60071428D01*
X82462619Y-60071428D02*
X82557857Y-60071428D01*
X83462619Y-59166667D02*
X82938809Y-59166667D01*
X82938809Y-59166667D02*
X82843571Y-59214286D01*
X82843571Y-59214286D02*
X82795952Y-59309524D01*
X82795952Y-59309524D02*
X82795952Y-59500000D01*
X82795952Y-59500000D02*
X82843571Y-59595238D01*
X83415000Y-59166667D02*
X83462619Y-59261905D01*
X83462619Y-59261905D02*
X83462619Y-59500000D01*
X83462619Y-59500000D02*
X83415000Y-59595238D01*
X83415000Y-59595238D02*
X83319761Y-59642857D01*
X83319761Y-59642857D02*
X83224523Y-59642857D01*
X83224523Y-59642857D02*
X83129285Y-59595238D01*
X83129285Y-59595238D02*
X83081666Y-59500000D01*
X83081666Y-59500000D02*
X83081666Y-59261905D01*
X83081666Y-59261905D02*
X83034047Y-59166667D01*
X83462619Y-58547619D02*
X83415000Y-58642857D01*
X83415000Y-58642857D02*
X83367380Y-58690476D01*
X83367380Y-58690476D02*
X83272142Y-58738095D01*
X83272142Y-58738095D02*
X82986428Y-58738095D01*
X82986428Y-58738095D02*
X82891190Y-58690476D01*
X82891190Y-58690476D02*
X82843571Y-58642857D01*
X82843571Y-58642857D02*
X82795952Y-58547619D01*
X82795952Y-58547619D02*
X82795952Y-58404762D01*
X82795952Y-58404762D02*
X82843571Y-58309524D01*
X82843571Y-58309524D02*
X82891190Y-58261905D01*
X82891190Y-58261905D02*
X82986428Y-58214286D01*
X82986428Y-58214286D02*
X83272142Y-58214286D01*
X83272142Y-58214286D02*
X83367380Y-58261905D01*
X83367380Y-58261905D02*
X83415000Y-58309524D01*
X83415000Y-58309524D02*
X83462619Y-58404762D01*
X83462619Y-58404762D02*
X83462619Y-58547619D01*
X83415000Y-56642857D02*
X83462619Y-56738095D01*
X83462619Y-56738095D02*
X83462619Y-56928571D01*
X83462619Y-56928571D02*
X83415000Y-57023809D01*
X83415000Y-57023809D02*
X83319761Y-57071428D01*
X83319761Y-57071428D02*
X82938809Y-57071428D01*
X82938809Y-57071428D02*
X82843571Y-57023809D01*
X82843571Y-57023809D02*
X82795952Y-56928571D01*
X82795952Y-56928571D02*
X82795952Y-56738095D01*
X82795952Y-56738095D02*
X82843571Y-56642857D01*
X82843571Y-56642857D02*
X82938809Y-56595238D01*
X82938809Y-56595238D02*
X83034047Y-56595238D01*
X83034047Y-56595238D02*
X83129285Y-57071428D01*
X83415000Y-56214285D02*
X83462619Y-56119047D01*
X83462619Y-56119047D02*
X83462619Y-55928571D01*
X83462619Y-55928571D02*
X83415000Y-55833333D01*
X83415000Y-55833333D02*
X83319761Y-55785714D01*
X83319761Y-55785714D02*
X83272142Y-55785714D01*
X83272142Y-55785714D02*
X83176904Y-55833333D01*
X83176904Y-55833333D02*
X83129285Y-55928571D01*
X83129285Y-55928571D02*
X83129285Y-56071428D01*
X83129285Y-56071428D02*
X83081666Y-56166666D01*
X83081666Y-56166666D02*
X82986428Y-56214285D01*
X82986428Y-56214285D02*
X82938809Y-56214285D01*
X82938809Y-56214285D02*
X82843571Y-56166666D01*
X82843571Y-56166666D02*
X82795952Y-56071428D01*
X82795952Y-56071428D02*
X82795952Y-55928571D01*
X82795952Y-55928571D02*
X82843571Y-55833333D01*
X82795952Y-55357142D02*
X83795952Y-55357142D01*
X82843571Y-55357142D02*
X82795952Y-55261904D01*
X82795952Y-55261904D02*
X82795952Y-55071428D01*
X82795952Y-55071428D02*
X82843571Y-54976190D01*
X82843571Y-54976190D02*
X82891190Y-54928571D01*
X82891190Y-54928571D02*
X82986428Y-54880952D01*
X82986428Y-54880952D02*
X83272142Y-54880952D01*
X83272142Y-54880952D02*
X83367380Y-54928571D01*
X83367380Y-54928571D02*
X83415000Y-54976190D01*
X83415000Y-54976190D02*
X83462619Y-55071428D01*
X83462619Y-55071428D02*
X83462619Y-55261904D01*
X83462619Y-55261904D02*
X83415000Y-55357142D01*
X82462619Y-54547618D02*
X82462619Y-53928571D01*
X82462619Y-53928571D02*
X82843571Y-54261904D01*
X82843571Y-54261904D02*
X82843571Y-54119047D01*
X82843571Y-54119047D02*
X82891190Y-54023809D01*
X82891190Y-54023809D02*
X82938809Y-53976190D01*
X82938809Y-53976190D02*
X83034047Y-53928571D01*
X83034047Y-53928571D02*
X83272142Y-53928571D01*
X83272142Y-53928571D02*
X83367380Y-53976190D01*
X83367380Y-53976190D02*
X83415000Y-54023809D01*
X83415000Y-54023809D02*
X83462619Y-54119047D01*
X83462619Y-54119047D02*
X83462619Y-54404761D01*
X83462619Y-54404761D02*
X83415000Y-54499999D01*
X83415000Y-54499999D02*
X83367380Y-54547618D01*
X82557857Y-53547618D02*
X82510238Y-53499999D01*
X82510238Y-53499999D02*
X82462619Y-53404761D01*
X82462619Y-53404761D02*
X82462619Y-53166666D01*
X82462619Y-53166666D02*
X82510238Y-53071428D01*
X82510238Y-53071428D02*
X82557857Y-53023809D01*
X82557857Y-53023809D02*
X82653095Y-52976190D01*
X82653095Y-52976190D02*
X82748333Y-52976190D01*
X82748333Y-52976190D02*
X82891190Y-53023809D01*
X82891190Y-53023809D02*
X83462619Y-53595237D01*
X83462619Y-53595237D02*
X83462619Y-52976190D01*
X83081666Y-52547618D02*
X83081666Y-51785714D01*
X83415000Y-50880952D02*
X83462619Y-50976190D01*
X83462619Y-50976190D02*
X83462619Y-51166666D01*
X83462619Y-51166666D02*
X83415000Y-51261904D01*
X83415000Y-51261904D02*
X83367380Y-51309523D01*
X83367380Y-51309523D02*
X83272142Y-51357142D01*
X83272142Y-51357142D02*
X82986428Y-51357142D01*
X82986428Y-51357142D02*
X82891190Y-51309523D01*
X82891190Y-51309523D02*
X82843571Y-51261904D01*
X82843571Y-51261904D02*
X82795952Y-51166666D01*
X82795952Y-51166666D02*
X82795952Y-50976190D01*
X82795952Y-50976190D02*
X82843571Y-50880952D01*
X82462619Y-50547618D02*
X82462619Y-49928571D01*
X82462619Y-49928571D02*
X82843571Y-50261904D01*
X82843571Y-50261904D02*
X82843571Y-50119047D01*
X82843571Y-50119047D02*
X82891190Y-50023809D01*
X82891190Y-50023809D02*
X82938809Y-49976190D01*
X82938809Y-49976190D02*
X83034047Y-49928571D01*
X83034047Y-49928571D02*
X83272142Y-49928571D01*
X83272142Y-49928571D02*
X83367380Y-49976190D01*
X83367380Y-49976190D02*
X83415000Y-50023809D01*
X83415000Y-50023809D02*
X83462619Y-50119047D01*
X83462619Y-50119047D02*
X83462619Y-50404761D01*
X83462619Y-50404761D02*
X83415000Y-50499999D01*
X83415000Y-50499999D02*
X83367380Y-50547618D01*
D11*
X74870000Y-69790000D02*
X76200000Y-69790000D01*
X74870000Y-71120000D02*
X74870000Y-69790000D01*
X74870000Y-72390000D02*
X74870000Y-90230000D01*
X74870000Y-72390000D02*
X77530000Y-72390000D01*
X74870000Y-90230000D02*
X77530000Y-90230000D01*
X77530000Y-72390000D02*
X77530000Y-90230000D01*
X114320000Y-73550000D02*
X116560000Y-73550000D01*
X116560000Y-73550000D02*
X116560000Y-71550000D01*
X107200000Y-73310000D02*
X116320000Y-73310000D01*
X107200000Y-73310000D02*
X107200000Y-58190000D01*
X109260000Y-73310000D02*
X109260000Y-58190000D01*
X114260000Y-73310000D02*
X114260000Y-58190000D01*
X116320000Y-73310000D02*
X116320000Y-58190000D01*
X112736000Y-63180000D02*
X112829000Y-63274000D01*
X112976000Y-63010000D02*
X113034000Y-63069000D01*
X110485000Y-60930000D02*
X110544000Y-60989000D01*
X110691000Y-60725000D02*
X110784000Y-60819000D01*
X107200000Y-58190000D02*
X116320000Y-58190000D01*
X110971000Y-70984000D02*
G75*
G03*
X112549089Y-70983953I789000J1483995D01*
G01*
X110276000Y-68711000D02*
G75*
G03*
X110276047Y-70289089I1483995J-789000D01*
G01*
X113243999Y-70289000D02*
G75*
G03*
X113440449Y-69470617I-1483994J788998D01*
G01*
X113439999Y-69500000D02*
G75*
G03*
X113243351Y-68711288I-1679999J0D01*
G01*
X112549000Y-68016000D02*
G75*
G03*
X110970911Y-68016048I-789000J-1484000D01*
G01*
X113440000Y-62000000D02*
G75*
G03*
X113440000Y-62000000I-1680000J0D01*
G01*
X95985225Y-44245000D02*
X96485225Y-44245000D01*
X96235225Y-43995000D02*
X96235225Y-44495000D01*
X98790000Y-43140000D02*
X98790000Y-44680000D01*
X98790000Y-46760000D02*
X98790000Y-48300000D01*
X98830000Y-43140000D02*
X98830000Y-44680000D01*
X98830000Y-46760000D02*
X98830000Y-48300000D01*
X98870000Y-43141000D02*
X98870000Y-44680000D01*
X98870000Y-46760000D02*
X98870000Y-48299000D01*
X98910000Y-43142000D02*
X98910000Y-44680000D01*
X98910000Y-46760000D02*
X98910000Y-48298000D01*
X98950000Y-43144000D02*
X98950000Y-44680000D01*
X98950000Y-46760000D02*
X98950000Y-48296000D01*
X98990000Y-43147000D02*
X98990000Y-44680000D01*
X98990000Y-46760000D02*
X98990000Y-48293000D01*
X99030000Y-43151000D02*
X99030000Y-44680000D01*
X99030000Y-46760000D02*
X99030000Y-48289000D01*
X99070000Y-43155000D02*
X99070000Y-44680000D01*
X99070000Y-46760000D02*
X99070000Y-48285000D01*
X99110000Y-43159000D02*
X99110000Y-44680000D01*
X99110000Y-46760000D02*
X99110000Y-48281000D01*
X99150000Y-43164000D02*
X99150000Y-44680000D01*
X99150000Y-46760000D02*
X99150000Y-48276000D01*
X99190000Y-43170000D02*
X99190000Y-44680000D01*
X99190000Y-46760000D02*
X99190000Y-48270000D01*
X99230000Y-43177000D02*
X99230000Y-44680000D01*
X99230000Y-46760000D02*
X99230000Y-48263000D01*
X99270000Y-43184000D02*
X99270000Y-44680000D01*
X99270000Y-46760000D02*
X99270000Y-48256000D01*
X99310000Y-43192000D02*
X99310000Y-44680000D01*
X99310000Y-46760000D02*
X99310000Y-48248000D01*
X99350000Y-43200000D02*
X99350000Y-44680000D01*
X99350000Y-46760000D02*
X99350000Y-48240000D01*
X99390000Y-43209000D02*
X99390000Y-44680000D01*
X99390000Y-46760000D02*
X99390000Y-48231000D01*
X99430000Y-43219000D02*
X99430000Y-44680000D01*
X99430000Y-46760000D02*
X99430000Y-48221000D01*
X99470000Y-43229000D02*
X99470000Y-44680000D01*
X99470000Y-46760000D02*
X99470000Y-48211000D01*
X99511000Y-43240000D02*
X99511000Y-44680000D01*
X99511000Y-46760000D02*
X99511000Y-48200000D01*
X99551000Y-43252000D02*
X99551000Y-44680000D01*
X99551000Y-46760000D02*
X99551000Y-48188000D01*
X99591000Y-43265000D02*
X99591000Y-44680000D01*
X99591000Y-46760000D02*
X99591000Y-48175000D01*
X99631000Y-43278000D02*
X99631000Y-44680000D01*
X99631000Y-46760000D02*
X99631000Y-48162000D01*
X99671000Y-43292000D02*
X99671000Y-44680000D01*
X99671000Y-46760000D02*
X99671000Y-48148000D01*
X99711000Y-43306000D02*
X99711000Y-44680000D01*
X99711000Y-46760000D02*
X99711000Y-48134000D01*
X99751000Y-43322000D02*
X99751000Y-44680000D01*
X99751000Y-46760000D02*
X99751000Y-48118000D01*
X99791000Y-43338000D02*
X99791000Y-44680000D01*
X99791000Y-46760000D02*
X99791000Y-48102000D01*
X99831000Y-43355000D02*
X99831000Y-44680000D01*
X99831000Y-46760000D02*
X99831000Y-48085000D01*
X99871000Y-43372000D02*
X99871000Y-44680000D01*
X99871000Y-46760000D02*
X99871000Y-48068000D01*
X99911000Y-43391000D02*
X99911000Y-44680000D01*
X99911000Y-46760000D02*
X99911000Y-48049000D01*
X99951000Y-43410000D02*
X99951000Y-44680000D01*
X99951000Y-46760000D02*
X99951000Y-48030000D01*
X99991000Y-43430000D02*
X99991000Y-44680000D01*
X99991000Y-46760000D02*
X99991000Y-48010000D01*
X100031000Y-43452000D02*
X100031000Y-44680000D01*
X100031000Y-46760000D02*
X100031000Y-47988000D01*
X100071000Y-43473000D02*
X100071000Y-44680000D01*
X100071000Y-46760000D02*
X100071000Y-47967000D01*
X100111000Y-43496000D02*
X100111000Y-44680000D01*
X100111000Y-46760000D02*
X100111000Y-47944000D01*
X100151000Y-43520000D02*
X100151000Y-44680000D01*
X100151000Y-46760000D02*
X100151000Y-47920000D01*
X100191000Y-43545000D02*
X100191000Y-44680000D01*
X100191000Y-46760000D02*
X100191000Y-47895000D01*
X100231000Y-43571000D02*
X100231000Y-44680000D01*
X100231000Y-46760000D02*
X100231000Y-47869000D01*
X100271000Y-43598000D02*
X100271000Y-44680000D01*
X100271000Y-46760000D02*
X100271000Y-47842000D01*
X100311000Y-43625000D02*
X100311000Y-44680000D01*
X100311000Y-46760000D02*
X100311000Y-47815000D01*
X100351000Y-43655000D02*
X100351000Y-44680000D01*
X100351000Y-46760000D02*
X100351000Y-47785000D01*
X100391000Y-43685000D02*
X100391000Y-44680000D01*
X100391000Y-46760000D02*
X100391000Y-47755000D01*
X100431000Y-43716000D02*
X100431000Y-44680000D01*
X100431000Y-46760000D02*
X100431000Y-47724000D01*
X100471000Y-43749000D02*
X100471000Y-44680000D01*
X100471000Y-46760000D02*
X100471000Y-47691000D01*
X100511000Y-43783000D02*
X100511000Y-44680000D01*
X100511000Y-46760000D02*
X100511000Y-47657000D01*
X100551000Y-43819000D02*
X100551000Y-44680000D01*
X100551000Y-46760000D02*
X100551000Y-47621000D01*
X100591000Y-43856000D02*
X100591000Y-44680000D01*
X100591000Y-46760000D02*
X100591000Y-47584000D01*
X100631000Y-43894000D02*
X100631000Y-44680000D01*
X100631000Y-46760000D02*
X100631000Y-47546000D01*
X100671000Y-43935000D02*
X100671000Y-44680000D01*
X100671000Y-46760000D02*
X100671000Y-47505000D01*
X100711000Y-43977000D02*
X100711000Y-44680000D01*
X100711000Y-46760000D02*
X100711000Y-47463000D01*
X100751000Y-44021000D02*
X100751000Y-44680000D01*
X100751000Y-46760000D02*
X100751000Y-47419000D01*
X100791000Y-44067000D02*
X100791000Y-44680000D01*
X100791000Y-46760000D02*
X100791000Y-47373000D01*
X100831000Y-44115000D02*
X100831000Y-47325000D01*
X100871000Y-44166000D02*
X100871000Y-47274000D01*
X100911000Y-44220000D02*
X100911000Y-47220000D01*
X100951000Y-44277000D02*
X100951000Y-47163000D01*
X100991000Y-44337000D02*
X100991000Y-47103000D01*
X101031000Y-44401000D02*
X101031000Y-47039000D01*
X101071000Y-44469000D02*
X101071000Y-46971000D01*
X101111000Y-44542000D02*
X101111000Y-46898000D01*
X101151000Y-44622000D02*
X101151000Y-46818000D01*
X101191000Y-44709000D02*
X101191000Y-46731000D01*
X101231000Y-44805000D02*
X101231000Y-46635000D01*
X101271000Y-44915000D02*
X101271000Y-46525000D01*
X101311000Y-45043000D02*
X101311000Y-46397000D01*
X101351000Y-45202000D02*
X101351000Y-46238000D01*
X101391000Y-45436000D02*
X101391000Y-46004000D01*
X101410000Y-45720000D02*
G75*
G03*
X101410000Y-45720000I-2620000J0D01*
G01*
X99265000Y-66795225D02*
X99265000Y-67295225D01*
X99515000Y-67045225D02*
X99015000Y-67045225D01*
X100370000Y-69600000D02*
X98830000Y-69600000D01*
X96750000Y-69600000D02*
X95210000Y-69600000D01*
X100370000Y-69640000D02*
X98830000Y-69640000D01*
X96750000Y-69640000D02*
X95210000Y-69640000D01*
X100369000Y-69680000D02*
X98830000Y-69680000D01*
X96750000Y-69680000D02*
X95211000Y-69680000D01*
X100368000Y-69720000D02*
X98830000Y-69720000D01*
X96750000Y-69720000D02*
X95212000Y-69720000D01*
X100366000Y-69760000D02*
X98830000Y-69760000D01*
X96750000Y-69760000D02*
X95214000Y-69760000D01*
X100363000Y-69800000D02*
X98830000Y-69800000D01*
X96750000Y-69800000D02*
X95217000Y-69800000D01*
X100359000Y-69840000D02*
X98830000Y-69840000D01*
X96750000Y-69840000D02*
X95221000Y-69840000D01*
X100355000Y-69880000D02*
X98830000Y-69880000D01*
X96750000Y-69880000D02*
X95225000Y-69880000D01*
X100351000Y-69920000D02*
X98830000Y-69920000D01*
X96750000Y-69920000D02*
X95229000Y-69920000D01*
X100346000Y-69960000D02*
X98830000Y-69960000D01*
X96750000Y-69960000D02*
X95234000Y-69960000D01*
X100340000Y-70000000D02*
X98830000Y-70000000D01*
X96750000Y-70000000D02*
X95240000Y-70000000D01*
X100333000Y-70040000D02*
X98830000Y-70040000D01*
X96750000Y-70040000D02*
X95247000Y-70040000D01*
X100326000Y-70080000D02*
X98830000Y-70080000D01*
X96750000Y-70080000D02*
X95254000Y-70080000D01*
X100318000Y-70120000D02*
X98830000Y-70120000D01*
X96750000Y-70120000D02*
X95262000Y-70120000D01*
X100310000Y-70160000D02*
X98830000Y-70160000D01*
X96750000Y-70160000D02*
X95270000Y-70160000D01*
X100301000Y-70200000D02*
X98830000Y-70200000D01*
X96750000Y-70200000D02*
X95279000Y-70200000D01*
X100291000Y-70240000D02*
X98830000Y-70240000D01*
X96750000Y-70240000D02*
X95289000Y-70240000D01*
X100281000Y-70280000D02*
X98830000Y-70280000D01*
X96750000Y-70280000D02*
X95299000Y-70280000D01*
X100270000Y-70321000D02*
X98830000Y-70321000D01*
X96750000Y-70321000D02*
X95310000Y-70321000D01*
X100258000Y-70361000D02*
X98830000Y-70361000D01*
X96750000Y-70361000D02*
X95322000Y-70361000D01*
X100245000Y-70401000D02*
X98830000Y-70401000D01*
X96750000Y-70401000D02*
X95335000Y-70401000D01*
X100232000Y-70441000D02*
X98830000Y-70441000D01*
X96750000Y-70441000D02*
X95348000Y-70441000D01*
X100218000Y-70481000D02*
X98830000Y-70481000D01*
X96750000Y-70481000D02*
X95362000Y-70481000D01*
X100204000Y-70521000D02*
X98830000Y-70521000D01*
X96750000Y-70521000D02*
X95376000Y-70521000D01*
X100188000Y-70561000D02*
X98830000Y-70561000D01*
X96750000Y-70561000D02*
X95392000Y-70561000D01*
X100172000Y-70601000D02*
X98830000Y-70601000D01*
X96750000Y-70601000D02*
X95408000Y-70601000D01*
X100155000Y-70641000D02*
X98830000Y-70641000D01*
X96750000Y-70641000D02*
X95425000Y-70641000D01*
X100138000Y-70681000D02*
X98830000Y-70681000D01*
X96750000Y-70681000D02*
X95442000Y-70681000D01*
X100119000Y-70721000D02*
X98830000Y-70721000D01*
X96750000Y-70721000D02*
X95461000Y-70721000D01*
X100100000Y-70761000D02*
X98830000Y-70761000D01*
X96750000Y-70761000D02*
X95480000Y-70761000D01*
X100080000Y-70801000D02*
X98830000Y-70801000D01*
X96750000Y-70801000D02*
X95500000Y-70801000D01*
X100058000Y-70841000D02*
X98830000Y-70841000D01*
X96750000Y-70841000D02*
X95522000Y-70841000D01*
X100037000Y-70881000D02*
X98830000Y-70881000D01*
X96750000Y-70881000D02*
X95543000Y-70881000D01*
X100014000Y-70921000D02*
X98830000Y-70921000D01*
X96750000Y-70921000D02*
X95566000Y-70921000D01*
X99990000Y-70961000D02*
X98830000Y-70961000D01*
X96750000Y-70961000D02*
X95590000Y-70961000D01*
X99965000Y-71001000D02*
X98830000Y-71001000D01*
X96750000Y-71001000D02*
X95615000Y-71001000D01*
X99939000Y-71041000D02*
X98830000Y-71041000D01*
X96750000Y-71041000D02*
X95641000Y-71041000D01*
X99912000Y-71081000D02*
X98830000Y-71081000D01*
X96750000Y-71081000D02*
X95668000Y-71081000D01*
X99885000Y-71121000D02*
X98830000Y-71121000D01*
X96750000Y-71121000D02*
X95695000Y-71121000D01*
X99855000Y-71161000D02*
X98830000Y-71161000D01*
X96750000Y-71161000D02*
X95725000Y-71161000D01*
X99825000Y-71201000D02*
X98830000Y-71201000D01*
X96750000Y-71201000D02*
X95755000Y-71201000D01*
X99794000Y-71241000D02*
X98830000Y-71241000D01*
X96750000Y-71241000D02*
X95786000Y-71241000D01*
X99761000Y-71281000D02*
X98830000Y-71281000D01*
X96750000Y-71281000D02*
X95819000Y-71281000D01*
X99727000Y-71321000D02*
X98830000Y-71321000D01*
X96750000Y-71321000D02*
X95853000Y-71321000D01*
X99691000Y-71361000D02*
X98830000Y-71361000D01*
X96750000Y-71361000D02*
X95889000Y-71361000D01*
X99654000Y-71401000D02*
X98830000Y-71401000D01*
X96750000Y-71401000D02*
X95926000Y-71401000D01*
X99616000Y-71441000D02*
X98830000Y-71441000D01*
X96750000Y-71441000D02*
X95964000Y-71441000D01*
X99575000Y-71481000D02*
X98830000Y-71481000D01*
X96750000Y-71481000D02*
X96005000Y-71481000D01*
X99533000Y-71521000D02*
X98830000Y-71521000D01*
X96750000Y-71521000D02*
X96047000Y-71521000D01*
X99489000Y-71561000D02*
X98830000Y-71561000D01*
X96750000Y-71561000D02*
X96091000Y-71561000D01*
X99443000Y-71601000D02*
X98830000Y-71601000D01*
X96750000Y-71601000D02*
X96137000Y-71601000D01*
X99395000Y-71641000D02*
X96185000Y-71641000D01*
X99344000Y-71681000D02*
X96236000Y-71681000D01*
X99290000Y-71721000D02*
X96290000Y-71721000D01*
X99233000Y-71761000D02*
X96347000Y-71761000D01*
X99173000Y-71801000D02*
X96407000Y-71801000D01*
X99109000Y-71841000D02*
X96471000Y-71841000D01*
X99041000Y-71881000D02*
X96539000Y-71881000D01*
X98968000Y-71921000D02*
X96612000Y-71921000D01*
X98888000Y-71961000D02*
X96692000Y-71961000D01*
X98801000Y-72001000D02*
X96779000Y-72001000D01*
X98705000Y-72041000D02*
X96875000Y-72041000D01*
X98595000Y-72081000D02*
X96985000Y-72081000D01*
X98467000Y-72121000D02*
X97113000Y-72121000D01*
X98308000Y-72161000D02*
X97272000Y-72161000D01*
X98074000Y-72201000D02*
X97506000Y-72201000D01*
X100410000Y-69600000D02*
G75*
G03*
X100410000Y-69600000I-2620000J0D01*
G01*
X94195000Y-61000000D02*
X98836000Y-61000000D01*
X94195000Y-61000000D02*
X94195000Y-50760000D01*
X95705000Y-61000000D02*
X95705000Y-50760000D01*
X98836000Y-61000000D02*
X98836000Y-50760000D01*
X94195000Y-57730000D02*
X95705000Y-57730000D01*
X94195000Y-54029000D02*
X95705000Y-54029000D01*
X94195000Y-50760000D02*
X98836000Y-50760000D01*
X95250000Y-77470000D02*
X96520000Y-77470000D01*
X95250000Y-78740000D02*
X95250000Y-77470000D01*
X97562929Y-80900000D02*
X98017071Y-80900000D01*
X97562929Y-81660000D02*
X98017071Y-81660000D01*
X97562929Y-83440000D02*
X98017071Y-83440000D01*
X97562929Y-84200000D02*
X98017071Y-84200000D01*
X97562929Y-85980000D02*
X98017071Y-85980000D01*
X97562929Y-86740000D02*
X98017071Y-86740000D01*
X97562929Y-88520000D02*
X98017071Y-88520000D01*
X97562929Y-89280000D02*
X98017071Y-89280000D01*
X97630000Y-78360000D02*
X98017071Y-78360000D01*
X97630000Y-79120000D02*
X98017071Y-79120000D01*
X100102929Y-78360000D02*
X100500000Y-78360000D01*
X100102929Y-79120000D02*
X100500000Y-79120000D01*
X100102929Y-80900000D02*
X100500000Y-80900000D01*
X100102929Y-81660000D02*
X100500000Y-81660000D01*
X100102929Y-83440000D02*
X100500000Y-83440000D01*
X100102929Y-84200000D02*
X100500000Y-84200000D01*
X100102929Y-85980000D02*
X100500000Y-85980000D01*
X100102929Y-86740000D02*
X100500000Y-86740000D01*
X100102929Y-88520000D02*
X100500000Y-88520000D01*
X100102929Y-89280000D02*
X100500000Y-89280000D01*
X100500000Y-77410000D02*
X100500000Y-90230000D01*
X100500000Y-80010000D02*
X103160000Y-80010000D01*
X100500000Y-82550000D02*
X103160000Y-82550000D01*
X100500000Y-85090000D02*
X103160000Y-85090000D01*
X100500000Y-87630000D02*
X103160000Y-87630000D01*
X100500000Y-90230000D02*
X103160000Y-90230000D01*
X103160000Y-77410000D02*
X100500000Y-77410000D01*
X103160000Y-78360000D02*
X109160000Y-78360000D01*
X103160000Y-78420000D02*
X109160000Y-78420000D01*
X103160000Y-78540000D02*
X109160000Y-78540000D01*
X103160000Y-78660000D02*
X109160000Y-78660000D01*
X103160000Y-78780000D02*
X109160000Y-78780000D01*
X103160000Y-78900000D02*
X109160000Y-78900000D01*
X103160000Y-79020000D02*
X109160000Y-79020000D01*
X103160000Y-80900000D02*
X109160000Y-80900000D01*
X103160000Y-83440000D02*
X109160000Y-83440000D01*
X103160000Y-85980000D02*
X109160000Y-85980000D01*
X103160000Y-88520000D02*
X109160000Y-88520000D01*
X103160000Y-90230000D02*
X103160000Y-77410000D01*
X109160000Y-78360000D02*
X109160000Y-79120000D01*
X109160000Y-79120000D02*
X103160000Y-79120000D01*
X109160000Y-80900000D02*
X109160000Y-81660000D01*
X109160000Y-81660000D02*
X103160000Y-81660000D01*
X109160000Y-83440000D02*
X109160000Y-84200000D01*
X109160000Y-84200000D02*
X103160000Y-84200000D01*
X109160000Y-85980000D02*
X109160000Y-86740000D01*
X109160000Y-86740000D02*
X103160000Y-86740000D01*
X109160000Y-88520000D02*
X109160000Y-89280000D01*
X109160000Y-89280000D02*
X103160000Y-89280000D01*
X87570000Y-69790000D02*
X88900000Y-69790000D01*
X87570000Y-71120000D02*
X87570000Y-69790000D01*
X87570000Y-72390000D02*
X87570000Y-90230000D01*
X87570000Y-72390000D02*
X90230000Y-72390000D01*
X87570000Y-90230000D02*
X90230000Y-90230000D01*
X90230000Y-72390000D02*
X90230000Y-90230000D01*
X73600000Y-44390000D02*
X74930000Y-44390000D01*
X73600000Y-45720000D02*
X73600000Y-44390000D01*
X73600000Y-46990000D02*
X73600000Y-62290000D01*
X73600000Y-46990000D02*
X76260000Y-46990000D01*
X73600000Y-62290000D02*
X76260000Y-62290000D01*
X76260000Y-46990000D02*
X76260000Y-62290000D01*
X88840000Y-44390000D02*
X90170000Y-44390000D01*
X88840000Y-45720000D02*
X88840000Y-44390000D01*
X88840000Y-46990000D02*
X88840000Y-62290000D01*
X88840000Y-46990000D02*
X91500000Y-46990000D01*
X88840000Y-62290000D02*
X91500000Y-62290000D01*
X91500000Y-46990000D02*
X91500000Y-62290000D01*
%LPC*%
D12*
X106680000Y-95250000D03*
D13*
X76200000Y-71120000D03*
D14*
X76200000Y-73660000D03*
X76200000Y-76200000D03*
X76200000Y-78740000D03*
X76200000Y-81280000D03*
X76200000Y-83820000D03*
X76200000Y-86360000D03*
X76200000Y-88900000D03*
D15*
X111760000Y-69500000D03*
D16*
X111760000Y-62000000D03*
D17*
X97790000Y-45720000D03*
D18*
X99790000Y-45720000D03*
D17*
X97790000Y-68600000D03*
D18*
X97790000Y-70600000D03*
D12*
X68580000Y-43180000D03*
D19*
X97465000Y-58420000D03*
D20*
X97465000Y-55880000D03*
X97465000Y-53340000D03*
D13*
X96520000Y-78740000D03*
D14*
X99060000Y-78740000D03*
X96520000Y-81280000D03*
X99060000Y-81280000D03*
X96520000Y-83820000D03*
X99060000Y-83820000D03*
X96520000Y-86360000D03*
X99060000Y-86360000D03*
X96520000Y-88900000D03*
X99060000Y-88900000D03*
D13*
X88900000Y-71120000D03*
D14*
X88900000Y-73660000D03*
X88900000Y-76200000D03*
X88900000Y-78740000D03*
X88900000Y-81280000D03*
X88900000Y-83820000D03*
X88900000Y-86360000D03*
X88900000Y-88900000D03*
D13*
X74930000Y-45720000D03*
D14*
X74930000Y-48260000D03*
X74930000Y-50800000D03*
X74930000Y-53340000D03*
X74930000Y-55880000D03*
X74930000Y-58420000D03*
X74930000Y-60960000D03*
D12*
X106680000Y-43180000D03*
X68580000Y-95250000D03*
D13*
X90170000Y-45720000D03*
D14*
X90170000Y-48260000D03*
X90170000Y-50800000D03*
X90170000Y-53340000D03*
X90170000Y-55880000D03*
X90170000Y-58420000D03*
X90170000Y-60960000D03*
%LPD*%
M02*
