  0
SECTION
  2
HEADER
  9
$ACADVER
  1
AC1014
  9
$HANDSEED
  5
FFFF
  9
$MEASUREMENT
 70
     1
  0
ENDSEC
  0
SECTION
  2
TABLES
  0
TABLE
  2
VPORT
  5
8
330
0
100
AcDbSymbolTable
 70
     4
  0
VPORT
  5
2E
330
8
100
AcDbSymbolTableRecord
100
AcDbViewportTableRecord
  2
*ACTIVE
 70
     0
 10
0.0
 20
0.0
 11
1.0
 21
1.0
 12
210.0
 22
148.5
 13
0.0
 23
0.0
 14
10.0
 24
10.0
 15
10.0
 25
10.0
 16
0.0
 26
0.0
 36
1.0
 17
0.0
 27
0.0
 37
0.0
 40
341.0
 41
1.24
 42
50.0
 43
0.0
 44
0.0
 50
0.0
 51
0.0
 71
     0
 72
   100
 73
     1
 74
     3
 75
     0
 76
     0
 77
     0
 78
     0
  0
ENDTAB
  0
TABLE
  2
LTYPE
  5
5
330
0
100
AcDbSymbolTable
 70
     1
  0
LTYPE
  5
14
330
5
100
AcDbSymbolTableRecord
100
AcDbLinetypeTableRecord
  2
BYBLOCK
 70
     0
  3

 72
    65
 73
     0
 40
0.0
  0
LTYPE
  5
15
330
5
100
AcDbSymbolTableRecord
100
AcDbLinetypeTableRecord
  2
BYLAYER
 70
     0
  3

 72
    65
 73
     0
 40
0.0
  0
LTYPE
  5
16
330
5
100
AcDbSymbolTableRecord
100
AcDbLinetypeTableRecord
  2
CONTINUOUS
 70
     0
  3
Solid line
 72
    65
 73
     0
 40
0.0
  0
ENDTAB
  0
TABLE
  2
LAYER
  5
2
100
AcDbSymbolTable
 70
2
  0
LAYER
  5
50
100
AcDbSymbolTableRecord
100
AcDbLayerTableRecord
  2
0
 70
0
  6
CONTINUOUS
  0
LAYER
  5
51
100
AcDbSymbolTableRecord
100
AcDbLayerTableRecord
  2
Layer_1
 70
0
  6
CONTINUOUS
  0
ENDTAB
  0
TABLE
  2
STYLE
  5
3
330
0
100
AcDbSymbolTable
 70
     1
  0
STYLE
  5
11
330
3
100
AcDbSymbolTableRecord
100
AcDbTextStyleTableRecord
  2
STANDARD
 70
     0
 40
0.0
 41
1.0
 50
0.0
 71
     0
 42
2.5
  3
txt
  4

  0
ENDTAB
  0
TABLE
  2
VIEW
  5
6
330
0
100
AcDbSymbolTable
 70
     0
  0
ENDTAB
  0
TABLE
  2
UCS
  5
7
330
0
100
AcDbSymbolTable
 70
     0
  0
ENDTAB
  0
TABLE
  2
APPID
  5
9
330
0
100
AcDbSymbolTable
 70
     2
  0
APPID
  5
12
330
9
100
AcDbSymbolTableRecord
100
AcDbRegAppTableRecord
  2
ACAD
 70
     0
  0
ENDTAB
  0
TABLE
  2
DIMSTYLE
  5
A
330
0
100
AcDbSymbolTable
 70
     1
  0
DIMSTYLE
105
27
330
A
100
AcDbSymbolTableRecord
100
AcDbDimStyleTableRecord
  2
ISO-25
 70
     0
  3

  4

  5

  6

  7

 40
1.0
 41
2.5
 42
0.625
 43
3.75
 44
1.25
 45
0.0
 46
0.0
 47
0.0
 48
0.0
140
2.5
141
2.5
142
0.0
143
0.03937007874016
144
1.0
145
0.0
146
1.0
147
0.625
 71
     0
 72
     0
 73
     0
 74
     0
 75
     0
 76
     0
 77
     1
 78
     8
170
     0
171
     3
172
     1
173
     0
174
     0
175
     0
176
     0
177
     0
178
     0
270
     2
271
     2
272
     2
273
     2
274
     3
340
11
275
     0
280
     0
281
     0
282
     0
283
     0
284
     8
285
     0
286
     0
287
     3
288
     0
  0
ENDTAB
  0
TABLE
  2
BLOCK_RECORD
  5
1
330
0
100
AcDbSymbolTable
 70
     1
  0
BLOCK_RECORD
  5
1F
330
1
100
AcDbSymbolTableRecord
100
AcDbBlockTableRecord
  2
*MODEL_SPACE
  0
BLOCK_RECORD
  5
1B
330
1
100
AcDbSymbolTableRecord
100
AcDbBlockTableRecord
  2
*PAPER_SPACE
  0
ENDTAB
  0
ENDSEC
  0
SECTION
  2
BLOCKS
  0
BLOCK
  5
20
330
1F
100
AcDbEntity
  8
0
100
AcDbBlockBegin
  2
*MODEL_SPACE
 70
     0
 10
0.0
 20
0.0
 30
0.0
  3
*MODEL_SPACE
  1

  0
ENDBLK
  5
21
330
1F
100
AcDbEntity
  8
0
100
AcDbBlockEnd
  0
BLOCK
  5
1C
330
1B
100
AcDbEntity
 67
     1
  8
0
100
AcDbBlockBegin
  2
*PAPER_SPACE
  1

  0
ENDBLK
  5
1D
330
1B
100
AcDbEntity
 67
     1
  8
0
100
AcDbBlockEnd
  0
ENDSEC
  0
SECTION
  2
ENTITIES
  0
SPLINE
  5
100
100
AcDbEntity
  8
Layer_1
 62
7
100
AcDbSpline
 70
8
 71
3
 72
8
 73
4
 74
0
 40
0
 40
0
 40
0
 40
0
 40
1
 40
1
 40
1
 40
1
 10
60.369568
 20
119.206522
 30
0.0
 10
60.369567
 20
118.410872
 30
0.0
 10
60.053496
 20
117.647809
 30
0.0
 10
59.490886
 20
117.085200
 30
0.0
  0
SPLINE
  5
101
100
AcDbEntity
  8
Layer_1
 62
7
100
AcDbSpline
 70
8
 71
3
 72
8
 73
4
 74
0
 40
0
 40
0
 40
0
 40
0
 40
1
 40
1
 40
1
 40
1
 10
59.490886
 20
117.085200
 30
0.0
 10
58.928277
 20
116.522590
 30
0.0
 10
58.165214
 20
116.206520
 30
0.0
 10
57.369564
 20
116.206521
 30
0.0
  0
SPLINE
  5
102
100
AcDbEntity
  8
Layer_1
 62
7
100
AcDbSpline
 70
8
 71
3
 72
8
 73
4
 74
0
 40
0
 40
0
 40
0
 40
0
 40
1
 40
1
 40
1
 40
1
 10
57.369564
 20
116.206521
 30
0.0
 10
55.712709
 20
116.206521
 30
0.0
 10
54.369563
 20
117.549667
 30
0.0
 10
54.369562
 20
119.206522
 30
0.0
  0
SPLINE
  5
103
100
AcDbEntity
  8
Layer_1
 62
7
100
AcDbSpline
 70
8
 71
3
 72
8
 73
4
 74
0
 40
0
 40
0
 40
0
 40
0
 40
1
 40
1
 40
1
 40
1
 10
54.369562
 20
119.206522
 30
0.0
 10
54.369563
 20
120.863377
 30
0.0
 10
55.712709
 20
122.206523
 30
0.0
 10
57.369564
 20
122.206523
 30
0.0
  0
SPLINE
  5
104
100
AcDbEntity
  8
Layer_1
 62
7
100
AcDbSpline
 70
8
 71
3
 72
8
 73
4
 74
0
 40
0
 40
0
 40
0
 40
0
 40
1
 40
1
 40
1
 40
1
 10
57.369564
 20
122.206523
 30
0.0
 10
58.165214
 20
122.206524
 30
0.0
 10
58.928277
 20
121.890453
 30
0.0
 10
59.490886
 20
121.327844
 30
0.0
  0
SPLINE
  5
105
100
AcDbEntity
  8
Layer_1
 62
7
100
AcDbSpline
 70
8
 71
3
 72
8
 73
4
 74
0
 40
0
 40
0
 40
0
 40
0
 40
1
 40
1
 40
1
 40
1
 10
59.490886
 20
121.327844
 30
0.0
 10
60.053496
 20
120.765234
 30
0.0
 10
60.369567
 20
120.002172
 30
0.0
 10
60.369568
 20
119.206522
 30
0.0
  0
SPLINE
  5
106
100
AcDbEntity
  8
Layer_1
 62
7
100
AcDbSpline
 70
8
 71
3
 72
8
 73
4
 74
0
 40
0
 40
0
 40
0
 40
0
 40
1
 40
1
 40
1
 40
1
 10
150.064498
 20
79.987038
 30
0.0
 10
150.064493
 20
41.327083
 30
0.0
 10
118.724405
 20
9.986999
 30
0.0
 10
80.064450
 20
9.987001
 30
0.0
  0
SPLINE
  5
107
100
AcDbEntity
  8
Layer_1
 62
7
100
AcDbSpline
 70
8
 71
3
 72
8
 73
4
 74
0
 40
0
 40
0
 40
0
 40
0
 40
1
 40
1
 40
1
 40
1
 10
80.064450
 20
9.987001
 30
0.0
 10
41.404495
 20
9.987000
 30
0.0
 10
10.064407
 20
41.327083
 30
0.0
 10
10.064403
 20
79.987038
 30
0.0
  0
SPLINE
  5
108
100
AcDbEntity
  8
Layer_1
 62
7
100
AcDbSpline
 70
8
 71
3
 72
8
 73
4
 74
0
 40
0
 40
0
 40
0
 40
0
 40
1
 40
1
 40
1
 40
1
 10
10.064403
 20
79.987038
 30
0.0
 10
10.064402
 20
98.552205
 30
0.0
 10
17.439385
 20
116.356992
 30
0.0
 10
30.566940
 20
129.484548
 30
0.0
  0
SPLINE
  5
109
100
AcDbEntity
  8
Layer_1
 62
7
100
AcDbSpline
 70
8
 71
3
 72
8
 73
4
 74
0
 40
0
 40
0
 40
0
 40
0
 40
1
 40
1
 40
1
 40
1
 10
30.566940
 20
129.484548
 30
0.0
 10
43.694496
 20
142.612104
 30
0.0
 10
61.499282
 20
149.987088
 30
0.0
 10
80.064450
 20
149.987088
 30
0.0
  0
SPLINE
  5
10a
100
AcDbEntity
  8
Layer_1
 62
7
100
AcDbSpline
 70
8
 71
3
 72
8
 73
4
 74
0
 40
0
 40
0
 40
0
 40
0
 40
1
 40
1
 40
1
 40
1
 10
80.064450
 20
149.987088
 30
0.0
 10
98.629617
 20
149.987089
 30
0.0
 10
116.434404
 20
142.612105
 30
0.0
 10
129.561960
 20
129.484549
 30
0.0
  0
SPLINE
  5
10b
100
AcDbEntity
  8
Layer_1
 62
7
100
AcDbSpline
 70
8
 71
3
 72
8
 73
4
 74
0
 40
0
 40
0
 40
0
 40
0
 40
1
 40
1
 40
1
 40
1
 10
129.561960
 20
129.484549
 30
0.0
 10
142.689516
 20
116.356993
 30
0.0
 10
150.064499
 20
98.552205
 30
0.0
 10
150.064498
 20
79.987038
 30
0.0
  0
LWPOLYLINE
  5
10c
100
AcDbEntity
  8
Layer_1
 62
7
100
AcDbPolyline
 90
1
 70
1
 10
60.369568
 20
119.206522
 30
0.0
  0
SPLINE
  5
10d
100
AcDbEntity
  8
Layer_1
 62
7
100
AcDbSpline
 70
8
 71
3
 72
8
 73
4
 74
0
 40
0
 40
0
 40
0
 40
0
 40
1
 40
1
 40
1
 40
1
 10
85.391590
 20
146.424491
 30
0.0
 10
85.281037
 20
145.372661
 30
0.0
 10
84.338741
 20
144.609604
 30
0.0
 10
83.286910
 20
144.720154
 30
0.0
  0
SPLINE
  5
10e
100
AcDbEntity
  8
Layer_1
 62
7
100
AcDbSpline
 70
8
 71
3
 72
8
 73
4
 74
0
 40
0
 40
0
 40
0
 40
0
 40
1
 40
1
 40
1
 40
1
 10
83.286910
 20
144.720154
 30
0.0
 10
82.235078
 20
144.830705
 30
0.0
 10
81.472018
 20
145.773003
 30
0.0
 10
81.582569
 20
146.824835
 30
0.0
  0
SPLINE
  5
10f
100
AcDbEntity
  8
Layer_1
 62
7
100
AcDbSpline
 70
8
 71
3
 72
8
 73
4
 74
0
 40
0
 40
0
 40
0
 40
0
 40
1
 40
1
 40
1
 40
1
 10
81.582569
 20
146.824835
 30
0.0
 10
81.635658
 20
147.329943
 30
0.0
 10
81.887226
 20
147.793274
 30
0.0
 10
82.281931
 20
148.112900
 30
0.0
  0
SPLINE
  5
110
100
AcDbEntity
  8
Layer_1
 62
7
100
AcDbSpline
 70
8
 71
3
 72
8
 73
4
 74
0
 40
0
 40
0
 40
0
 40
0
 40
1
 40
1
 40
1
 40
1
 10
82.281931
 20
148.112900
 30
0.0
 10
82.676636
 20
148.432526
 30
0.0
 10
83.182146
 20
148.582264
 30
0.0
 10
83.687254
 20
148.529175
 30
0.0
  0
SPLINE
  5
111
100
AcDbEntity
  8
Layer_1
 62
7
100
AcDbSpline
 70
8
 71
3
 72
8
 73
4
 74
0
 40
0
 40
0
 40
0
 40
0
 40
1
 40
1
 40
1
 40
1
 10
83.687254
 20
148.529175
 30
0.0
 10
84.739086
 20
148.418621
 30
0.0
 10
85.502143
 20
147.476323
 30
0.0
 10
85.391590
 20
146.424491
 30
0.0
  0
LWPOLYLINE
  5
112
100
AcDbEntity
  8
Layer_1
 62
7
100
AcDbPolyline
 90
1
 70
1
 10
150.064498
 20
79.987038
 30
0.0
  0
SPLINE
  5
113
100
AcDbEntity
  8
Layer_1
 62
7
100
AcDbSpline
 70
8
 71
3
 72
8
 73
4
 74
0
 40
0
 40
0
 40
0
 40
0
 40
1
 40
1
 40
1
 40
1
 10
123.876955
 20
77.433577
 30
0.0
 10
122.442078
 20
78.262005
 30
0.0
 10
121.950453
 20
80.096777
 30
0.0
 10
122.778881
 20
81.531655
 30
0.0
  0
SPLINE
  5
114
100
AcDbEntity
  8
Layer_1
 62
7
100
AcDbSpline
 70
8
 71
3
 72
8
 73
4
 74
0
 40
0
 40
0
 40
0
 40
0
 40
1
 40
1
 40
1
 40
1
 10
122.778881
 20
81.531655
 30
0.0
 10
123.607308
 20
82.966532
 30
0.0
 10
125.442079
 20
83.458158
 30
0.0
 10
126.876957
 20
82.629732
 30
0.0
  0
SPLINE
  5
115
100
AcDbEntity
  8
Layer_1
 62
7
100
AcDbSpline
 70
8
 71
3
 72
8
 73
4
 74
0
 40
0
 40
0
 40
0
 40
0
 40
1
 40
1
 40
1
 40
1
 10
126.876957
 20
82.629732
 30
0.0
 10
128.311835
 20
81.801305
 30
0.0
 10
128.803461
 20
79.966533
 30
0.0
 10
127.975034
 20
78.531654
 30
0.0
  0
SPLINE
  5
116
100
AcDbEntity
  8
Layer_1
 62
7
100
AcDbSpline
 70
8
 71
3
 72
8
 73
4
 74
0
 40
0
 40
0
 40
0
 40
0
 40
1
 40
1
 40
1
 40
1
 10
127.975034
 20
78.531654
 30
0.0
 10
127.146606
 20
77.096775
 30
0.0
 10
125.311834
 20
76.605149
 30
0.0
 10
123.876955
 20
77.433577
 30
0.0
  0
LWPOLYLINE
  5
117
100
AcDbEntity
  8
Layer_1
 62
7
100
AcDbPolyline
 90
1
 70
1
 10
85.391590
 20
146.424491
 30
0.0
  0
SPLINE
  5
118
100
AcDbEntity
  8
Layer_1
 62
7
100
AcDbSpline
 70
8
 71
3
 72
8
 73
4
 74
0
 40
0
 40
0
 40
0
 40
0
 40
1
 40
1
 40
1
 40
1
 10
55.946829
 20
43.321036
 30
0.0
 10
57.381707
 20
44.149462
 30
0.0
 10
59.216478
 20
43.657836
 30
0.0
 10
60.044905
 20
42.222959
 30
0.0
  0
SPLINE
  5
119
100
AcDbEntity
  8
Layer_1
 62
7
100
AcDbSpline
 70
8
 71
3
 72
8
 73
4
 74
0
 40
0
 40
0
 40
0
 40
0
 40
1
 40
1
 40
1
 40
1
 10
60.044905
 20
42.222959
 30
0.0
 10
60.873333
 20
40.788081
 30
0.0
 10
60.381708
 20
38.953309
 30
0.0
 10
58.946831
 20
38.124881
 30
0.0
  0
SPLINE
  5
11a
100
AcDbEntity
  8
Layer_1
 62
7
100
AcDbSpline
 70
8
 71
3
 72
8
 73
4
 74
0
 40
0
 40
0
 40
0
 40
0
 40
1
 40
1
 40
1
 40
1
 10
58.946831
 20
38.124881
 30
0.0
 10
57.511952
 20
37.296453
 30
0.0
 10
55.677180
 20
37.788079
 30
0.0
 10
54.848752
 20
39.222958
 30
0.0
  0
SPLINE
  5
11b
100
AcDbEntity
  8
Layer_1
 62
7
100
AcDbSpline
 70
8
 71
3
 72
8
 73
4
 74
0
 40
0
 40
0
 40
0
 40
0
 40
1
 40
1
 40
1
 40
1
 10
54.848752
 20
39.222958
 30
0.0
 10
54.020325
 20
40.657837
 30
0.0
 10
54.511951
 20
42.492609
 30
0.0
 10
55.946829
 20
43.321036
 30
0.0
  0
LWPOLYLINE
  5
11c
100
AcDbEntity
  8
Layer_1
 62
7
100
AcDbPolyline
 90
1
 70
1
 10
123.876955
 20
77.433577
 30
0.0
  0
SPLINE
  5
11d
100
AcDbEntity
  8
Layer_1
 62
7
100
AcDbSpline
 70
8
 71
3
 72
8
 73
4
 74
0
 40
0
 40
0
 40
0
 40
0
 40
1
 40
1
 40
1
 40
1
 10
92.307012
 20
145.503702
 30
0.0
 10
92.087119
 20
144.469190
 30
0.0
 10
91.070224
 20
143.808810
 30
0.0
 10
90.035711
 20
144.028700
 30
0.0
  0
SPLINE
  5
11e
100
AcDbEntity
  8
Layer_1
 62
7
100
AcDbSpline
 70
8
 71
3
 72
8
 73
4
 74
0
 40
0
 40
0
 40
0
 40
0
 40
1
 40
1
 40
1
 40
1
 10
90.035711
 20
144.028700
 30
0.0
 10
89.001196
 20
144.248592
 30
0.0
 10
88.340814
 20
145.265489
 30
0.0
 10
88.560705
 20
146.300004
 30
0.0
  0
SPLINE
  5
11f
100
AcDbEntity
  8
Layer_1
 62
7
100
AcDbSpline
 70
8
 71
3
 72
8
 73
4
 74
0
 40
0
 40
0
 40
0
 40
0
 40
1
 40
1
 40
1
 40
1
 10
88.560705
 20
146.300004
 30
0.0
 10
88.666302
 20
146.796796
 30
0.0
 10
88.964923
 20
147.231292
 30
0.0
 10
89.390875
 20
147.507909
 30
0.0
  0
SPLINE
  5
120
100
AcDbEntity
  8
Layer_1
 62
7
100
AcDbSpline
 70
8
 71
3
 72
8
 73
4
 74
0
 40
0
 40
0
 40
0
 40
0
 40
1
 40
1
 40
1
 40
1
 10
89.390875
 20
147.507909
 30
0.0
 10
89.816828
 20
147.784526
 30
0.0
 10
90.335220
 20
147.880604
 30
0.0
 10
90.832012
 20
147.775008
 30
0.0
  0
SPLINE
  5
121
100
AcDbEntity
  8
Layer_1
 62
7
100
AcDbSpline
 70
8
 71
3
 72
8
 73
4
 74
0
 40
0
 40
0
 40
0
 40
0
 40
1
 40
1
 40
1
 40
1
 10
90.832012
 20
147.775008
 30
0.0
 10
91.866525
 20
147.555114
 30
0.0
 10
92.526905
 20
146.538216
 30
0.0
 10
92.307012
 20
145.503702
 30
0.0
  0
LWPOLYLINE
  5
122
100
AcDbEntity
  8
Layer_1
 62
7
100
AcDbPolyline
 90
1
 70
1
 10
55.946829
 20
43.321036
 30
0.0
  0
SPLINE
  5
123
100
AcDbEntity
  8
Layer_1
 62
7
100
AcDbSpline
 70
8
 71
3
 72
8
 73
4
 74
0
 40
0
 40
0
 40
0
 40
0
 40
1
 40
1
 40
1
 40
1
 10
99.088301
 20
143.865099
 30
0.0
 10
98.761476
 20
142.859239
 30
0.0
 10
97.681123
 20
142.308771
 30
0.0
 10
96.675262
 20
142.635593
 30
0.0
  0
SPLINE
  5
124
100
AcDbEntity
  8
Layer_1
 62
7
100
AcDbSpline
 70
8
 71
3
 72
8
 73
4
 74
0
 40
0
 40
0
 40
0
 40
0
 40
1
 40
1
 40
1
 40
1
 10
96.675262
 20
142.635593
 30
0.0
 10
95.669400
 20
142.962416
 30
0.0
 10
95.118930
 20
144.042772
 30
0.0
 10
95.445753
 20
145.048635
 30
0.0
  0
SPLINE
  5
125
100
AcDbEntity
  8
Layer_1
 62
7
100
AcDbSpline
 70
8
 71
3
 72
8
 73
4
 74
0
 40
0
 40
0
 40
0
 40
0
 40
1
 40
1
 40
1
 40
1
 10
95.445753
 20
145.048635
 30
0.0
 10
95.602700
 20
145.531667
 30
0.0
 10
95.945102
 20
145.932569
 30
0.0
 10
96.397636
 20
146.163146
 30
0.0
  0
SPLINE
  5
126
100
AcDbEntity
  8
Layer_1
 62
7
100
AcDbSpline
 70
8
 71
3
 72
8
 73
4
 74
0
 40
0
 40
0
 40
0
 40
0
 40
1
 40
1
 40
1
 40
1
 10
96.397636
 20
146.163146
 30
0.0
 10
96.850169
 20
146.393723
 30
0.0
 10
97.375765
 20
146.435089
 30
0.0
 10
97.858797
 20
146.278142
 30
0.0
  0
SPLINE
  5
127
100
AcDbEntity
  8
Layer_1
 62
7
100
AcDbSpline
 70
8
 71
3
 72
8
 73
4
 74
0
 40
0
 40
0
 40
0
 40
0
 40
1
 40
1
 40
1
 40
1
 10
97.858797
 20
146.278142
 30
0.0
 10
98.864658
 20
145.951316
 30
0.0
 10
99.415125
 20
144.870960
 30
0.0
 10
99.088301
 20
143.865099
 30
0.0
  0
LWPOLYLINE
  5
128
100
AcDbEntity
  8
Layer_1
 62
7
100
AcDbPolyline
 90
1
 70
1
 10
92.307012
 20
145.503702
 30
0.0
  0
SPLINE
  5
129
100
AcDbEntity
  8
Layer_1
 62
7
100
AcDbSpline
 70
8
 71
3
 72
8
 73
4
 74
0
 40
0
 40
0
 40
0
 40
0
 40
1
 40
1
 40
1
 40
1
 10
105.661161
 20
141.526634
 30
0.0
 10
105.230986
 20
140.560448
 30
0.0
 10
104.099013
 20
140.125924
 30
0.0
 10
103.132825
 20
140.556095
 30
0.0
  0
SPLINE
  5
12a
100
AcDbEntity
  8
Layer_1
 62
7
100
AcDbSpline
 70
8
 71
3
 72
8
 73
4
 74
0
 40
0
 40
0
 40
0
 40
0
 40
1
 40
1
 40
1
 40
1
 10
103.132825
 20
140.556095
 30
0.0
 10
102.668844
 20
140.762672
 30
0.0
 10
102.305929
 20
141.145103
 30
0.0
 10
102.123917
 20
141.619260
 30
0.0
  0
SPLINE
  5
12b
100
AcDbEntity
  8
Layer_1
 62
7
100
AcDbSpline
 70
8
 71
3
 72
8
 73
4
 74
0
 40
0
 40
0
 40
0
 40
0
 40
1
 40
1
 40
1
 40
1
 10
102.123917
 20
141.619260
 30
0.0
 10
101.941905
 20
142.093416
 30
0.0
 10
101.955705
 20
142.620455
 30
0.0
 10
102.162282
 20
143.084436
 30
0.0
  0
SPLINE
  5
12c
100
AcDbEntity
  8
Layer_1
 62
7
100
AcDbSpline
 70
8
 71
3
 72
8
 73
4
 74
0
 40
0
 40
0
 40
0
 40
0
 40
1
 40
1
 40
1
 40
1
 10
102.162282
 20
143.084436
 30
0.0
 10
102.368860
 20
143.548417
 30
0.0
 10
102.751292
 20
143.911332
 30
0.0
 10
103.225449
 20
144.093344
 30
0.0
  0
SPLINE
  5
12d
100
AcDbEntity
  8
Layer_1
 62
7
100
AcDbSpline
 70
8
 71
3
 72
8
 73
4
 74
0
 40
0
 40
0
 40
0
 40
0
 40
1
 40
1
 40
1
 40
1
 10
103.225449
 20
144.093344
 30
0.0
 10
103.699605
 20
144.275356
 30
0.0
 10
104.226646
 20
144.261554
 30
0.0
 10
104.690626
 20
144.054976
 30
0.0
  0
SPLINE
  5
12e
100
AcDbEntity
  8
Layer_1
 62
7
100
AcDbSpline
 70
8
 71
3
 72
8
 73
4
 74
0
 40
0
 40
0
 40
0
 40
0
 40
1
 40
1
 40
1
 40
1
 10
104.690626
 20
144.054976
 30
0.0
 10
105.656814
 20
143.624799
 30
0.0
 10
106.091337
 20
142.492822
 30
0.0
 10
105.661161
 20
141.526634
 30
0.0
  0
LWPOLYLINE
  5
12f
100
AcDbEntity
  8
Layer_1
 62
7
100
AcDbPolyline
 90
1
 70
1
 10
99.088301
 20
143.865099
 30
0.0
  0
SPLINE
  5
130
100
AcDbEntity
  8
Layer_1
 62
7
100
AcDbSpline
 70
8
 71
3
 72
8
 73
4
 74
0
 40
0
 40
0
 40
0
 40
0
 40
1
 40
1
 40
1
 40
1
 10
111.953579
 20
138.513929
 30
0.0
 10
111.424766
 20
137.598000
 30
0.0
 10
110.253572
 20
137.284179
 30
0.0
 10
109.337642
 20
137.812990
 30
0.0
  0
SPLINE
  5
131
100
AcDbEntity
  8
Layer_1
 62
7
100
AcDbSpline
 70
8
 71
3
 72
8
 73
4
 74
0
 40
0
 40
0
 40
0
 40
0
 40
1
 40
1
 40
1
 40
1
 10
109.337642
 20
137.812990
 30
0.0
 10
108.897796
 20
138.066934
 30
0.0
 10
108.576844
 20
138.485206
 30
0.0
 10
108.445391
 20
138.975790
 30
0.0
  0
SPLINE
  5
132
100
AcDbEntity
  8
Layer_1
 62
7
100
AcDbSpline
 70
8
 71
3
 72
8
 73
4
 74
0
 40
0
 40
0
 40
0
 40
0
 40
1
 40
1
 40
1
 40
1
 10
108.445391
 20
138.975790
 30
0.0
 10
108.313939
 20
139.466374
 30
0.0
 10
108.382755
 20
139.989084
 30
0.0
 10
108.636699
 20
140.428930
 30
0.0
  0
SPLINE
  5
133
100
AcDbEntity
  8
Layer_1
 62
7
100
AcDbSpline
 70
8
 71
3
 72
8
 73
4
 74
0
 40
0
 40
0
 40
0
 40
0
 40
1
 40
1
 40
1
 40
1
 10
108.636699
 20
140.428930
 30
0.0
 10
108.890644
 20
140.868777
 30
0.0
 10
109.308917
 20
141.189729
 30
0.0
 10
109.799502
 20
141.321181
 30
0.0
  0
SPLINE
  5
134
100
AcDbEntity
  8
Layer_1
 62
7
100
AcDbSpline
 70
8
 71
3
 72
8
 73
4
 74
0
 40
0
 40
0
 40
0
 40
0
 40
1
 40
1
 40
1
 40
1
 10
109.799502
 20
141.321181
 30
0.0
 10
110.290087
 20
141.452632
 30
0.0
 10
110.812798
 20
141.383816
 30
0.0
 10
111.252644
 20
141.129869
 30
0.0
  0
SPLINE
  5
135
100
AcDbEntity
  8
Layer_1
 62
7
100
AcDbSpline
 70
8
 71
3
 72
8
 73
4
 74
0
 40
0
 40
0
 40
0
 40
0
 40
1
 40
1
 40
1
 40
1
 10
111.252644
 20
141.129869
 30
0.0
 10
112.168573
 20
140.601055
 30
0.0
 10
112.482392
 20
139.429859
 30
0.0
 10
111.953579
 20
138.513929
 30
0.0
  0
LWPOLYLINE
  5
136
100
AcDbEntity
  8
Layer_1
 62
7
100
AcDbPolyline
 90
1
 70
1
 10
105.661161
 20
141.526634
 30
0.0
  0
SPLINE
  5
137
100
AcDbEntity
  8
Layer_1
 62
7
100
AcDbSpline
 70
8
 71
3
 72
8
 73
4
 74
0
 40
0
 40
0
 40
0
 40
0
 40
1
 40
1
 40
1
 40
1
 10
117.896614
 20
134.859991
 30
0.0
 10
117.274957
 20
134.004355
 30
0.0
 10
116.077375
 20
133.814676
 30
0.0
 10
115.221738
 20
134.436331
 30
0.0
  0
SPLINE
  5
138
100
AcDbEntity
  8
Layer_1
 62
7
100
AcDbSpline
 70
8
 71
3
 72
8
 73
4
 74
0
 40
0
 40
0
 40
0
 40
0
 40
1
 40
1
 40
1
 40
1
 10
115.221738
 20
134.436331
 30
0.0
 10
114.366100
 20
135.057987
 30
0.0
 10
114.176420
 20
136.255571
 30
0.0
 10
114.798076
 20
137.111210
 30
0.0
  0
SPLINE
  5
139
100
AcDbEntity
  8
Layer_1
 62
7
100
AcDbSpline
 70
8
 71
3
 72
8
 73
4
 74
0
 40
0
 40
0
 40
0
 40
0
 40
1
 40
1
 40
1
 40
1
 10
114.798076
 20
137.111210
 30
0.0
 10
115.096607
 20
137.522102
 30
0.0
 10
115.546137
 20
137.797574
 30
0.0
 10
116.047774
 20
137.877026
 30
0.0
  0
SPLINE
  5
13a
100
AcDbEntity
  8
Layer_1
 62
7
100
AcDbSpline
 70
8
 71
3
 72
8
 73
4
 74
0
 40
0
 40
0
 40
0
 40
0
 40
1
 40
1
 40
1
 40
1
 10
116.047774
 20
137.877026
 30
0.0
 10
116.549412
 20
137.956477
 30
0.0
 10
117.062066
 20
137.833400
 30
0.0
 10
117.472958
 20
137.534869
 30
0.0
  0
SPLINE
  5
13b
100
AcDbEntity
  8
Layer_1
 62
7
100
AcDbSpline
 70
8
 71
3
 72
8
 73
4
 74
0
 40
0
 40
0
 40
0
 40
0
 40
1
 40
1
 40
1
 40
1
 10
117.472958
 20
137.534869
 30
0.0
 10
118.328594
 20
136.913211
 30
0.0
 10
118.518271
 20
135.715628
 30
0.0
 10
117.896614
 20
134.859991
 30
0.0
  0
LWPOLYLINE
  5
13c
100
AcDbEntity
  8
Layer_1
 62
7
100
AcDbPolyline
 90
1
 70
1
 10
111.953579
 20
138.513929
 30
0.0
  0
SPLINE
  5
13d
100
AcDbEntity
  8
Layer_1
 62
7
100
AcDbSpline
 70
8
 71
3
 72
8
 73
4
 74
0
 40
0
 40
0
 40
0
 40
0
 40
1
 40
1
 40
1
 40
1
 10
123.425147
 20
130.604854
 30
0.0
 10
122.717458
 20
129.818888
 30
0.0
 10
121.506612
 20
129.755430
 30
0.0
 10
120.720643
 20
130.463116
 30
0.0
  0
SPLINE
  5
13e
100
AcDbEntity
  8
Layer_1
 62
7
100
AcDbSpline
 70
8
 71
3
 72
8
 73
4
 74
0
 40
0
 40
0
 40
0
 40
0
 40
1
 40
1
 40
1
 40
1
 10
120.720643
 20
130.463116
 30
0.0
 10
119.934674
 20
131.170806
 30
0.0
 10
119.871215
 20
132.381655
 30
0.0
 10
120.578903
 20
133.167625
 30
0.0
  0
SPLINE
  5
13f
100
AcDbEntity
  8
Layer_1
 62
7
100
AcDbSpline
 70
8
 71
3
 72
8
 73
4
 74
0
 40
0
 40
0
 40
0
 40
0
 40
1
 40
1
 40
1
 40
1
 10
120.578903
 20
133.167625
 30
0.0
 10
121.286593
 20
133.953594
 30
0.0
 10
122.497443
 20
134.017052
 30
0.0
 10
123.283413
 20
133.309363
 30
0.0
  0
SPLINE
  5
140
100
AcDbEntity
  8
Layer_1
 62
7
100
AcDbSpline
 70
8
 71
3
 72
8
 73
4
 74
0
 40
0
 40
0
 40
0
 40
0
 40
1
 40
1
 40
1
 40
1
 10
123.283413
 20
133.309363
 30
0.0
 10
124.069381
 20
132.601672
 30
0.0
 10
124.132838
 20
131.390822
 30
0.0
 10
123.425147
 20
130.604854
 30
0.0
  0
LWPOLYLINE
  5
141
100
AcDbEntity
  8
Layer_1
 62
7
100
AcDbPolyline
 90
1
 70
1
 10
117.896614
 20
134.859991
 30
0.0
  0
SPLINE
  5
142
100
AcDbEntity
  8
Layer_1
 62
7
100
AcDbSpline
 70
8
 71
3
 72
8
 73
4
 74
0
 40
0
 40
0
 40
0
 40
0
 40
1
 40
1
 40
1
 40
1
 10
128.478616
 20
125.795138
 30
0.0
 10
127.692648
 20
125.087452
 30
0.0
 10
126.481802
 20
125.150908
 30
0.0
 10
125.774112
 20
125.936873
 30
0.0
  0
SPLINE
  5
143
100
AcDbEntity
  8
Layer_1
 62
7
100
AcDbSpline
 70
8
 71
3
 72
8
 73
4
 74
0
 40
0
 40
0
 40
0
 40
0
 40
1
 40
1
 40
1
 40
1
 10
125.774112
 20
125.936873
 30
0.0
 10
125.066422
 20
126.722842
 30
0.0
 10
125.129878
 20
127.933691
 30
0.0
 10
125.915847
 20
128.641382
 30
0.0
  0
SPLINE
  5
144
100
AcDbEntity
  8
Layer_1
 62
7
100
AcDbSpline
 70
8
 71
3
 72
8
 73
4
 74
0
 40
0
 40
0
 40
0
 40
0
 40
1
 40
1
 40
1
 40
1
 10
125.915847
 20
128.641382
 30
0.0
 10
126.293283
 20
128.981227
 30
0.0
 10
126.790263
 20
129.157218
 30
0.0
 10
127.297457
 20
129.130637
 30
0.0
  0
SPLINE
  5
145
100
AcDbEntity
  8
Layer_1
 62
7
100
AcDbSpline
 70
8
 71
3
 72
8
 73
4
 74
0
 40
0
 40
0
 40
0
 40
0
 40
1
 40
1
 40
1
 40
1
 10
127.297457
 20
129.130637
 30
0.0
 10
127.804652
 20
129.104056
 30
0.0
 10
128.280514
 20
128.877081
 30
0.0
 10
128.620358
 20
128.499645
 30
0.0
  0
SPLINE
  5
146
100
AcDbEntity
  8
Layer_1
 62
7
100
AcDbSpline
 70
8
 71
3
 72
8
 73
4
 74
0
 40
0
 40
0
 40
0
 40
0
 40
1
 40
1
 40
1
 40
1
 10
128.620358
 20
128.499645
 30
0.0
 10
129.328045
 20
127.713674
 30
0.0
 10
129.264584
 20
126.502826
 30
0.0
 10
128.478616
 20
125.795138
 30
0.0
  0
LWPOLYLINE
  5
147
100
AcDbEntity
  8
Layer_1
 62
7
100
AcDbPolyline
 90
1
 70
1
 10
123.425147
 20
130.604854
 30
0.0
  0
SPLINE
  5
148
100
AcDbEntity
  8
Layer_1
 62
7
100
AcDbSpline
 70
8
 71
3
 72
8
 73
4
 74
0
 40
0
 40
0
 40
0
 40
0
 40
1
 40
1
 40
1
 40
1
 10
133.001647
 20
120.483537
 30
0.0
 10
132.146010
 20
119.861884
 30
0.0
 10
130.948431
 20
120.051562
 30
0.0
 10
130.326774
 20
120.907196
 30
0.0
  0
SPLINE
  5
149
100
AcDbEntity
  8
Layer_1
 62
7
100
AcDbSpline
 70
8
 71
3
 72
8
 73
4
 74
0
 40
0
 40
0
 40
0
 40
0
 40
1
 40
1
 40
1
 40
1
 10
130.326774
 20
120.907196
 30
0.0
 10
129.705116
 20
121.762833
 30
0.0
 10
129.894794
 20
122.960416
 30
0.0
 10
130.750430
 20
123.582074
 30
0.0
  0
SPLINE
  5
14a
100
AcDbEntity
  8
Layer_1
 62
7
100
AcDbSpline
 70
8
 71
3
 72
8
 73
4
 74
0
 40
0
 40
0
 40
0
 40
0
 40
1
 40
1
 40
1
 40
1
 10
130.750430
 20
123.582074
 30
0.0
 10
131.606069
 20
124.203731
 30
0.0
 10
132.803652
 20
124.014051
 30
0.0
 10
133.425309
 20
123.158413
 30
0.0
  0
SPLINE
  5
14b
100
AcDbEntity
  8
Layer_1
 62
7
100
AcDbSpline
 70
8
 71
3
 72
8
 73
4
 74
0
 40
0
 40
0
 40
0
 40
0
 40
1
 40
1
 40
1
 40
1
 10
133.425309
 20
123.158413
 30
0.0
 10
134.046963
 20
122.302775
 30
0.0
 10
133.857284
 20
121.105193
 30
0.0
 10
133.001647
 20
120.483537
 30
0.0
  0
LWPOLYLINE
  5
14c
100
AcDbEntity
  8
Layer_1
 62
7
100
AcDbPolyline
 90
1
 70
1
 10
128.478616
 20
125.795138
 30
0.0
  0
SPLINE
  5
14d
100
AcDbEntity
  8
Layer_1
 62
7
100
AcDbSpline
 70
8
 71
3
 72
8
 73
4
 74
0
 40
0
 40
0
 40
0
 40
0
 40
1
 40
1
 40
1
 40
1
 10
136.944690
 20
114.728250
 30
0.0
 10
136.028761
 20
114.199439
 30
0.0
 10
134.857568
 20
114.513258
 30
0.0
 10
134.328753
 20
115.429185
 30
0.0
  0
SPLINE
  5
14e
100
AcDbEntity
  8
Layer_1
 62
7
100
AcDbSpline
 70
8
 71
3
 72
8
 73
4
 74
0
 40
0
 40
0
 40
0
 40
0
 40
1
 40
1
 40
1
 40
1
 10
134.328753
 20
115.429185
 30
0.0
 10
134.074807
 20
115.869030
 30
0.0
 10
134.005990
 20
116.391740
 30
0.0
 10
134.137441
 20
116.882324
 30
0.0
  0
SPLINE
  5
14f
100
AcDbEntity
  8
Layer_1
 62
7
100
AcDbSpline
 70
8
 71
3
 72
8
 73
4
 74
0
 40
0
 40
0
 40
0
 40
0
 40
1
 40
1
 40
1
 40
1
 10
134.137441
 20
116.882324
 30
0.0
 10
134.268892
 20
117.372909
 30
0.0
 10
134.589842
 20
117.791181
 30
0.0
 10
135.029688
 20
118.045127
 30
0.0
  0
SPLINE
  5
150
100
AcDbEntity
  8
Layer_1
 62
7
100
AcDbSpline
 70
8
 71
3
 72
8
 73
4
 74
0
 40
0
 40
0
 40
0
 40
0
 40
1
 40
1
 40
1
 40
1
 10
135.029688
 20
118.045127
 30
0.0
 10
135.469533
 20
118.299073
 30
0.0
 10
135.992244
 20
118.367889
 30
0.0
 10
136.482828
 20
118.236437
 30
0.0
  0
SPLINE
  5
151
100
AcDbEntity
  8
Layer_1
 62
7
100
AcDbSpline
 70
8
 71
3
 72
8
 73
4
 74
0
 40
0
 40
0
 40
0
 40
0
 40
1
 40
1
 40
1
 40
1
 10
136.482828
 20
118.236437
 30
0.0
 10
136.973413
 20
118.104985
 30
0.0
 10
137.391685
 20
117.784033
 30
0.0
 10
137.645630
 20
117.344187
 30
0.0
  0
SPLINE
  5
152
100
AcDbEntity
  8
Layer_1
 62
7
100
AcDbSpline
 70
8
 71
3
 72
8
 73
4
 74
0
 40
0
 40
0
 40
0
 40
0
 40
1
 40
1
 40
1
 40
1
 10
137.645630
 20
117.344187
 30
0.0
 10
138.174440
 20
116.428257
 30
0.0
 10
137.860619
 20
115.257063
 30
0.0
 10
136.944690
 20
114.728250
 30
0.0
  0
LWPOLYLINE
  5
153
100
AcDbEntity
  8
Layer_1
 62
7
100
AcDbPolyline
 90
1
 70
1
 10
133.001647
 20
120.483537
 30
0.0
  0
SPLINE
  5
154
100
AcDbEntity
  8
Layer_1
 62
7
100
AcDbSpline
 70
8
 71
3
 72
8
 73
4
 74
0
 40
0
 40
0
 40
0
 40
0
 40
1
 40
1
 40
1
 40
1
 10
140.264539
 20
108.592331
 30
0.0
 10
139.298351
 20
108.162156
 30
0.0
 10
138.166374
 20
108.596678
 30
0.0
 10
137.736197
 20
109.562866
 30
0.0
  0
SPLINE
  5
155
100
AcDbEntity
  8
Layer_1
 62
7
100
AcDbSpline
 70
8
 71
3
 72
8
 73
4
 74
0
 40
0
 40
0
 40
0
 40
0
 40
1
 40
1
 40
1
 40
1
 10
137.736197
 20
109.562866
 30
0.0
 10
137.529619
 20
110.026846
 30
0.0
 10
137.515817
 20
110.553886
 30
0.0
 10
137.697828
 20
111.028043
 30
0.0
  0
SPLINE
  5
156
100
AcDbEntity
  8
Layer_1
 62
7
100
AcDbSpline
 70
8
 71
3
 72
8
 73
4
 74
0
 40
0
 40
0
 40
0
 40
0
 40
1
 40
1
 40
1
 40
1
 10
137.697828
 20
111.028043
 30
0.0
 10
137.879839
 20
111.502199
 30
0.0
 10
138.242754
 20
111.884632
 30
0.0
 10
138.706734
 20
112.091210
 30
0.0
  0
SPLINE
  5
157
100
AcDbEntity
  8
Layer_1
 62
7
100
AcDbSpline
 70
8
 71
3
 72
8
 73
4
 74
0
 40
0
 40
0
 40
0
 40
0
 40
1
 40
1
 40
1
 40
1
 10
138.706734
 20
112.091210
 30
0.0
 10
139.170715
 20
112.297788
 30
0.0
 10
139.697755
 20
112.311589
 30
0.0
 10
140.171912
 20
112.129577
 30
0.0
  0
SPLINE
  5
158
100
AcDbEntity
  8
Layer_1
 62
7
100
AcDbSpline
 70
8
 71
3
 72
8
 73
4
 74
0
 40
0
 40
0
 40
0
 40
0
 40
1
 40
1
 40
1
 40
1
 10
140.171912
 20
112.129577
 30
0.0
 10
140.646069
 20
111.947566
 30
0.0
 10
141.028501
 20
111.584651
 30
0.0
 10
141.235078
 20
111.120670
 30
0.0
  0
SPLINE
  5
159
100
AcDbEntity
  8
Layer_1
 62
7
100
AcDbSpline
 70
8
 71
3
 72
8
 73
4
 74
0
 40
0
 40
0
 40
0
 40
0
 40
1
 40
1
 40
1
 40
1
 10
141.235078
 20
111.120670
 30
0.0
 10
141.665251
 20
110.154481
 30
0.0
 10
141.230726
 20
109.022506
 30
0.0
 10
140.264539
 20
108.592331
 30
0.0
  0
LWPOLYLINE
  5
15a
100
AcDbEntity
  8
Layer_1
 62
7
100
AcDbPolyline
 90
1
 70
1
 10
136.944690
 20
114.728250
 30
0.0
  0
SPLINE
  5
15b
100
AcDbEntity
  8
Layer_1
 62
7
100
AcDbSpline
 70
8
 71
3
 72
8
 73
4
 74
0
 40
0
 40
0
 40
0
 40
0
 40
1
 40
1
 40
1
 40
1
 10
142.924823
 20
102.143005
 30
0.0
 10
141.918963
 20
101.816182
 30
0.0
 10
140.838611
 20
102.366648
 30
0.0
 10
140.511784
 20
103.372506
 30
0.0
  0
SPLINE
  5
15c
100
AcDbEntity
  8
Layer_1
 62
7
100
AcDbSpline
 70
8
 71
3
 72
8
 73
4
 74
0
 40
0
 40
0
 40
0
 40
0
 40
1
 40
1
 40
1
 40
1
 10
140.511784
 20
103.372506
 30
0.0
 10
140.354836
 20
103.855538
 30
0.0
 10
140.396200
 20
104.381134
 30
0.0
 10
140.626777
 20
104.833668
 30
0.0
  0
SPLINE
  5
15d
100
AcDbEntity
  8
Layer_1
 62
7
100
AcDbSpline
 70
8
 71
3
 72
8
 73
4
 74
0
 40
0
 40
0
 40
0
 40
0
 40
1
 40
1
 40
1
 40
1
 10
140.626777
 20
104.833668
 30
0.0
 10
140.857354
 20
105.286202
 30
0.0
 10
141.258255
 20
105.628605
 30
0.0
 10
141.741288
 20
105.785552
 30
0.0
  0
SPLINE
  5
15e
100
AcDbEntity
  8
Layer_1
 62
7
100
AcDbSpline
 70
8
 71
3
 72
8
 73
4
 74
0
 40
0
 40
0
 40
0
 40
0
 40
1
 40
1
 40
1
 40
1
 10
141.741288
 20
105.785552
 30
0.0
 10
142.224320
 20
105.942499
 30
0.0
 10
142.749916
 20
105.901134
 30
0.0
 10
143.202449
 20
105.670556
 30
0.0
  0
SPLINE
  5
15f
100
AcDbEntity
  8
Layer_1
 62
7
100
AcDbSpline
 70
8
 71
3
 72
8
 73
4
 74
0
 40
0
 40
0
 40
0
 40
0
 40
1
 40
1
 40
1
 40
1
 10
143.202449
 20
105.670556
 30
0.0
 10
143.654983
 20
105.439978
 30
0.0
 10
143.997385
 20
105.039076
 30
0.0
 10
144.154332
 20
104.556043
 30
0.0
  0
SPLINE
  5
160
100
AcDbEntity
  8
Layer_1
 62
7
100
AcDbSpline
 70
8
 71
3
 72
8
 73
4
 74
0
 40
0
 40
0
 40
0
 40
0
 40
1
 40
1
 40
1
 40
1
 10
144.154332
 20
104.556043
 30
0.0
 10
144.481153
 20
103.550182
 30
0.0
 10
143.930684
 20
102.469828
 30
0.0
 10
142.924823
 20
102.143005
 30
0.0
  0
LWPOLYLINE
  5
161
100
AcDbEntity
  8
Layer_1
 62
7
100
AcDbPolyline
 90
1
 70
1
 10
140.264539
 20
108.592331
 30
0.0
  0
SPLINE
  5
162
100
AcDbEntity
  8
Layer_1
 62
7
100
AcDbSpline
 70
8
 71
3
 72
8
 73
4
 74
0
 40
0
 40
0
 40
0
 40
0
 40
1
 40
1
 40
1
 40
1
 10
144.896393
 20
95.450934
 30
0.0
 10
143.861881
 20
95.231043
 30
0.0
 10
142.844986
 20
95.891422
 30
0.0
 10
142.625092
 20
96.925934
 30
0.0
  0
SPLINE
  5
163
100
AcDbEntity
  8
Layer_1
 62
7
100
AcDbSpline
 70
8
 71
3
 72
8
 73
4
 74
0
 40
0
 40
0
 40
0
 40
0
 40
1
 40
1
 40
1
 40
1
 10
142.625092
 20
96.925934
 30
0.0
 10
142.405198
 20
97.960448
 30
0.0
 10
143.065578
 20
98.977346
 30
0.0
 10
144.100092
 20
99.197240
 30
0.0
  0
SPLINE
  5
164
100
AcDbEntity
  8
Layer_1
 62
7
100
AcDbSpline
 70
8
 71
3
 72
8
 73
4
 74
0
 40
0
 40
0
 40
0
 40
0
 40
1
 40
1
 40
1
 40
1
 10
144.100092
 20
99.197240
 30
0.0
 10
144.596884
 20
99.302838
 30
0.0
 10
145.115278
 20
99.206759
 30
0.0
 10
145.541231
 20
98.930142
 30
0.0
  0
SPLINE
  5
165
100
AcDbEntity
  8
Layer_1
 62
7
100
AcDbSpline
 70
8
 71
3
 72
8
 73
4
 74
0
 40
0
 40
0
 40
0
 40
0
 40
1
 40
1
 40
1
 40
1
 10
145.541231
 20
98.930142
 30
0.0
 10
145.967184
 20
98.653525
 30
0.0
 10
146.265805
 20
98.219027
 30
0.0
 10
146.371401
 20
97.722235
 30
0.0
  0
SPLINE
  5
166
100
AcDbEntity
  8
Layer_1
 62
7
100
AcDbSpline
 70
8
 71
3
 72
8
 73
4
 74
0
 40
0
 40
0
 40
0
 40
0
 40
1
 40
1
 40
1
 40
1
 10
146.371401
 20
97.722235
 30
0.0
 10
146.591291
 20
96.687720
 30
0.0
 10
145.930908
 20
95.670824
 30
0.0
 10
144.896393
 20
95.450934
 30
0.0
  0
LWPOLYLINE
  5
167
100
AcDbEntity
  8
Layer_1
 62
7
100
AcDbPolyline
 90
1
 70
1
 10
142.924823
 20
102.143005
 30
0.0
  0
SPLINE
  5
168
100
AcDbEntity
  8
Layer_1
 62
7
100
AcDbSpline
 70
8
 71
3
 72
8
 73
4
 74
0
 40
0
 40
0
 40
0
 40
0
 40
1
 40
1
 40
1
 40
1
 10
146.157655
 20
88.589436
 30
0.0
 10
145.105825
 20
88.478886
 30
0.0
 10
144.163529
 20
89.241943
 30
0.0
 10
144.052975
 20
90.293772
 30
0.0
  0
SPLINE
  5
169
100
AcDbEntity
  8
Layer_1
 62
7
100
AcDbSpline
 70
8
 71
3
 72
8
 73
4
 74
0
 40
0
 40
0
 40
0
 40
0
 40
1
 40
1
 40
1
 40
1
 10
144.052975
 20
90.293772
 30
0.0
 10
143.942422
 20
91.345604
 30
0.0
 10
144.705479
 20
92.287904
 30
0.0
 10
145.757311
 20
92.398457
 30
0.0
  0
SPLINE
  5
16a
100
AcDbEntity
  8
Layer_1
 62
7
100
AcDbSpline
 70
8
 71
3
 72
8
 73
4
 74
0
 40
0
 40
0
 40
0
 40
0
 40
1
 40
1
 40
1
 40
1
 10
145.757311
 20
92.398457
 30
0.0
 10
146.262419
 20
92.451547
 30
0.0
 10
146.767929
 20
92.301808
 30
0.0
 10
147.162634
 20
91.982182
 30
0.0
  0
SPLINE
  5
16b
100
AcDbEntity
  8
Layer_1
 62
7
100
AcDbSpline
 70
8
 71
3
 72
8
 73
4
 74
0
 40
0
 40
0
 40
0
 40
0
 40
1
 40
1
 40
1
 40
1
 10
147.162634
 20
91.982182
 30
0.0
 10
147.557340
 20
91.662556
 30
0.0
 10
147.808907
 20
91.199225
 30
0.0
 10
147.861996
 20
90.694116
 30
0.0
  0
SPLINE
  5
16c
100
AcDbEntity
  8
Layer_1
 62
7
100
AcDbSpline
 70
8
 71
3
 72
8
 73
4
 74
0
 40
0
 40
0
 40
0
 40
0
 40
1
 40
1
 40
1
 40
1
 10
147.861996
 20
90.694116
 30
0.0
 10
147.972546
 20
89.642284
 30
0.0
 10
147.209487
 20
88.699987
 30
0.0
 10
146.157655
 20
88.589436
 30
0.0
  0
LWPOLYLINE
  5
16d
100
AcDbEntity
  8
Layer_1
 62
7
100
AcDbPolyline
 90
1
 70
1
 10
144.896393
 20
95.450934
 30
0.0
  0
SPLINE
  5
16e
100
AcDbEntity
  8
Layer_1
 62
7
100
AcDbSpline
 70
8
 71
3
 72
8
 73
4
 74
0
 40
0
 40
0
 40
0
 40
0
 40
1
 40
1
 40
1
 40
1
 10
146.694783
 20
81.633692
 30
0.0
 10
145.637160
 20
81.633694
 30
0.0
 10
144.779788
 20
82.491066
 30
0.0
 10
144.779786
 20
83.548689
 30
0.0
  0
SPLINE
  5
16f
100
AcDbEntity
  8
Layer_1
 62
7
100
AcDbSpline
 70
8
 71
3
 72
8
 73
4
 74
0
 40
0
 40
0
 40
0
 40
0
 40
1
 40
1
 40
1
 40
1
 10
144.779786
 20
83.548689
 30
0.0
 10
144.779785
 20
84.606315
 30
0.0
 10
145.637160
 20
85.463691
 30
0.0
 10
146.694786
 20
85.463692
 30
0.0
  0
SPLINE
  5
170
100
AcDbEntity
  8
Layer_1
 62
7
100
AcDbSpline
 70
8
 71
3
 72
8
 73
4
 74
0
 40
0
 40
0
 40
0
 40
0
 40
1
 40
1
 40
1
 40
1
 10
146.694786
 20
85.463692
 30
0.0
 10
147.752411
 20
85.463691
 30
0.0
 10
148.609785
 20
84.606317
 30
0.0
 10
148.609786
 20
83.548692
 30
0.0
  0
SPLINE
  5
171
100
AcDbEntity
  8
Layer_1
 62
7
100
AcDbSpline
 70
8
 71
3
 72
8
 73
4
 74
0
 40
0
 40
0
 40
0
 40
0
 40
1
 40
1
 40
1
 40
1
 10
148.609786
 20
83.548692
 30
0.0
 10
148.609785
 20
82.491066
 30
0.0
 10
147.752409
 20
81.633692
 30
0.0
 10
146.694783
 20
81.633692
 30
0.0
  0
LWPOLYLINE
  5
172
100
AcDbEntity
  8
Layer_1
 62
7
100
AcDbPolyline
 90
1
 70
1
 10
146.157655
 20
88.589436
 30
0.0
  0
SPLINE
  5
173
100
AcDbEntity
  8
Layer_1
 62
7
100
AcDbSpline
 70
8
 71
3
 72
8
 73
4
 74
0
 40
0
 40
0
 40
0
 40
0
 40
1
 40
1
 40
1
 40
1
 10
146.501899
 20
74.659906
 30
0.0
 10
145.450069
 20
74.770458
 30
0.0
 10
144.687012
 20
75.712753
 30
0.0
 10
144.797561
 20
76.764583
 30
0.0
  0
SPLINE
  5
174
100
AcDbEntity
  8
Layer_1
 62
7
100
AcDbSpline
 70
8
 71
3
 72
8
 73
4
 74
0
 40
0
 40
0
 40
0
 40
0
 40
1
 40
1
 40
1
 40
1
 10
144.797561
 20
76.764583
 30
0.0
 10
144.850649
 20
77.269691
 30
0.0
 10
145.102217
 20
77.733021
 30
0.0
 10
145.496921
 20
78.052647
 30
0.0
  0
SPLINE
  5
175
100
AcDbEntity
  8
Layer_1
 62
7
100
AcDbSpline
 70
8
 71
3
 72
8
 73
4
 74
0
 40
0
 40
0
 40
0
 40
0
 40
1
 40
1
 40
1
 40
1
 10
145.496921
 20
78.052647
 30
0.0
 10
145.891626
 20
78.372273
 30
0.0
 10
146.397135
 20
78.522013
 30
0.0
 10
146.902243
 20
78.468924
 30
0.0
  0
SPLINE
  5
176
100
AcDbEntity
  8
Layer_1
 62
7
100
AcDbSpline
 70
8
 71
3
 72
8
 73
4
 74
0
 40
0
 40
0
 40
0
 40
0
 40
1
 40
1
 40
1
 40
1
 10
146.902243
 20
78.468924
 30
0.0
 10
147.407351
 20
78.415835
 30
0.0
 10
147.870683
 20
78.164268
 30
0.0
 10
148.190309
 20
77.769562
 30
0.0
  0
SPLINE
  5
177
100
AcDbEntity
  8
Layer_1
 62
7
100
AcDbSpline
 70
8
 71
3
 72
8
 73
4
 74
0
 40
0
 40
0
 40
0
 40
0
 40
1
 40
1
 40
1
 40
1
 10
148.190309
 20
77.769562
 30
0.0
 10
148.509935
 20
77.374857
 30
0.0
 10
148.659674
 20
76.869347
 30
0.0
 10
148.606584
 20
76.364239
 30
0.0
  0
SPLINE
  5
178
100
AcDbEntity
  8
Layer_1
 62
7
100
AcDbSpline
 70
8
 71
3
 72
8
 73
4
 74
0
 40
0
 40
0
 40
0
 40
0
 40
1
 40
1
 40
1
 40
1
 10
148.606584
 20
76.364239
 30
0.0
 10
148.496029
 20
75.312408
 30
0.0
 10
147.553730
 20
74.549352
 30
0.0
 10
146.501899
 20
74.659906
 30
0.0
  0
LWPOLYLINE
  5
179
100
AcDbEntity
  8
Layer_1
 62
7
100
AcDbPolyline
 90
1
 70
1
 10
146.694783
 20
81.633692
 30
0.0
  0
SPLINE
  5
17a
100
AcDbEntity
  8
Layer_1
 62
7
100
AcDbSpline
 70
8
 71
3
 72
8
 73
4
 74
0
 40
0
 40
0
 40
0
 40
0
 40
1
 40
1
 40
1
 40
1
 10
145.581109
 20
67.744484
 30
0.0
 10
144.546596
 20
67.964377
 30
0.0
 10
143.886216
 20
68.981272
 30
0.0
 10
144.106106
 20
70.015785
 30
0.0
  0
SPLINE
  5
17b
100
AcDbEntity
  8
Layer_1
 62
7
100
AcDbSpline
 70
8
 71
3
 72
8
 73
4
 74
0
 40
0
 40
0
 40
0
 40
0
 40
1
 40
1
 40
1
 40
1
 10
144.106106
 20
70.015785
 30
0.0
 10
144.211702
 20
70.512577
 30
0.0
 10
144.510323
 20
70.947074
 30
0.0
 10
144.936275
 20
71.223691
 30
0.0
  0
SPLINE
  5
17c
100
AcDbEntity
  8
Layer_1
 62
7
100
AcDbSpline
 70
8
 71
3
 72
8
 73
4
 74
0
 40
0
 40
0
 40
0
 40
0
 40
1
 40
1
 40
1
 40
1
 10
144.936275
 20
71.223691
 30
0.0
 10
145.362228
 20
71.500308
 30
0.0
 10
145.880621
 20
71.596387
 30
0.0
 10
146.377413
 20
71.490790
 30
0.0
  0
SPLINE
  5
17d
100
AcDbEntity
  8
Layer_1
 62
7
100
AcDbSpline
 70
8
 71
3
 72
8
 73
4
 74
0
 40
0
 40
0
 40
0
 40
0
 40
1
 40
1
 40
1
 40
1
 10
146.377413
 20
71.490790
 30
0.0
 10
146.874204
 20
71.385194
 30
0.0
 10
147.308700
 20
71.086573
 30
0.0
 10
147.585317
 20
70.660620
 30
0.0
  0
SPLINE
  5
17e
100
AcDbEntity
  8
Layer_1
 62
7
100
AcDbSpline
 70
8
 71
3
 72
8
 73
4
 74
0
 40
0
 40
0
 40
0
 40
0
 40
1
 40
1
 40
1
 40
1
 10
147.585317
 20
70.660620
 30
0.0
 10
147.861934
 20
70.234668
 30
0.0
 10
147.958012
 20
69.716275
 30
0.0
 10
147.852415
 20
69.219484
 30
0.0
  0
SPLINE
  5
17f
100
AcDbEntity
  8
Layer_1
 62
7
100
AcDbSpline
 70
8
 71
3
 72
8
 73
4
 74
0
 40
0
 40
0
 40
0
 40
0
 40
1
 40
1
 40
1
 40
1
 10
147.852415
 20
69.219484
 30
0.0
 10
147.632521
 20
68.184970
 30
0.0
 10
146.615623
 20
67.524590
 30
0.0
 10
145.581109
 20
67.744484
 30
0.0
  0
LWPOLYLINE
  5
180
100
AcDbEntity
  8
Layer_1
 62
7
100
AcDbPolyline
 90
1
 70
1
 10
146.501899
 20
74.659906
 30
0.0
  0
SPLINE
  5
181
100
AcDbEntity
  8
Layer_1
 62
7
100
AcDbSpline
 70
8
 71
3
 72
8
 73
4
 74
0
 40
0
 40
0
 40
0
 40
0
 40
1
 40
1
 40
1
 40
1
 10
143.942506
 20
60.963192
 30
0.0
 10
142.936646
 20
61.290017
 30
0.0
 10
142.386178
 20
62.370370
 30
0.0
 10
142.713000
 20
63.376231
 30
0.0
  0
SPLINE
  5
182
100
AcDbEntity
  8
Layer_1
 62
7
100
AcDbSpline
 70
8
 71
3
 72
8
 73
4
 74
0
 40
0
 40
0
 40
0
 40
0
 40
1
 40
1
 40
1
 40
1
 10
142.713000
 20
63.376231
 30
0.0
 10
143.039823
 20
64.382093
 30
0.0
 10
144.120178
 20
64.932563
 30
0.0
 10
145.126041
 20
64.605740
 30
0.0
  0
SPLINE
  5
183
100
AcDbEntity
  8
Layer_1
 62
7
100
AcDbSpline
 70
8
 71
3
 72
8
 73
4
 74
0
 40
0
 40
0
 40
0
 40
0
 40
1
 40
1
 40
1
 40
1
 10
145.126041
 20
64.605740
 30
0.0
 10
145.609074
 20
64.448794
 30
0.0
 10
146.009976
 20
64.106392
 30
0.0
 10
146.240554
 20
63.653858
 30
0.0
  0
SPLINE
  5
184
100
AcDbEntity
  8
Layer_1
 62
7
100
AcDbSpline
 70
8
 71
3
 72
8
 73
4
 74
0
 40
0
 40
0
 40
0
 40
0
 40
1
 40
1
 40
1
 40
1
 10
146.240554
 20
63.653858
 30
0.0
 10
146.471131
 20
63.201324
 30
0.0
 10
146.512497
 20
62.675729
 30
0.0
 10
146.355550
 20
62.192696
 30
0.0
  0
SPLINE
  5
185
100
AcDbEntity
  8
Layer_1
 62
7
100
AcDbSpline
 70
8
 71
3
 72
8
 73
4
 74
0
 40
0
 40
0
 40
0
 40
0
 40
1
 40
1
 40
1
 40
1
 10
146.355550
 20
62.192696
 30
0.0
 10
146.028724
 20
61.186834
 30
0.0
 10
144.948368
 20
60.636367
 30
0.0
 10
143.942506
 20
60.963192
 30
0.0
  0
LWPOLYLINE
  5
186
100
AcDbEntity
  8
Layer_1
 62
7
100
AcDbPolyline
 90
1
 70
1
 10
145.581109
 20
67.744484
 30
0.0
  0
SPLINE
  5
187
100
AcDbEntity
  8
Layer_1
 62
7
100
AcDbSpline
 70
8
 71
3
 72
8
 73
4
 74
0
 40
0
 40
0
 40
0
 40
0
 40
1
 40
1
 40
1
 40
1
 10
141.604040
 20
54.390335
 30
0.0
 10
140.637855
 20
54.820511
 30
0.0
 10
140.203332
 20
55.952484
 30
0.0
 10
140.633503
 20
56.918671
 30
0.0
  0
SPLINE
  5
188
100
AcDbEntity
  8
Layer_1
 62
7
100
AcDbSpline
 70
8
 71
3
 72
8
 73
4
 74
0
 40
0
 40
0
 40
0
 40
0
 40
1
 40
1
 40
1
 40
1
 10
140.633503
 20
56.918671
 30
0.0
 10
141.063677
 20
57.884861
 30
0.0
 10
142.195654
 20
58.319388
 30
0.0
 10
143.161844
 20
57.889213
 30
0.0
  0
SPLINE
  5
189
100
AcDbEntity
  8
Layer_1
 62
7
100
AcDbSpline
 70
8
 71
3
 72
8
 73
4
 74
0
 40
0
 40
0
 40
0
 40
0
 40
1
 40
1
 40
1
 40
1
 10
143.161844
 20
57.889213
 30
0.0
 10
143.625825
 20
57.682636
 30
0.0
 10
143.988740
 20
57.300204
 30
0.0
 10
144.170752
 20
56.826047
 30
0.0
  0
SPLINE
  5
18a
100
AcDbEntity
  8
Layer_1
 62
7
100
AcDbSpline
 70
8
 71
3
 72
8
 73
4
 74
0
 40
0
 40
0
 40
0
 40
0
 40
1
 40
1
 40
1
 40
1
 10
144.170752
 20
56.826047
 30
0.0
 10
144.352764
 20
56.351890
 30
0.0
 10
144.338962
 20
55.824850
 30
0.0
 10
144.132384
 20
55.360869
 30
0.0
  0
SPLINE
  5
18b
100
AcDbEntity
  8
Layer_1
 62
7
100
AcDbSpline
 70
8
 71
3
 72
8
 73
4
 74
0
 40
0
 40
0
 40
0
 40
0
 40
1
 40
1
 40
1
 40
1
 10
144.132384
 20
55.360869
 30
0.0
 10
143.702207
 20
54.394681
 30
0.0
 10
142.570229
 20
53.960158
 30
0.0
 10
141.604040
 20
54.390335
 30
0.0
  0
LWPOLYLINE
  5
18c
100
AcDbEntity
  8
Layer_1
 62
7
100
AcDbPolyline
 90
1
 70
1
 10
143.942506
 20
60.963192
 30
0.0
  0
SPLINE
  5
18d
100
AcDbEntity
  8
Layer_1
 62
7
100
AcDbSpline
 70
8
 71
3
 72
8
 73
4
 74
0
 40
0
 40
0
 40
0
 40
0
 40
1
 40
1
 40
1
 40
1
 10
138.591336
 20
48.097917
 30
0.0
 10
137.675409
 20
48.626730
 30
0.0
 10
137.361588
 20
49.797922
 30
0.0
 10
137.890396
 20
50.713851
 30
0.0
  0
SPLINE
  5
18e
100
AcDbEntity
  8
Layer_1
 62
7
100
AcDbSpline
 70
8
 71
3
 72
8
 73
4
 74
0
 40
0
 40
0
 40
0
 40
0
 40
1
 40
1
 40
1
 40
1
 10
137.890396
 20
50.713851
 30
0.0
 10
138.419208
 20
51.629783
 30
0.0
 10
139.590404
 20
51.943606
 30
0.0
 10
140.506336
 20
51.414794
 30
0.0
  0
SPLINE
  5
18f
100
AcDbEntity
  8
Layer_1
 62
7
100
AcDbSpline
 70
8
 71
3
 72
8
 73
4
 74
0
 40
0
 40
0
 40
0
 40
0
 40
1
 40
1
 40
1
 40
1
 10
140.506336
 20
51.414794
 30
0.0
 10
140.946183
 20
51.160849
 30
0.0
 10
141.267135
 20
50.742576
 30
0.0
 10
141.398587
 20
50.251991
 30
0.0
  0
SPLINE
  5
190
100
AcDbEntity
  8
Layer_1
 62
7
100
AcDbSpline
 70
8
 71
3
 72
8
 73
4
 74
0
 40
0
 40
0
 40
0
 40
0
 40
1
 40
1
 40
1
 40
1
 10
141.398587
 20
50.251991
 30
0.0
 10
141.530039
 20
49.761406
 30
0.0
 10
141.461222
 20
49.238695
 30
0.0
 10
141.207276
 20
48.798849
 30
0.0
  0
SPLINE
  5
191
100
AcDbEntity
  8
Layer_1
 62
7
100
AcDbSpline
 70
8
 71
3
 72
8
 73
4
 74
0
 40
0
 40
0
 40
0
 40
0
 40
1
 40
1
 40
1
 40
1
 10
141.207276
 20
48.798849
 30
0.0
 10
140.678460
 20
47.882921
 30
0.0
 10
139.507265
 20
47.569103
 30
0.0
 10
138.591336
 20
48.097917
 30
0.0
  0
LWPOLYLINE
  5
192
100
AcDbEntity
  8
Layer_1
 62
7
100
AcDbPolyline
 90
1
 70
1
 10
141.604040
 20
54.390335
 30
0.0
  0
SPLINE
  5
193
100
AcDbEntity
  8
Layer_1
 62
7
100
AcDbSpline
 70
8
 71
3
 72
8
 73
4
 74
0
 40
0
 40
0
 40
0
 40
0
 40
1
 40
1
 40
1
 40
1
 10
134.937398
 20
42.154882
 30
0.0
 10
134.081763
 20
42.776539
 30
0.0
 10
133.892084
 20
43.974120
 30
0.0
 10
134.513739
 20
44.829758
 30
0.0
  0
SPLINE
  5
194
100
AcDbEntity
  8
Layer_1
 62
7
100
AcDbSpline
 70
8
 71
3
 72
8
 73
4
 74
0
 40
0
 40
0
 40
0
 40
0
 40
1
 40
1
 40
1
 40
1
 10
134.513739
 20
44.829758
 30
0.0
 10
135.135396
 20
45.685396
 30
0.0
 10
136.332979
 20
45.875076
 30
0.0
 10
137.188618
 20
45.253419
 30
0.0
  0
SPLINE
  5
195
100
AcDbEntity
  8
Layer_1
 62
7
100
AcDbSpline
 70
8
 71
3
 72
8
 73
4
 74
0
 40
0
 40
0
 40
0
 40
0
 40
1
 40
1
 40
1
 40
1
 10
137.188618
 20
45.253419
 30
0.0
 10
137.599511
 20
44.954889
 30
0.0
 10
137.874984
 20
44.505359
 30
0.0
 10
137.954435
 20
44.003720
 30
0.0
  0
SPLINE
  5
196
100
AcDbEntity
  8
Layer_1
 62
7
100
AcDbSpline
 70
8
 71
3
 72
8
 73
4
 74
0
 40
0
 40
0
 40
0
 40
0
 40
1
 40
1
 40
1
 40
1
 10
137.954435
 20
44.003720
 30
0.0
 10
138.033887
 20
43.502082
 30
0.0
 10
137.910809
 20
42.989428
 30
0.0
 10
137.612277
 20
42.578536
 30
0.0
  0
SPLINE
  5
197
100
AcDbEntity
  8
Layer_1
 62
7
100
AcDbSpline
 70
8
 71
3
 72
8
 73
4
 74
0
 40
0
 40
0
 40
0
 40
0
 40
1
 40
1
 40
1
 40
1
 10
137.612277
 20
42.578536
 30
0.0
 10
136.990618
 20
41.722900
 30
0.0
 10
135.793034
 20
41.533224
 30
0.0
 10
134.937398
 20
42.154882
 30
0.0
  0
LWPOLYLINE
  5
198
100
AcDbEntity
  8
Layer_1
 62
7
100
AcDbPolyline
 90
1
 70
1
 10
138.591336
 20
48.097917
 30
0.0
  0
SPLINE
  5
199
100
AcDbEntity
  8
Layer_1
 62
7
100
AcDbSpline
 70
8
 71
3
 72
8
 73
4
 74
0
 40
0
 40
0
 40
0
 40
0
 40
1
 40
1
 40
1
 40
1
 10
130.682260
 20
36.626343
 30
0.0
 10
129.896291
 20
37.334033
 30
0.0
 10
129.832833
 20
38.544883
 30
0.0
 10
130.540523
 20
39.330852
 30
0.0
  0
SPLINE
  5
19a
100
AcDbEntity
  8
Layer_1
 62
7
100
AcDbSpline
 70
8
 71
3
 72
8
 73
4
 74
0
 40
0
 40
0
 40
0
 40
0
 40
1
 40
1
 40
1
 40
1
 10
130.540523
 20
39.330852
 30
0.0
 10
131.248212
 20
40.116822
 30
0.0
 10
132.459062
 20
40.180281
 30
0.0
 10
133.245032
 20
39.472592
 30
0.0
  0
SPLINE
  5
19b
100
AcDbEntity
  8
Layer_1
 62
7
100
AcDbSpline
 70
8
 71
3
 72
8
 73
4
 74
0
 40
0
 40
0
 40
0
 40
0
 40
1
 40
1
 40
1
 40
1
 10
133.245032
 20
39.472592
 30
0.0
 10
133.622469
 20
39.132747
 30
0.0
 10
133.849444
 20
38.656885
 30
0.0
 10
133.876025
 20
38.149690
 30
0.0
  0
SPLINE
  5
19c
100
AcDbEntity
  8
Layer_1
 62
7
100
AcDbSpline
 70
8
 71
3
 72
8
 73
4
 74
0
 40
0
 40
0
 40
0
 40
0
 40
1
 40
1
 40
1
 40
1
 10
133.876025
 20
38.149690
 30
0.0
 10
133.902606
 20
37.642495
 30
0.0
 10
133.726616
 20
37.145514
 30
0.0
 10
133.386770
 20
36.768078
 30
0.0
  0
SPLINE
  5
19d
100
AcDbEntity
  8
Layer_1
 62
7
100
AcDbSpline
 70
8
 71
3
 72
8
 73
4
 74
0
 40
0
 40
0
 40
0
 40
0
 40
1
 40
1
 40
1
 40
1
 10
133.386770
 20
36.768078
 30
0.0
 10
132.679079
 20
35.982110
 30
0.0
 10
131.468229
 20
35.918653
 30
0.0
 10
130.682260
 20
36.626343
 30
0.0
  0
LWPOLYLINE
  5
19e
100
AcDbEntity
  8
Layer_1
 62
7
100
AcDbPolyline
 90
1
 70
1
 10
134.937398
 20
42.154882
 30
0.0
  0
SPLINE
  5
19f
100
AcDbEntity
  8
Layer_1
 62
7
100
AcDbSpline
 70
8
 71
3
 72
8
 73
4
 74
0
 40
0
 40
0
 40
0
 40
0
 40
1
 40
1
 40
1
 40
1
 10
125.872545
 20
31.572880
 30
0.0
 10
125.164858
 20
32.358848
 30
0.0
 10
125.228315
 20
33.569694
 30
0.0
 10
126.014280
 20
34.277384
 30
0.0
  0
SPLINE
  5
1a0
100
AcDbEntity
  8
Layer_1
 62
7
100
AcDbSpline
 70
8
 71
3
 72
8
 73
4
 74
0
 40
0
 40
0
 40
0
 40
0
 40
1
 40
1
 40
1
 40
1
 10
126.014280
 20
34.277384
 30
0.0
 10
126.391715
 20
34.617230
 30
0.0
 10
126.888695
 20
34.793220
 30
0.0
 10
127.395890
 20
34.766640
 30
0.0
  0
SPLINE
  5
1a1
100
AcDbEntity
  8
Layer_1
 62
7
100
AcDbSpline
 70
8
 71
3
 72
8
 73
4
 74
0
 40
0
 40
0
 40
0
 40
0
 40
1
 40
1
 40
1
 40
1
 10
127.395890
 20
34.766640
 30
0.0
 10
127.903084
 20
34.740059
 30
0.0
 10
128.378946
 20
34.513085
 30
0.0
 10
128.718791
 20
34.135649
 30
0.0
  0
SPLINE
  5
1a2
100
AcDbEntity
  8
Layer_1
 62
7
100
AcDbSpline
 70
8
 71
3
 72
8
 73
4
 74
0
 40
0
 40
0
 40
0
 40
0
 40
1
 40
1
 40
1
 40
1
 10
128.718791
 20
34.135649
 30
0.0
 10
129.426481
 20
33.349680
 30
0.0
 10
129.363023
 20
32.138830
 30
0.0
 10
128.577054
 20
31.431140
 30
0.0
  0
SPLINE
  5
1a3
100
AcDbEntity
  8
Layer_1
 62
7
100
AcDbSpline
 70
8
 71
3
 72
8
 73
4
 74
0
 40
0
 40
0
 40
0
 40
0
 40
1
 40
1
 40
1
 40
1
 10
128.577054
 20
31.431140
 30
0.0
 10
127.791084
 20
30.723451
 30
0.0
 10
126.580234
 20
30.786910
 30
0.0
 10
125.872545
 20
31.572880
 30
0.0
  0
LWPOLYLINE
  5
1a4
100
AcDbEntity
  8
Layer_1
 62
7
100
AcDbPolyline
 90
1
 70
1
 10
130.682260
 20
36.626343
 30
0.0
  0
SPLINE
  5
1a5
100
AcDbEntity
  8
Layer_1
 62
7
100
AcDbSpline
 70
8
 71
3
 72
8
 73
4
 74
0
 40
0
 40
0
 40
0
 40
0
 40
1
 40
1
 40
1
 40
1
 10
120.560946
 20
27.049846
 30
0.0
 10
119.939292
 20
27.905482
 30
0.0
 10
120.128969
 20
29.103062
 30
0.0
 10
120.984603
 20
29.724719
 30
0.0
  0
SPLINE
  5
1a6
100
AcDbEntity
  8
Layer_1
 62
7
100
AcDbSpline
 70
8
 71
3
 72
8
 73
4
 74
0
 40
0
 40
0
 40
0
 40
0
 40
1
 40
1
 40
1
 40
1
 10
120.984603
 20
29.724719
 30
0.0
 10
121.840239
 20
30.346377
 30
0.0
 10
123.037823
 20
30.156699
 30
0.0
 10
123.659481
 20
29.301063
 30
0.0
  0
SPLINE
  5
1a7
100
AcDbEntity
  8
Layer_1
 62
7
100
AcDbSpline
 70
8
 71
3
 72
8
 73
4
 74
0
 40
0
 40
0
 40
0
 40
0
 40
1
 40
1
 40
1
 40
1
 10
123.659481
 20
29.301063
 30
0.0
 10
123.958012
 20
28.890171
 30
0.0
 10
124.081089
 20
28.377517
 30
0.0
 10
124.001637
 20
27.875879
 30
0.0
  0
SPLINE
  5
1a8
100
AcDbEntity
  8
Layer_1
 62
7
100
AcDbSpline
 70
8
 71
3
 72
8
 73
4
 74
0
 40
0
 40
0
 40
0
 40
0
 40
1
 40
1
 40
1
 40
1
 10
124.001637
 20
27.875879
 30
0.0
 10
123.922185
 20
27.374241
 30
0.0
 10
123.646712
 20
26.924712
 30
0.0
 10
123.235819
 20
26.626182
 30
0.0
  0
SPLINE
  5
1a9
100
AcDbEntity
  8
Layer_1
 62
7
100
AcDbSpline
 70
8
 71
3
 72
8
 73
4
 74
0
 40
0
 40
0
 40
0
 40
0
 40
1
 40
1
 40
1
 40
1
 10
123.235819
 20
26.626182
 30
0.0
 10
122.380181
 20
26.004530
 30
0.0
 10
121.182601
 20
26.194210
 30
0.0
 10
120.560946
 20
27.049846
 30
0.0
  0
LWPOLYLINE
  5
1aa
100
AcDbEntity
  8
Layer_1
 62
7
100
AcDbPolyline
 90
1
 70
1
 10
125.872545
 20
31.572880
 30
0.0
  0
SPLINE
  5
1ab
100
AcDbEntity
  8
Layer_1
 62
7
100
AcDbSpline
 70
8
 71
3
 72
8
 73
4
 74
0
 40
0
 40
0
 40
0
 40
0
 40
1
 40
1
 40
1
 40
1
 10
114.805657
 20
23.106806
 30
0.0
 10
114.276846
 20
24.022735
 30
0.0
 10
114.590666
 20
25.193929
 30
0.0
 10
115.506594
 20
25.722743
 30
0.0
  0
SPLINE
  5
1ac
100
AcDbEntity
  8
Layer_1
 62
7
100
AcDbSpline
 70
8
 71
3
 72
8
 73
4
 74
0
 40
0
 40
0
 40
0
 40
0
 40
1
 40
1
 40
1
 40
1
 10
115.506594
 20
25.722743
 30
0.0
 10
115.946440
 20
25.976688
 30
0.0
 10
116.469150
 20
26.045505
 30
0.0
 10
116.959734
 20
25.914054
 30
0.0
  0
SPLINE
  5
1ad
100
AcDbEntity
  8
Layer_1
 62
7
100
AcDbSpline
 70
8
 71
3
 72
8
 73
4
 74
0
 40
0
 40
0
 40
0
 40
0
 40
1
 40
1
 40
1
 40
1
 10
116.959734
 20
25.914054
 30
0.0
 10
117.450319
 20
25.782603
 30
0.0
 10
117.868591
 20
25.461651
 30
0.0
 10
118.122537
 20
25.021806
 30
0.0
  0
SPLINE
  5
1ae
100
AcDbEntity
  8
Layer_1
 62
7
100
AcDbSpline
 70
8
 71
3
 72
8
 73
4
 74
0
 40
0
 40
0
 40
0
 40
0
 40
1
 40
1
 40
1
 40
1
 10
118.122537
 20
25.021806
 30
0.0
 10
118.651348
 20
24.105874
 30
0.0
 10
118.337526
 20
22.934678
 30
0.0
 10
117.421594
 20
22.405866
 30
0.0
  0
SPLINE
  5
1af
100
AcDbEntity
  8
Layer_1
 62
7
100
AcDbSpline
 70
8
 71
3
 72
8
 73
4
 74
0
 40
0
 40
0
 40
0
 40
0
 40
1
 40
1
 40
1
 40
1
 10
117.421594
 20
22.405866
 30
0.0
 10
116.505663
 20
21.877055
 30
0.0
 10
115.334470
 20
22.190877
 30
0.0
 10
114.805657
 20
23.106806
 30
0.0
  0
LWPOLYLINE
  5
1b0
100
AcDbEntity
  8
Layer_1
 62
7
100
AcDbPolyline
 90
1
 70
1
 10
120.560946
 20
27.049846
 30
0.0
  0
SPLINE
  5
1b1
100
AcDbEntity
  8
Layer_1
 62
7
100
AcDbSpline
 70
8
 71
3
 72
8
 73
4
 74
0
 40
0
 40
0
 40
0
 40
0
 40
1
 40
1
 40
1
 40
1
 10
108.669738
 20
19.786955
 30
0.0
 10
108.239564
 20
20.753142
 30
0.0
 10
108.674087
 20
21.885116
 30
0.0
 10
109.640272
 20
22.315293
 30
0.0
  0
SPLINE
  5
1b2
100
AcDbEntity
  8
Layer_1
 62
7
100
AcDbSpline
 70
8
 71
3
 72
8
 73
4
 74
0
 40
0
 40
0
 40
0
 40
0
 40
1
 40
1
 40
1
 40
1
 10
109.640272
 20
22.315293
 30
0.0
 10
110.606461
 20
22.745470
 30
0.0
 10
111.738439
 20
22.310947
 30
0.0
 10
112.168616
 20
21.344759
 30
0.0
  0
SPLINE
  5
1b3
100
AcDbEntity
  8
Layer_1
 62
7
100
AcDbSpline
 70
8
 71
3
 72
8
 73
4
 74
0
 40
0
 40
0
 40
0
 40
0
 40
1
 40
1
 40
1
 40
1
 10
112.168616
 20
21.344759
 30
0.0
 10
112.375194
 20
20.880778
 30
0.0
 10
112.388996
 20
20.353738
 30
0.0
 10
112.206984
 20
19.879581
 30
0.0
  0
SPLINE
  5
1b4
100
AcDbEntity
  8
Layer_1
 62
7
100
AcDbSpline
 70
8
 71
3
 72
8
 73
4
 74
0
 40
0
 40
0
 40
0
 40
0
 40
1
 40
1
 40
1
 40
1
 10
112.206984
 20
19.879581
 30
0.0
 10
112.024972
 20
19.405425
 30
0.0
 10
111.662058
 20
19.022992
 30
0.0
 10
111.198076
 20
18.816415
 30
0.0
  0
SPLINE
  5
1b5
100
AcDbEntity
  8
Layer_1
 62
7
100
AcDbSpline
 70
8
 71
3
 72
8
 73
4
 74
0
 40
0
 40
0
 40
0
 40
0
 40
1
 40
1
 40
1
 40
1
 10
111.198076
 20
18.816415
 30
0.0
 10
110.231888
 20
18.386242
 30
0.0
 10
109.099913
 20
18.820767
 30
0.0
 10
108.669738
 20
19.786955
 30
0.0
  0
LWPOLYLINE
  5
1b6
100
AcDbEntity
  8
Layer_1
 62
7
100
AcDbPolyline
 90
1
 70
1
 10
114.805657
 20
23.106806
 30
0.0
  0
SPLINE
  5
1b7
100
AcDbEntity
  8
Layer_1
 62
7
100
AcDbSpline
 70
8
 71
3
 72
8
 73
4
 74
0
 40
0
 40
0
 40
0
 40
0
 40
1
 40
1
 40
1
 40
1
 10
102.220414
 20
17.126671
 30
0.0
 10
101.893588
 20
18.132532
 30
0.0
 10
102.444054
 20
19.212888
 30
0.0
 10
103.449915
 20
19.539715
 30
0.0
  0
SPLINE
  5
1b8
100
AcDbEntity
  8
Layer_1
 62
7
100
AcDbSpline
 70
8
 71
3
 72
8
 73
4
 74
0
 40
0
 40
0
 40
0
 40
0
 40
1
 40
1
 40
1
 40
1
 10
103.449915
 20
19.539715
 30
0.0
 10
104.455777
 20
19.866540
 30
0.0
 10
105.536133
 20
19.316072
 30
0.0
 10
105.862959
 20
18.310211
 30
0.0
  0
SPLINE
  5
1b9
100
AcDbEntity
  8
Layer_1
 62
7
100
AcDbSpline
 70
8
 71
3
 72
8
 73
4
 74
0
 40
0
 40
0
 40
0
 40
0
 40
1
 40
1
 40
1
 40
1
 10
105.862959
 20
18.310211
 30
0.0
 10
106.019907
 20
17.827178
 30
0.0
 10
105.978542
 20
17.301582
 30
0.0
 10
105.747965
 20
16.849048
 30
0.0
  0
SPLINE
  5
1ba
100
AcDbEntity
  8
Layer_1
 62
7
100
AcDbSpline
 70
8
 71
3
 72
8
 73
4
 74
0
 40
0
 40
0
 40
0
 40
0
 40
1
 40
1
 40
1
 40
1
 10
105.747965
 20
16.849048
 30
0.0
 10
105.517388
 20
16.396514
 30
0.0
 10
105.116485
 20
16.054111
 30
0.0
 10
104.633453
 20
15.897164
 30
0.0
  0
SPLINE
  5
1bb
100
AcDbEntity
  8
Layer_1
 62
7
100
AcDbSpline
 70
8
 71
3
 72
8
 73
4
 74
0
 40
0
 40
0
 40
0
 40
0
 40
1
 40
1
 40
1
 40
1
 10
104.633453
 20
15.897164
 30
0.0
 10
103.627592
 20
15.570343
 30
0.0
 10
102.547239
 20
16.120811
 30
0.0
 10
102.220414
 20
17.126671
 30
0.0
  0
LWPOLYLINE
  5
1bc
100
AcDbEntity
  8
Layer_1
 62
7
100
AcDbPolyline
 90
1
 70
1
 10
108.669738
 20
19.786955
 30
0.0
  0
SPLINE
  5
1bd
100
AcDbEntity
  8
Layer_1
 62
7
100
AcDbSpline
 70
8
 71
3
 72
8
 73
4
 74
0
 40
0
 40
0
 40
0
 40
0
 40
1
 40
1
 40
1
 40
1
 10
95.528340
 20
15.155100
 30
0.0
 10
95.308450
 20
16.189611
 30
0.0
 10
95.968828
 20
17.206506
 30
0.0
 10
97.003338
 20
17.426401
 30
0.0
  0
SPLINE
  5
1be
100
AcDbEntity
  8
Layer_1
 62
7
100
AcDbSpline
 70
8
 71
3
 72
8
 73
4
 74
0
 40
0
 40
0
 40
0
 40
0
 40
1
 40
1
 40
1
 40
1
 10
97.003338
 20
17.426401
 30
0.0
 10
97.500129
 20
17.531999
 30
0.0
 10
98.018522
 20
17.435921
 30
0.0
 10
98.444475
 20
17.159305
 30
0.0
  0
SPLINE
  5
1bf
100
AcDbEntity
  8
Layer_1
 62
7
100
AcDbSpline
 70
8
 71
3
 72
8
 73
4
 74
0
 40
0
 40
0
 40
0
 40
0
 40
1
 40
1
 40
1
 40
1
 10
98.444475
 20
17.159305
 30
0.0
 10
98.870428
 20
16.882689
 30
0.0
 10
99.169050
 20
16.448193
 30
0.0
 10
99.274647
 20
15.951401
 30
0.0
  0
SPLINE
  5
1c0
100
AcDbEntity
  8
Layer_1
 62
7
100
AcDbSpline
 70
8
 71
3
 72
8
 73
4
 74
0
 40
0
 40
0
 40
0
 40
0
 40
1
 40
1
 40
1
 40
1
 10
99.274647
 20
15.951401
 30
0.0
 10
99.380243
 20
15.454609
 30
0.0
 10
99.284165
 20
14.936217
 30
0.0
 10
99.007548
 20
14.510264
 30
0.0
  0
SPLINE
  5
1c1
100
AcDbEntity
  8
Layer_1
 62
7
100
AcDbSpline
 70
8
 71
3
 72
8
 73
4
 74
0
 40
0
 40
0
 40
0
 40
0
 40
1
 40
1
 40
1
 40
1
 10
99.007548
 20
14.510264
 30
0.0
 10
98.730930
 20
14.084311
 30
0.0
 10
98.296434
 20
13.785690
 30
0.0
 10
97.799641
 20
13.680095
 30
0.0
  0
SPLINE
  5
1c2
100
AcDbEntity
  8
Layer_1
 62
7
100
AcDbSpline
 70
8
 71
3
 72
8
 73
4
 74
0
 40
0
 40
0
 40
0
 40
0
 40
1
 40
1
 40
1
 40
1
 10
97.799641
 20
13.680095
 30
0.0
 10
96.765128
 20
13.460205
 30
0.0
 10
95.748232
 20
14.120587
 30
0.0
 10
95.528340
 20
15.155100
 30
0.0
  0
LWPOLYLINE
  5
1c3
100
AcDbEntity
  8
Layer_1
 62
7
100
AcDbPolyline
 90
1
 70
1
 10
102.220414
 20
17.126671
 30
0.0
  0
SPLINE
  5
1c4
100
AcDbEntity
  8
Layer_1
 62
7
100
AcDbSpline
 70
8
 71
3
 72
8
 73
4
 74
0
 40
0
 40
0
 40
0
 40
0
 40
1
 40
1
 40
1
 40
1
 10
88.666846
 20
13.893841
 30
0.0
 10
88.556296
 20
14.945670
 30
0.0
 10
89.319350
 20
15.887966
 30
0.0
 10
90.371179
 20
15.998521
 30
0.0
  0
SPLINE
  5
1c5
100
AcDbEntity
  8
Layer_1
 62
7
100
AcDbSpline
 70
8
 71
3
 72
8
 73
4
 74
0
 40
0
 40
0
 40
0
 40
0
 40
1
 40
1
 40
1
 40
1
 10
90.371179
 20
15.998521
 30
0.0
 10
91.423011
 20
16.109074
 30
0.0
 10
92.365310
 20
15.346017
 30
0.0
 10
92.475864
 20
14.294185
 30
0.0
  0
SPLINE
  5
1c6
100
AcDbEntity
  8
Layer_1
 62
7
100
AcDbSpline
 70
8
 71
3
 72
8
 73
4
 74
0
 40
0
 40
0
 40
0
 40
0
 40
1
 40
1
 40
1
 40
1
 10
92.475864
 20
14.294185
 30
0.0
 10
92.528954
 20
13.789076
 30
0.0
 10
92.379216
 20
13.283565
 30
0.0
 10
92.059590
 20
12.888860
 30
0.0
  0
SPLINE
  5
1c7
100
AcDbEntity
  8
Layer_1
 62
7
100
AcDbSpline
 70
8
 71
3
 72
8
 73
4
 74
0
 40
0
 40
0
 40
0
 40
0
 40
1
 40
1
 40
1
 40
1
 10
92.059590
 20
12.888860
 30
0.0
 10
91.739963
 20
12.494154
 30
0.0
 10
91.276632
 20
12.242586
 30
0.0
 10
90.771523
 20
12.189497
 30
0.0
  0
SPLINE
  5
1c8
100
AcDbEntity
  8
Layer_1
 62
7
100
AcDbSpline
 70
8
 71
3
 72
8
 73
4
 74
0
 40
0
 40
0
 40
0
 40
0
 40
1
 40
1
 40
1
 40
1
 10
90.771523
 20
12.189497
 30
0.0
 10
89.719691
 20
12.078949
 30
0.0
 10
88.777395
 20
12.842009
 30
0.0
 10
88.666846
 20
13.893841
 30
0.0
  0
LWPOLYLINE
  5
1c9
100
AcDbEntity
  8
Layer_1
 62
7
100
AcDbPolyline
 90
1
 70
1
 10
95.528340
 20
15.155100
 30
0.0
  0
SPLINE
  5
1ca
100
AcDbEntity
  8
Layer_1
 62
7
100
AcDbSpline
 70
8
 71
3
 72
8
 73
4
 74
0
 40
0
 40
0
 40
0
 40
0
 40
1
 40
1
 40
1
 40
1
 10
81.711099
 20
13.356710
 30
0.0
 10
81.711100
 20
14.414334
 30
0.0
 10
82.568472
 20
15.271707
 30
0.0
 10
83.626096
 20
15.271710
 30
0.0
  0
SPLINE
  5
1cb
100
AcDbEntity
  8
Layer_1
 62
7
100
AcDbSpline
 70
8
 71
3
 72
8
 73
4
 74
0
 40
0
 40
0
 40
0
 40
0
 40
1
 40
1
 40
1
 40
1
 10
83.626096
 20
15.271710
 30
0.0
 10
84.133986
 20
15.271711
 30
0.0
 10
84.621075
 20
15.069953
 30
0.0
 10
84.980208
 20
14.710821
 30
0.0
  0
SPLINE
  5
1cc
100
AcDbEntity
  8
Layer_1
 62
7
100
AcDbSpline
 70
8
 71
3
 72
8
 73
4
 74
0
 40
0
 40
0
 40
0
 40
0
 40
1
 40
1
 40
1
 40
1
 10
84.980208
 20
14.710821
 30
0.0
 10
85.339341
 20
14.351689
 30
0.0
 10
85.541101
 20
13.864600
 30
0.0
 10
85.541101
 20
13.356710
 30
0.0
  0
SPLINE
  5
1cd
100
AcDbEntity
  8
Layer_1
 62
7
100
AcDbSpline
 70
8
 71
3
 72
8
 73
4
 74
0
 40
0
 40
0
 40
0
 40
0
 40
1
 40
1
 40
1
 40
1
 10
85.541101
 20
13.356710
 30
0.0
 10
85.541101
 20
12.848819
 30
0.0
 10
85.339342
 20
12.361730
 30
0.0
 10
84.980209
 20
12.002598
 30
0.0
  0
SPLINE
  5
1ce
100
AcDbEntity
  8
Layer_1
 62
7
100
AcDbSpline
 70
8
 71
3
 72
8
 73
4
 74
0
 40
0
 40
0
 40
0
 40
0
 40
1
 40
1
 40
1
 40
1
 10
84.980209
 20
12.002598
 30
0.0
 10
84.621076
 20
11.643465
 30
0.0
 10
84.133987
 20
11.441707
 30
0.0
 10
83.626096
 20
11.441707
 30
0.0
  0
SPLINE
  5
1cf
100
AcDbEntity
  8
Layer_1
 62
7
100
AcDbSpline
 70
8
 71
3
 72
8
 73
4
 74
0
 40
0
 40
0
 40
0
 40
0
 40
1
 40
1
 40
1
 40
1
 10
83.626096
 20
11.441707
 30
0.0
 10
82.568471
 20
11.441710
 30
0.0
 10
81.711098
 20
12.299085
 30
0.0
 10
81.711099
 20
13.356710
 30
0.0
  0
LWPOLYLINE
  5
1d0
100
AcDbEntity
  8
Layer_1
 62
7
100
AcDbPolyline
 90
1
 70
1
 10
88.666846
 20
13.893841
 30
0.0
  0
SPLINE
  5
1d1
100
AcDbEntity
  8
Layer_1
 62
7
100
AcDbSpline
 70
8
 71
3
 72
8
 73
4
 74
0
 40
0
 40
0
 40
0
 40
0
 40
1
 40
1
 40
1
 40
1
 10
74.737312
 20
13.549597
 30
0.0
 10
74.847866
 20
14.601426
 30
0.0
 10
75.790162
 20
15.364483
 30
0.0
 10
76.841992
 20
15.253933
 30
0.0
  0
SPLINE
  5
1d2
100
AcDbEntity
  8
Layer_1
 62
7
100
AcDbSpline
 70
8
 71
3
 72
8
 73
4
 74
0
 40
0
 40
0
 40
0
 40
0
 40
1
 40
1
 40
1
 40
1
 10
76.841992
 20
15.253933
 30
0.0
 10
77.893824
 20
15.143380
 30
0.0
 10
78.656882
 20
14.201082
 30
0.0
 10
78.546331
 20
13.149250
 30
0.0
  0
SPLINE
  5
1d3
100
AcDbEntity
  8
Layer_1
 62
7
100
AcDbSpline
 70
8
 71
3
 72
8
 73
4
 74
0
 40
0
 40
0
 40
0
 40
0
 40
1
 40
1
 40
1
 40
1
 10
78.546331
 20
13.149250
 30
0.0
 10
78.435777
 20
12.097419
 30
0.0
 10
77.493479
 20
11.334363
 30
0.0
 10
76.441648
 20
11.444914
 30
0.0
  0
SPLINE
  5
1d4
100
AcDbEntity
  8
Layer_1
 62
7
100
AcDbSpline
 70
8
 71
3
 72
8
 73
4
 74
0
 40
0
 40
0
 40
0
 40
0
 40
1
 40
1
 40
1
 40
1
 10
76.441648
 20
11.444914
 30
0.0
 10
75.389817
 20
11.555468
 30
0.0
 10
74.626761
 20
12.497766
 30
0.0
 10
74.737312
 20
13.549597
 30
0.0
  0
LWPOLYLINE
  5
1d5
100
AcDbEntity
  8
Layer_1
 62
7
100
AcDbPolyline
 90
1
 70
1
 10
81.711099
 20
13.356710
 30
0.0
  0
SPLINE
  5
1d6
100
AcDbEntity
  8
Layer_1
 62
7
100
AcDbSpline
 70
8
 71
3
 72
8
 73
4
 74
0
 40
0
 40
0
 40
0
 40
0
 40
1
 40
1
 40
1
 40
1
 10
67.821890
 20
14.470384
 30
0.0
 10
68.041783
 20
15.504897
 30
0.0
 10
69.058679
 20
16.165277
 30
0.0
 10
70.093192
 20
15.945387
 30
0.0
  0
SPLINE
  5
1d7
100
AcDbEntity
  8
Layer_1
 62
7
100
AcDbSpline
 70
8
 71
3
 72
8
 73
4
 74
0
 40
0
 40
0
 40
0
 40
0
 40
1
 40
1
 40
1
 40
1
 10
70.093192
 20
15.945387
 30
0.0
 10
71.127705
 20
15.725494
 30
0.0
 10
71.788086
 20
14.708597
 30
0.0
 10
71.568194
 20
13.674083
 30
0.0
  0
SPLINE
  5
1d8
100
AcDbEntity
  8
Layer_1
 62
7
100
AcDbSpline
 70
8
 71
3
 72
8
 73
4
 74
0
 40
0
 40
0
 40
0
 40
0
 40
1
 40
1
 40
1
 40
1
 10
71.568194
 20
13.674083
 30
0.0
 10
71.462599
 20
13.177291
 30
0.0
 10
71.163978
 20
12.742794
 30
0.0
 10
70.738025
 20
12.466177
 30
0.0
  0
SPLINE
  5
1d9
100
AcDbEntity
  8
Layer_1
 62
7
100
AcDbSpline
 70
8
 71
3
 72
8
 73
4
 74
0
 40
0
 40
0
 40
0
 40
0
 40
1
 40
1
 40
1
 40
1
 10
70.738025
 20
12.466177
 30
0.0
 10
70.312072
 20
12.189560
 30
0.0
 10
69.793680
 20
12.093481
 30
0.0
 10
69.296888
 20
12.199078
 30
0.0
  0
SPLINE
  5
1da
100
AcDbEntity
  8
Layer_1
 62
7
100
AcDbSpline
 70
8
 71
3
 72
8
 73
4
 74
0
 40
0
 40
0
 40
0
 40
0
 40
1
 40
1
 40
1
 40
1
 10
69.296888
 20
12.199078
 30
0.0
 10
68.262375
 20
12.418973
 30
0.0
 10
67.601997
 20
13.435871
 30
0.0
 10
67.821890
 20
14.470384
 30
0.0
  0
LWPOLYLINE
  5
1db
100
AcDbEntity
  8
Layer_1
 62
7
100
AcDbPolyline
 90
1
 70
1
 10
74.737312
 20
13.549597
 30
0.0
  0
SPLINE
  5
1dc
100
AcDbEntity
  8
Layer_1
 62
7
100
AcDbSpline
 70
8
 71
3
 72
8
 73
4
 74
0
 40
0
 40
0
 40
0
 40
0
 40
1
 40
1
 40
1
 40
1
 10
18.524860
 20
105.583754
 30
0.0
 10
19.491048
 20
105.153579
 30
0.0
 10
19.925573
 20
104.021604
 30
0.0
 10
19.495401
 20
103.055416
 30
0.0
  0
SPLINE
  5
1dd
100
AcDbEntity
  8
Layer_1
 62
7
100
AcDbSpline
 70
8
 71
3
 72
8
 73
4
 74
0
 40
0
 40
0
 40
0
 40
0
 40
1
 40
1
 40
1
 40
1
 10
19.495401
 20
103.055416
 30
0.0
 10
19.288824
 20
102.591434
 30
0.0
 10
18.906391
 20
102.228519
 30
0.0
 10
18.432235
 20
102.046506
 30
0.0
  0
SPLINE
  5
1de
100
AcDbEntity
  8
Layer_1
 62
7
100
AcDbSpline
 70
8
 71
3
 72
8
 73
4
 74
0
 40
0
 40
0
 40
0
 40
0
 40
1
 40
1
 40
1
 40
1
 10
18.432235
 20
102.046506
 30
0.0
 10
17.958078
 20
101.864494
 30
0.0
 10
17.431038
 20
101.878295
 30
0.0
 10
16.967057
 20
102.084873
 30
0.0
  0
SPLINE
  5
1df
100
AcDbEntity
  8
Layer_1
 62
7
100
AcDbSpline
 70
8
 71
3
 72
8
 73
4
 74
0
 40
0
 40
0
 40
0
 40
0
 40
1
 40
1
 40
1
 40
1
 10
16.967057
 20
102.084873
 30
0.0
 10
16.503076
 20
102.291451
 30
0.0
 10
16.140161
 20
102.673883
 30
0.0
 10
15.958149
 20
103.148040
 30
0.0
  0
SPLINE
  5
1e0
100
AcDbEntity
  8
Layer_1
 62
7
100
AcDbSpline
 70
8
 71
3
 72
8
 73
4
 74
0
 40
0
 40
0
 40
0
 40
0
 40
1
 40
1
 40
1
 40
1
 10
15.958149
 20
103.148040
 30
0.0
 10
15.776138
 20
103.622196
 30
0.0
 10
15.789939
 20
104.149236
 30
0.0
 10
15.996517
 20
104.613217
 30
0.0
  0
SPLINE
  5
1e1
100
AcDbEntity
  8
Layer_1
 62
7
100
AcDbSpline
 70
8
 71
3
 72
8
 73
4
 74
0
 40
0
 40
0
 40
0
 40
0
 40
1
 40
1
 40
1
 40
1
 10
15.996517
 20
104.613217
 30
0.0
 10
16.426694
 20
105.579406
 30
0.0
 10
17.558671
 20
106.013930
 30
0.0
 10
18.524860
 20
105.583754
 30
0.0
  0
LWPOLYLINE
  5
1e2
100
AcDbEntity
  8
Layer_1
 62
7
100
AcDbPolyline
 90
1
 70
1
 10
67.821890
 20
14.470384
 30
0.0
  0
SPLINE
  5
1e3
100
AcDbEntity
  8
Layer_1
 62
7
100
AcDbSpline
 70
8
 71
3
 72
8
 73
4
 74
0
 40
0
 40
0
 40
0
 40
0
 40
1
 40
1
 40
1
 40
1
 10
21.537565
 20
111.876172
 30
0.0
 10
22.453494
 20
111.347359
 30
0.0
 10
22.767315
 20
110.176165
 30
0.0
 10
22.238505
 20
109.260235
 30
0.0
  0
SPLINE
  5
1e4
100
AcDbEntity
  8
Layer_1
 62
7
100
AcDbSpline
 70
8
 71
3
 72
8
 73
4
 74
0
 40
0
 40
0
 40
0
 40
0
 40
1
 40
1
 40
1
 40
1
 10
22.238505
 20
109.260235
 30
0.0
 10
21.709692
 20
108.344304
 30
0.0
 10
20.538496
 20
108.030483
 30
0.0
 10
19.622565
 20
108.559295
 30
0.0
  0
SPLINE
  5
1e5
100
AcDbEntity
  8
Layer_1
 62
7
100
AcDbSpline
 70
8
 71
3
 72
8
 73
4
 74
0
 40
0
 40
0
 40
0
 40
0
 40
1
 40
1
 40
1
 40
1
 10
19.622565
 20
108.559295
 30
0.0
 10
19.182719
 20
108.813240
 30
0.0
 10
18.861767
 20
109.231512
 30
0.0
 10
18.730315
 20
109.722096
 30
0.0
  0
SPLINE
  5
1e6
100
AcDbEntity
  8
Layer_1
 62
7
100
AcDbSpline
 70
8
 71
3
 72
8
 73
4
 74
0
 40
0
 40
0
 40
0
 40
0
 40
1
 40
1
 40
1
 40
1
 10
18.730315
 20
109.722096
 30
0.0
 10
18.598863
 20
110.212681
 30
0.0
 10
18.667679
 20
110.735391
 30
0.0
 10
18.921624
 20
111.175237
 30
0.0
  0
SPLINE
  5
1e7
100
AcDbEntity
  8
Layer_1
 62
7
100
AcDbSpline
 70
8
 71
3
 72
8
 73
4
 74
0
 40
0
 40
0
 40
0
 40
0
 40
1
 40
1
 40
1
 40
1
 10
18.921624
 20
111.175237
 30
0.0
 10
19.450439
 20
112.091167
 30
0.0
 10
20.621635
 20
112.404986
 30
0.0
 10
21.537565
 20
111.876172
 30
0.0
  0
LWPOLYLINE
  5
1e8
100
AcDbEntity
  8
Layer_1
 62
7
100
AcDbPolyline
 90
1
 70
1
 10
18.524860
 20
105.583754
 30
0.0
  0
SPLINE
  5
1e9
100
AcDbEntity
  8
Layer_1
 62
7
100
AcDbSpline
 70
8
 71
3
 72
8
 73
4
 74
0
 40
0
 40
0
 40
0
 40
0
 40
1
 40
1
 40
1
 40
1
 10
25.191504
 20
117.819202
 30
0.0
 10
26.047136
 20
117.197545
 30
0.0
 10
26.236814
 20
115.999967
 30
0.0
 10
25.615162
 20
115.144331
 30
0.0
  0
SPLINE
  5
1ea
100
AcDbEntity
  8
Layer_1
 62
7
100
AcDbSpline
 70
8
 71
3
 72
8
 73
4
 74
0
 40
0
 40
0
 40
0
 40
0
 40
1
 40
1
 40
1
 40
1
 10
25.615162
 20
115.144331
 30
0.0
 10
24.993506
 20
114.288693
 30
0.0
 10
23.795922
 20
114.099014
 30
0.0
 10
22.940284
 20
114.720670
 30
0.0
  0
SPLINE
  5
1eb
100
AcDbEntity
  8
Layer_1
 62
7
100
AcDbSpline
 70
8
 71
3
 72
8
 73
4
 74
0
 40
0
 40
0
 40
0
 40
0
 40
1
 40
1
 40
1
 40
1
 10
22.940284
 20
114.720670
 30
0.0
 10
22.084646
 20
115.342327
 30
0.0
 10
21.894968
 20
116.539911
 30
0.0
 10
22.516625
 20
117.395548
 30
0.0
  0
SPLINE
  5
1ec
100
AcDbEntity
  8
Layer_1
 62
7
100
AcDbSpline
 70
8
 71
3
 72
8
 73
4
 74
0
 40
0
 40
0
 40
0
 40
0
 40
1
 40
1
 40
1
 40
1
 10
22.516625
 20
117.395548
 30
0.0
 10
23.138284
 20
118.251184
 30
0.0
 10
24.335868
 20
118.440861
 30
0.0
 10
25.191504
 20
117.819202
 30
0.0
  0
LWPOLYLINE
  5
1ed
100
AcDbEntity
  8
Layer_1
 62
7
100
AcDbPolyline
 90
1
 70
1
 10
21.537565
 20
111.876172
 30
0.0
  0
SPLINE
  5
1ee
100
AcDbEntity
  8
Layer_1
 62
7
100
AcDbSpline
 70
8
 71
3
 72
8
 73
4
 74
0
 40
0
 40
0
 40
0
 40
0
 40
1
 40
1
 40
1
 40
1
 10
29.446639
 20
123.347741
 30
0.0
 10
30.232606
 20
122.640052
 30
0.0
 10
30.296065
 20
121.429206
 30
0.0
 10
29.588379
 20
120.643237
 30
0.0
  0
SPLINE
  5
1ef
100
AcDbEntity
  8
Layer_1
 62
7
100
AcDbSpline
 70
8
 71
3
 72
8
 73
4
 74
0
 40
0
 40
0
 40
0
 40
0
 40
1
 40
1
 40
1
 40
1
 10
29.588379
 20
120.643237
 30
0.0
 10
28.880691
 20
119.857266
 30
0.0
 10
27.669841
 20
119.793806
 30
0.0
 10
26.883870
 20
120.501494
 30
0.0
  0
SPLINE
  5
1f0
100
AcDbEntity
  8
Layer_1
 62
7
100
AcDbSpline
 70
8
 71
3
 72
8
 73
4
 74
0
 40
0
 40
0
 40
0
 40
0
 40
1
 40
1
 40
1
 40
1
 10
26.883870
 20
120.501494
 30
0.0
 10
26.506433
 20
120.841339
 30
0.0
 10
26.279458
 20
121.317201
 30
0.0
 10
26.252877
 20
121.824396
 30
0.0
  0
SPLINE
  5
1f1
100
AcDbEntity
  8
Layer_1
 62
7
100
AcDbSpline
 70
8
 71
3
 72
8
 73
4
 74
0
 40
0
 40
0
 40
0
 40
0
 40
1
 40
1
 40
1
 40
1
 10
26.252877
 20
121.824396
 30
0.0
 10
26.226296
 20
122.331592
 30
0.0
 10
26.402287
 20
122.828572
 30
0.0
 10
26.742133
 20
123.206009
 30
0.0
  0
SPLINE
  5
1f2
100
AcDbEntity
  8
Layer_1
 62
7
100
AcDbSpline
 70
8
 71
3
 72
8
 73
4
 74
0
 40
0
 40
0
 40
0
 40
0
 40
1
 40
1
 40
1
 40
1
 10
26.742133
 20
123.206009
 30
0.0
 10
27.449824
 20
123.991974
 30
0.0
 10
28.660672
 20
124.055430
 30
0.0
 10
29.446639
 20
123.347741
 30
0.0
  0
LWPOLYLINE
  5
1f3
100
AcDbEntity
  8
Layer_1
 62
7
100
AcDbPolyline
 90
1
 70
1
 10
25.191504
 20
117.819202
 30
0.0
  0
SPLINE
  5
1f4
100
AcDbEntity
  8
Layer_1
 62
7
100
AcDbSpline
 70
8
 71
3
 72
8
 73
4
 74
0
 40
0
 40
0
 40
0
 40
0
 40
1
 40
1
 40
1
 40
1
 10
34.256358
 20
128.401209
 30
0.0
 10
34.964045
 20
127.615240
 30
0.0
 10
34.900587
 20
126.404392
 30
0.0
 10
34.114620
 20
125.696702
 30
0.0
  0
SPLINE
  5
1f5
100
AcDbEntity
  8
Layer_1
 62
7
100
AcDbSpline
 70
8
 71
3
 72
8
 73
4
 74
0
 40
0
 40
0
 40
0
 40
0
 40
1
 40
1
 40
1
 40
1
 10
34.114620
 20
125.696702
 30
0.0
 10
33.328652
 20
124.989012
 30
0.0
 10
32.117802
 20
125.052469
 30
0.0
 10
31.410111
 20
125.838437
 30
0.0
  0
SPLINE
  5
1f6
100
AcDbEntity
  8
Layer_1
 62
7
100
AcDbSpline
 70
8
 71
3
 72
8
 73
4
 74
0
 40
0
 40
0
 40
0
 40
0
 40
1
 40
1
 40
1
 40
1
 10
31.410111
 20
125.838437
 30
0.0
 10
31.070265
 20
126.215873
 30
0.0
 10
30.894274
 20
126.712854
 30
0.0
 10
30.920855
 20
127.220049
 30
0.0
  0
SPLINE
  5
1f7
100
AcDbEntity
  8
Layer_1
 62
7
100
AcDbSpline
 70
8
 71
3
 72
8
 73
4
 74
0
 40
0
 40
0
 40
0
 40
0
 40
1
 40
1
 40
1
 40
1
 10
30.920855
 20
127.220049
 30
0.0
 10
30.947436
 20
127.727244
 30
0.0
 10
31.174411
 20
128.203107
 30
0.0
 10
31.551848
 20
128.542952
 30
0.0
  0
SPLINE
  5
1f8
100
AcDbEntity
  8
Layer_1
 62
7
100
AcDbSpline
 70
8
 71
3
 72
8
 73
4
 74
0
 40
0
 40
0
 40
0
 40
0
 40
1
 40
1
 40
1
 40
1
 10
31.551848
 20
128.542952
 30
0.0
 10
32.337819
 20
129.250640
 30
0.0
 10
33.548669
 20
129.187180
 30
0.0
 10
34.256358
 20
128.401209
 30
0.0
  0
LWPOLYLINE
  5
1f9
100
AcDbEntity
  8
Layer_1
 62
7
100
AcDbPolyline
 90
1
 70
1
 10
29.446639
 20
123.347741
 30
0.0
  0
SPLINE
  5
1fa
100
AcDbEntity
  8
Layer_1
 62
7
100
AcDbSpline
 70
8
 71
3
 72
8
 73
4
 74
0
 40
0
 40
0
 40
0
 40
0
 40
1
 40
1
 40
1
 40
1
 10
39.567959
 20
132.924243
 30
0.0
 10
40.189616
 20
132.068605
 30
0.0
 10
39.999937
 20
130.871022
 30
0.0
 10
39.144300
 20
130.249365
 30
0.0
  0
SPLINE
  5
1fb
100
AcDbEntity
  8
Layer_1
 62
7
100
AcDbSpline
 70
8
 71
3
 72
8
 73
4
 74
0
 40
0
 40
0
 40
0
 40
0
 40
1
 40
1
 40
1
 40
1
 10
39.144300
 20
130.249365
 30
0.0
 10
38.288663
 20
129.627707
 30
0.0
 10
37.091079
 20
129.817384
 30
0.0
 10
36.469421
 20
130.673021
 30
0.0
  0
SPLINE
  5
1fc
100
AcDbEntity
  8
Layer_1
 62
7
100
AcDbSpline
 70
8
 71
3
 72
8
 73
4
 74
0
 40
0
 40
0
 40
0
 40
0
 40
1
 40
1
 40
1
 40
1
 10
36.469421
 20
130.673021
 30
0.0
 10
36.170890
 20
131.083913
 30
0.0
 10
36.047811
 20
131.596567
 30
0.0
 10
36.127263
 20
132.098206
 30
0.0
  0
SPLINE
  5
1fd
100
AcDbEntity
  8
Layer_1
 62
7
100
AcDbSpline
 70
8
 71
3
 72
8
 73
4
 74
0
 40
0
 40
0
 40
0
 40
0
 40
1
 40
1
 40
1
 40
1
 10
36.127263
 20
132.098206
 30
0.0
 10
36.206715
 20
132.599844
 30
0.0
 10
36.482187
 20
133.049374
 30
0.0
 10
36.893080
 20
133.347905
 30
0.0
  0
SPLINE
  5
1fe
100
AcDbEntity
  8
Layer_1
 62
7
100
AcDbSpline
 70
8
 71
3
 72
8
 73
4
 74
0
 40
0
 40
0
 40
0
 40
0
 40
1
 40
1
 40
1
 40
1
 10
36.893080
 20
133.347905
 30
0.0
 10
37.748719
 20
133.969561
 30
0.0
 10
38.946303
 20
133.779881
 30
0.0
 10
39.567959
 20
132.924243
 30
0.0
  0
LWPOLYLINE
  5
1ff
100
AcDbEntity
  8
Layer_1
 62
7
100
AcDbPolyline
 90
1
 70
1
 10
34.256358
 20
128.401209
 30
0.0
  0
SPLINE
  5
200
100
AcDbEntity
  8
Layer_1
 62
7
100
AcDbSpline
 70
8
 71
3
 72
8
 73
4
 74
0
 40
0
 40
0
 40
0
 40
0
 40
1
 40
1
 40
1
 40
1
 10
45.323243
 20
136.867280
 30
0.0
 10
45.852053
 20
135.951351
 30
0.0
 10
45.538235
 20
134.780158
 30
0.0
 10
44.622308
 20
134.251344
 30
0.0
  0
SPLINE
  5
201
100
AcDbEntity
  8
Layer_1
 62
7
100
AcDbSpline
 70
8
 71
3
 72
8
 73
4
 74
0
 40
0
 40
0
 40
0
 40
0
 40
1
 40
1
 40
1
 40
1
 10
44.622308
 20
134.251344
 30
0.0
 10
44.182463
 20
133.997398
 30
0.0
 10
43.659753
 20
133.928582
 30
0.0
 10
43.169168
 20
134.060033
 30
0.0
  0
SPLINE
  5
202
100
AcDbEntity
  8
Layer_1
 62
7
100
AcDbSpline
 70
8
 71
3
 72
8
 73
4
 74
0
 40
0
 40
0
 40
0
 40
0
 40
1
 40
1
 40
1
 40
1
 10
43.169168
 20
134.060033
 30
0.0
 10
42.678584
 20
134.191484
 30
0.0
 10
42.260311
 20
134.512435
 30
0.0
 10
42.006366
 20
134.952281
 30
0.0
  0
SPLINE
  5
203
100
AcDbEntity
  8
Layer_1
 62
7
100
AcDbSpline
 70
8
 71
3
 72
8
 73
4
 74
0
 40
0
 40
0
 40
0
 40
0
 40
1
 40
1
 40
1
 40
1
 10
42.006366
 20
134.952281
 30
0.0
 10
41.477553
 20
135.868212
 30
0.0
 10
41.791373
 20
137.039408
 30
0.0
 10
42.707303
 20
137.568222
 30
0.0
  0
SPLINE
  5
204
100
AcDbEntity
  8
Layer_1
 62
7
100
AcDbSpline
 70
8
 71
3
 72
8
 73
4
 74
0
 40
0
 40
0
 40
0
 40
0
 40
1
 40
1
 40
1
 40
1
 10
42.707303
 20
137.568222
 30
0.0
 10
43.623235
 20
138.097033
 30
0.0
 10
44.794431
 20
137.783211
 30
0.0
 10
45.323243
 20
136.867280
 30
0.0
  0
LWPOLYLINE
  5
205
100
AcDbEntity
  8
Layer_1
 62
7
100
AcDbPolyline
 90
1
 70
1
 10
39.567959
 20
132.924243
 30
0.0
  0
SPLINE
  5
206
100
AcDbEntity
  8
Layer_1
 62
7
100
AcDbSpline
 70
8
 71
3
 72
8
 73
4
 74
0
 40
0
 40
0
 40
0
 40
0
 40
1
 40
1
 40
1
 40
1
 10
51.459162
 20
140.187131
 30
0.0
 10
51.889335
 20
139.220944
 30
0.0
 10
51.454812
 20
138.088971
 30
0.0
 10
50.488628
 20
137.658793
 30
0.0
  0
SPLINE
  5
207
100
AcDbEntity
  8
Layer_1
 62
7
100
AcDbSpline
 70
8
 71
3
 72
8
 73
4
 74
0
 40
0
 40
0
 40
0
 40
0
 40
1
 40
1
 40
1
 40
1
 10
50.488628
 20
137.658793
 30
0.0
 10
50.024647
 20
137.452215
 30
0.0
 10
49.497607
 20
137.438414
 30
0.0
 10
49.023451
 20
137.620425
 30
0.0
  0
SPLINE
  5
208
100
AcDbEntity
  8
Layer_1
 62
7
100
AcDbSpline
 70
8
 71
3
 72
8
 73
4
 74
0
 40
0
 40
0
 40
0
 40
0
 40
1
 40
1
 40
1
 40
1
 10
49.023451
 20
137.620425
 30
0.0
 10
48.549294
 20
137.802436
 30
0.0
 10
48.166861
 20
138.165350
 30
0.0
 10
47.960283
 20
138.629330
 30
0.0
  0
SPLINE
  5
209
100
AcDbEntity
  8
Layer_1
 62
7
100
AcDbSpline
 70
8
 71
3
 72
8
 73
4
 74
0
 40
0
 40
0
 40
0
 40
0
 40
1
 40
1
 40
1
 40
1
 10
47.960283
 20
138.629330
 30
0.0
 10
47.753705
 20
139.093311
 30
0.0
 10
47.739905
 20
139.620352
 30
0.0
 10
47.921917
 20
140.094509
 30
0.0
  0
SPLINE
  5
20a
100
AcDbEntity
  8
Layer_1
 62
7
100
AcDbSpline
 70
8
 71
3
 72
8
 73
4
 74
0
 40
0
 40
0
 40
0
 40
0
 40
1
 40
1
 40
1
 40
1
 10
47.921917
 20
140.094509
 30
0.0
 10
48.103929
 20
140.568665
 30
0.0
 10
48.466844
 20
140.951098
 30
0.0
 10
48.930826
 20
141.157675
 30
0.0
  0
SPLINE
  5
20b
100
AcDbEntity
  8
Layer_1
 62
7
100
AcDbSpline
 70
8
 71
3
 72
8
 73
4
 74
0
 40
0
 40
0
 40
0
 40
0
 40
1
 40
1
 40
1
 40
1
 10
48.930826
 20
141.157675
 30
0.0
 10
49.897015
 20
141.587845
 30
0.0
 10
51.028988
 20
141.153319
 30
0.0
 10
51.459162
 20
140.187131
 30
0.0
  0
LWPOLYLINE
  5
20c
100
AcDbEntity
  8
Layer_1
 62
7
100
AcDbPolyline
 90
1
 70
1
 10
45.323243
 20
136.867280
 30
0.0
  0
SPLINE
  5
20d
100
AcDbEntity
  8
Layer_1
 62
7
100
AcDbSpline
 70
8
 71
3
 72
8
 73
4
 74
0
 40
0
 40
0
 40
0
 40
0
 40
1
 40
1
 40
1
 40
1
 10
57.908489
 20
142.847415
 30
0.0
 10
58.235311
 20
141.841554
 30
0.0
 10
57.684844
 20
140.761201
 30
0.0
 10
56.678985
 20
140.434375
 30
0.0
  0
SPLINE
  5
20e
100
AcDbEntity
  8
Layer_1
 62
7
100
AcDbSpline
 70
8
 71
3
 72
8
 73
4
 74
0
 40
0
 40
0
 40
0
 40
0
 40
1
 40
1
 40
1
 40
1
 10
56.678985
 20
140.434375
 30
0.0
 10
55.673123
 20
140.107550
 30
0.0
 10
54.592766
 20
140.658018
 30
0.0
 10
54.265941
 20
141.663880
 30
0.0
  0
SPLINE
  5
20f
100
AcDbEntity
  8
Layer_1
 62
7
100
AcDbSpline
 70
8
 71
3
 72
8
 73
4
 74
0
 40
0
 40
0
 40
0
 40
0
 40
1
 40
1
 40
1
 40
1
 10
54.265941
 20
141.663880
 30
0.0
 10
53.939118
 20
142.669742
 30
0.0
 10
54.489588
 20
143.750098
 30
0.0
 10
55.495450
 20
144.076921
 30
0.0
  0
SPLINE
  5
210
100
AcDbEntity
  8
Layer_1
 62
7
100
AcDbSpline
 70
8
 71
3
 72
8
 73
4
 74
0
 40
0
 40
0
 40
0
 40
0
 40
1
 40
1
 40
1
 40
1
 10
55.495450
 20
144.076921
 30
0.0
 10
56.501311
 20
144.403743
 30
0.0
 10
57.581664
 20
143.853275
 30
0.0
 10
57.908489
 20
142.847415
 30
0.0
  0
LWPOLYLINE
  5
211
100
AcDbEntity
  8
Layer_1
 62
7
100
AcDbPolyline
 90
1
 70
1
 10
51.459162
 20
140.187131
 30
0.0
  0
SPLINE
  5
212
100
AcDbEntity
  8
Layer_1
 62
7
100
AcDbSpline
 70
8
 71
3
 72
8
 73
4
 74
0
 40
0
 40
0
 40
0
 40
0
 40
1
 40
1
 40
1
 40
1
 10
64.600560
 20
144.818990
 30
0.0
 10
64.820451
 20
143.784478
 30
0.0
 10
64.160073
 20
142.767582
 30
0.0
 10
63.125562
 20
142.547686
 30
0.0
  0
SPLINE
  5
213
100
AcDbEntity
  8
Layer_1
 62
7
100
AcDbSpline
 70
8
 71
3
 72
8
 73
4
 74
0
 40
0
 40
0
 40
0
 40
0
 40
1
 40
1
 40
1
 40
1
 10
63.125562
 20
142.547686
 30
0.0
 10
62.091049
 20
142.327793
 30
0.0
 10
61.074151
 20
142.988172
 30
0.0
 10
60.854255
 20
144.022685
 30
0.0
  0
SPLINE
  5
214
100
AcDbEntity
  8
Layer_1
 62
7
100
AcDbSpline
 70
8
 71
3
 72
8
 73
4
 74
0
 40
0
 40
0
 40
0
 40
0
 40
1
 40
1
 40
1
 40
1
 10
60.854255
 20
144.022685
 30
0.0
 10
60.748659
 20
144.519477
 30
0.0
 10
60.844737
 20
145.037869
 30
0.0
 10
61.121354
 20
145.463822
 30
0.0
  0
SPLINE
  5
215
100
AcDbEntity
  8
Layer_1
 62
7
100
AcDbSpline
 70
8
 71
3
 72
8
 73
4
 74
0
 40
0
 40
0
 40
0
 40
0
 40
1
 40
1
 40
1
 40
1
 10
61.121354
 20
145.463822
 30
0.0
 10
61.397970
 20
145.889775
 30
0.0
 10
61.832467
 20
146.188396
 30
0.0
 10
62.329258
 20
146.293992
 30
0.0
  0
SPLINE
  5
216
100
AcDbEntity
  8
Layer_1
 62
7
100
AcDbSpline
 70
8
 71
3
 72
8
 73
4
 74
0
 40
0
 40
0
 40
0
 40
0
 40
1
 40
1
 40
1
 40
1
 10
62.329258
 20
146.293992
 30
0.0
 10
63.363771
 20
146.513882
 30
0.0
 10
64.380666
 20
145.853502
 30
0.0
 10
64.600560
 20
144.818990
 30
0.0
  0
LWPOLYLINE
  5
217
100
AcDbEntity
  8
Layer_1
 62
7
100
AcDbPolyline
 90
1
 70
1
 10
57.908489
 20
142.847415
 30
0.0
  0
SPLINE
  5
218
100
AcDbEntity
  8
Layer_1
 62
7
100
AcDbSpline
 70
8
 71
3
 72
8
 73
4
 74
0
 40
0
 40
0
 40
0
 40
0
 40
1
 40
1
 40
1
 40
1
 10
71.462054
 20
146.080250
 30
0.0
 10
71.572608
 20
145.028419
 30
0.0
 10
70.809552
 20
144.086120
 30
0.0
 10
69.757721
 20
143.975565
 30
0.0
  0
SPLINE
  5
219
100
AcDbEntity
  8
Layer_1
 62
7
100
AcDbSpline
 70
8
 71
3
 72
8
 73
4
 74
0
 40
0
 40
0
 40
0
 40
0
 40
1
 40
1
 40
1
 40
1
 10
69.757721
 20
143.975565
 30
0.0
 10
68.705889
 20
143.865012
 30
0.0
 10
67.763589
 20
144.628069
 30
0.0
 10
67.653036
 20
145.679901
 30
0.0
  0
SPLINE
  5
21a
100
AcDbEntity
  8
Layer_1
 62
7
100
AcDbSpline
 70
8
 71
3
 72
8
 73
4
 74
0
 40
0
 40
0
 40
0
 40
0
 40
1
 40
1
 40
1
 40
1
 10
67.653036
 20
145.679901
 30
0.0
 10
67.599946
 20
146.185010
 30
0.0
 10
67.749684
 20
146.690520
 30
0.0
 10
68.069310
 20
147.085226
 30
0.0
  0
SPLINE
  5
21b
100
AcDbEntity
  8
Layer_1
 62
7
100
AcDbSpline
 70
8
 71
3
 72
8
 73
4
 74
0
 40
0
 40
0
 40
0
 40
0
 40
1
 40
1
 40
1
 40
1
 10
68.069310
 20
147.085226
 30
0.0
 10
68.388937
 20
147.479931
 30
0.0
 10
68.852268
 20
147.731499
 30
0.0
 10
69.357377
 20
147.784588
 30
0.0
  0
SPLINE
  5
21c
100
AcDbEntity
  8
Layer_1
 62
7
100
AcDbSpline
 70
8
 71
3
 72
8
 73
4
 74
0
 40
0
 40
0
 40
0
 40
0
 40
1
 40
1
 40
1
 40
1
 10
69.357377
 20
147.784588
 30
0.0
 10
70.409207
 20
147.895136
 30
0.0
 10
71.351501
 20
147.132080
 30
0.0
 10
71.462054
 20
146.080250
 30
0.0
  0
LWPOLYLINE
  5
21d
100
AcDbEntity
  8
Layer_1
 62
7
100
AcDbPolyline
 90
1
 70
1
 10
64.600560
 20
144.818990
 30
0.0
  0
SPLINE
  5
21e
100
AcDbEntity
  8
Layer_1
 62
7
100
AcDbSpline
 70
8
 71
3
 72
8
 73
4
 74
0
 40
0
 40
0
 40
0
 40
0
 40
1
 40
1
 40
1
 40
1
 10
78.417804
 20
146.617377
 30
0.0
 10
78.417802
 20
145.559755
 30
0.0
 10
77.560431
 20
144.702382
 30
0.0
 10
76.502809
 20
144.702378
 30
0.0
  0
SPLINE
  5
21f
100
AcDbEntity
  8
Layer_1
 62
7
100
AcDbSpline
 70
8
 71
3
 72
8
 73
4
 74
0
 40
0
 40
0
 40
0
 40
0
 40
1
 40
1
 40
1
 40
1
 10
76.502809
 20
144.702378
 30
0.0
 10
75.994919
 20
144.702377
 30
0.0
 10
75.507829
 20
144.904134
 30
0.0
 10
75.148695
 20
145.263266
 30
0.0
  0
SPLINE
  5
220
100
AcDbEntity
  8
Layer_1
 62
7
100
AcDbSpline
 70
8
 71
3
 72
8
 73
4
 74
0
 40
0
 40
0
 40
0
 40
0
 40
1
 40
1
 40
1
 40
1
 10
75.148695
 20
145.263266
 30
0.0
 10
74.789562
 20
145.622399
 30
0.0
 10
74.587802
 20
146.109487
 30
0.0
 10
74.587801
 20
146.617378
 30
0.0
  0
SPLINE
  5
221
100
AcDbEntity
  8
Layer_1
 62
7
100
AcDbSpline
 70
8
 71
3
 72
8
 73
4
 74
0
 40
0
 40
0
 40
0
 40
0
 40
1
 40
1
 40
1
 40
1
 10
74.587801
 20
146.617378
 30
0.0
 10
74.587801
 20
147.125268
 30
0.0
 10
74.789560
 20
147.612357
 30
0.0
 10
75.148693
 20
147.971490
 30
0.0
  0
SPLINE
  5
222
100
AcDbEntity
  8
Layer_1
 62
7
100
AcDbSpline
 70
8
 71
3
 72
8
 73
4
 74
0
 40
0
 40
0
 40
0
 40
0
 40
1
 40
1
 40
1
 40
1
 10
75.148693
 20
147.971490
 30
0.0
 10
75.507827
 20
148.330623
 30
0.0
 10
75.994916
 20
148.532381
 30
0.0
 10
76.502807
 20
148.532380
 30
0.0
  0
SPLINE
  5
223
100
AcDbEntity
  8
Layer_1
 62
7
100
AcDbSpline
 70
8
 71
3
 72
8
 73
4
 74
0
 40
0
 40
0
 40
0
 40
0
 40
1
 40
1
 40
1
 40
1
 10
76.502807
 20
148.532380
 30
0.0
 10
77.560432
 20
148.532377
 30
0.0
 10
78.417804
 20
147.675002
 30
0.0
 10
78.417804
 20
146.617377
 30
0.0
  0
LWPOLYLINE
  5
224
100
AcDbEntity
  8
Layer_1
 62
7
100
AcDbPolyline
 90
1
 70
1
 10
71.462054
 20
146.080250
 30
0.0
  0
SPLINE
  5
225
100
AcDbEntity
  8
Layer_1
 62
7
100
AcDbSpline
 70
8
 71
3
 72
8
 73
4
 74
0
 40
0
 40
0
 40
0
 40
0
 40
1
 40
1
 40
1
 40
1
 10
19.864364
 20
51.381758
 30
0.0
 10
20.830553
 20
51.811932
 30
0.0
 10
21.962528
 20
51.377408
 30
0.0
 10
22.392704
 20
50.411221
 30
0.0
  0
SPLINE
  5
226
100
AcDbEntity
  8
Layer_1
 62
7
100
AcDbSpline
 70
8
 71
3
 72
8
 73
4
 74
0
 40
0
 40
0
 40
0
 40
0
 40
1
 40
1
 40
1
 40
1
 10
22.392704
 20
50.411221
 30
0.0
 10
22.599283
 20
49.947240
 30
0.0
 10
22.613085
 20
49.420199
 30
0.0
 10
22.431074
 20
48.946042
 30
0.0
  0
SPLINE
  5
227
100
AcDbEntity
  8
Layer_1
 62
7
100
AcDbSpline
 70
8
 71
3
 72
8
 73
4
 74
0
 40
0
 40
0
 40
0
 40
0
 40
1
 40
1
 40
1
 40
1
 10
22.431074
 20
48.946042
 30
0.0
 10
22.249062
 20
48.471885
 30
0.0
 10
21.886147
 20
48.089452
 30
0.0
 10
21.422166
 20
47.882874
 30
0.0
  0
SPLINE
  5
228
100
AcDbEntity
  8
Layer_1
 62
7
100
AcDbSpline
 70
8
 71
3
 72
8
 73
4
 74
0
 40
0
 40
0
 40
0
 40
0
 40
1
 40
1
 40
1
 40
1
 10
21.422166
 20
47.882874
 30
0.0
 10
20.958185
 20
47.676296
 30
0.0
 10
20.431144
 20
47.662496
 30
0.0
 10
19.956988
 20
47.844508
 30
0.0
  0
SPLINE
  5
229
100
AcDbEntity
  8
Layer_1
 62
7
100
AcDbSpline
 70
8
 71
3
 72
8
 73
4
 74
0
 40
0
 40
0
 40
0
 40
0
 40
1
 40
1
 40
1
 40
1
 10
19.956988
 20
47.844508
 30
0.0
 10
19.482831
 20
48.026520
 30
0.0
 10
19.100399
 20
48.389435
 30
0.0
 10
18.893822
 20
48.853417
 30
0.0
  0
SPLINE
  5
22a
100
AcDbEntity
  8
Layer_1
 62
7
100
AcDbSpline
 70
8
 71
3
 72
8
 73
4
 74
0
 40
0
 40
0
 40
0
 40
0
 40
1
 40
1
 40
1
 40
1
 10
18.893822
 20
48.853417
 30
0.0
 10
18.463648
 20
49.819607
 30
0.0
 10
18.898174
 20
50.951584
 30
0.0
 10
19.864364
 20
51.381758
 30
0.0
  0
LWPOLYLINE
  5
22b
100
AcDbEntity
  8
Layer_1
 62
7
100
AcDbPolyline
 90
1
 70
1
 10
78.417804
 20
146.617377
 30
0.0
  0
SPLINE
  5
22c
100
AcDbEntity
  8
Layer_1
 62
7
100
AcDbSpline
 70
8
 71
3
 72
8
 73
4
 74
0
 40
0
 40
0
 40
0
 40
0
 40
1
 40
1
 40
1
 40
1
 10
17.204080
 20
57.831082
 30
0.0
 10
18.209940
 20
58.157905
 30
0.0
 10
19.290294
 20
57.607438
 30
0.0
 10
19.617120
 20
56.601578
 30
0.0
  0
SPLINE
  5
22d
100
AcDbEntity
  8
Layer_1
 62
7
100
AcDbSpline
 70
8
 71
3
 72
8
 73
4
 74
0
 40
0
 40
0
 40
0
 40
0
 40
1
 40
1
 40
1
 40
1
 10
19.617120
 20
56.601578
 30
0.0
 10
19.943944
 20
55.595717
 30
0.0
 10
19.393476
 20
54.515362
 30
0.0
 10
18.387615
 20
54.188537
 30
0.0
  0
SPLINE
  5
22e
100
AcDbEntity
  8
Layer_1
 62
7
100
AcDbSpline
 70
8
 71
3
 72
8
 73
4
 74
0
 40
0
 40
0
 40
0
 40
0
 40
1
 40
1
 40
1
 40
1
 10
18.387615
 20
54.188537
 30
0.0
 10
17.904582
 20
54.031589
 30
0.0
 10
17.378986
 20
54.072954
 30
0.0
 10
16.926453
 20
54.303531
 30
0.0
  0
SPLINE
  5
22f
100
AcDbEntity
  8
Layer_1
 62
7
100
AcDbSpline
 70
8
 71
3
 72
8
 73
4
 74
0
 40
0
 40
0
 40
0
 40
0
 40
1
 40
1
 40
1
 40
1
 10
16.926453
 20
54.303531
 30
0.0
 10
16.473919
 20
54.534109
 30
0.0
 10
16.131516
 20
54.935011
 30
0.0
 10
15.974569
 20
55.418043
 30
0.0
  0
SPLINE
  5
230
100
AcDbEntity
  8
Layer_1
 62
7
100
AcDbSpline
 70
8
 71
3
 72
8
 73
4
 74
0
 40
0
 40
0
 40
0
 40
0
 40
1
 40
1
 40
1
 40
1
 10
15.974569
 20
55.418043
 30
0.0
 10
15.647748
 20
56.423905
 30
0.0
 10
16.198218
 20
57.504259
 30
0.0
 10
17.204080
 20
57.831082
 30
0.0
  0
LWPOLYLINE
  5
231
100
AcDbEntity
  8
Layer_1
 62
7
100
AcDbPolyline
 90
1
 70
1
 10
19.864364
 20
51.381758
 30
0.0
  0
SPLINE
  5
232
100
AcDbEntity
  8
Layer_1
 62
7
100
AcDbSpline
 70
8
 71
3
 72
8
 73
4
 74
0
 40
0
 40
0
 40
0
 40
0
 40
1
 40
1
 40
1
 40
1
 10
15.232510
 20
64.523153
 30
0.0
 10
16.267021
 20
64.743042
 30
0.0
 10
17.283914
 20
64.082663
 30
0.0
 10
17.503809
 20
63.048153
 30
0.0
  0
SPLINE
  5
233
100
AcDbEntity
  8
Layer_1
 62
7
100
AcDbSpline
 70
8
 71
3
 72
8
 73
4
 74
0
 40
0
 40
0
 40
0
 40
0
 40
1
 40
1
 40
1
 40
1
 10
17.503809
 20
63.048153
 30
0.0
 10
17.723702
 20
62.013639
 30
0.0
 10
17.063322
 20
60.996740
 30
0.0
 10
16.028808
 20
60.776846
 30
0.0
  0
SPLINE
  5
234
100
AcDbEntity
  8
Layer_1
 62
7
100
AcDbSpline
 70
8
 71
3
 72
8
 73
4
 74
0
 40
0
 40
0
 40
0
 40
0
 40
1
 40
1
 40
1
 40
1
 10
16.028808
 20
60.776846
 30
0.0
 10
14.994293
 20
60.556954
 30
0.0
 10
13.977396
 20
61.217335
 30
0.0
 10
13.757503
 20
62.251849
 30
0.0
  0
SPLINE
  5
235
100
AcDbEntity
  8
Layer_1
 62
7
100
AcDbSpline
 70
8
 71
3
 72
8
 73
4
 74
0
 40
0
 40
0
 40
0
 40
0
 40
1
 40
1
 40
1
 40
1
 10
13.757503
 20
62.251849
 30
0.0
 10
13.651907
 20
62.748641
 30
0.0
 10
13.747986
 20
63.267033
 30
0.0
 10
14.024604
 20
63.692985
 30
0.0
  0
SPLINE
  5
236
100
AcDbEntity
  8
Layer_1
 62
7
100
AcDbSpline
 70
8
 71
3
 72
8
 73
4
 74
0
 40
0
 40
0
 40
0
 40
0
 40
1
 40
1
 40
1
 40
1
 10
14.024604
 20
63.692985
 30
0.0
 10
14.301221
 20
64.118937
 30
0.0
 10
14.735718
 20
64.417558
 30
0.0
 10
15.232510
 20
64.523153
 30
0.0
  0
LWPOLYLINE
  5
237
100
AcDbEntity
  8
Layer_1
 62
7
100
AcDbPolyline
 90
1
 70
1
 10
17.204080
 20
57.831082
 30
0.0
  0
SPLINE
  5
238
100
AcDbEntity
  8
Layer_1
 62
7
100
AcDbSpline
 70
8
 71
3
 72
8
 73
4
 74
0
 40
0
 40
0
 40
0
 40
0
 40
1
 40
1
 40
1
 40
1
 10
13.971246
 20
71.384647
 30
0.0
 10
15.023076
 20
71.495198
 30
0.0
 10
15.965372
 20
70.732143
 30
0.0
 10
16.075927
 20
69.680314
 30
0.0
  0
SPLINE
  5
239
100
AcDbEntity
  8
Layer_1
 62
7
100
AcDbSpline
 70
8
 71
3
 72
8
 73
4
 74
0
 40
0
 40
0
 40
0
 40
0
 40
1
 40
1
 40
1
 40
1
 10
16.075927
 20
69.680314
 30
0.0
 10
16.186480
 20
68.628483
 30
0.0
 10
15.423424
 20
67.686183
 30
0.0
 10
14.371593
 20
67.575629
 30
0.0
  0
SPLINE
  5
23a
100
AcDbEntity
  8
Layer_1
 62
7
100
AcDbSpline
 70
8
 71
3
 72
8
 73
4
 74
0
 40
0
 40
0
 40
0
 40
0
 40
1
 40
1
 40
1
 40
1
 10
14.371593
 20
67.575629
 30
0.0
 10
13.866484
 20
67.522539
 30
0.0
 10
13.360974
 20
67.672278
 30
0.0
 10
12.966268
 20
67.991904
 30
0.0
  0
SPLINE
  5
23b
100
AcDbEntity
  8
Layer_1
 62
7
100
AcDbSpline
 70
8
 71
3
 72
8
 73
4
 74
0
 40
0
 40
0
 40
0
 40
0
 40
1
 40
1
 40
1
 40
1
 10
12.966268
 20
67.991904
 30
0.0
 10
12.571563
 20
68.311530
 30
0.0
 10
12.319994
 20
68.774861
 30
0.0
 10
12.266906
 20
69.279970
 30
0.0
  0
SPLINE
  5
23c
100
AcDbEntity
  8
Layer_1
 62
7
100
AcDbSpline
 70
8
 71
3
 72
8
 73
4
 74
0
 40
0
 40
0
 40
0
 40
0
 40
1
 40
1
 40
1
 40
1
 10
12.266906
 20
69.279970
 30
0.0
 10
12.156358
 20
70.331801
 30
0.0
 10
12.919416
 20
71.274096
 30
0.0
 10
13.971246
 20
71.384647
 30
0.0
  0
LWPOLYLINE
  5
23d
100
AcDbEntity
  8
Layer_1
 62
7
100
AcDbPolyline
 90
1
 70
1
 10
15.232510
 20
64.523153
 30
0.0
  0
SPLINE
  5
23e
100
AcDbEntity
  8
Layer_1
 62
7
100
AcDbSpline
 70
8
 71
3
 72
8
 73
4
 74
0
 40
0
 40
0
 40
0
 40
0
 40
1
 40
1
 40
1
 40
1
 10
13.434117
 20
78.340394
 30
0.0
 10
14.491741
 20
78.340393
 30
0.0
 10
15.349114
 20
77.483021
 30
0.0
 10
15.349116
 20
76.425397
 30
0.0
  0
SPLINE
  5
23f
100
AcDbEntity
  8
Layer_1
 62
7
100
AcDbSpline
 70
8
 71
3
 72
8
 73
4
 74
0
 40
0
 40
0
 40
0
 40
0
 40
1
 40
1
 40
1
 40
1
 10
15.349116
 20
76.425397
 30
0.0
 10
15.349117
 20
75.917507
 30
0.0
 10
15.147359
 20
75.430418
 30
0.0
 10
14.788227
 20
75.071285
 30
0.0
  0
SPLINE
  5
240
100
AcDbEntity
  8
Layer_1
 62
7
100
AcDbSpline
 70
8
 71
3
 72
8
 73
4
 74
0
 40
0
 40
0
 40
0
 40
0
 40
1
 40
1
 40
1
 40
1
 10
14.788227
 20
75.071285
 30
0.0
 10
14.429095
 20
74.712152
 30
0.0
 10
13.942007
 20
74.510393
 30
0.0
 10
13.434117
 20
74.510392
 30
0.0
  0
SPLINE
  5
241
100
AcDbEntity
  8
Layer_1
 62
7
100
AcDbSpline
 70
8
 71
3
 72
8
 73
4
 74
0
 40
0
 40
0
 40
0
 40
0
 40
1
 40
1
 40
1
 40
1
 10
13.434117
 20
74.510392
 30
0.0
 10
12.926226
 20
74.510391
 30
0.0
 10
12.439136
 20
74.712150
 30
0.0
 10
12.080003
 20
75.071283
 30
0.0
  0
SPLINE
  5
242
100
AcDbEntity
  8
Layer_1
 62
7
100
AcDbSpline
 70
8
 71
3
 72
8
 73
4
 74
0
 40
0
 40
0
 40
0
 40
0
 40
1
 40
1
 40
1
 40
1
 10
12.080003
 20
75.071283
 30
0.0
 10
11.720870
 20
75.430416
 30
0.0
 10
11.519111
 20
75.917506
 30
0.0
 10
11.519112
 20
76.425397
 30
0.0
  0
SPLINE
  5
243
100
AcDbEntity
  8
Layer_1
 62
7
100
AcDbSpline
 70
8
 71
3
 72
8
 73
4
 74
0
 40
0
 40
0
 40
0
 40
0
 40
1
 40
1
 40
1
 40
1
 10
11.519112
 20
76.425397
 30
0.0
 10
11.519115
 20
77.483023
 30
0.0
 10
12.376491
 20
78.340396
 30
0.0
 10
13.434117
 20
78.340394
 30
0.0
  0
LWPOLYLINE
  5
244
100
AcDbEntity
  8
Layer_1
 62
7
100
AcDbPolyline
 90
1
 70
1
 10
13.971246
 20
71.384647
 30
0.0
  0
SPLINE
  5
245
100
AcDbEntity
  8
Layer_1
 62
7
100
AcDbSpline
 70
8
 71
3
 72
8
 73
4
 74
0
 40
0
 40
0
 40
0
 40
0
 40
1
 40
1
 40
1
 40
1
 10
13.627003
 20
85.314186
 30
0.0
 10
14.132111
 20
85.261097
 30
0.0
 10
14.595442
 20
85.009529
 30
0.0
 10
14.915067
 20
84.614824
 30
0.0
  0
SPLINE
  5
246
100
AcDbEntity
  8
Layer_1
 62
7
100
AcDbSpline
 70
8
 71
3
 72
8
 73
4
 74
0
 40
0
 40
0
 40
0
 40
0
 40
1
 40
1
 40
1
 40
1
 10
14.915067
 20
84.614824
 30
0.0
 10
15.234693
 20
84.220119
 30
0.0
 10
15.384431
 20
83.714609
 30
0.0
 10
15.331342
 20
83.209501
 30
0.0
  0
SPLINE
  5
247
100
AcDbEntity
  8
Layer_1
 62
7
100
AcDbSpline
 70
8
 71
3
 72
8
 73
4
 74
0
 40
0
 40
0
 40
0
 40
0
 40
1
 40
1
 40
1
 40
1
 10
15.331342
 20
83.209501
 30
0.0
 10
15.220790
 20
82.157670
 30
0.0
 10
14.278492
 20
81.394612
 30
0.0
 10
13.226661
 20
81.505163
 30
0.0
  0
SPLINE
  5
248
100
AcDbEntity
  8
Layer_1
 62
7
100
AcDbSpline
 70
8
 71
3
 72
8
 73
4
 74
0
 40
0
 40
0
 40
0
 40
0
 40
1
 40
1
 40
1
 40
1
 10
13.226661
 20
81.505163
 30
0.0
 10
12.721552
 20
81.558251
 30
0.0
 10
12.258220
 20
81.809818
 30
0.0
 10
11.938594
 20
82.204523
 30
0.0
  0
SPLINE
  5
249
100
AcDbEntity
  8
Layer_1
 62
7
100
AcDbSpline
 70
8
 71
3
 72
8
 73
4
 74
0
 40
0
 40
0
 40
0
 40
0
 40
1
 40
1
 40
1
 40
1
 10
11.938594
 20
82.204523
 30
0.0
 10
11.618968
 20
82.599229
 30
0.0
 10
11.469229
 20
83.104739
 30
0.0
 10
11.522318
 20
83.609848
 30
0.0
  0
SPLINE
  5
24a
100
AcDbEntity
  8
Layer_1
 62
7
100
AcDbSpline
 70
8
 71
3
 72
8
 73
4
 74
0
 40
0
 40
0
 40
0
 40
0
 40
1
 40
1
 40
1
 40
1
 10
11.522318
 20
83.609848
 30
0.0
 10
11.575407
 20
84.114956
 30
0.0
 10
11.826975
 20
84.578286
 30
0.0
 10
12.221680
 20
84.897912
 30
0.0
  0
SPLINE
  5
24b
100
AcDbEntity
  8
Layer_1
 62
7
100
AcDbSpline
 70
8
 71
3
 72
8
 73
4
 74
0
 40
0
 40
0
 40
0
 40
0
 40
1
 40
1
 40
1
 40
1
 10
12.221680
 20
84.897912
 30
0.0
 10
12.616385
 20
85.217537
 30
0.0
 10
13.121895
 20
85.367276
 30
0.0
 10
13.627003
 20
85.314186
 30
0.0
  0
LWPOLYLINE
  5
24c
100
AcDbEntity
  8
Layer_1
 62
7
100
AcDbPolyline
 90
1
 70
1
 10
13.434117
 20
78.340394
 30
0.0
  0
SPLINE
  5
24d
100
AcDbEntity
  8
Layer_1
 62
7
100
AcDbSpline
 70
8
 71
3
 72
8
 73
4
 74
0
 40
0
 40
0
 40
0
 40
0
 40
1
 40
1
 40
1
 40
1
 10
14.547792
 20
92.229605
 30
0.0
 10
15.582304
 20
92.009712
 30
0.0
 10
16.242685
 20
90.992817
 30
0.0
 10
16.022795
 20
89.958304
 30
0.0
  0
SPLINE
  5
24e
100
AcDbEntity
  8
Layer_1
 62
7
100
AcDbSpline
 70
8
 71
3
 72
8
 73
4
 74
0
 40
0
 40
0
 40
0
 40
0
 40
1
 40
1
 40
1
 40
1
 10
16.022795
 20
89.958304
 30
0.0
 10
15.802903
 20
88.923789
 30
0.0
 10
14.786005
 20
88.263407
 30
0.0
 10
13.751490
 20
88.483299
 30
0.0
  0
SPLINE
  5
24f
100
AcDbEntity
  8
Layer_1
 62
7
100
AcDbSpline
 70
8
 71
3
 72
8
 73
4
 74
0
 40
0
 40
0
 40
0
 40
0
 40
1
 40
1
 40
1
 40
1
 10
13.751490
 20
88.483299
 30
0.0
 10
13.254698
 20
88.588894
 30
0.0
 10
12.820202
 20
88.887515
 30
0.0
 10
12.543584
 20
89.313468
 30
0.0
  0
SPLINE
  5
250
100
AcDbEntity
  8
Layer_1
 62
7
100
AcDbSpline
 70
8
 71
3
 72
8
 73
4
 74
0
 40
0
 40
0
 40
0
 40
0
 40
1
 40
1
 40
1
 40
1
 10
12.543584
 20
89.313468
 30
0.0
 10
12.266967
 20
89.739421
 30
0.0
 10
12.170889
 20
90.257813
 30
0.0
 10
12.276485
 20
90.754605
 30
0.0
  0
SPLINE
  5
251
100
AcDbEntity
  8
Layer_1
 62
7
100
AcDbSpline
 70
8
 71
3
 72
8
 73
4
 74
0
 40
0
 40
0
 40
0
 40
0
 40
1
 40
1
 40
1
 40
1
 10
12.276485
 20
90.754605
 30
0.0
 10
12.496379
 20
91.789119
 30
0.0
 10
13.513278
 20
92.449499
 30
0.0
 10
14.547792
 20
92.229605
 30
0.0
  0
LWPOLYLINE
  5
252
100
AcDbEntity
  8
Layer_1
 62
7
100
AcDbPolyline
 90
1
 70
1
 10
13.627003
 20
85.314186
 30
0.0
  0
SPLINE
  5
253
100
AcDbEntity
  8
Layer_1
 62
7
100
AcDbSpline
 70
8
 71
3
 72
8
 73
4
 74
0
 40
0
 40
0
 40
0
 40
0
 40
1
 40
1
 40
1
 40
1
 10
16.186397
 20
99.010891
 30
0.0
 10
17.192254
 20
98.684065
 30
0.0
 10
17.742721
 20
97.603715
 30
0.0
 10
17.415900
 20
96.597855
 30
0.0
  0
SPLINE
  5
254
100
AcDbEntity
  8
Layer_1
 62
7
100
AcDbSpline
 70
8
 71
3
 72
8
 73
4
 74
0
 40
0
 40
0
 40
0
 40
0
 40
1
 40
1
 40
1
 40
1
 10
17.415900
 20
96.597855
 30
0.0
 10
17.089077
 20
95.591993
 30
0.0
 10
16.008721
 20
95.041523
 30
0.0
 10
15.002859
 20
95.368346
 30
0.0
  0
SPLINE
  5
255
100
AcDbEntity
  8
Layer_1
 62
7
100
AcDbSpline
 70
8
 71
3
 72
8
 73
4
 74
0
 40
0
 40
0
 40
0
 40
0
 40
1
 40
1
 40
1
 40
1
 10
15.002859
 20
95.368346
 30
0.0
 10
14.519827
 20
95.525293
 30
0.0
 10
14.118925
 20
95.867696
 30
0.0
 10
13.888348
 20
96.320229
 30
0.0
  0
SPLINE
  5
256
100
AcDbEntity
  8
Layer_1
 62
7
100
AcDbSpline
 70
8
 71
3
 72
8
 73
4
 74
0
 40
0
 40
0
 40
0
 40
0
 40
1
 40
1
 40
1
 40
1
 10
13.888348
 20
96.320229
 30
0.0
 10
13.657770
 20
96.772763
 30
0.0
 10
13.616405
 20
97.298358
 30
0.0
 10
13.773352
 20
97.781390
 30
0.0
  0
SPLINE
  5
257
100
AcDbEntity
  8
Layer_1
 62
7
100
AcDbSpline
 70
8
 71
3
 72
8
 73
4
 74
0
 40
0
 40
0
 40
0
 40
0
 40
1
 40
1
 40
1
 40
1
 10
13.773352
 20
97.781390
 30
0.0
 10
14.100179
 20
98.787251
 30
0.0
 10
15.180536
 20
99.337718
 30
0.0
 10
16.186397
 20
99.010891
 30
0.0
  0
LWPOLYLINE
  5
258
100
AcDbEntity
  8
Layer_1
 62
7
100
AcDbPolyline
 90
1
 70
1
 10
14.547792
 20
92.229605
 30
0.0
  0
SPLINE
  5
259
100
AcDbEntity
  8
Layer_1
 62
7
100
AcDbSpline
 70
8
 71
3
 72
8
 73
4
 74
0
 40
0
 40
0
 40
0
 40
0
 40
1
 40
1
 40
1
 40
1
 10
42.232288
 20
25.114095
 30
0.0
 10
42.853945
 20
25.969731
 30
0.0
 10
44.051526
 20
26.159411
 30
0.0
 10
44.907164
 20
25.537757
 30
0.0
  0
SPLINE
  5
25a
100
AcDbEntity
  8
Layer_1
 62
7
100
AcDbSpline
 70
8
 71
3
 72
8
 73
4
 74
0
 40
0
 40
0
 40
0
 40
0
 40
1
 40
1
 40
1
 40
1
 10
44.907164
 20
25.537757
 30
0.0
 10
45.318058
 20
25.239227
 30
0.0
 10
45.593531
 20
24.789696
 30
0.0
 10
45.672983
 20
24.288058
 30
0.0
  0
SPLINE
  5
25b
100
AcDbEntity
  8
Layer_1
 62
7
100
AcDbSpline
 70
8
 71
3
 72
8
 73
4
 74
0
 40
0
 40
0
 40
0
 40
0
 40
1
 40
1
 40
1
 40
1
 10
45.672983
 20
24.288058
 30
0.0
 10
45.752435
 20
23.786420
 30
0.0
 10
45.629358
 20
23.273765
 30
0.0
 10
45.330826
 20
22.862873
 30
0.0
  0
SPLINE
  5
25c
100
AcDbEntity
  8
Layer_1
 62
7
100
AcDbSpline
 70
8
 71
3
 72
8
 73
4
 74
0
 40
0
 40
0
 40
0
 40
0
 40
1
 40
1
 40
1
 40
1
 10
45.330826
 20
22.862873
 30
0.0
 10
44.709168
 20
22.007236
 30
0.0
 10
43.511584
 20
21.817559
 30
0.0
 10
42.655948
 20
22.439216
 30
0.0
  0
SPLINE
  5
25d
100
AcDbEntity
  8
Layer_1
 62
7
100
AcDbSpline
 70
8
 71
3
 72
8
 73
4
 74
0
 40
0
 40
0
 40
0
 40
0
 40
1
 40
1
 40
1
 40
1
 10
42.655948
 20
22.439216
 30
0.0
 10
41.800310
 20
23.060874
 30
0.0
 10
41.610632
 20
24.258457
 30
0.0
 10
42.232288
 20
25.114095
 30
0.0
  0
LWPOLYLINE
  5
25e
100
AcDbEntity
  8
Layer_1
 62
7
100
AcDbPolyline
 90
1
 70
1
 10
16.186397
 20
99.010891
 30
0.0
  0
SPLINE
  5
25f
100
AcDbEntity
  8
Layer_1
 62
7
100
AcDbSpline
 70
8
 71
3
 72
8
 73
4
 74
0
 40
0
 40
0
 40
0
 40
0
 40
1
 40
1
 40
1
 40
1
 10
36.703752
 20
29.369233
 30
0.0
 10
37.411442
 20
30.155200
 30
0.0
 10
38.622290
 20
30.218658
 30
0.0
 10
39.408259
 20
29.510970
 30
0.0
  0
SPLINE
  5
260
100
AcDbEntity
  8
Layer_1
 62
7
100
AcDbSpline
 70
8
 71
3
 72
8
 73
4
 74
0
 40
0
 40
0
 40
0
 40
0
 40
1
 40
1
 40
1
 40
1
 10
39.408259
 20
29.510970
 30
0.0
 10
40.194226
 20
28.803280
 30
0.0
 10
40.257684
 20
27.592433
 30
0.0
 10
39.549996
 20
26.806464
 30
0.0
  0
SPLINE
  5
261
100
AcDbEntity
  8
Layer_1
 62
7
100
AcDbSpline
 70
8
 71
3
 72
8
 73
4
 74
0
 40
0
 40
0
 40
0
 40
0
 40
1
 40
1
 40
1
 40
1
 10
39.549996
 20
26.806464
 30
0.0
 10
39.210152
 20
26.429027
 30
0.0
 10
38.734290
 20
26.202052
 30
0.0
 10
38.227096
 20
26.175470
 30
0.0
  0
SPLINE
  5
262
100
AcDbEntity
  8
Layer_1
 62
7
100
AcDbSpline
 70
8
 71
3
 72
8
 73
4
 74
0
 40
0
 40
0
 40
0
 40
0
 40
1
 40
1
 40
1
 40
1
 10
38.227096
 20
26.175470
 30
0.0
 10
37.719901
 20
26.148889
 30
0.0
 10
37.222921
 20
26.324879
 30
0.0
 10
36.845485
 20
26.664724
 30
0.0
  0
SPLINE
  5
263
100
AcDbEntity
  8
Layer_1
 62
7
100
AcDbSpline
 70
8
 71
3
 72
8
 73
4
 74
0
 40
0
 40
0
 40
0
 40
0
 40
1
 40
1
 40
1
 40
1
 10
36.845485
 20
26.664724
 30
0.0
 10
36.059517
 20
27.372415
 30
0.0
 10
35.996062
 20
28.583265
 30
0.0
 10
36.703752
 20
29.369233
 30
0.0
  0
LWPOLYLINE
  5
264
100
AcDbEntity
  8
Layer_1
 62
7
100
AcDbPolyline
 90
1
 70
1
 10
42.232288
 20
25.114095
 30
0.0
  0
SPLINE
  5
265
100
AcDbEntity
  8
Layer_1
 62
7
100
AcDbSpline
 70
8
 71
3
 72
8
 73
4
 74
0
 40
0
 40
0
 40
0
 40
0
 40
1
 40
1
 40
1
 40
1
 10
31.650289
 20
34.178951
 30
0.0
 10
32.436258
 20
34.886634
 30
0.0
 10
33.647102
 20
34.823175
 30
0.0
 10
34.354791
 20
34.037211
 30
0.0
  0
SPLINE
  5
266
100
AcDbEntity
  8
Layer_1
 62
7
100
AcDbSpline
 70
8
 71
3
 72
8
 73
4
 74
0
 40
0
 40
0
 40
0
 40
0
 40
1
 40
1
 40
1
 40
1
 10
34.354791
 20
34.037211
 30
0.0
 10
35.062481
 20
33.251242
 30
0.0
 10
34.999024
 20
32.040393
 30
0.0
 10
34.213056
 20
31.332702
 30
0.0
  0
SPLINE
  5
267
100
AcDbEntity
  8
Layer_1
 62
7
100
AcDbSpline
 70
8
 71
3
 72
8
 73
4
 74
0
 40
0
 40
0
 40
0
 40
0
 40
1
 40
1
 40
1
 40
1
 10
34.213056
 20
31.332702
 30
0.0
 10
33.427086
 20
30.625012
 30
0.0
 10
32.216237
 20
30.688470
 30
0.0
 10
31.508547
 20
31.474439
 30
0.0
  0
SPLINE
  5
268
100
AcDbEntity
  8
Layer_1
 62
7
100
AcDbSpline
 70
8
 71
3
 72
8
 73
4
 74
0
 40
0
 40
0
 40
0
 40
0
 40
1
 40
1
 40
1
 40
1
 10
31.508547
 20
31.474439
 30
0.0
 10
31.168702
 20
31.851876
 30
0.0
 10
30.992713
 20
32.348856
 30
0.0
 10
31.019295
 20
32.856051
 30
0.0
  0
SPLINE
  5
269
100
AcDbEntity
  8
Layer_1
 62
7
100
AcDbSpline
 70
8
 71
3
 72
8
 73
4
 74
0
 40
0
 40
0
 40
0
 40
0
 40
1
 40
1
 40
1
 40
1
 10
31.019295
 20
32.856051
 30
0.0
 10
31.045877
 20
33.363245
 30
0.0
 10
31.272852
 20
33.839107
 30
0.0
 10
31.650289
 20
34.178951
 30
0.0
  0
LWPOLYLINE
  5
26a
100
AcDbEntity
  8
Layer_1
 62
7
100
AcDbPolyline
 90
1
 70
1
 10
36.703752
 20
29.369233
 30
0.0
  0
SPLINE
  5
26b
100
AcDbEntity
  8
Layer_1
 62
7
100
AcDbSpline
 70
8
 71
3
 72
8
 73
4
 74
0
 40
0
 40
0
 40
0
 40
0
 40
1
 40
1
 40
1
 40
1
 10
27.127255
 20
39.490547
 30
0.0
 10
27.982891
 20
40.112201
 30
0.0
 10
29.180471
 20
39.922524
 30
0.0
 10
29.802129
 20
39.066891
 30
0.0
  0
SPLINE
  5
26c
100
AcDbEntity
  8
Layer_1
 62
7
100
AcDbSpline
 70
8
 71
3
 72
8
 73
4
 74
0
 40
0
 40
0
 40
0
 40
0
 40
1
 40
1
 40
1
 40
1
 10
29.802129
 20
39.066891
 30
0.0
 10
30.423785
 20
38.211255
 30
0.0
 10
30.234109
 20
37.013673
 30
0.0
 10
29.378475
 20
36.392015
 30
0.0
  0
SPLINE
  5
26d
100
AcDbEntity
  8
Layer_1
 62
7
100
AcDbSpline
 70
8
 71
3
 72
8
 73
4
 74
0
 40
0
 40
0
 40
0
 40
0
 40
1
 40
1
 40
1
 40
1
 10
29.378475
 20
36.392015
 30
0.0
 10
28.967583
 20
36.093483
 30
0.0
 10
28.454928
 20
35.970405
 30
0.0
 10
27.953290
 20
36.049856
 30
0.0
  0
SPLINE
  5
26e
100
AcDbEntity
  8
Layer_1
 62
7
100
AcDbSpline
 70
8
 71
3
 72
8
 73
4
 74
0
 40
0
 40
0
 40
0
 40
0
 40
1
 40
1
 40
1
 40
1
 10
27.953290
 20
36.049856
 30
0.0
 10
27.451652
 20
36.129308
 30
0.0
 10
27.002121
 20
36.404781
 30
0.0
 10
26.703591
 20
36.815674
 30
0.0
  0
SPLINE
  5
26f
100
AcDbEntity
  8
Layer_1
 62
7
100
AcDbSpline
 70
8
 71
3
 72
8
 73
4
 74
0
 40
0
 40
0
 40
0
 40
0
 40
1
 40
1
 40
1
 40
1
 10
26.703591
 20
36.815674
 30
0.0
 10
26.081939
 20
37.671312
 30
0.0
 10
26.271620
 20
38.868892
 30
0.0
 10
27.127255
 20
39.490547
 30
0.0
  0
LWPOLYLINE
  5
270
100
AcDbEntity
  8
Layer_1
 62
7
100
AcDbPolyline
 90
1
 70
1
 10
31.650289
 20
34.178951
 30
0.0
  0
SPLINE
  5
271
100
AcDbEntity
  8
Layer_1
 62
7
100
AcDbSpline
 70
8
 71
3
 72
8
 73
4
 74
0
 40
0
 40
0
 40
0
 40
0
 40
1
 40
1
 40
1
 40
1
 10
23.184214
 20
45.245836
 30
0.0
 10
24.100144
 20
45.774647
 30
0.0
 10
25.271337
 20
45.460827
 30
0.0
 10
25.800151
 20
44.544899
 30
0.0
  0
SPLINE
  5
272
100
AcDbEntity
  8
Layer_1
 62
7
100
AcDbSpline
 70
8
 71
3
 72
8
 73
4
 74
0
 40
0
 40
0
 40
0
 40
0
 40
1
 40
1
 40
1
 40
1
 10
25.800151
 20
44.544899
 30
0.0
 10
26.054096
 20
44.105054
 30
0.0
 10
26.122913
 20
43.582344
 30
0.0
 10
25.991462
 20
43.091759
 30
0.0
  0
SPLINE
  5
273
100
AcDbEntity
  8
Layer_1
 62
7
100
AcDbSpline
 70
8
 71
3
 72
8
 73
4
 74
0
 40
0
 40
0
 40
0
 40
0
 40
1
 40
1
 40
1
 40
1
 10
25.991462
 20
43.091759
 30
0.0
 10
25.860011
 20
42.601175
 30
0.0
 10
25.539061
 20
42.182902
 30
0.0
 10
25.099215
 20
41.928957
 30
0.0
  0
SPLINE
  5
274
100
AcDbEntity
  8
Layer_1
 62
7
100
AcDbSpline
 70
8
 71
3
 72
8
 73
4
 74
0
 40
0
 40
0
 40
0
 40
0
 40
1
 40
1
 40
1
 40
1
 10
25.099215
 20
41.928957
 30
0.0
 10
24.659369
 20
41.675010
 30
0.0
 10
24.136658
 20
41.606193
 30
0.0
 10
23.646073
 20
41.737645
 30
0.0
  0
SPLINE
  5
275
100
AcDbEntity
  8
Layer_1
 62
7
100
AcDbSpline
 70
8
 71
3
 72
8
 73
4
 74
0
 40
0
 40
0
 40
0
 40
0
 40
1
 40
1
 40
1
 40
1
 10
23.646073
 20
41.737645
 30
0.0
 10
23.155487
 20
41.869097
 30
0.0
 10
22.737214
 20
42.190049
 30
0.0
 10
22.483269
 20
42.629896
 30
0.0
  0
SPLINE
  5
276
100
AcDbEntity
  8
Layer_1
 62
7
100
AcDbSpline
 70
8
 71
3
 72
8
 73
4
 74
0
 40
0
 40
0
 40
0
 40
0
 40
1
 40
1
 40
1
 40
1
 10
22.483269
 20
42.629896
 30
0.0
 10
22.229325
 20
43.069743
 30
0.0
 10
22.160510
 20
43.592453
 30
0.0
 10
22.291963
 20
44.083037
 30
0.0
  0
SPLINE
  5
277
100
AcDbEntity
  8
Layer_1
 62
7
100
AcDbSpline
 70
8
 71
3
 72
8
 73
4
 74
0
 40
0
 40
0
 40
0
 40
0
 40
1
 40
1
 40
1
 40
1
 10
22.291963
 20
44.083037
 30
0.0
 10
22.423415
 20
44.573621
 30
0.0
 10
22.744368
 20
44.991892
 30
0.0
 10
23.184214
 20
45.245836
 30
0.0
  0
LWPOLYLINE
  5
278
100
AcDbEntity
  8
Layer_1
 62
7
100
AcDbPolyline
 90
1
 70
1
 10
27.127255
 20
39.490547
 30
0.0
  0
SPLINE
  5
279
100
AcDbEntity
  8
Layer_1
 62
7
100
AcDbSpline
 70
8
 71
3
 72
8
 73
4
 74
0
 40
0
 40
0
 40
0
 40
0
 40
1
 40
1
 40
1
 40
1
 10
61.040604
 20
16.108990
 30
0.0
 10
61.367431
 20
17.114846
 30
0.0
 10
62.447782
 20
17.665311
 30
0.0
 10
63.453640
 20
17.338491
 30
0.0
  0
SPLINE
  5
27a
100
AcDbEntity
  8
Layer_1
 62
7
100
AcDbSpline
 70
8
 71
3
 72
8
 73
4
 74
0
 40
0
 40
0
 40
0
 40
0
 40
1
 40
1
 40
1
 40
1
 10
63.453640
 20
17.338491
 30
0.0
 10
64.459503
 20
17.011667
 30
0.0
 10
65.009972
 20
15.931312
 30
0.0
 10
64.683149
 20
14.925449
 30
0.0
  0
SPLINE
  5
27b
100
AcDbEntity
  8
Layer_1
 62
7
100
AcDbSpline
 70
8
 71
3
 72
8
 73
4
 74
0
 40
0
 40
0
 40
0
 40
0
 40
1
 40
1
 40
1
 40
1
 10
64.683149
 20
14.925449
 30
0.0
 10
64.356325
 20
13.919588
 30
0.0
 10
63.275970
 20
13.369120
 30
0.0
 10
62.270108
 20
13.695943
 30
0.0
  0
SPLINE
  5
27c
100
AcDbEntity
  8
Layer_1
 62
7
100
AcDbSpline
 70
8
 71
3
 72
8
 73
4
 74
0
 40
0
 40
0
 40
0
 40
0
 40
1
 40
1
 40
1
 40
1
 10
62.270108
 20
13.695943
 30
0.0
 10
61.787076
 20
13.852890
 30
0.0
 10
61.386174
 20
14.195294
 30
0.0
 10
61.155597
 20
14.647828
 30
0.0
  0
SPLINE
  5
27d
100
AcDbEntity
  8
Layer_1
 62
7
100
AcDbSpline
 70
8
 71
3
 72
8
 73
4
 74
0
 40
0
 40
0
 40
0
 40
0
 40
1
 40
1
 40
1
 40
1
 10
61.155597
 20
14.647828
 30
0.0
 10
60.925021
 20
15.100362
 30
0.0
 10
60.883656
 20
15.625958
 30
0.0
 10
61.040604
 20
16.108990
 30
0.0
  0
LWPOLYLINE
  5
27e
100
AcDbEntity
  8
Layer_1
 62
7
100
AcDbPolyline
 90
1
 70
1
 10
23.184214
 20
45.245836
 30
0.0
  0
SPLINE
  5
27f
100
AcDbEntity
  8
Layer_1
 62
7
100
AcDbSpline
 70
8
 71
3
 72
8
 73
4
 74
0
 40
0
 40
0
 40
0
 40
0
 40
1
 40
1
 40
1
 40
1
 10
54.467744
 20
18.447450
 30
0.0
 10
54.897919
 20
19.413636
 30
0.0
 10
56.029892
 20
19.848161
 30
0.0
 10
56.996080
 20
19.417990
 30
0.0
  0
SPLINE
  5
280
100
AcDbEntity
  8
Layer_1
 62
7
100
AcDbSpline
 70
8
 71
3
 72
8
 73
4
 74
0
 40
0
 40
0
 40
0
 40
0
 40
1
 40
1
 40
1
 40
1
 10
56.996080
 20
19.417990
 30
0.0
 10
57.962267
 20
18.987816
 30
0.0
 10
58.396794
 20
17.855843
 30
0.0
 10
57.966623
 20
16.889654
 30
0.0
  0
SPLINE
  5
281
100
AcDbEntity
  8
Layer_1
 62
7
100
AcDbSpline
 70
8
 71
3
 72
8
 73
4
 74
0
 40
0
 40
0
 40
0
 40
0
 40
1
 40
1
 40
1
 40
1
 10
57.966623
 20
16.889654
 30
0.0
 10
57.760046
 20
16.425672
 30
0.0
 10
57.377613
 20
16.062756
 30
0.0
 10
56.903456
 20
15.880744
 30
0.0
  0
SPLINE
  5
282
100
AcDbEntity
  8
Layer_1
 62
7
100
AcDbSpline
 70
8
 71
3
 72
8
 73
4
 74
0
 40
0
 40
0
 40
0
 40
0
 40
1
 40
1
 40
1
 40
1
 10
56.903456
 20
15.880744
 30
0.0
 10
56.429299
 20
15.698731
 30
0.0
 10
55.902257
 20
15.712533
 30
0.0
 10
55.438276
 20
15.919111
 30
0.0
  0
SPLINE
  5
283
100
AcDbEntity
  8
Layer_1
 62
7
100
AcDbSpline
 70
8
 71
3
 72
8
 73
4
 74
0
 40
0
 40
0
 40
0
 40
0
 40
1
 40
1
 40
1
 40
1
 10
55.438276
 20
15.919111
 30
0.0
 10
54.472091
 20
16.349290
 30
0.0
 10
54.037570
 20
17.481264
 30
0.0
 10
54.467744
 20
18.447450
 30
0.0
  0
LWPOLYLINE
  5
284
100
AcDbEntity
  8
Layer_1
 62
7
100
AcDbPolyline
 90
1
 70
1
 10
61.040604
 20
16.108990
 30
0.0
  0
SPLINE
  5
285
100
AcDbEntity
  8
Layer_1
 62
7
100
AcDbSpline
 70
8
 71
3
 72
8
 73
4
 74
0
 40
0
 40
0
 40
0
 40
0
 40
1
 40
1
 40
1
 40
1
 10
48.175324
 20
21.460157
 30
0.0
 10
48.704136
 20
22.376086
 30
0.0
 10
49.875330
 20
22.689907
 30
0.0
 10
50.791261
 20
22.161097
 30
0.0
  0
SPLINE
  5
286
100
AcDbEntity
  8
Layer_1
 62
7
100
AcDbSpline
 70
8
 71
3
 72
8
 73
4
 74
0
 40
0
 40
0
 40
0
 40
0
 40
1
 40
1
 40
1
 40
1
 10
50.791261
 20
22.161097
 30
0.0
 10
51.231107
 20
21.907152
 30
0.0
 10
51.552060
 20
21.488880
 30
0.0
 10
51.683512
 20
20.998296
 30
0.0
  0
SPLINE
  5
287
100
AcDbEntity
  8
Layer_1
 62
7
100
AcDbSpline
 70
8
 71
3
 72
8
 73
4
 74
0
 40
0
 40
0
 40
0
 40
0
 40
1
 40
1
 40
1
 40
1
 10
51.683512
 20
20.998296
 30
0.0
 10
51.814964
 20
20.507711
 30
0.0
 10
51.746149
 20
19.985001
 30
0.0
 10
51.492203
 20
19.545154
 30
0.0
  0
SPLINE
  5
288
100
AcDbEntity
  8
Layer_1
 62
7
100
AcDbSpline
 70
8
 71
3
 72
8
 73
4
 74
0
 40
0
 40
0
 40
0
 40
0
 40
1
 40
1
 40
1
 40
1
 10
51.492203
 20
19.545154
 30
0.0
 10
51.238258
 20
19.105307
 30
0.0
 10
50.819986
 20
18.784355
 30
0.0
 10
50.329401
 20
18.652903
 30
0.0
  0
SPLINE
  5
289
100
AcDbEntity
  8
Layer_1
 62
7
100
AcDbSpline
 70
8
 71
3
 72
8
 73
4
 74
0
 40
0
 40
0
 40
0
 40
0
 40
1
 40
1
 40
1
 40
1
 10
50.329401
 20
18.652903
 30
0.0
 10
49.838815
 20
18.521451
 30
0.0
 10
49.316104
 20
18.590268
 30
0.0
 10
48.876258
 20
18.844214
 30
0.0
  0
SPLINE
  5
28a
100
AcDbEntity
  8
Layer_1
 62
7
100
AcDbSpline
 70
8
 71
3
 72
8
 73
4
 74
0
 40
0
 40
0
 40
0
 40
0
 40
1
 40
1
 40
1
 40
1
 10
48.876258
 20
18.844214
 30
0.0
 10
48.436413
 20
19.098160
 30
0.0
 10
48.115462
 20
19.516433
 30
0.0
 10
47.984012
 20
20.007017
 30
0.0
  0
SPLINE
  5
28b
100
AcDbEntity
  8
Layer_1
 62
7
100
AcDbSpline
 70
8
 71
3
 72
8
 73
4
 74
0
 40
0
 40
0
 40
0
 40
0
 40
1
 40
1
 40
1
 40
1
 10
47.984012
 20
20.007017
 30
0.0
 10
47.852561
 20
20.497602
 30
0.0
 10
47.921378
 20
21.020312
 30
0.0
 10
48.175324
 20
21.460157
 30
0.0
  0
LWPOLYLINE
  5
28c
100
AcDbEntity
  8
Layer_1
 62
7
100
AcDbPolyline
 90
1
 70
1
 10
54.467744
 20
18.447450
 30
0.0
  0
SPLINE
  5
28d
100
AcDbEntity
  8
Layer_1
 62
7
100
AcDbSpline
 70
8
 71
3
 72
8
 73
4
 74
0
 40
0
 40
0
 40
0
 40
0
 40
1
 40
1
 40
1
 40
1
 10
98.564462
 20
79.987043
 30
0.0
 10
98.564461
 20
69.769769
 30
0.0
 10
90.281724
 20
61.487033
 30
0.0
 10
80.064450
 20
61.487033
 30
0.0
  0
SPLINE
  5
28e
100
AcDbEntity
  8
Layer_1
 62
7
100
AcDbSpline
 70
8
 71
3
 72
8
 73
4
 74
0
 40
0
 40
0
 40
0
 40
0
 40
1
 40
1
 40
1
 40
1
 10
80.064450
 20
61.487033
 30
0.0
 10
69.847176
 20
61.487033
 30
0.0
 10
61.564438
 20
69.769769
 30
0.0
 10
61.564437
 20
79.987043
 30
0.0
  0
SPLINE
  5
28f
100
AcDbEntity
  8
Layer_1
 62
7
100
AcDbSpline
 70
8
 71
3
 72
8
 73
4
 74
0
 40
0
 40
0
 40
0
 40
0
 40
1
 40
1
 40
1
 40
1
 10
61.564437
 20
79.987043
 30
0.0
 10
61.564437
 20
84.893552
 30
0.0
 10
63.513540
 20
89.599102
 30
0.0
 10
66.982965
 20
93.068528
 30
0.0
  0
SPLINE
  5
290
100
AcDbEntity
  8
Layer_1
 62
7
100
AcDbSpline
 70
8
 71
3
 72
8
 73
4
 74
0
 40
0
 40
0
 40
0
 40
0
 40
1
 40
1
 40
1
 40
1
 10
66.982965
 20
93.068528
 30
0.0
 10
70.452391
 20
96.537953
 30
0.0
 10
75.157941
 20
98.487056
 30
0.0
 10
80.064450
 20
98.487056
 30
0.0
  0
SPLINE
  5
291
100
AcDbEntity
  8
Layer_1
 62
7
100
AcDbSpline
 70
8
 71
3
 72
8
 73
4
 74
0
 40
0
 40
0
 40
0
 40
0
 40
1
 40
1
 40
1
 40
1
 10
80.064450
 20
98.487056
 30
0.0
 10
84.970958
 20
98.487056
 30
0.0
 10
89.676509
 20
96.537953
 30
0.0
 10
93.145934
 20
93.068528
 30
0.0
  0
SPLINE
  5
292
100
AcDbEntity
  8
Layer_1
 62
7
100
AcDbSpline
 70
8
 71
3
 72
8
 73
4
 74
0
 40
0
 40
0
 40
0
 40
0
 40
1
 40
1
 40
1
 40
1
 10
93.145934
 20
93.068528
 30
0.0
 10
96.615360
 20
89.599102
 30
0.0
 10
98.564463
 20
84.893552
 30
0.0
 10
98.564462
 20
79.987043
 30
0.0
  0
LWPOLYLINE
  5
293
100
AcDbEntity
  8
Layer_1
 62
7
100
AcDbPolyline
 90
1
 70
1
 10
48.175324
 20
21.460157
 30
0.0
  0
LWPOLYLINE
  5
294
100
AcDbEntity
  8
Layer_1
 62
7
100
AcDbPolyline
 90
1
 70
1
 10
98.564462
 20
79.987043
 30
0.0
  0
LWPOLYLINE
  5
295
100
AcDbEntity
  8
Layer_1
 62
7
100
AcDbPolyline
 90
6
 70
1
 10
61.054691
 20
98.654714
 30
0.0
 10
53.102641
 20
96.523970
 30
0.0
 10
47.281338
 20
102.345273
 30
0.0
 10
49.412082
 20
110.297323
 30
0.0
 10
57.364132
 20
112.428070
 30
0.0
 10
63.185435
 20
106.606764
 30
0.0
  0
ENDSEC
  0
SECTION
  2
OBJECTS
  0
DICTIONARY
  5
C
330
0
100
AcDbDictionary
  3
ACAD_GROUP
350
D
  3
ACAD_MLINESTYLE
350
17
  0
DICTIONARY
  5
D
330
C
100
AcDbDictionary
  0
DICTIONARY
  5
1A
330
C
100
AcDbDictionary
  0
DICTIONARY
  5
17
330
C
100
AcDbDictionary
  3
STANDARD
350
18
  0
DICTIONARY
  5
19
330
C
100
AcDbDictionary
  0
ENDSEC
  0
EOF
