  0
SECTION
  2
HEADER
  9
$ACADVER
  1
AC1014
  9
$HANDSEED
  5
FFFF
  9
$MEASUREMENT
 70
     1
  0
ENDSEC
  0
SECTION
  2
TABLES
  0
TABLE
  2
VPORT
  5
8
330
0
100
AcDbSymbolTable
 70
     4
  0
VPORT
  5
2E
330
8
100
AcDbSymbolTableRecord
100
AcDbViewportTableRecord
  2
*ACTIVE
 70
     0
 10
0.0
 20
0.0
 11
1.0
 21
1.0
 12
210.0
 22
148.5
 13
0.0
 23
0.0
 14
10.0
 24
10.0
 15
10.0
 25
10.0
 16
0.0
 26
0.0
 36
1.0
 17
0.0
 27
0.0
 37
0.0
 40
341.0
 41
1.24
 42
50.0
 43
0.0
 44
0.0
 50
0.0
 51
0.0
 71
     0
 72
   100
 73
     1
 74
     3
 75
     0
 76
     0
 77
     0
 78
     0
  0
ENDTAB
  0
TABLE
  2
LTYPE
  5
5
330
0
100
AcDbSymbolTable
 70
     1
  0
LTYPE
  5
14
330
5
100
AcDbSymbolTableRecord
100
AcDbLinetypeTableRecord
  2
BYBLOCK
 70
     0
  3

 72
    65
 73
     0
 40
0.0
  0
LTYPE
  5
15
330
5
100
AcDbSymbolTableRecord
100
AcDbLinetypeTableRecord
  2
BYLAYER
 70
     0
  3

 72
    65
 73
     0
 40
0.0
  0
LTYPE
  5
16
330
5
100
AcDbSymbolTableRecord
100
AcDbLinetypeTableRecord
  2
CONTINUOUS
 70
     0
  3
Solid line
 72
    65
 73
     0
 40
0.0
  0
ENDTAB
  0
TABLE
  2
LAYER
  5
2
100
AcDbSymbolTable
 70
2
  0
LAYER
  5
50
100
AcDbSymbolTableRecord
100
AcDbLayerTableRecord
  2
0
 70
0
  6
CONTINUOUS
  0
LAYER
  5
51
100
AcDbSymbolTableRecord
100
AcDbLayerTableRecord
  2
Layer_1
 70
0
  6
CONTINUOUS
  0
ENDTAB
  0
TABLE
  2
STYLE
  5
3
330
0
100
AcDbSymbolTable
 70
     1
  0
STYLE
  5
11
330
3
100
AcDbSymbolTableRecord
100
AcDbTextStyleTableRecord
  2
STANDARD
 70
     0
 40
0.0
 41
1.0
 50
0.0
 71
     0
 42
2.5
  3
txt
  4

  0
ENDTAB
  0
TABLE
  2
VIEW
  5
6
330
0
100
AcDbSymbolTable
 70
     0
  0
ENDTAB
  0
TABLE
  2
UCS
  5
7
330
0
100
AcDbSymbolTable
 70
     0
  0
ENDTAB
  0
TABLE
  2
APPID
  5
9
330
0
100
AcDbSymbolTable
 70
     2
  0
APPID
  5
12
330
9
100
AcDbSymbolTableRecord
100
AcDbRegAppTableRecord
  2
ACAD
 70
     0
  0
ENDTAB
  0
TABLE
  2
DIMSTYLE
  5
A
330
0
100
AcDbSymbolTable
 70
     1
  0
DIMSTYLE
105
27
330
A
100
AcDbSymbolTableRecord
100
AcDbDimStyleTableRecord
  2
ISO-25
 70
     0
  3

  4

  5

  6

  7

 40
1.0
 41
2.5
 42
0.625
 43
3.75
 44
1.25
 45
0.0
 46
0.0
 47
0.0
 48
0.0
140
2.5
141
2.5
142
0.0
143
0.03937007874016
144
1.0
145
0.0
146
1.0
147
0.625
 71
     0
 72
     0
 73
     0
 74
     0
 75
     0
 76
     0
 77
     1
 78
     8
170
     0
171
     3
172
     1
173
     0
174
     0
175
     0
176
     0
177
     0
178
     0
270
     2
271
     2
272
     2
273
     2
274
     3
340
11
275
     0
280
     0
281
     0
282
     0
283
     0
284
     8
285
     0
286
     0
287
     3
288
     0
  0
ENDTAB
  0
TABLE
  2
BLOCK_RECORD
  5
1
330
0
100
AcDbSymbolTable
 70
     1
  0
BLOCK_RECORD
  5
1F
330
1
100
AcDbSymbolTableRecord
100
AcDbBlockTableRecord
  2
*MODEL_SPACE
  0
BLOCK_RECORD
  5
1B
330
1
100
AcDbSymbolTableRecord
100
AcDbBlockTableRecord
  2
*PAPER_SPACE
  0
ENDTAB
  0
ENDSEC
  0
SECTION
  2
BLOCKS
  0
BLOCK
  5
20
330
1F
100
AcDbEntity
  8
0
100
AcDbBlockBegin
  2
*MODEL_SPACE
 70
     0
 10
0.0
 20
0.0
 30
0.0
  3
*MODEL_SPACE
  1

  0
ENDBLK
  5
21
330
1F
100
AcDbEntity
  8
0
100
AcDbBlockEnd
  0
BLOCK
  5
1C
330
1B
100
AcDbEntity
 67
     1
  8
0
100
AcDbBlockBegin
  2
*PAPER_SPACE
  1

  0
ENDBLK
  5
1D
330
1B
100
AcDbEntity
 67
     1
  8
0
100
AcDbBlockEnd
  0
ENDSEC
  0
SECTION
  2
ENTITIES
  0
SPLINE
  5
100
100
AcDbEntity
  8
Layer_1
 62
7
100
AcDbSpline
 70
8
 71
3
 72
8
 73
4
 74
0
 40
0
 40
0
 40
0
 40
0
 40
1
 40
1
 40
1
 40
1
 10
53.369853
 20
112.266148
 30
0.0
 10
53.369852
 20
111.470499
 30
0.0
 10
53.053782
 20
110.707437
 30
0.0
 10
52.491172
 20
110.144828
 30
0.0
  0
SPLINE
  5
101
100
AcDbEntity
  8
Layer_1
 62
7
100
AcDbSpline
 70
8
 71
3
 72
8
 73
4
 74
0
 40
0
 40
0
 40
0
 40
0
 40
1
 40
1
 40
1
 40
1
 10
52.491172
 20
110.144828
 30
0.0
 10
51.928562
 20
109.582219
 30
0.0
 10
51.165500
 20
109.266148
 30
0.0
 10
50.369851
 20
109.266149
 30
0.0
  0
SPLINE
  5
102
100
AcDbEntity
  8
Layer_1
 62
7
100
AcDbSpline
 70
8
 71
3
 72
8
 73
4
 74
0
 40
0
 40
0
 40
0
 40
0
 40
1
 40
1
 40
1
 40
1
 10
50.369851
 20
109.266149
 30
0.0
 10
48.712997
 20
109.266149
 30
0.0
 10
47.369851
 20
110.609295
 30
0.0
 10
47.369851
 20
112.266148
 30
0.0
  0
SPLINE
  5
103
100
AcDbEntity
  8
Layer_1
 62
7
100
AcDbSpline
 70
8
 71
3
 72
8
 73
4
 74
0
 40
0
 40
0
 40
0
 40
0
 40
1
 40
1
 40
1
 40
1
 10
47.369851
 20
112.266148
 30
0.0
 10
47.369851
 20
113.923002
 30
0.0
 10
48.712997
 20
115.266148
 30
0.0
 10
50.369851
 20
115.266148
 30
0.0
  0
SPLINE
  5
104
100
AcDbEntity
  8
Layer_1
 62
7
100
AcDbSpline
 70
8
 71
3
 72
8
 73
4
 74
0
 40
0
 40
0
 40
0
 40
0
 40
1
 40
1
 40
1
 40
1
 10
50.369851
 20
115.266148
 30
0.0
 10
51.165500
 20
115.266148
 30
0.0
 10
51.928562
 20
114.950078
 30
0.0
 10
52.491172
 20
114.387469
 30
0.0
  0
SPLINE
  5
105
100
AcDbEntity
  8
Layer_1
 62
7
100
AcDbSpline
 70
8
 71
3
 72
8
 73
4
 74
0
 40
0
 40
0
 40
0
 40
0
 40
1
 40
1
 40
1
 40
1
 10
52.491172
 20
114.387469
 30
0.0
 10
53.053782
 20
113.824860
 30
0.0
 10
53.369852
 20
113.061798
 30
0.0
 10
53.369853
 20
112.266148
 30
0.0
  0
SPLINE
  5
106
100
AcDbEntity
  8
Layer_1
 62
7
100
AcDbSpline
 70
8
 71
3
 72
8
 73
4
 74
0
 40
0
 40
0
 40
0
 40
0
 40
1
 40
1
 40
1
 40
1
 10
143.064726
 20
73.046692
 30
0.0
 10
143.064721
 20
34.386761
 30
0.0
 10
111.724653
 20
3.046698
 30
0.0
 10
73.064722
 20
3.046699
 30
0.0
  0
SPLINE
  5
107
100
AcDbEntity
  8
Layer_1
 62
7
100
AcDbSpline
 70
8
 71
3
 72
8
 73
4
 74
0
 40
0
 40
0
 40
0
 40
0
 40
1
 40
1
 40
1
 40
1
 10
73.064722
 20
3.046699
 30
0.0
 10
34.404792
 20
3.046699
 30
0.0
 10
3.064725
 20
34.386762
 30
0.0
 10
3.064721
 20
73.046692
 30
0.0
  0
SPLINE
  5
108
100
AcDbEntity
  8
Layer_1
 62
7
100
AcDbSpline
 70
8
 71
3
 72
8
 73
4
 74
0
 40
0
 40
0
 40
0
 40
0
 40
1
 40
1
 40
1
 40
1
 10
3.064721
 20
73.046692
 30
0.0
 10
3.064720
 20
91.611847
 30
0.0
 10
10.439698
 20
109.416623
 30
0.0
 10
23.567245
 20
122.544170
 30
0.0
  0
SPLINE
  5
109
100
AcDbEntity
  8
Layer_1
 62
7
100
AcDbSpline
 70
8
 71
3
 72
8
 73
4
 74
0
 40
0
 40
0
 40
0
 40
0
 40
1
 40
1
 40
1
 40
1
 10
23.567245
 20
122.544170
 30
0.0
 10
36.694792
 20
135.671718
 30
0.0
 10
54.499567
 20
143.046697
 30
0.0
 10
73.064722
 20
143.046697
 30
0.0
  0
SPLINE
  5
10a
100
AcDbEntity
  8
Layer_1
 62
7
100
AcDbSpline
 70
8
 71
3
 72
8
 73
4
 74
0
 40
0
 40
0
 40
0
 40
0
 40
1
 40
1
 40
1
 40
1
 10
73.064722
 20
143.046697
 30
0.0
 10
91.629878
 20
143.046697
 30
0.0
 10
109.434653
 20
135.671718
 30
0.0
 10
122.562201
 20
122.544171
 30
0.0
  0
SPLINE
  5
10b
100
AcDbEntity
  8
Layer_1
 62
7
100
AcDbSpline
 70
8
 71
3
 72
8
 73
4
 74
0
 40
0
 40
0
 40
0
 40
0
 40
1
 40
1
 40
1
 40
1
 10
122.562201
 20
122.544171
 30
0.0
 10
135.689748
 20
109.416623
 30
0.0
 10
143.064727
 20
91.611848
 30
0.0
 10
143.064726
 20
73.046692
 30
0.0
  0
LWPOLYLINE
  5
10c
100
AcDbEntity
  8
Layer_1
 62
7
100
AcDbPolyline
 90
1
 70
1
 10
53.369853
 20
112.266148
 30
0.0
  0
SPLINE
  5
10d
100
AcDbEntity
  8
Layer_1
 62
7
100
AcDbSpline
 70
8
 71
3
 72
8
 73
4
 74
0
 40
0
 40
0
 40
0
 40
0
 40
1
 40
1
 40
1
 40
1
 10
78.391859
 20
139.484102
 30
0.0
 10
78.281306
 20
138.432272
 30
0.0
 10
77.339011
 20
137.669216
 30
0.0
 10
76.287181
 20
137.779766
 30
0.0
  0
SPLINE
  5
10e
100
AcDbEntity
  8
Layer_1
 62
7
100
AcDbSpline
 70
8
 71
3
 72
8
 73
4
 74
0
 40
0
 40
0
 40
0
 40
0
 40
1
 40
1
 40
1
 40
1
 10
76.287181
 20
137.779766
 30
0.0
 10
75.235349
 20
137.890316
 30
0.0
 10
74.472290
 20
138.832614
 30
0.0
 10
74.582841
 20
139.884446
 30
0.0
  0
SPLINE
  5
10f
100
AcDbEntity
  8
Layer_1
 62
7
100
AcDbSpline
 70
8
 71
3
 72
8
 73
4
 74
0
 40
0
 40
0
 40
0
 40
0
 40
1
 40
1
 40
1
 40
1
 10
74.582841
 20
139.884446
 30
0.0
 10
74.635930
 20
140.389554
 30
0.0
 10
74.887497
 20
140.852884
 30
0.0
 10
75.282202
 20
141.172510
 30
0.0
  0
SPLINE
  5
110
100
AcDbEntity
  8
Layer_1
 62
7
100
AcDbSpline
 70
8
 71
3
 72
8
 73
4
 74
0
 40
0
 40
0
 40
0
 40
0
 40
1
 40
1
 40
1
 40
1
 10
75.282202
 20
141.172510
 30
0.0
 10
75.676907
 20
141.492135
 30
0.0
 10
76.182417
 20
141.641874
 30
0.0
 10
76.687525
 20
141.588784
 30
0.0
  0
SPLINE
  5
111
100
AcDbEntity
  8
Layer_1
 62
7
100
AcDbSpline
 70
8
 71
3
 72
8
 73
4
 74
0
 40
0
 40
0
 40
0
 40
0
 40
1
 40
1
 40
1
 40
1
 10
76.687525
 20
141.588784
 30
0.0
 10
77.739355
 20
141.478231
 30
0.0
 10
78.502412
 20
140.535933
 30
0.0
 10
78.391859
 20
139.484102
 30
0.0
  0
LWPOLYLINE
  5
112
100
AcDbEntity
  8
Layer_1
 62
7
100
AcDbPolyline
 90
1
 70
1
 10
143.064726
 20
73.046692
 30
0.0
  0
SPLINE
  5
113
100
AcDbEntity
  8
Layer_1
 62
7
100
AcDbSpline
 70
8
 71
3
 72
8
 73
4
 74
0
 40
0
 40
0
 40
0
 40
0
 40
1
 40
1
 40
1
 40
1
 10
116.877200
 20
70.493233
 30
0.0
 10
115.442323
 20
71.321660
 30
0.0
 10
114.950699
 20
73.156431
 30
0.0
 10
115.779126
 20
74.591308
 30
0.0
  0
SPLINE
  5
114
100
AcDbEntity
  8
Layer_1
 62
7
100
AcDbSpline
 70
8
 71
3
 72
8
 73
4
 74
0
 40
0
 40
0
 40
0
 40
0
 40
1
 40
1
 40
1
 40
1
 10
115.779126
 20
74.591308
 30
0.0
 10
116.607553
 20
76.026185
 30
0.0
 10
118.442322
 20
76.517810
 30
0.0
 10
119.877200
 20
75.689385
 30
0.0
  0
SPLINE
  5
115
100
AcDbEntity
  8
Layer_1
 62
7
100
AcDbSpline
 70
8
 71
3
 72
8
 73
4
 74
0
 40
0
 40
0
 40
0
 40
0
 40
1
 40
1
 40
1
 40
1
 10
119.877200
 20
75.689385
 30
0.0
 10
121.312077
 20
74.860958
 30
0.0
 10
121.803703
 20
73.026187
 30
0.0
 10
120.975276
 20
71.591309
 30
0.0
  0
SPLINE
  5
116
100
AcDbEntity
  8
Layer_1
 62
7
100
AcDbSpline
 70
8
 71
3
 72
8
 73
4
 74
0
 40
0
 40
0
 40
0
 40
0
 40
1
 40
1
 40
1
 40
1
 10
120.975276
 20
71.591309
 30
0.0
 10
120.146849
 20
70.156431
 30
0.0
 10
118.312078
 20
69.664806
 30
0.0
 10
116.877200
 20
70.493233
 30
0.0
  0
LWPOLYLINE
  5
117
100
AcDbEntity
  8
Layer_1
 62
7
100
AcDbPolyline
 90
1
 70
1
 10
78.391859
 20
139.484102
 30
0.0
  0
SPLINE
  5
118
100
AcDbEntity
  8
Layer_1
 62
7
100
AcDbSpline
 70
8
 71
3
 72
8
 73
4
 74
0
 40
0
 40
0
 40
0
 40
0
 40
1
 40
1
 40
1
 40
1
 10
48.947117
 20
36.380714
 30
0.0
 10
50.381994
 20
37.209139
 30
0.0
 10
52.216763
 20
36.717513
 30
0.0
 10
53.045190
 20
35.282637
 30
0.0
  0
SPLINE
  5
119
100
AcDbEntity
  8
Layer_1
 62
7
100
AcDbSpline
 70
8
 71
3
 72
8
 73
4
 74
0
 40
0
 40
0
 40
0
 40
0
 40
1
 40
1
 40
1
 40
1
 10
53.045190
 20
35.282637
 30
0.0
 10
53.873618
 20
33.847760
 30
0.0
 10
53.381993
 20
32.012989
 30
0.0
 10
51.947116
 20
31.184561
 30
0.0
  0
SPLINE
  5
11a
100
AcDbEntity
  8
Layer_1
 62
7
100
AcDbSpline
 70
8
 71
3
 72
8
 73
4
 74
0
 40
0
 40
0
 40
0
 40
0
 40
1
 40
1
 40
1
 40
1
 10
51.947116
 20
31.184561
 30
0.0
 10
50.512239
 20
30.356134
 30
0.0
 10
48.677468
 20
30.847760
 30
0.0
 10
47.849041
 20
32.282638
 30
0.0
  0
SPLINE
  5
11b
100
AcDbEntity
  8
Layer_1
 62
7
100
AcDbSpline
 70
8
 71
3
 72
8
 73
4
 74
0
 40
0
 40
0
 40
0
 40
0
 40
1
 40
1
 40
1
 40
1
 10
47.849041
 20
32.282638
 30
0.0
 10
47.020614
 20
33.717516
 30
0.0
 10
47.512239
 20
35.552287
 30
0.0
 10
48.947117
 20
36.380714
 30
0.0
  0
LWPOLYLINE
  5
11c
100
AcDbEntity
  8
Layer_1
 62
7
100
AcDbPolyline
 90
1
 70
1
 10
116.877200
 20
70.493233
 30
0.0
  0
SPLINE
  5
11d
100
AcDbEntity
  8
Layer_1
 62
7
100
AcDbSpline
 70
8
 71
3
 72
8
 73
4
 74
0
 40
0
 40
0
 40
0
 40
0
 40
1
 40
1
 40
1
 40
1
 10
85.307277
 20
138.563313
 30
0.0
 10
85.087383
 20
137.528802
 30
0.0
 10
84.070489
 20
136.868422
 30
0.0
 10
83.035977
 20
137.088312
 30
0.0
  0
SPLINE
  5
11e
100
AcDbEntity
  8
Layer_1
 62
7
100
AcDbSpline
 70
8
 71
3
 72
8
 73
4
 74
0
 40
0
 40
0
 40
0
 40
0
 40
1
 40
1
 40
1
 40
1
 10
83.035977
 20
137.088312
 30
0.0
 10
82.001463
 20
137.308204
 30
0.0
 10
81.341081
 20
138.325101
 30
0.0
 10
81.560972
 20
139.359615
 30
0.0
  0
SPLINE
  5
11f
100
AcDbEntity
  8
Layer_1
 62
7
100
AcDbSpline
 70
8
 71
3
 72
8
 73
4
 74
0
 40
0
 40
0
 40
0
 40
0
 40
1
 40
1
 40
1
 40
1
 10
81.560972
 20
139.359615
 30
0.0
 10
81.666569
 20
139.856407
 30
0.0
 10
81.965189
 20
140.290903
 30
0.0
 10
82.391142
 20
140.567519
 30
0.0
  0
SPLINE
  5
120
100
AcDbEntity
  8
Layer_1
 62
7
100
AcDbSpline
 70
8
 71
3
 72
8
 73
4
 74
0
 40
0
 40
0
 40
0
 40
0
 40
1
 40
1
 40
1
 40
1
 10
82.391142
 20
140.567519
 30
0.0
 10
82.817094
 20
140.844136
 30
0.0
 10
83.335486
 20
140.940214
 30
0.0
 10
83.832278
 20
140.834618
 30
0.0
  0
SPLINE
  5
121
100
AcDbEntity
  8
Layer_1
 62
7
100
AcDbSpline
 70
8
 71
3
 72
8
 73
4
 74
0
 40
0
 40
0
 40
0
 40
0
 40
1
 40
1
 40
1
 40
1
 10
83.832278
 20
140.834618
 30
0.0
 10
84.866790
 20
140.614724
 30
0.0
 10
85.527170
 20
139.597827
 30
0.0
 10
85.307277
 20
138.563313
 30
0.0
  0
LWPOLYLINE
  5
122
100
AcDbEntity
  8
Layer_1
 62
7
100
AcDbPolyline
 90
1
 70
1
 10
48.947117
 20
36.380714
 30
0.0
  0
SPLINE
  5
123
100
AcDbEntity
  8
Layer_1
 62
7
100
AcDbSpline
 70
8
 71
3
 72
8
 73
4
 74
0
 40
0
 40
0
 40
0
 40
0
 40
1
 40
1
 40
1
 40
1
 10
92.088561
 20
136.924711
 30
0.0
 10
91.761737
 20
135.918852
 30
0.0
 10
90.681384
 20
135.368384
 30
0.0
 10
89.675524
 20
135.695206
 30
0.0
  0
SPLINE
  5
124
100
AcDbEntity
  8
Layer_1
 62
7
100
AcDbSpline
 70
8
 71
3
 72
8
 73
4
 74
0
 40
0
 40
0
 40
0
 40
0
 40
1
 40
1
 40
1
 40
1
 10
89.675524
 20
135.695206
 30
0.0
 10
88.669662
 20
136.022029
 30
0.0
 10
88.119193
 20
137.102384
 30
0.0
 10
88.446016
 20
138.108246
 30
0.0
  0
SPLINE
  5
125
100
AcDbEntity
  8
Layer_1
 62
7
100
AcDbSpline
 70
8
 71
3
 72
8
 73
4
 74
0
 40
0
 40
0
 40
0
 40
0
 40
1
 40
1
 40
1
 40
1
 10
88.446016
 20
138.108246
 30
0.0
 10
88.602962
 20
138.591278
 30
0.0
 10
88.945365
 20
138.992180
 30
0.0
 10
89.397898
 20
139.222757
 30
0.0
  0
SPLINE
  5
126
100
AcDbEntity
  8
Layer_1
 62
7
100
AcDbSpline
 70
8
 71
3
 72
8
 73
4
 74
0
 40
0
 40
0
 40
0
 40
0
 40
1
 40
1
 40
1
 40
1
 10
89.397898
 20
139.222757
 30
0.0
 10
89.850431
 20
139.453334
 30
0.0
 10
90.376026
 20
139.494699
 30
0.0
 10
90.859058
 20
139.337753
 30
0.0
  0
SPLINE
  5
127
100
AcDbEntity
  8
Layer_1
 62
7
100
AcDbSpline
 70
8
 71
3
 72
8
 73
4
 74
0
 40
0
 40
0
 40
0
 40
0
 40
1
 40
1
 40
1
 40
1
 10
90.859058
 20
139.337753
 30
0.0
 10
91.864919
 20
139.010927
 30
0.0
 10
92.415386
 20
137.930572
 30
0.0
 10
92.088561
 20
136.924711
 30
0.0
  0
LWPOLYLINE
  5
128
100
AcDbEntity
  8
Layer_1
 62
7
100
AcDbPolyline
 90
1
 70
1
 10
85.307277
 20
138.563313
 30
0.0
  0
SPLINE
  5
129
100
AcDbEntity
  8
Layer_1
 62
7
100
AcDbSpline
 70
8
 71
3
 72
8
 73
4
 74
0
 40
0
 40
0
 40
0
 40
0
 40
1
 40
1
 40
1
 40
1
 10
98.661417
 20
134.586248
 30
0.0
 10
98.231242
 20
133.620063
 30
0.0
 10
97.099270
 20
133.185538
 30
0.0
 10
96.133083
 20
133.615709
 30
0.0
  0
SPLINE
  5
12a
100
AcDbEntity
  8
Layer_1
 62
7
100
AcDbSpline
 70
8
 71
3
 72
8
 73
4
 74
0
 40
0
 40
0
 40
0
 40
0
 40
1
 40
1
 40
1
 40
1
 10
96.133083
 20
133.615709
 30
0.0
 10
95.669102
 20
133.822286
 30
0.0
 10
95.306187
 20
134.204718
 30
0.0
 10
95.124175
 20
134.678873
 30
0.0
  0
SPLINE
  5
12b
100
AcDbEntity
  8
Layer_1
 62
7
100
AcDbSpline
 70
8
 71
3
 72
8
 73
4
 74
0
 40
0
 40
0
 40
0
 40
0
 40
1
 40
1
 40
1
 40
1
 10
95.124175
 20
134.678873
 30
0.0
 10
94.942163
 20
135.153029
 30
0.0
 10
94.955964
 20
135.680069
 30
0.0
 10
95.162541
 20
136.144049
 30
0.0
  0
SPLINE
  5
12c
100
AcDbEntity
  8
Layer_1
 62
7
100
AcDbSpline
 70
8
 71
3
 72
8
 73
4
 74
0
 40
0
 40
0
 40
0
 40
0
 40
1
 40
1
 40
1
 40
1
 10
95.162541
 20
136.144049
 30
0.0
 10
95.369118
 20
136.608030
 30
0.0
 10
95.751550
 20
136.970945
 30
0.0
 10
96.225707
 20
137.152956
 30
0.0
  0
SPLINE
  5
12d
100
AcDbEntity
  8
Layer_1
 62
7
100
AcDbSpline
 70
8
 71
3
 72
8
 73
4
 74
0
 40
0
 40
0
 40
0
 40
0
 40
1
 40
1
 40
1
 40
1
 10
96.225707
 20
137.152956
 30
0.0
 10
96.699863
 20
137.334968
 30
0.0
 10
97.226903
 20
137.321167
 30
0.0
 10
97.690883
 20
137.114589
 30
0.0
  0
SPLINE
  5
12e
100
AcDbEntity
  8
Layer_1
 62
7
100
AcDbSpline
 70
8
 71
3
 72
8
 73
4
 74
0
 40
0
 40
0
 40
0
 40
0
 40
1
 40
1
 40
1
 40
1
 10
97.690883
 20
137.114589
 30
0.0
 10
98.657070
 20
136.684412
 30
0.0
 10
99.091593
 20
135.552436
 30
0.0
 10
98.661417
 20
134.586248
 30
0.0
  0
LWPOLYLINE
  5
12f
100
AcDbEntity
  8
Layer_1
 62
7
100
AcDbPolyline
 90
1
 70
1
 10
92.088561
 20
136.924711
 30
0.0
  0
SPLINE
  5
130
100
AcDbEntity
  8
Layer_1
 62
7
100
AcDbSpline
 70
8
 71
3
 72
8
 73
4
 74
0
 40
0
 40
0
 40
0
 40
0
 40
1
 40
1
 40
1
 40
1
 10
104.953831
 20
131.573545
 30
0.0
 10
104.425018
 20
130.657617
 30
0.0
 10
103.253825
 20
130.343796
 30
0.0
 10
102.337896
 20
130.872606
 30
0.0
  0
SPLINE
  5
131
100
AcDbEntity
  8
Layer_1
 62
7
100
AcDbSpline
 70
8
 71
3
 72
8
 73
4
 74
0
 40
0
 40
0
 40
0
 40
0
 40
1
 40
1
 40
1
 40
1
 10
102.337896
 20
130.872606
 30
0.0
 10
101.898050
 20
131.126551
 30
0.0
 10
101.577098
 20
131.544822
 30
0.0
 10
101.445646
 20
132.035406
 30
0.0
  0
SPLINE
  5
132
100
AcDbEntity
  8
Layer_1
 62
7
100
AcDbSpline
 70
8
 71
3
 72
8
 73
4
 74
0
 40
0
 40
0
 40
0
 40
0
 40
1
 40
1
 40
1
 40
1
 10
101.445646
 20
132.035406
 30
0.0
 10
101.314194
 20
132.525989
 30
0.0
 10
101.383009
 20
133.048699
 30
0.0
 10
101.636953
 20
133.488545
 30
0.0
  0
SPLINE
  5
133
100
AcDbEntity
  8
Layer_1
 62
7
100
AcDbSpline
 70
8
 71
3
 72
8
 73
4
 74
0
 40
0
 40
0
 40
0
 40
0
 40
1
 40
1
 40
1
 40
1
 10
101.636953
 20
133.488545
 30
0.0
 10
101.890898
 20
133.928391
 30
0.0
 10
102.309171
 20
134.249343
 30
0.0
 10
102.799756
 20
134.380795
 30
0.0
  0
SPLINE
  5
134
100
AcDbEntity
  8
Layer_1
 62
7
100
AcDbSpline
 70
8
 71
3
 72
8
 73
4
 74
0
 40
0
 40
0
 40
0
 40
0
 40
1
 40
1
 40
1
 40
1
 10
102.799756
 20
134.380795
 30
0.0
 10
103.290340
 20
134.512246
 30
0.0
 10
103.813051
 20
134.443430
 30
0.0
 10
104.252897
 20
134.189484
 30
0.0
  0
SPLINE
  5
135
100
AcDbEntity
  8
Layer_1
 62
7
100
AcDbSpline
 70
8
 71
3
 72
8
 73
4
 74
0
 40
0
 40
0
 40
0
 40
0
 40
1
 40
1
 40
1
 40
1
 10
104.252897
 20
134.189484
 30
0.0
 10
105.168825
 20
133.660669
 30
0.0
 10
105.482644
 20
132.489474
 30
0.0
 10
104.953831
 20
131.573545
 30
0.0
  0
LWPOLYLINE
  5
136
100
AcDbEntity
  8
Layer_1
 62
7
100
AcDbPolyline
 90
1
 70
1
 10
98.661417
 20
134.586248
 30
0.0
  0
SPLINE
  5
137
100
AcDbEntity
  8
Layer_1
 62
7
100
AcDbSpline
 70
8
 71
3
 72
8
 73
4
 74
0
 40
0
 40
0
 40
0
 40
0
 40
1
 40
1
 40
1
 40
1
 10
110.896862
 20
127.919609
 30
0.0
 10
110.275206
 20
127.063974
 30
0.0
 10
109.077625
 20
126.874295
 30
0.0
 10
108.221988
 20
127.495950
 30
0.0
  0
SPLINE
  5
138
100
AcDbEntity
  8
Layer_1
 62
7
100
AcDbSpline
 70
8
 71
3
 72
8
 73
4
 74
0
 40
0
 40
0
 40
0
 40
0
 40
1
 40
1
 40
1
 40
1
 10
108.221988
 20
127.495950
 30
0.0
 10
107.366351
 20
128.117606
 30
0.0
 10
107.176671
 20
129.315189
 30
0.0
 10
107.798327
 20
130.170826
 30
0.0
  0
SPLINE
  5
139
100
AcDbEntity
  8
Layer_1
 62
7
100
AcDbSpline
 70
8
 71
3
 72
8
 73
4
 74
0
 40
0
 40
0
 40
0
 40
0
 40
1
 40
1
 40
1
 40
1
 10
107.798327
 20
130.170826
 30
0.0
 10
108.096857
 20
130.581718
 30
0.0
 10
108.546387
 20
130.857191
 30
0.0
 10
109.048024
 20
130.936642
 30
0.0
  0
SPLINE
  5
13a
100
AcDbEntity
  8
Layer_1
 62
7
100
AcDbSpline
 70
8
 71
3
 72
8
 73
4
 74
0
 40
0
 40
0
 40
0
 40
0
 40
1
 40
1
 40
1
 40
1
 10
109.048024
 20
130.936642
 30
0.0
 10
109.549661
 20
131.016094
 30
0.0
 10
110.062315
 20
130.893016
 30
0.0
 10
110.473206
 20
130.594485
 30
0.0
  0
SPLINE
  5
13b
100
AcDbEntity
  8
Layer_1
 62
7
100
AcDbSpline
 70
8
 71
3
 72
8
 73
4
 74
0
 40
0
 40
0
 40
0
 40
0
 40
1
 40
1
 40
1
 40
1
 10
110.473206
 20
130.594485
 30
0.0
 10
111.328842
 20
129.972828
 30
0.0
 10
111.518519
 20
128.775245
 30
0.0
 10
110.896862
 20
127.919609
 30
0.0
  0
LWPOLYLINE
  5
13c
100
AcDbEntity
  8
Layer_1
 62
7
100
AcDbPolyline
 90
1
 70
1
 10
104.953831
 20
131.573545
 30
0.0
  0
SPLINE
  5
13d
100
AcDbEntity
  8
Layer_1
 62
7
100
AcDbSpline
 70
8
 71
3
 72
8
 73
4
 74
0
 40
0
 40
0
 40
0
 40
0
 40
1
 40
1
 40
1
 40
1
 10
116.425392
 20
123.664475
 30
0.0
 10
115.717703
 20
122.878510
 30
0.0
 10
114.506858
 20
122.815052
 30
0.0
 10
113.720890
 20
123.522737
 30
0.0
  0
SPLINE
  5
13e
100
AcDbEntity
  8
Layer_1
 62
7
100
AcDbSpline
 70
8
 71
3
 72
8
 73
4
 74
0
 40
0
 40
0
 40
0
 40
0
 40
1
 40
1
 40
1
 40
1
 10
113.720890
 20
123.522737
 30
0.0
 10
112.934921
 20
124.230426
 30
0.0
 10
112.871462
 20
125.441275
 30
0.0
 10
113.579150
 20
126.227245
 30
0.0
  0
SPLINE
  5
13f
100
AcDbEntity
  8
Layer_1
 62
7
100
AcDbSpline
 70
8
 71
3
 72
8
 73
4
 74
0
 40
0
 40
0
 40
0
 40
0
 40
1
 40
1
 40
1
 40
1
 10
113.579150
 20
126.227245
 30
0.0
 10
114.286840
 20
127.013213
 30
0.0
 10
115.497689
 20
127.076671
 30
0.0
 10
116.283658
 20
126.368982
 30
0.0
  0
SPLINE
  5
140
100
AcDbEntity
  8
Layer_1
 62
7
100
AcDbSpline
 70
8
 71
3
 72
8
 73
4
 74
0
 40
0
 40
0
 40
0
 40
0
 40
1
 40
1
 40
1
 40
1
 10
116.283658
 20
126.368982
 30
0.0
 10
117.069625
 20
125.661292
 30
0.0
 10
117.133082
 20
124.450443
 30
0.0
 10
116.425392
 20
123.664475
 30
0.0
  0
LWPOLYLINE
  5
141
100
AcDbEntity
  8
Layer_1
 62
7
100
AcDbPolyline
 90
1
 70
1
 10
110.896862
 20
127.919609
 30
0.0
  0
SPLINE
  5
142
100
AcDbEntity
  8
Layer_1
 62
7
100
AcDbSpline
 70
8
 71
3
 72
8
 73
4
 74
0
 40
0
 40
0
 40
0
 40
0
 40
1
 40
1
 40
1
 40
1
 10
121.478857
 20
118.854761
 30
0.0
 10
120.692890
 20
118.147074
 30
0.0
 10
119.482045
 20
118.210531
 30
0.0
 10
118.774355
 20
118.996495
 30
0.0
  0
SPLINE
  5
143
100
AcDbEntity
  8
Layer_1
 62
7
100
AcDbSpline
 70
8
 71
3
 72
8
 73
4
 74
0
 40
0
 40
0
 40
0
 40
0
 40
1
 40
1
 40
1
 40
1
 10
118.774355
 20
118.996495
 30
0.0
 10
118.434510
 20
119.373930
 30
0.0
 10
118.258520
 20
119.870910
 30
0.0
 10
118.285100
 20
120.378104
 30
0.0
  0
SPLINE
  5
144
100
AcDbEntity
  8
Layer_1
 62
7
100
AcDbSpline
 70
8
 71
3
 72
8
 73
4
 74
0
 40
0
 40
0
 40
0
 40
0
 40
1
 40
1
 40
1
 40
1
 10
118.285100
 20
120.378104
 30
0.0
 10
118.311681
 20
120.885298
 30
0.0
 10
118.538654
 20
121.361159
 30
0.0
 10
118.916090
 20
121.701004
 30
0.0
  0
SPLINE
  5
145
100
AcDbEntity
  8
Layer_1
 62
7
100
AcDbSpline
 70
8
 71
3
 72
8
 73
4
 74
0
 40
0
 40
0
 40
0
 40
0
 40
1
 40
1
 40
1
 40
1
 10
118.916090
 20
121.701004
 30
0.0
 10
119.293526
 20
122.040849
 30
0.0
 10
119.790506
 20
122.216839
 30
0.0
 10
120.297700
 20
122.190258
 30
0.0
  0
SPLINE
  5
146
100
AcDbEntity
  8
Layer_1
 62
7
100
AcDbSpline
 70
8
 71
3
 72
8
 73
4
 74
0
 40
0
 40
0
 40
0
 40
0
 40
1
 40
1
 40
1
 40
1
 10
120.297700
 20
122.190258
 30
0.0
 10
120.804894
 20
122.163678
 30
0.0
 10
121.280755
 20
121.936703
 30
0.0
 10
121.620600
 20
121.559267
 30
0.0
  0
SPLINE
  5
147
100
AcDbEntity
  8
Layer_1
 62
7
100
AcDbSpline
 70
8
 71
3
 72
8
 73
4
 74
0
 40
0
 40
0
 40
0
 40
0
 40
1
 40
1
 40
1
 40
1
 10
121.620600
 20
121.559267
 30
0.0
 10
122.328287
 20
120.773297
 30
0.0
 10
122.264827
 20
119.562448
 30
0.0
 10
121.478857
 20
118.854761
 30
0.0
  0
LWPOLYLINE
  5
148
100
AcDbEntity
  8
Layer_1
 62
7
100
AcDbPolyline
 90
1
 70
1
 10
116.425392
 20
123.664475
 30
0.0
  0
SPLINE
  5
149
100
AcDbEntity
  8
Layer_1
 62
7
100
AcDbSpline
 70
8
 71
3
 72
8
 73
4
 74
0
 40
0
 40
0
 40
0
 40
0
 40
1
 40
1
 40
1
 40
1
 10
126.001886
 20
113.543163
 30
0.0
 10
125.146250
 20
112.921510
 30
0.0
 10
123.948671
 20
113.111188
 30
0.0
 10
123.327014
 20
113.966821
 30
0.0
  0
SPLINE
  5
14a
100
AcDbEntity
  8
Layer_1
 62
7
100
AcDbSpline
 70
8
 71
3
 72
8
 73
4
 74
0
 40
0
 40
0
 40
0
 40
0
 40
1
 40
1
 40
1
 40
1
 10
123.327014
 20
113.966821
 30
0.0
 10
122.705357
 20
114.822458
 30
0.0
 10
122.895035
 20
116.020040
 30
0.0
 10
123.750671
 20
116.641698
 30
0.0
  0
SPLINE
  5
14b
100
AcDbEntity
  8
Layer_1
 62
7
100
AcDbSpline
 70
8
 71
3
 72
8
 73
4
 74
0
 40
0
 40
0
 40
0
 40
0
 40
1
 40
1
 40
1
 40
1
 10
123.750671
 20
116.641698
 30
0.0
 10
124.606308
 20
117.263354
 30
0.0
 10
125.803891
 20
117.073674
 30
0.0
 10
126.425547
 20
116.218037
 30
0.0
  0
SPLINE
  5
14c
100
AcDbEntity
  8
Layer_1
 62
7
100
AcDbSpline
 70
8
 71
3
 72
8
 73
4
 74
0
 40
0
 40
0
 40
0
 40
0
 40
1
 40
1
 40
1
 40
1
 10
126.425547
 20
116.218037
 30
0.0
 10
127.047201
 20
115.362399
 30
0.0
 10
126.857522
 20
114.164818
 30
0.0
 10
126.001886
 20
113.543163
 30
0.0
  0
LWPOLYLINE
  5
14d
100
AcDbEntity
  8
Layer_1
 62
7
100
AcDbPolyline
 90
1
 70
1
 10
121.478857
 20
118.854761
 30
0.0
  0
SPLINE
  5
14e
100
AcDbEntity
  8
Layer_1
 62
7
100
AcDbSpline
 70
8
 71
3
 72
8
 73
4
 74
0
 40
0
 40
0
 40
0
 40
0
 40
1
 40
1
 40
1
 40
1
 10
129.944927
 20
107.787879
 30
0.0
 10
129.028998
 20
107.259069
 30
0.0
 10
127.857805
 20
107.572887
 30
0.0
 10
127.328991
 20
108.488814
 30
0.0
  0
SPLINE
  5
14f
100
AcDbEntity
  8
Layer_1
 62
7
100
AcDbSpline
 70
8
 71
3
 72
8
 73
4
 74
0
 40
0
 40
0
 40
0
 40
0
 40
1
 40
1
 40
1
 40
1
 10
127.328991
 20
108.488814
 30
0.0
 10
127.075045
 20
108.928659
 30
0.0
 10
127.006228
 20
109.451368
 30
0.0
 10
127.137679
 20
109.941952
 30
0.0
  0
SPLINE
  5
150
100
AcDbEntity
  8
Layer_1
 62
7
100
AcDbSpline
 70
8
 71
3
 72
8
 73
4
 74
0
 40
0
 40
0
 40
0
 40
0
 40
1
 40
1
 40
1
 40
1
 10
127.137679
 20
109.941952
 30
0.0
 10
127.269130
 20
110.432536
 30
0.0
 10
127.590080
 20
110.850809
 30
0.0
 10
128.029925
 20
111.104755
 30
0.0
  0
SPLINE
  5
151
100
AcDbEntity
  8
Layer_1
 62
7
100
AcDbSpline
 70
8
 71
3
 72
8
 73
4
 74
0
 40
0
 40
0
 40
0
 40
0
 40
1
 40
1
 40
1
 40
1
 10
128.029925
 20
111.104755
 30
0.0
 10
128.469771
 20
111.358700
 30
0.0
 10
128.992481
 20
111.427516
 30
0.0
 10
129.483065
 20
111.296064
 30
0.0
  0
SPLINE
  5
152
100
AcDbEntity
  8
Layer_1
 62
7
100
AcDbSpline
 70
8
 71
3
 72
8
 73
4
 74
0
 40
0
 40
0
 40
0
 40
0
 40
1
 40
1
 40
1
 40
1
 10
129.483065
 20
111.296064
 30
0.0
 10
129.973649
 20
111.164613
 30
0.0
 10
130.391921
 20
110.843661
 30
0.0
 10
130.645866
 20
110.403815
 30
0.0
  0
SPLINE
  5
153
100
AcDbEntity
  8
Layer_1
 62
7
100
AcDbSpline
 70
8
 71
3
 72
8
 73
4
 74
0
 40
0
 40
0
 40
0
 40
0
 40
1
 40
1
 40
1
 40
1
 10
130.645866
 20
110.403815
 30
0.0
 10
131.174676
 20
109.487885
 30
0.0
 10
130.860855
 20
108.316692
 30
0.0
 10
129.944927
 20
107.787879
 30
0.0
  0
LWPOLYLINE
  5
154
100
AcDbEntity
  8
Layer_1
 62
7
100
AcDbPolyline
 90
1
 70
1
 10
126.001886
 20
113.543163
 30
0.0
  0
SPLINE
  5
155
100
AcDbEntity
  8
Layer_1
 62
7
100
AcDbSpline
 70
8
 71
3
 72
8
 73
4
 74
0
 40
0
 40
0
 40
0
 40
0
 40
1
 40
1
 40
1
 40
1
 10
133.264773
 20
101.651967
 30
0.0
 10
132.298586
 20
101.221792
 30
0.0
 10
131.166611
 20
101.656313
 30
0.0
 10
130.736433
 20
102.622498
 30
0.0
  0
SPLINE
  5
156
100
AcDbEntity
  8
Layer_1
 62
7
100
AcDbSpline
 70
8
 71
3
 72
8
 73
4
 74
0
 40
0
 40
0
 40
0
 40
0
 40
1
 40
1
 40
1
 40
1
 10
130.736433
 20
102.622498
 30
0.0
 10
130.529855
 20
103.086478
 30
0.0
 10
130.516053
 20
103.613518
 30
0.0
 10
130.698064
 20
104.087674
 30
0.0
  0
SPLINE
  5
157
100
AcDbEntity
  8
Layer_1
 62
7
100
AcDbSpline
 70
8
 71
3
 72
8
 73
4
 74
0
 40
0
 40
0
 40
0
 40
0
 40
1
 40
1
 40
1
 40
1
 10
130.698064
 20
104.087674
 30
0.0
 10
130.880075
 20
104.561831
 30
0.0
 10
131.242989
 20
104.944263
 30
0.0
 10
131.706970
 20
105.150841
 30
0.0
  0
SPLINE
  5
158
100
AcDbEntity
  8
Layer_1
 62
7
100
AcDbSpline
 70
8
 71
3
 72
8
 73
4
 74
0
 40
0
 40
0
 40
0
 40
0
 40
1
 40
1
 40
1
 40
1
 10
131.706970
 20
105.150841
 30
0.0
 10
132.170950
 20
105.357419
 30
0.0
 10
132.697990
 20
105.371220
 30
0.0
 10
133.172146
 20
105.189208
 30
0.0
  0
SPLINE
  5
159
100
AcDbEntity
  8
Layer_1
 62
7
100
AcDbSpline
 70
8
 71
3
 72
8
 73
4
 74
0
 40
0
 40
0
 40
0
 40
0
 40
1
 40
1
 40
1
 40
1
 10
133.172146
 20
105.189208
 30
0.0
 10
133.646303
 20
105.007197
 30
0.0
 10
134.028735
 20
104.644282
 30
0.0
 10
134.235312
 20
104.180301
 30
0.0
  0
SPLINE
  5
15a
100
AcDbEntity
  8
Layer_1
 62
7
100
AcDbSpline
 70
8
 71
3
 72
8
 73
4
 74
0
 40
0
 40
0
 40
0
 40
0
 40
1
 40
1
 40
1
 40
1
 10
134.235312
 20
104.180301
 30
0.0
 10
134.665483
 20
103.214114
 30
0.0
 10
134.230958
 20
102.082142
 30
0.0
 10
133.264773
 20
101.651967
 30
0.0
  0
LWPOLYLINE
  5
15b
100
AcDbEntity
  8
Layer_1
 62
7
100
AcDbPolyline
 90
1
 70
1
 10
129.944927
 20
107.787879
 30
0.0
  0
SPLINE
  5
15c
100
AcDbEntity
  8
Layer_1
 62
7
100
AcDbSpline
 70
8
 71
3
 72
8
 73
4
 74
0
 40
0
 40
0
 40
0
 40
0
 40
1
 40
1
 40
1
 40
1
 10
135.925055
 20
95.202645
 30
0.0
 10
134.919196
 20
94.875823
 30
0.0
 10
133.838845
 20
95.426288
 30
0.0
 10
133.512018
 20
96.432145
 30
0.0
  0
SPLINE
  5
15d
100
AcDbEntity
  8
Layer_1
 62
7
100
AcDbSpline
 70
8
 71
3
 72
8
 73
4
 74
0
 40
0
 40
0
 40
0
 40
0
 40
1
 40
1
 40
1
 40
1
 10
133.512018
 20
96.432145
 30
0.0
 10
133.355070
 20
96.915177
 30
0.0
 10
133.396434
 20
97.440772
 30
0.0
 10
133.627011
 20
97.893306
 30
0.0
  0
SPLINE
  5
15e
100
AcDbEntity
  8
Layer_1
 62
7
100
AcDbSpline
 70
8
 71
3
 72
8
 73
4
 74
0
 40
0
 40
0
 40
0
 40
0
 40
1
 40
1
 40
1
 40
1
 10
133.627011
 20
97.893306
 30
0.0
 10
133.857588
 20
98.345840
 30
0.0
 10
134.258489
 20
98.688243
 30
0.0
 10
134.741521
 20
98.845190
 30
0.0
  0
SPLINE
  5
15f
100
AcDbEntity
  8
Layer_1
 62
7
100
AcDbSpline
 70
8
 71
3
 72
8
 73
4
 74
0
 40
0
 40
0
 40
0
 40
0
 40
1
 40
1
 40
1
 40
1
 10
134.741521
 20
98.845190
 30
0.0
 10
135.224553
 20
99.002137
 30
0.0
 10
135.750149
 20
98.960771
 30
0.0
 10
136.202682
 20
98.730194
 30
0.0
  0
SPLINE
  5
160
100
AcDbEntity
  8
Layer_1
 62
7
100
AcDbSpline
 70
8
 71
3
 72
8
 73
4
 74
0
 40
0
 40
0
 40
0
 40
0
 40
1
 40
1
 40
1
 40
1
 10
136.202682
 20
98.730194
 30
0.0
 10
136.655215
 20
98.499616
 30
0.0
 10
136.997617
 20
98.098714
 30
0.0
 10
137.154563
 20
97.615682
 30
0.0
  0
SPLINE
  5
161
100
AcDbEntity
  8
Layer_1
 62
7
100
AcDbSpline
 70
8
 71
3
 72
8
 73
4
 74
0
 40
0
 40
0
 40
0
 40
0
 40
1
 40
1
 40
1
 40
1
 10
137.154563
 20
97.615682
 30
0.0
 10
137.481385
 20
96.609821
 30
0.0
 10
136.930915
 20
95.529468
 30
0.0
 10
135.925055
 20
95.202645
 30
0.0
  0
LWPOLYLINE
  5
162
100
AcDbEntity
  8
Layer_1
 62
7
100
AcDbPolyline
 90
1
 70
1
 10
133.264773
 20
101.651967
 30
0.0
  0
SPLINE
  5
163
100
AcDbEntity
  8
Layer_1
 62
7
100
AcDbSpline
 70
8
 71
3
 72
8
 73
4
 74
0
 40
0
 40
0
 40
0
 40
0
 40
1
 40
1
 40
1
 40
1
 10
137.896624
 20
88.510578
 30
0.0
 10
136.862113
 20
88.290688
 30
0.0
 10
135.845219
 20
88.951066
 30
0.0
 10
135.625325
 20
89.985577
 30
0.0
  0
SPLINE
  5
164
100
AcDbEntity
  8
Layer_1
 62
7
100
AcDbSpline
 70
8
 71
3
 72
8
 73
4
 74
0
 40
0
 40
0
 40
0
 40
0
 40
1
 40
1
 40
1
 40
1
 10
135.625325
 20
89.985577
 30
0.0
 10
135.405431
 20
91.020090
 30
0.0
 10
136.065811
 20
92.036988
 30
0.0
 10
137.100324
 20
92.256882
 30
0.0
  0
SPLINE
  5
165
100
AcDbEntity
  8
Layer_1
 62
7
100
AcDbSpline
 70
8
 71
3
 72
8
 73
4
 74
0
 40
0
 40
0
 40
0
 40
0
 40
1
 40
1
 40
1
 40
1
 10
137.100324
 20
92.256882
 30
0.0
 10
137.597116
 20
92.362479
 30
0.0
 10
138.115509
 20
92.266401
 30
0.0
 10
138.541462
 20
91.989784
 30
0.0
  0
SPLINE
  5
166
100
AcDbEntity
  8
Layer_1
 62
7
100
AcDbSpline
 70
8
 71
3
 72
8
 73
4
 74
0
 40
0
 40
0
 40
0
 40
0
 40
1
 40
1
 40
1
 40
1
 10
138.541462
 20
91.989784
 30
0.0
 10
138.967415
 20
91.713167
 30
0.0
 10
139.266036
 20
91.278670
 30
0.0
 10
139.371632
 20
90.781878
 30
0.0
  0
SPLINE
  5
167
100
AcDbEntity
  8
Layer_1
 62
7
100
AcDbSpline
 70
8
 71
3
 72
8
 73
4
 74
0
 40
0
 40
0
 40
0
 40
0
 40
1
 40
1
 40
1
 40
1
 10
139.371632
 20
90.781878
 30
0.0
 10
139.591521
 20
89.747364
 30
0.0
 10
138.931138
 20
88.730468
 30
0.0
 10
137.896624
 20
88.510578
 30
0.0
  0
LWPOLYLINE
  5
168
100
AcDbEntity
  8
Layer_1
 62
7
100
AcDbPolyline
 90
1
 70
1
 10
135.925055
 20
95.202645
 30
0.0
  0
SPLINE
  5
169
100
AcDbEntity
  8
Layer_1
 62
7
100
AcDbSpline
 70
8
 71
3
 72
8
 73
4
 74
0
 40
0
 40
0
 40
0
 40
0
 40
1
 40
1
 40
1
 40
1
 10
139.157885
 20
81.649085
 30
0.0
 10
138.106056
 20
81.538535
 30
0.0
 10
137.163760
 20
82.301591
 30
0.0
 10
137.053207
 20
83.353420
 30
0.0
  0
SPLINE
  5
16a
100
AcDbEntity
  8
Layer_1
 62
7
100
AcDbSpline
 70
8
 71
3
 72
8
 73
4
 74
0
 40
0
 40
0
 40
0
 40
0
 40
1
 40
1
 40
1
 40
1
 10
137.053207
 20
83.353420
 30
0.0
 10
136.942654
 20
84.405251
 30
0.0
 10
137.705710
 20
85.347550
 30
0.0
 10
138.757542
 20
85.458104
 30
0.0
  0
SPLINE
  5
16b
100
AcDbEntity
  8
Layer_1
 62
7
100
AcDbSpline
 70
8
 71
3
 72
8
 73
4
 74
0
 40
0
 40
0
 40
0
 40
0
 40
1
 40
1
 40
1
 40
1
 10
138.757542
 20
85.458104
 30
0.0
 10
139.262650
 20
85.511193
 30
0.0
 10
139.768159
 20
85.361454
 30
0.0
 10
140.162864
 20
85.041828
 30
0.0
  0
SPLINE
  5
16c
100
AcDbEntity
  8
Layer_1
 62
7
100
AcDbSpline
 70
8
 71
3
 72
8
 73
4
 74
0
 40
0
 40
0
 40
0
 40
0
 40
1
 40
1
 40
1
 40
1
 10
140.162864
 20
85.041828
 30
0.0
 10
140.557569
 20
84.722203
 30
0.0
 10
140.809137
 20
84.258872
 30
0.0
 10
140.862225
 20
83.753763
 30
0.0
  0
SPLINE
  5
16d
100
AcDbEntity
  8
Layer_1
 62
7
100
AcDbSpline
 70
8
 71
3
 72
8
 73
4
 74
0
 40
0
 40
0
 40
0
 40
0
 40
1
 40
1
 40
1
 40
1
 10
140.862225
 20
83.753763
 30
0.0
 10
140.972775
 20
82.701932
 30
0.0
 10
140.209716
 20
81.759636
 30
0.0
 10
139.157885
 20
81.649085
 30
0.0
  0
LWPOLYLINE
  5
16e
100
AcDbEntity
  8
Layer_1
 62
7
100
AcDbPolyline
 90
1
 70
1
 10
137.896624
 20
88.510578
 30
0.0
  0
SPLINE
  5
16f
100
AcDbEntity
  8
Layer_1
 62
7
100
AcDbSpline
 70
8
 71
3
 72
8
 73
4
 74
0
 40
0
 40
0
 40
0
 40
0
 40
1
 40
1
 40
1
 40
1
 10
139.695013
 20
74.693345
 30
0.0
 10
138.637391
 20
74.693347
 30
0.0
 10
137.780020
 20
75.550719
 30
0.0
 10
137.780017
 20
76.608341
 30
0.0
  0
SPLINE
  5
170
100
AcDbEntity
  8
Layer_1
 62
7
100
AcDbSpline
 70
8
 71
3
 72
8
 73
4
 74
0
 40
0
 40
0
 40
0
 40
0
 40
1
 40
1
 40
1
 40
1
 10
137.780017
 20
76.608341
 30
0.0
 10
137.780017
 20
77.665966
 30
0.0
 10
138.637391
 20
78.523341
 30
0.0
 10
139.695016
 20
78.523342
 30
0.0
  0
SPLINE
  5
171
100
AcDbEntity
  8
Layer_1
 62
7
100
AcDbSpline
 70
8
 71
3
 72
8
 73
4
 74
0
 40
0
 40
0
 40
0
 40
0
 40
1
 40
1
 40
1
 40
1
 10
139.695016
 20
78.523342
 30
0.0
 10
140.752640
 20
78.523341
 30
0.0
 10
141.610014
 20
77.665968
 30
0.0
 10
141.610015
 20
76.608344
 30
0.0
  0
SPLINE
  5
172
100
AcDbEntity
  8
Layer_1
 62
7
100
AcDbSpline
 70
8
 71
3
 72
8
 73
4
 74
0
 40
0
 40
0
 40
0
 40
0
 40
1
 40
1
 40
1
 40
1
 10
141.610015
 20
76.608344
 30
0.0
 10
141.610014
 20
75.550718
 30
0.0
 10
140.752638
 20
74.693345
 30
0.0
 10
139.695013
 20
74.693345
 30
0.0
  0
LWPOLYLINE
  5
173
100
AcDbEntity
  8
Layer_1
 62
7
100
AcDbPolyline
 90
1
 70
1
 10
139.157885
 20
81.649085
 30
0.0
  0
SPLINE
  5
174
100
AcDbEntity
  8
Layer_1
 62
7
100
AcDbSpline
 70
8
 71
3
 72
8
 73
4
 74
0
 40
0
 40
0
 40
0
 40
0
 40
1
 40
1
 40
1
 40
1
 10
139.502129
 20
67.719563
 30
0.0
 10
138.450300
 20
67.830115
 30
0.0
 10
137.687244
 20
68.772409
 30
0.0
 10
137.797792
 20
69.824239
 30
0.0
  0
SPLINE
  5
175
100
AcDbEntity
  8
Layer_1
 62
7
100
AcDbSpline
 70
8
 71
3
 72
8
 73
4
 74
0
 40
0
 40
0
 40
0
 40
0
 40
1
 40
1
 40
1
 40
1
 10
137.797792
 20
69.824239
 30
0.0
 10
137.850880
 20
70.329346
 30
0.0
 10
138.102448
 20
70.792677
 30
0.0
 10
138.497152
 20
71.112303
 30
0.0
  0
SPLINE
  5
176
100
AcDbEntity
  8
Layer_1
 62
7
100
AcDbSpline
 70
8
 71
3
 72
8
 73
4
 74
0
 40
0
 40
0
 40
0
 40
0
 40
1
 40
1
 40
1
 40
1
 10
138.497152
 20
71.112303
 30
0.0
 10
138.891856
 20
71.431928
 30
0.0
 10
139.397365
 20
71.581668
 30
0.0
 10
139.902473
 20
71.528579
 30
0.0
  0
SPLINE
  5
177
100
AcDbEntity
  8
Layer_1
 62
7
100
AcDbSpline
 70
8
 71
3
 72
8
 73
4
 74
0
 40
0
 40
0
 40
0
 40
0
 40
1
 40
1
 40
1
 40
1
 10
139.902473
 20
71.528579
 30
0.0
 10
140.407581
 20
71.475490
 30
0.0
 10
140.870912
 20
71.223923
 30
0.0
 10
141.190538
 20
70.829218
 30
0.0
  0
SPLINE
  5
178
100
AcDbEntity
  8
Layer_1
 62
7
100
AcDbSpline
 70
8
 71
3
 72
8
 73
4
 74
0
 40
0
 40
0
 40
0
 40
0
 40
1
 40
1
 40
1
 40
1
 10
141.190538
 20
70.829218
 30
0.0
 10
141.510164
 20
70.434513
 30
0.0
 10
141.659903
 20
69.929003
 30
0.0
 10
141.606813
 20
69.423895
 30
0.0
  0
SPLINE
  5
179
100
AcDbEntity
  8
Layer_1
 62
7
100
AcDbSpline
 70
8
 71
3
 72
8
 73
4
 74
0
 40
0
 40
0
 40
0
 40
0
 40
1
 40
1
 40
1
 40
1
 10
141.606813
 20
69.423895
 30
0.0
 10
141.496258
 20
68.372065
 30
0.0
 10
140.553960
 20
67.609010
 30
0.0
 10
139.502129
 20
67.719563
 30
0.0
  0
LWPOLYLINE
  5
17a
100
AcDbEntity
  8
Layer_1
 62
7
100
AcDbPolyline
 90
1
 70
1
 10
139.695013
 20
74.693345
 30
0.0
  0
SPLINE
  5
17b
100
AcDbEntity
  8
Layer_1
 62
7
100
AcDbSpline
 70
8
 71
3
 72
8
 73
4
 74
0
 40
0
 40
0
 40
0
 40
0
 40
1
 40
1
 40
1
 40
1
 10
138.581340
 20
60.804145
 30
0.0
 10
137.546828
 20
61.024038
 30
0.0
 10
136.886448
 20
62.040933
 30
0.0
 10
137.106338
 20
63.075445
 30
0.0
  0
SPLINE
  5
17c
100
AcDbEntity
  8
Layer_1
 62
7
100
AcDbSpline
 70
8
 71
3
 72
8
 73
4
 74
0
 40
0
 40
0
 40
0
 40
0
 40
1
 40
1
 40
1
 40
1
 10
137.106338
 20
63.075445
 30
0.0
 10
137.211933
 20
63.572237
 30
0.0
 10
137.510554
 20
64.006734
 30
0.0
 10
137.936507
 20
64.283351
 30
0.0
  0
SPLINE
  5
17d
100
AcDbEntity
  8
Layer_1
 62
7
100
AcDbSpline
 70
8
 71
3
 72
8
 73
4
 74
0
 40
0
 40
0
 40
0
 40
0
 40
1
 40
1
 40
1
 40
1
 10
137.936507
 20
64.283351
 30
0.0
 10
138.362459
 20
64.559968
 30
0.0
 10
138.880851
 20
64.656046
 30
0.0
 10
139.377643
 20
64.550450
 30
0.0
  0
SPLINE
  5
17e
100
AcDbEntity
  8
Layer_1
 62
7
100
AcDbSpline
 70
8
 71
3
 72
8
 73
4
 74
0
 40
0
 40
0
 40
0
 40
0
 40
1
 40
1
 40
1
 40
1
 10
139.377643
 20
64.550450
 30
0.0
 10
139.874434
 20
64.444854
 30
0.0
 10
140.308930
 20
64.146233
 30
0.0
 10
140.585547
 20
63.720280
 30
0.0
  0
SPLINE
  5
17f
100
AcDbEntity
  8
Layer_1
 62
7
100
AcDbSpline
 70
8
 71
3
 72
8
 73
4
 74
0
 40
0
 40
0
 40
0
 40
0
 40
1
 40
1
 40
1
 40
1
 10
140.585547
 20
63.720280
 30
0.0
 10
140.862163
 20
63.294328
 30
0.0
 10
140.958241
 20
62.775936
 30
0.0
 10
140.852645
 20
62.279145
 30
0.0
  0
SPLINE
  5
180
100
AcDbEntity
  8
Layer_1
 62
7
100
AcDbSpline
 70
8
 71
3
 72
8
 73
4
 74
0
 40
0
 40
0
 40
0
 40
0
 40
1
 40
1
 40
1
 40
1
 10
140.852645
 20
62.279145
 30
0.0
 10
140.632751
 20
61.244632
 30
0.0
 10
139.615853
 20
60.584252
 30
0.0
 10
138.581340
 20
60.804145
 30
0.0
  0
LWPOLYLINE
  5
181
100
AcDbEntity
  8
Layer_1
 62
7
100
AcDbPolyline
 90
1
 70
1
 10
139.502129
 20
67.719563
 30
0.0
  0
SPLINE
  5
182
100
AcDbEntity
  8
Layer_1
 62
7
100
AcDbSpline
 70
8
 71
3
 72
8
 73
4
 74
0
 40
0
 40
0
 40
0
 40
0
 40
1
 40
1
 40
1
 40
1
 10
136.942738
 20
54.022858
 30
0.0
 10
135.936879
 20
54.349683
 30
0.0
 10
135.386411
 20
55.430035
 30
0.0
 10
135.713232
 20
56.435896
 30
0.0
  0
SPLINE
  5
183
100
AcDbEntity
  8
Layer_1
 62
7
100
AcDbSpline
 70
8
 71
3
 72
8
 73
4
 74
0
 40
0
 40
0
 40
0
 40
0
 40
1
 40
1
 40
1
 40
1
 10
135.713232
 20
56.435896
 30
0.0
 10
136.040056
 20
57.441757
 30
0.0
 10
137.120410
 20
57.992227
 30
0.0
 10
138.126272
 20
57.665404
 30
0.0
  0
SPLINE
  5
184
100
AcDbEntity
  8
Layer_1
 62
7
100
AcDbSpline
 70
8
 71
3
 72
8
 73
4
 74
0
 40
0
 40
0
 40
0
 40
0
 40
1
 40
1
 40
1
 40
1
 10
138.126272
 20
57.665404
 30
0.0
 10
138.609305
 20
57.508458
 30
0.0
 10
139.010207
 20
57.166056
 30
0.0
 10
139.240784
 20
56.713522
 30
0.0
  0
SPLINE
  5
185
100
AcDbEntity
  8
Layer_1
 62
7
100
AcDbSpline
 70
8
 71
3
 72
8
 73
4
 74
0
 40
0
 40
0
 40
0
 40
0
 40
1
 40
1
 40
1
 40
1
 10
139.240784
 20
56.713522
 30
0.0
 10
139.471362
 20
56.260989
 30
0.0
 10
139.512727
 20
55.735394
 30
0.0
 10
139.355780
 20
55.252361
 30
0.0
  0
SPLINE
  5
186
100
AcDbEntity
  8
Layer_1
 62
7
100
AcDbSpline
 70
8
 71
3
 72
8
 73
4
 74
0
 40
0
 40
0
 40
0
 40
0
 40
1
 40
1
 40
1
 40
1
 10
139.355780
 20
55.252361
 30
0.0
 10
139.028955
 20
54.246500
 30
0.0
 10
137.948599
 20
53.696033
 30
0.0
 10
136.942738
 20
54.022858
 30
0.0
  0
LWPOLYLINE
  5
187
100
AcDbEntity
  8
Layer_1
 62
7
100
AcDbPolyline
 90
1
 70
1
 10
138.581340
 20
60.804145
 30
0.0
  0
SPLINE
  5
188
100
AcDbEntity
  8
Layer_1
 62
7
100
AcDbSpline
 70
8
 71
3
 72
8
 73
4
 74
0
 40
0
 40
0
 40
0
 40
0
 40
1
 40
1
 40
1
 40
1
 10
134.604274
 20
47.450005
 30
0.0
 10
133.638089
 20
47.880181
 30
0.0
 10
133.203566
 20
49.012153
 30
0.0
 10
133.633737
 20
49.978340
 30
0.0
  0
SPLINE
  5
189
100
AcDbEntity
  8
Layer_1
 62
7
100
AcDbSpline
 70
8
 71
3
 72
8
 73
4
 74
0
 40
0
 40
0
 40
0
 40
0
 40
1
 40
1
 40
1
 40
1
 10
133.633737
 20
49.978340
 30
0.0
 10
134.063911
 20
50.944529
 30
0.0
 10
135.195887
 20
51.379056
 30
0.0
 10
136.162077
 20
50.948882
 30
0.0
  0
SPLINE
  5
18a
100
AcDbEntity
  8
Layer_1
 62
7
100
AcDbSpline
 70
8
 71
3
 72
8
 73
4
 74
0
 40
0
 40
0
 40
0
 40
0
 40
1
 40
1
 40
1
 40
1
 10
136.162077
 20
50.948882
 30
0.0
 10
136.626058
 20
50.742304
 30
0.0
 10
136.988972
 20
50.359872
 30
0.0
 10
137.170984
 20
49.885716
 30
0.0
  0
SPLINE
  5
18b
100
AcDbEntity
  8
Layer_1
 62
7
100
AcDbSpline
 70
8
 71
3
 72
8
 73
4
 74
0
 40
0
 40
0
 40
0
 40
0
 40
1
 40
1
 40
1
 40
1
 10
137.170984
 20
49.885716
 30
0.0
 10
137.352995
 20
49.411559
 30
0.0
 10
137.339194
 20
48.884520
 30
0.0
 10
137.132616
 20
48.420539
 30
0.0
  0
SPLINE
  5
18c
100
AcDbEntity
  8
Layer_1
 62
7
100
AcDbSpline
 70
8
 71
3
 72
8
 73
4
 74
0
 40
0
 40
0
 40
0
 40
0
 40
1
 40
1
 40
1
 40
1
 10
137.132616
 20
48.420539
 30
0.0
 10
136.702439
 20
47.454351
 30
0.0
 10
135.570462
 20
47.019828
 30
0.0
 10
134.604274
 20
47.450005
 30
0.0
  0
LWPOLYLINE
  5
18d
100
AcDbEntity
  8
Layer_1
 62
7
100
AcDbPolyline
 90
1
 70
1
 10
136.942738
 20
54.022858
 30
0.0
  0
SPLINE
  5
18e
100
AcDbEntity
  8
Layer_1
 62
7
100
AcDbSpline
 70
8
 71
3
 72
8
 73
4
 74
0
 40
0
 40
0
 40
0
 40
0
 40
1
 40
1
 40
1
 40
1
 10
131.591572
 20
41.157591
 30
0.0
 10
130.675645
 20
41.686404
 30
0.0
 10
130.361824
 20
42.857595
 30
0.0
 10
130.890632
 20
43.773524
 30
0.0
  0
SPLINE
  5
18f
100
AcDbEntity
  8
Layer_1
 62
7
100
AcDbSpline
 70
8
 71
3
 72
8
 73
4
 74
0
 40
0
 40
0
 40
0
 40
0
 40
1
 40
1
 40
1
 40
1
 10
130.890632
 20
43.773524
 30
0.0
 10
131.419444
 20
44.689455
 30
0.0
 10
132.590639
 20
45.003278
 30
0.0
 10
133.506570
 20
44.474466
 30
0.0
  0
SPLINE
  5
190
100
AcDbEntity
  8
Layer_1
 62
7
100
AcDbSpline
 70
8
 71
3
 72
8
 73
4
 74
0
 40
0
 40
0
 40
0
 40
0
 40
1
 40
1
 40
1
 40
1
 10
133.506570
 20
44.474466
 30
0.0
 10
133.946417
 20
44.220521
 30
0.0
 10
134.267369
 20
43.802249
 30
0.0
 10
134.398821
 20
43.311664
 30
0.0
  0
SPLINE
  5
191
100
AcDbEntity
  8
Layer_1
 62
7
100
AcDbSpline
 70
8
 71
3
 72
8
 73
4
 74
0
 40
0
 40
0
 40
0
 40
0
 40
1
 40
1
 40
1
 40
1
 10
134.398821
 20
43.311664
 30
0.0
 10
134.530272
 20
42.821079
 30
0.0
 10
134.461456
 20
42.298369
 30
0.0
 10
134.207510
 20
41.858523
 30
0.0
  0
SPLINE
  5
192
100
AcDbEntity
  8
Layer_1
 62
7
100
AcDbSpline
 70
8
 71
3
 72
8
 73
4
 74
0
 40
0
 40
0
 40
0
 40
0
 40
1
 40
1
 40
1
 40
1
 10
134.207510
 20
41.858523
 30
0.0
 10
133.678694
 20
40.942596
 30
0.0
 10
132.507500
 20
40.628778
 30
0.0
 10
131.591572
 20
41.157591
 30
0.0
  0
LWPOLYLINE
  5
193
100
AcDbEntity
  8
Layer_1
 62
7
100
AcDbPolyline
 90
1
 70
1
 10
134.604274
 20
47.450005
 30
0.0
  0
SPLINE
  5
194
100
AcDbEntity
  8
Layer_1
 62
7
100
AcDbSpline
 70
8
 71
3
 72
8
 73
4
 74
0
 40
0
 40
0
 40
0
 40
0
 40
1
 40
1
 40
1
 40
1
 10
127.937636
 20
35.214560
 30
0.0
 10
127.082001
 20
35.836216
 30
0.0
 10
126.892322
 20
37.033797
 30
0.0
 10
127.513977
 20
37.889434
 30
0.0
  0
SPLINE
  5
195
100
AcDbEntity
  8
Layer_1
 62
7
100
AcDbSpline
 70
8
 71
3
 72
8
 73
4
 74
0
 40
0
 40
0
 40
0
 40
0
 40
1
 40
1
 40
1
 40
1
 10
127.513977
 20
37.889434
 30
0.0
 10
128.135633
 20
38.745072
 30
0.0
 10
129.333216
 20
38.934751
 30
0.0
 10
130.188854
 20
38.313095
 30
0.0
  0
SPLINE
  5
196
100
AcDbEntity
  8
Layer_1
 62
7
100
AcDbSpline
 70
8
 71
3
 72
8
 73
4
 74
0
 40
0
 40
0
 40
0
 40
0
 40
1
 40
1
 40
1
 40
1
 10
130.188854
 20
38.313095
 30
0.0
 10
130.599747
 20
38.014565
 30
0.0
 10
130.875219
 20
37.565035
 30
0.0
 10
130.954671
 20
37.063397
 30
0.0
  0
SPLINE
  5
197
100
AcDbEntity
  8
Layer_1
 62
7
100
AcDbSpline
 70
8
 71
3
 72
8
 73
4
 74
0
 40
0
 40
0
 40
0
 40
0
 40
1
 40
1
 40
1
 40
1
 10
130.954671
 20
37.063397
 30
0.0
 10
131.034122
 20
36.561759
 30
0.0
 10
130.911044
 20
36.049105
 30
0.0
 10
130.612513
 20
35.638213
 30
0.0
  0
SPLINE
  5
198
100
AcDbEntity
  8
Layer_1
 62
7
100
AcDbSpline
 70
8
 71
3
 72
8
 73
4
 74
0
 40
0
 40
0
 40
0
 40
0
 40
1
 40
1
 40
1
 40
1
 10
130.612513
 20
35.638213
 30
0.0
 10
129.990854
 20
34.782578
 30
0.0
 10
128.793272
 20
34.592902
 30
0.0
 10
127.937636
 20
35.214560
 30
0.0
  0
LWPOLYLINE
  5
199
100
AcDbEntity
  8
Layer_1
 62
7
100
AcDbPolyline
 90
1
 70
1
 10
131.591572
 20
41.157591
 30
0.0
  0
SPLINE
  5
19a
100
AcDbEntity
  8
Layer_1
 62
7
100
AcDbSpline
 70
8
 71
3
 72
8
 73
4
 74
0
 40
0
 40
0
 40
0
 40
0
 40
1
 40
1
 40
1
 40
1
 10
123.682501
 20
29.686025
 30
0.0
 10
122.896532
 20
30.393714
 30
0.0
 10
122.833074
 20
31.604563
 30
0.0
 10
123.540763
 20
32.390532
 30
0.0
  0
SPLINE
  5
19b
100
AcDbEntity
  8
Layer_1
 62
7
100
AcDbSpline
 70
8
 71
3
 72
8
 73
4
 74
0
 40
0
 40
0
 40
0
 40
0
 40
1
 40
1
 40
1
 40
1
 10
123.540763
 20
32.390532
 30
0.0
 10
124.248452
 20
33.176501
 30
0.0
 10
125.459301
 20
33.239960
 30
0.0
 10
126.245271
 20
32.532272
 30
0.0
  0
SPLINE
  5
19c
100
AcDbEntity
  8
Layer_1
 62
7
100
AcDbSpline
 70
8
 71
3
 72
8
 73
4
 74
0
 40
0
 40
0
 40
0
 40
0
 40
1
 40
1
 40
1
 40
1
 10
126.245271
 20
32.532272
 30
0.0
 10
126.622708
 20
32.192427
 30
0.0
 10
126.849683
 20
31.716565
 30
0.0
 10
126.876264
 20
31.209371
 30
0.0
  0
SPLINE
  5
19d
100
AcDbEntity
  8
Layer_1
 62
7
100
AcDbSpline
 70
8
 71
3
 72
8
 73
4
 74
0
 40
0
 40
0
 40
0
 40
0
 40
1
 40
1
 40
1
 40
1
 10
126.876264
 20
31.209371
 30
0.0
 10
126.902845
 20
30.702176
 30
0.0
 10
126.726854
 20
30.205195
 30
0.0
 10
126.387008
 20
29.827759
 30
0.0
  0
SPLINE
  5
19e
100
AcDbEntity
  8
Layer_1
 62
7
100
AcDbSpline
 70
8
 71
3
 72
8
 73
4
 74
0
 40
0
 40
0
 40
0
 40
0
 40
1
 40
1
 40
1
 40
1
 10
126.387008
 20
29.827759
 30
0.0
 10
125.679318
 20
29.041792
 30
0.0
 10
124.468469
 20
28.978335
 30
0.0
 10
123.682501
 20
29.686025
 30
0.0
  0
LWPOLYLINE
  5
19f
100
AcDbEntity
  8
Layer_1
 62
7
100
AcDbPolyline
 90
1
 70
1
 10
127.937636
 20
35.214560
 30
0.0
  0
SPLINE
  5
1a0
100
AcDbEntity
  8
Layer_1
 62
7
100
AcDbSpline
 70
8
 71
3
 72
8
 73
4
 74
0
 40
0
 40
0
 40
0
 40
0
 40
1
 40
1
 40
1
 40
1
 10
118.872788
 20
24.632565
 30
0.0
 10
118.165102
 20
25.418532
 30
0.0
 10
118.228559
 20
26.629377
 30
0.0
 10
119.014523
 20
27.337067
 30
0.0
  0
SPLINE
  5
1a1
100
AcDbEntity
  8
Layer_1
 62
7
100
AcDbSpline
 70
8
 71
3
 72
8
 73
4
 74
0
 40
0
 40
0
 40
0
 40
0
 40
1
 40
1
 40
1
 40
1
 10
119.014523
 20
27.337067
 30
0.0
 10
119.391958
 20
27.676912
 30
0.0
 10
119.888938
 20
27.852903
 30
0.0
 10
120.396132
 20
27.826323
 30
0.0
  0
SPLINE
  5
1a2
100
AcDbEntity
  8
Layer_1
 62
7
100
AcDbSpline
 70
8
 71
3
 72
8
 73
4
 74
0
 40
0
 40
0
 40
0
 40
0
 40
1
 40
1
 40
1
 40
1
 10
120.396132
 20
27.826323
 30
0.0
 10
120.903326
 20
27.799742
 30
0.0
 10
121.379188
 20
27.572768
 30
0.0
 10
121.719033
 20
27.195332
 30
0.0
  0
SPLINE
  5
1a3
100
AcDbEntity
  8
Layer_1
 62
7
100
AcDbSpline
 70
8
 71
3
 72
8
 73
4
 74
0
 40
0
 40
0
 40
0
 40
0
 40
1
 40
1
 40
1
 40
1
 10
121.719033
 20
27.195332
 30
0.0
 10
122.426722
 20
26.409363
 30
0.0
 10
122.363264
 20
25.198514
 30
0.0
 10
121.577296
 20
24.490825
 30
0.0
  0
SPLINE
  5
1a4
100
AcDbEntity
  8
Layer_1
 62
7
100
AcDbSpline
 70
8
 71
3
 72
8
 73
4
 74
0
 40
0
 40
0
 40
0
 40
0
 40
1
 40
1
 40
1
 40
1
 10
121.577296
 20
24.490825
 30
0.0
 10
120.791326
 20
23.783136
 30
0.0
 10
119.580477
 20
23.846596
 30
0.0
 10
118.872788
 20
24.632565
 30
0.0
  0
LWPOLYLINE
  5
1a5
100
AcDbEntity
  8
Layer_1
 62
7
100
AcDbPolyline
 90
1
 70
1
 10
123.682501
 20
29.686025
 30
0.0
  0
SPLINE
  5
1a6
100
AcDbEntity
  8
Layer_1
 62
7
100
AcDbSpline
 70
8
 71
3
 72
8
 73
4
 74
0
 40
0
 40
0
 40
0
 40
0
 40
1
 40
1
 40
1
 40
1
 10
113.561193
 20
20.109534
 30
0.0
 10
112.939540
 20
20.965169
 30
0.0
 10
113.129217
 20
22.162748
 30
0.0
 10
113.984849
 20
22.784405
 30
0.0
  0
SPLINE
  5
1a7
100
AcDbEntity
  8
Layer_1
 62
7
100
AcDbSpline
 70
8
 71
3
 72
8
 73
4
 74
0
 40
0
 40
0
 40
0
 40
0
 40
1
 40
1
 40
1
 40
1
 10
113.984849
 20
22.784405
 30
0.0
 10
114.840485
 20
23.406062
 30
0.0
 10
116.038068
 20
23.216385
 30
0.0
 10
116.659726
 20
22.360749
 30
0.0
  0
SPLINE
  5
1a8
100
AcDbEntity
  8
Layer_1
 62
7
100
AcDbSpline
 70
8
 71
3
 72
8
 73
4
 74
0
 40
0
 40
0
 40
0
 40
0
 40
1
 40
1
 40
1
 40
1
 10
116.659726
 20
22.360749
 30
0.0
 10
116.958256
 20
21.949857
 30
0.0
 10
117.081333
 20
21.437203
 30
0.0
 10
117.001882
 20
20.935566
 30
0.0
  0
SPLINE
  5
1a9
100
AcDbEntity
  8
Layer_1
 62
7
100
AcDbSpline
 70
8
 71
3
 72
8
 73
4
 74
0
 40
0
 40
0
 40
0
 40
0
 40
1
 40
1
 40
1
 40
1
 10
117.001882
 20
20.935566
 30
0.0
 10
116.922430
 20
20.433929
 30
0.0
 10
116.646957
 20
19.984399
 30
0.0
 10
116.236064
 20
19.685870
 30
0.0
  0
SPLINE
  5
1aa
100
AcDbEntity
  8
Layer_1
 62
7
100
AcDbSpline
 70
8
 71
3
 72
8
 73
4
 74
0
 40
0
 40
0
 40
0
 40
0
 40
1
 40
1
 40
1
 40
1
 10
116.236064
 20
19.685870
 30
0.0
 10
115.380427
 20
19.064218
 30
0.0
 10
114.182848
 20
19.253899
 30
0.0
 10
113.561193
 20
20.109534
 30
0.0
  0
LWPOLYLINE
  5
1ab
100
AcDbEntity
  8
Layer_1
 62
7
100
AcDbPolyline
 90
1
 70
1
 10
118.872788
 20
24.632565
 30
0.0
  0
SPLINE
  5
1ac
100
AcDbEntity
  8
Layer_1
 62
7
100
AcDbSpline
 70
8
 71
3
 72
8
 73
4
 74
0
 40
0
 40
0
 40
0
 40
0
 40
1
 40
1
 40
1
 40
1
 10
107.805907
 20
16.166496
 30
0.0
 10
107.277097
 20
17.082425
 30
0.0
 10
107.590917
 20
18.253618
 30
0.0
 10
108.506844
 20
18.782431
 30
0.0
  0
SPLINE
  5
1ad
100
AcDbEntity
  8
Layer_1
 62
7
100
AcDbSpline
 70
8
 71
3
 72
8
 73
4
 74
0
 40
0
 40
0
 40
0
 40
0
 40
1
 40
1
 40
1
 40
1
 10
108.506844
 20
18.782431
 30
0.0
 10
108.946689
 20
19.036377
 30
0.0
 10
109.469399
 20
19.105193
 30
0.0
 10
109.959983
 20
18.973742
 30
0.0
  0
SPLINE
  5
1ae
100
AcDbEntity
  8
Layer_1
 62
7
100
AcDbSpline
 70
8
 71
3
 72
8
 73
4
 74
0
 40
0
 40
0
 40
0
 40
0
 40
1
 40
1
 40
1
 40
1
 10
109.959983
 20
18.973742
 30
0.0
 10
110.450567
 20
18.842291
 30
0.0
 10
110.868840
 20
18.521340
 30
0.0
 10
111.122785
 20
18.081494
 30
0.0
  0
SPLINE
  5
1af
100
AcDbEntity
  8
Layer_1
 62
7
100
AcDbSpline
 70
8
 71
3
 72
8
 73
4
 74
0
 40
0
 40
0
 40
0
 40
0
 40
1
 40
1
 40
1
 40
1
 10
111.122785
 20
18.081494
 30
0.0
 10
111.651596
 20
17.165563
 30
0.0
 10
111.337774
 20
15.994368
 30
0.0
 10
110.421843
 20
15.465556
 30
0.0
  0
SPLINE
  5
1b0
100
AcDbEntity
  8
Layer_1
 62
7
100
AcDbSpline
 70
8
 71
3
 72
8
 73
4
 74
0
 40
0
 40
0
 40
0
 40
0
 40
1
 40
1
 40
1
 40
1
 10
110.421843
 20
15.465556
 30
0.0
 10
109.505913
 20
14.936746
 30
0.0
 10
108.334720
 20
15.250567
 30
0.0
 10
107.805907
 20
16.166496
 30
0.0
  0
LWPOLYLINE
  5
1b1
100
AcDbEntity
  8
Layer_1
 62
7
100
AcDbPolyline
 90
1
 70
1
 10
113.561193
 20
20.109534
 30
0.0
  0
SPLINE
  5
1b2
100
AcDbEntity
  8
Layer_1
 62
7
100
AcDbSpline
 70
8
 71
3
 72
8
 73
4
 74
0
 40
0
 40
0
 40
0
 40
0
 40
1
 40
1
 40
1
 40
1
 10
101.669992
 20
12.846647
 30
0.0
 10
101.239819
 20
13.812834
 30
0.0
 10
101.674341
 20
14.944807
 30
0.0
 10
102.640526
 20
15.374984
 30
0.0
  0
SPLINE
  5
1b3
100
AcDbEntity
  8
Layer_1
 62
7
100
AcDbSpline
 70
8
 71
3
 72
8
 73
4
 74
0
 40
0
 40
0
 40
0
 40
0
 40
1
 40
1
 40
1
 40
1
 10
102.640526
 20
15.374984
 30
0.0
 10
103.606714
 20
15.805161
 30
0.0
 10
104.738691
 20
15.370638
 30
0.0
 10
105.168869
 20
14.404450
 30
0.0
  0
SPLINE
  5
1b4
100
AcDbEntity
  8
Layer_1
 62
7
100
AcDbSpline
 70
8
 71
3
 72
8
 73
4
 74
0
 40
0
 40
0
 40
0
 40
0
 40
1
 40
1
 40
1
 40
1
 10
105.168869
 20
14.404450
 30
0.0
 10
105.375446
 20
13.940470
 30
0.0
 10
105.389248
 20
13.413430
 30
0.0
 10
105.207236
 20
12.939273
 30
0.0
  0
SPLINE
  5
1b5
100
AcDbEntity
  8
Layer_1
 62
7
100
AcDbSpline
 70
8
 71
3
 72
8
 73
4
 74
0
 40
0
 40
0
 40
0
 40
0
 40
1
 40
1
 40
1
 40
1
 10
105.207236
 20
12.939273
 30
0.0
 10
105.025225
 20
12.465117
 30
0.0
 10
104.662310
 20
12.082685
 30
0.0
 10
104.198329
 20
11.876107
 30
0.0
  0
SPLINE
  5
1b6
100
AcDbEntity
  8
Layer_1
 62
7
100
AcDbSpline
 70
8
 71
3
 72
8
 73
4
 74
0
 40
0
 40
0
 40
0
 40
0
 40
1
 40
1
 40
1
 40
1
 10
104.198329
 20
11.876107
 30
0.0
 10
103.232141
 20
11.445935
 30
0.0
 10
102.100167
 20
11.880460
 30
0.0
 10
101.669992
 20
12.846647
 30
0.0
  0
LWPOLYLINE
  5
1b7
100
AcDbEntity
  8
Layer_1
 62
7
100
AcDbPolyline
 90
1
 70
1
 10
107.805907
 20
16.166496
 30
0.0
  0
SPLINE
  5
1b8
100
AcDbEntity
  8
Layer_1
 62
7
100
AcDbSpline
 70
8
 71
3
 72
8
 73
4
 74
0
 40
0
 40
0
 40
0
 40
0
 40
1
 40
1
 40
1
 40
1
 10
95.220672
 20
10.186364
 30
0.0
 10
94.893847
 20
11.192225
 30
0.0
 10
95.444313
 20
12.272580
 30
0.0
 10
96.450173
 20
12.599407
 30
0.0
  0
SPLINE
  5
1b9
100
AcDbEntity
  8
Layer_1
 62
7
100
AcDbSpline
 70
8
 71
3
 72
8
 73
4
 74
0
 40
0
 40
0
 40
0
 40
0
 40
1
 40
1
 40
1
 40
1
 10
96.450173
 20
12.599407
 30
0.0
 10
97.456034
 20
12.926232
 30
0.0
 10
98.536389
 20
12.375765
 30
0.0
 10
98.863215
 20
11.369904
 30
0.0
  0
SPLINE
  5
1ba
100
AcDbEntity
  8
Layer_1
 62
7
100
AcDbSpline
 70
8
 71
3
 72
8
 73
4
 74
0
 40
0
 40
0
 40
0
 40
0
 40
1
 40
1
 40
1
 40
1
 10
98.863215
 20
11.369904
 30
0.0
 10
99.020163
 20
10.886872
 30
0.0
 10
98.978798
 20
10.361276
 30
0.0
 10
98.748221
 20
9.908742
 30
0.0
  0
SPLINE
  5
1bb
100
AcDbEntity
  8
Layer_1
 62
7
100
AcDbSpline
 70
8
 71
3
 72
8
 73
4
 74
0
 40
0
 40
0
 40
0
 40
0
 40
1
 40
1
 40
1
 40
1
 10
98.748221
 20
9.908742
 30
0.0
 10
98.517644
 20
9.456208
 30
0.0
 10
98.116742
 20
9.113806
 30
0.0
 10
97.633710
 20
8.956859
 30
0.0
  0
SPLINE
  5
1bc
100
AcDbEntity
  8
Layer_1
 62
7
100
AcDbSpline
 70
8
 71
3
 72
8
 73
4
 74
0
 40
0
 40
0
 40
0
 40
0
 40
1
 40
1
 40
1
 40
1
 10
97.633710
 20
8.956859
 30
0.0
 10
96.627849
 20
8.630037
 30
0.0
 10
95.547497
 20
9.180505
 30
0.0
 10
95.220672
 20
10.186364
 30
0.0
  0
LWPOLYLINE
  5
1bd
100
AcDbEntity
  8
Layer_1
 62
7
100
AcDbPolyline
 90
1
 70
1
 10
101.669992
 20
12.846647
 30
0.0
  0
SPLINE
  5
1be
100
AcDbEntity
  8
Layer_1
 62
7
100
AcDbSpline
 70
8
 71
3
 72
8
 73
4
 74
0
 40
0
 40
0
 40
0
 40
0
 40
1
 40
1
 40
1
 40
1
 10
88.528603
 20
8.214795
 30
0.0
 10
88.308713
 20
9.249306
 30
0.0
 10
88.969090
 20
10.266200
 30
0.0
 10
90.003599
 20
10.486095
 30
0.0
  0
SPLINE
  5
1bf
100
AcDbEntity
  8
Layer_1
 62
7
100
AcDbSpline
 70
8
 71
3
 72
8
 73
4
 74
0
 40
0
 40
0
 40
0
 40
0
 40
1
 40
1
 40
1
 40
1
 10
90.003599
 20
10.486095
 30
0.0
 10
90.500391
 20
10.591692
 30
0.0
 10
91.018783
 20
10.495615
 30
0.0
 10
91.444736
 20
10.218999
 30
0.0
  0
SPLINE
  5
1c0
100
AcDbEntity
  8
Layer_1
 62
7
100
AcDbSpline
 70
8
 71
3
 72
8
 73
4
 74
0
 40
0
 40
0
 40
0
 40
0
 40
1
 40
1
 40
1
 40
1
 10
91.444736
 20
10.218999
 30
0.0
 10
91.870689
 20
9.942383
 30
0.0
 10
92.169310
 20
9.507887
 30
0.0
 10
92.274907
 20
9.011096
 30
0.0
  0
SPLINE
  5
1c1
100
AcDbEntity
  8
Layer_1
 62
7
100
AcDbSpline
 70
8
 71
3
 72
8
 73
4
 74
0
 40
0
 40
0
 40
0
 40
0
 40
1
 40
1
 40
1
 40
1
 10
92.274907
 20
9.011096
 30
0.0
 10
92.380504
 20
8.514304
 30
0.0
 10
92.284425
 20
7.995912
 30
0.0
 10
92.007808
 20
7.569960
 30
0.0
  0
SPLINE
  5
1c2
100
AcDbEntity
  8
Layer_1
 62
7
100
AcDbSpline
 70
8
 71
3
 72
8
 73
4
 74
0
 40
0
 40
0
 40
0
 40
0
 40
1
 40
1
 40
1
 40
1
 10
92.007808
 20
7.569960
 30
0.0
 10
91.731191
 20
7.144007
 30
0.0
 10
91.296694
 20
6.845386
 30
0.0
 10
90.799903
 20
6.739791
 30
0.0
  0
SPLINE
  5
1c3
100
AcDbEntity
  8
Layer_1
 62
7
100
AcDbSpline
 70
8
 71
3
 72
8
 73
4
 74
0
 40
0
 40
0
 40
0
 40
0
 40
1
 40
1
 40
1
 40
1
 10
90.799903
 20
6.739791
 30
0.0
 10
89.765390
 20
6.519901
 30
0.0
 10
88.748495
 20
7.180282
 30
0.0
 10
88.528603
 20
8.214795
 30
0.0
  0
LWPOLYLINE
  5
1c4
100
AcDbEntity
  8
Layer_1
 62
7
100
AcDbPolyline
 90
1
 70
1
 10
95.220672
 20
10.186364
 30
0.0
  0
SPLINE
  5
1c5
100
AcDbEntity
  8
Layer_1
 62
7
100
AcDbSpline
 70
8
 71
3
 72
8
 73
4
 74
0
 40
0
 40
0
 40
0
 40
0
 40
1
 40
1
 40
1
 40
1
 10
81.667113
 20
6.953537
 30
0.0
 10
81.556563
 20
8.005365
 30
0.0
 10
82.319617
 20
8.947660
 30
0.0
 10
83.371445
 20
9.058215
 30
0.0
  0
SPLINE
  5
1c6
100
AcDbEntity
  8
Layer_1
 62
7
100
AcDbSpline
 70
8
 71
3
 72
8
 73
4
 74
0
 40
0
 40
0
 40
0
 40
0
 40
1
 40
1
 40
1
 40
1
 10
83.371445
 20
9.058215
 30
0.0
 10
84.423276
 20
9.168769
 30
0.0
 10
85.365575
 20
8.405712
 30
0.0
 10
85.476129
 20
7.353881
 30
0.0
  0
SPLINE
  5
1c7
100
AcDbEntity
  8
Layer_1
 62
7
100
AcDbSpline
 70
8
 71
3
 72
8
 73
4
 74
0
 40
0
 40
0
 40
0
 40
0
 40
1
 40
1
 40
1
 40
1
 10
85.476129
 20
7.353881
 30
0.0
 10
85.529219
 20
6.848772
 30
0.0
 10
85.379480
 20
6.343262
 30
0.0
 10
85.059854
 20
5.948556
 30
0.0
  0
SPLINE
  5
1c8
100
AcDbEntity
  8
Layer_1
 62
7
100
AcDbSpline
 70
8
 71
3
 72
8
 73
4
 74
0
 40
0
 40
0
 40
0
 40
0
 40
1
 40
1
 40
1
 40
1
 10
85.059854
 20
5.948556
 30
0.0
 10
84.740229
 20
5.553851
 30
0.0
 10
84.276897
 20
5.302283
 30
0.0
 10
83.771789
 20
5.249194
 30
0.0
  0
SPLINE
  5
1c9
100
AcDbEntity
  8
Layer_1
 62
7
100
AcDbSpline
 70
8
 71
3
 72
8
 73
4
 74
0
 40
0
 40
0
 40
0
 40
0
 40
1
 40
1
 40
1
 40
1
 10
83.771789
 20
5.249194
 30
0.0
 10
82.719957
 20
5.138646
 30
0.0
 10
81.777662
 20
5.901706
 30
0.0
 10
81.667113
 20
6.953537
 30
0.0
  0
LWPOLYLINE
  5
1ca
100
AcDbEntity
  8
Layer_1
 62
7
100
AcDbPolyline
 90
1
 70
1
 10
88.528603
 20
8.214795
 30
0.0
  0
SPLINE
  5
1cb
100
AcDbEntity
  8
Layer_1
 62
7
100
AcDbSpline
 70
8
 71
3
 72
8
 73
4
 74
0
 40
0
 40
0
 40
0
 40
0
 40
1
 40
1
 40
1
 40
1
 10
74.711370
 20
6.416406
 30
0.0
 10
74.711371
 20
7.474029
 30
0.0
 10
75.568743
 20
8.331403
 30
0.0
 10
76.626366
 20
8.331405
 30
0.0
  0
SPLINE
  5
1cc
100
AcDbEntity
  8
Layer_1
 62
7
100
AcDbSpline
 70
8
 71
3
 72
8
 73
4
 74
0
 40
0
 40
0
 40
0
 40
0
 40
1
 40
1
 40
1
 40
1
 10
76.626366
 20
8.331405
 30
0.0
 10
77.134256
 20
8.331406
 30
0.0
 10
77.621345
 20
8.129648
 30
0.0
 10
77.980477
 20
7.770516
 30
0.0
  0
SPLINE
  5
1cd
100
AcDbEntity
  8
Layer_1
 62
7
100
AcDbSpline
 70
8
 71
3
 72
8
 73
4
 74
0
 40
0
 40
0
 40
0
 40
0
 40
1
 40
1
 40
1
 40
1
 10
77.980477
 20
7.770516
 30
0.0
 10
78.339610
 20
7.411384
 30
0.0
 10
78.541370
 20
6.924296
 30
0.0
 10
78.541370
 20
6.416406
 30
0.0
  0
SPLINE
  5
1ce
100
AcDbEntity
  8
Layer_1
 62
7
100
AcDbSpline
 70
8
 71
3
 72
8
 73
4
 74
0
 40
0
 40
0
 40
0
 40
0
 40
1
 40
1
 40
1
 40
1
 10
78.541370
 20
6.416406
 30
0.0
 10
78.541370
 20
5.908516
 30
0.0
 10
78.339611
 20
5.421427
 30
0.0
 10
77.980478
 20
5.062295
 30
0.0
  0
SPLINE
  5
1cf
100
AcDbEntity
  8
Layer_1
 62
7
100
AcDbSpline
 70
8
 71
3
 72
8
 73
4
 74
0
 40
0
 40
0
 40
0
 40
0
 40
1
 40
1
 40
1
 40
1
 10
77.980478
 20
5.062295
 30
0.0
 10
77.621345
 20
4.703162
 30
0.0
 10
77.134257
 20
4.501404
 30
0.0
 10
76.626366
 20
4.501405
 30
0.0
  0
SPLINE
  5
1d0
100
AcDbEntity
  8
Layer_1
 62
7
100
AcDbSpline
 70
8
 71
3
 72
8
 73
4
 74
0
 40
0
 40
0
 40
0
 40
0
 40
1
 40
1
 40
1
 40
1
 10
76.626366
 20
4.501405
 30
0.0
 10
75.568742
 20
4.501408
 30
0.0
 10
74.711370
 20
5.358782
 30
0.0
 10
74.711370
 20
6.416406
 30
0.0
  0
LWPOLYLINE
  5
1d1
100
AcDbEntity
  8
Layer_1
 62
7
100
AcDbPolyline
 90
1
 70
1
 10
81.667113
 20
6.953537
 30
0.0
  0
SPLINE
  5
1d2
100
AcDbEntity
  8
Layer_1
 62
7
100
AcDbSpline
 70
8
 71
3
 72
8
 73
4
 74
0
 40
0
 40
0
 40
0
 40
0
 40
1
 40
1
 40
1
 40
1
 10
67.737588
 20
6.609293
 30
0.0
 10
67.848142
 20
7.661122
 30
0.0
 10
68.790437
 20
8.424178
 30
0.0
 10
69.842267
 20
8.313628
 30
0.0
  0
SPLINE
  5
1d3
100
AcDbEntity
  8
Layer_1
 62
7
100
AcDbSpline
 70
8
 71
3
 72
8
 73
4
 74
0
 40
0
 40
0
 40
0
 40
0
 40
1
 40
1
 40
1
 40
1
 10
69.842267
 20
8.313628
 30
0.0
 10
70.894098
 20
8.203075
 30
0.0
 10
71.657155
 20
7.260778
 30
0.0
 10
71.546604
 20
6.208947
 30
0.0
  0
SPLINE
  5
1d4
100
AcDbEntity
  8
Layer_1
 62
7
100
AcDbSpline
 70
8
 71
3
 72
8
 73
4
 74
0
 40
0
 40
0
 40
0
 40
0
 40
1
 40
1
 40
1
 40
1
 10
71.546604
 20
6.208947
 30
0.0
 10
71.436050
 20
5.157116
 30
0.0
 10
70.493753
 20
4.394060
 30
0.0
 10
69.441923
 20
4.504612
 30
0.0
  0
SPLINE
  5
1d5
100
AcDbEntity
  8
Layer_1
 62
7
100
AcDbSpline
 70
8
 71
3
 72
8
 73
4
 74
0
 40
0
 40
0
 40
0
 40
0
 40
1
 40
1
 40
1
 40
1
 10
69.441923
 20
4.504612
 30
0.0
 10
68.390093
 20
4.615165
 30
0.0
 10
67.627037
 20
5.557463
 30
0.0
 10
67.737588
 20
6.609293
 30
0.0
  0
LWPOLYLINE
  5
1d6
100
AcDbEntity
  8
Layer_1
 62
7
100
AcDbPolyline
 90
1
 70
1
 10
74.711370
 20
6.416406
 30
0.0
  0
SPLINE
  5
1d7
100
AcDbEntity
  8
Layer_1
 62
7
100
AcDbSpline
 70
8
 71
3
 72
8
 73
4
 74
0
 40
0
 40
0
 40
0
 40
0
 40
1
 40
1
 40
1
 40
1
 10
60.822171
 20
7.530080
 30
0.0
 10
61.042064
 20
8.564592
 30
0.0
 10
62.058958
 20
9.224972
 30
0.0
 10
63.093470
 20
9.005082
 30
0.0
  0
SPLINE
  5
1d8
100
AcDbEntity
  8
Layer_1
 62
7
100
AcDbSpline
 70
8
 71
3
 72
8
 73
4
 74
0
 40
0
 40
0
 40
0
 40
0
 40
1
 40
1
 40
1
 40
1
 10
63.093470
 20
9.005082
 30
0.0
 10
64.127983
 20
8.785189
 30
0.0
 10
64.788364
 20
7.768293
 30
0.0
 10
64.568472
 20
6.733779
 30
0.0
  0
SPLINE
  5
1d9
100
AcDbEntity
  8
Layer_1
 62
7
100
AcDbSpline
 70
8
 71
3
 72
8
 73
4
 74
0
 40
0
 40
0
 40
0
 40
0
 40
1
 40
1
 40
1
 40
1
 10
64.568472
 20
6.733779
 30
0.0
 10
64.462877
 20
6.236988
 30
0.0
 10
64.164256
 20
5.802491
 30
0.0
 10
63.738303
 20
5.525874
 30
0.0
  0
SPLINE
  5
1da
100
AcDbEntity
  8
Layer_1
 62
7
100
AcDbSpline
 70
8
 71
3
 72
8
 73
4
 74
0
 40
0
 40
0
 40
0
 40
0
 40
1
 40
1
 40
1
 40
1
 10
63.738303
 20
5.525874
 30
0.0
 10
63.312351
 20
5.249257
 30
0.0
 10
62.793959
 20
5.153178
 30
0.0
 10
62.297167
 20
5.258775
 30
0.0
  0
SPLINE
  5
1db
100
AcDbEntity
  8
Layer_1
 62
7
100
AcDbSpline
 70
8
 71
3
 72
8
 73
4
 74
0
 40
0
 40
0
 40
0
 40
0
 40
1
 40
1
 40
1
 40
1
 10
62.297167
 20
5.258775
 30
0.0
 10
61.262655
 20
5.478670
 30
0.0
 10
60.602277
 20
6.495568
 30
0.0
 10
60.822171
 20
7.530080
 30
0.0
  0
LWPOLYLINE
  5
1dc
100
AcDbEntity
  8
Layer_1
 62
7
100
AcDbPolyline
 90
1
 70
1
 10
67.737588
 20
6.609293
 30
0.0
  0
SPLINE
  5
1dd
100
AcDbEntity
  8
Layer_1
 62
7
100
AcDbSpline
 70
8
 71
3
 72
8
 73
4
 74
0
 40
0
 40
0
 40
0
 40
0
 40
1
 40
1
 40
1
 40
1
 10
11.525172
 20
98.643392
 30
0.0
 10
12.491359
 20
98.213217
 30
0.0
 10
12.925884
 20
97.081243
 30
0.0
 10
12.495712
 20
96.115055
 30
0.0
  0
SPLINE
  5
1de
100
AcDbEntity
  8
Layer_1
 62
7
100
AcDbSpline
 70
8
 71
3
 72
8
 73
4
 74
0
 40
0
 40
0
 40
0
 40
0
 40
1
 40
1
 40
1
 40
1
 10
12.495712
 20
96.115055
 30
0.0
 10
12.289135
 20
95.651074
 30
0.0
 10
11.906703
 20
95.288159
 30
0.0
 10
11.432547
 20
95.106147
 30
0.0
  0
SPLINE
  5
1df
100
AcDbEntity
  8
Layer_1
 62
7
100
AcDbSpline
 70
8
 71
3
 72
8
 73
4
 74
0
 40
0
 40
0
 40
0
 40
0
 40
1
 40
1
 40
1
 40
1
 10
11.432547
 20
95.106147
 30
0.0
 10
10.958391
 20
94.924135
 30
0.0
 10
10.431351
 20
94.937936
 30
0.0
 10
9.967370
 20
95.144513
 30
0.0
  0
SPLINE
  5
1e0
100
AcDbEntity
  8
Layer_1
 62
7
100
AcDbSpline
 70
8
 71
3
 72
8
 73
4
 74
0
 40
0
 40
0
 40
0
 40
0
 40
1
 40
1
 40
1
 40
1
 10
9.967370
 20
95.144513
 30
0.0
 10
9.503390
 20
95.351090
 30
0.0
 10
9.140475
 20
95.733523
 30
0.0
 10
8.958464
 20
96.207679
 30
0.0
  0
SPLINE
  5
1e1
100
AcDbEntity
  8
Layer_1
 62
7
100
AcDbSpline
 70
8
 71
3
 72
8
 73
4
 74
0
 40
0
 40
0
 40
0
 40
0
 40
1
 40
1
 40
1
 40
1
 10
8.958464
 20
96.207679
 30
0.0
 10
8.776452
 20
96.681835
 30
0.0
 10
8.790254
 20
97.208875
 30
0.0
 10
8.996831
 20
97.672856
 30
0.0
  0
SPLINE
  5
1e2
100
AcDbEntity
  8
Layer_1
 62
7
100
AcDbSpline
 70
8
 71
3
 72
8
 73
4
 74
0
 40
0
 40
0
 40
0
 40
0
 40
1
 40
1
 40
1
 40
1
 10
8.996831
 20
97.672856
 30
0.0
 10
9.427008
 20
98.639044
 30
0.0
 10
10.558984
 20
99.073567
 30
0.0
 10
11.525172
 20
98.643392
 30
0.0
  0
LWPOLYLINE
  5
1e3
100
AcDbEntity
  8
Layer_1
 62
7
100
AcDbPolyline
 90
1
 70
1
 10
60.822171
 20
7.530080
 30
0.0
  0
SPLINE
  5
1e4
100
AcDbEntity
  8
Layer_1
 62
7
100
AcDbSpline
 70
8
 71
3
 72
8
 73
4
 74
0
 40
0
 40
0
 40
0
 40
0
 40
1
 40
1
 40
1
 40
1
 10
14.537877
 20
104.935803
 30
0.0
 10
15.453804
 20
104.406991
 30
0.0
 10
15.767625
 20
103.235800
 30
0.0
 10
15.238816
 20
102.319870
 30
0.0
  0
SPLINE
  5
1e5
100
AcDbEntity
  8
Layer_1
 62
7
100
AcDbSpline
 70
8
 71
3
 72
8
 73
4
 74
0
 40
0
 40
0
 40
0
 40
0
 40
1
 40
1
 40
1
 40
1
 10
15.238816
 20
102.319870
 30
0.0
 10
14.710004
 20
101.403940
 30
0.0
 10
13.538809
 20
101.090119
 30
0.0
 10
12.622878
 20
101.618931
 30
0.0
  0
SPLINE
  5
1e6
100
AcDbEntity
  8
Layer_1
 62
7
100
AcDbSpline
 70
8
 71
3
 72
8
 73
4
 74
0
 40
0
 40
0
 40
0
 40
0
 40
1
 40
1
 40
1
 40
1
 10
12.622878
 20
101.618931
 30
0.0
 10
11.706947
 20
102.147743
 30
0.0
 10
11.393125
 20
103.318938
 30
0.0
 10
11.921936
 20
104.234869
 30
0.0
  0
SPLINE
  5
1e7
100
AcDbEntity
  8
Layer_1
 62
7
100
AcDbSpline
 70
8
 71
3
 72
8
 73
4
 74
0
 40
0
 40
0
 40
0
 40
0
 40
1
 40
1
 40
1
 40
1
 10
11.921936
 20
104.234869
 30
0.0
 10
12.175882
 20
104.674714
 30
0.0
 10
12.594154
 20
104.995665
 30
0.0
 10
13.084738
 20
105.127115
 30
0.0
  0
SPLINE
  5
1e8
100
AcDbEntity
  8
Layer_1
 62
7
100
AcDbSpline
 70
8
 71
3
 72
8
 73
4
 74
0
 40
0
 40
0
 40
0
 40
0
 40
1
 40
1
 40
1
 40
1
 10
13.084738
 20
105.127115
 30
0.0
 10
13.575322
 20
105.258566
 30
0.0
 10
14.098032
 20
105.189749
 30
0.0
 10
14.537877
 20
104.935803
 30
0.0
  0
LWPOLYLINE
  5
1e9
100
AcDbEntity
  8
Layer_1
 62
7
100
AcDbPolyline
 90
1
 70
1
 10
11.525172
 20
98.643392
 30
0.0
  0
SPLINE
  5
1ea
100
AcDbEntity
  8
Layer_1
 62
7
100
AcDbSpline
 70
8
 71
3
 72
8
 73
4
 74
0
 40
0
 40
0
 40
0
 40
0
 40
1
 40
1
 40
1
 40
1
 10
18.191813
 20
110.878829
 30
0.0
 10
19.047443
 20
110.257172
 30
0.0
 10
19.237120
 20
109.059596
 30
0.0
 10
18.615469
 20
108.203961
 30
0.0
  0
SPLINE
  5
1eb
100
AcDbEntity
  8
Layer_1
 62
7
100
AcDbSpline
 70
8
 71
3
 72
8
 73
4
 74
0
 40
0
 40
0
 40
0
 40
0
 40
1
 40
1
 40
1
 40
1
 10
18.615469
 20
108.203961
 30
0.0
 10
17.993813
 20
107.348325
 30
0.0
 10
16.796232
 20
107.158645
 30
0.0
 10
15.940595
 20
107.780299
 30
0.0
  0
SPLINE
  5
1ec
100
AcDbEntity
  8
Layer_1
 62
7
100
AcDbSpline
 70
8
 71
3
 72
8
 73
4
 74
0
 40
0
 40
0
 40
0
 40
0
 40
1
 40
1
 40
1
 40
1
 10
15.940595
 20
107.780299
 30
0.0
 10
15.084958
 20
108.401956
 30
0.0
 10
14.895279
 20
109.599539
 30
0.0
 10
15.516936
 20
110.455176
 30
0.0
  0
SPLINE
  5
1ed
100
AcDbEntity
  8
Layer_1
 62
7
100
AcDbSpline
 70
8
 71
3
 72
8
 73
4
 74
0
 40
0
 40
0
 40
0
 40
0
 40
1
 40
1
 40
1
 40
1
 10
15.516936
 20
110.455176
 30
0.0
 10
16.138594
 20
111.310811
 30
0.0
 10
17.336177
 20
111.500487
 30
0.0
 10
18.191813
 20
110.878829
 30
0.0
  0
LWPOLYLINE
  5
1ee
100
AcDbEntity
  8
Layer_1
 62
7
100
AcDbPolyline
 90
1
 70
1
 10
14.537877
 20
104.935803
 30
0.0
  0
SPLINE
  5
1ef
100
AcDbEntity
  8
Layer_1
 62
7
100
AcDbSpline
 70
8
 71
3
 72
8
 73
4
 74
0
 40
0
 40
0
 40
0
 40
0
 40
1
 40
1
 40
1
 40
1
 10
22.446945
 20
116.407365
 30
0.0
 10
23.232911
 20
115.699676
 30
0.0
 10
23.296370
 20
114.488831
 30
0.0
 10
22.588685
 20
113.702862
 30
0.0
  0
SPLINE
  5
1f0
100
AcDbEntity
  8
Layer_1
 62
7
100
AcDbSpline
 70
8
 71
3
 72
8
 73
4
 74
0
 40
0
 40
0
 40
0
 40
0
 40
1
 40
1
 40
1
 40
1
 10
22.588685
 20
113.702862
 30
0.0
 10
21.880997
 20
112.916892
 30
0.0
 10
20.670148
 20
112.853432
 30
0.0
 10
19.884178
 20
113.561120
 30
0.0
  0
SPLINE
  5
1f1
100
AcDbEntity
  8
Layer_1
 62
7
100
AcDbSpline
 70
8
 71
3
 72
8
 73
4
 74
0
 40
0
 40
0
 40
0
 40
0
 40
1
 40
1
 40
1
 40
1
 10
19.884178
 20
113.561120
 30
0.0
 10
19.506741
 20
113.900965
 30
0.0
 10
19.279766
 20
114.376827
 30
0.0
 10
19.253185
 20
114.884021
 30
0.0
  0
SPLINE
  5
1f2
100
AcDbEntity
  8
Layer_1
 62
7
100
AcDbSpline
 70
8
 71
3
 72
8
 73
4
 74
0
 40
0
 40
0
 40
0
 40
0
 40
1
 40
1
 40
1
 40
1
 10
19.253185
 20
114.884021
 30
0.0
 10
19.226604
 20
115.391216
 30
0.0
 10
19.402594
 20
115.888197
 30
0.0
 10
19.742440
 20
116.265633
 30
0.0
  0
SPLINE
  5
1f3
100
AcDbEntity
  8
Layer_1
 62
7
100
AcDbSpline
 70
8
 71
3
 72
8
 73
4
 74
0
 40
0
 40
0
 40
0
 40
0
 40
1
 40
1
 40
1
 40
1
 10
19.742440
 20
116.265633
 30
0.0
 10
20.450131
 20
117.051598
 30
0.0
 10
21.660978
 20
117.115053
 30
0.0
 10
22.446945
 20
116.407365
 30
0.0
  0
LWPOLYLINE
  5
1f4
100
AcDbEntity
  8
Layer_1
 62
7
100
AcDbPolyline
 90
1
 70
1
 10
18.191813
 20
110.878829
 30
0.0
  0
SPLINE
  5
1f5
100
AcDbEntity
  8
Layer_1
 62
7
100
AcDbSpline
 70
8
 71
3
 72
8
 73
4
 74
0
 40
0
 40
0
 40
0
 40
0
 40
1
 40
1
 40
1
 40
1
 10
27.256659
 20
121.460831
 30
0.0
 10
27.964348
 20
120.674863
 30
0.0
 10
27.900890
 20
119.464014
 30
0.0
 10
27.114922
 20
118.756325
 30
0.0
  0
SPLINE
  5
1f6
100
AcDbEntity
  8
Layer_1
 62
7
100
AcDbSpline
 70
8
 71
3
 72
8
 73
4
 74
0
 40
0
 40
0
 40
0
 40
0
 40
1
 40
1
 40
1
 40
1
 10
27.114922
 20
118.756325
 30
0.0
 10
26.328954
 20
118.048636
 30
0.0
 10
25.118106
 20
118.112093
 30
0.0
 10
24.410415
 20
118.898060
 30
0.0
  0
SPLINE
  5
1f7
100
AcDbEntity
  8
Layer_1
 62
7
100
AcDbSpline
 70
8
 71
3
 72
8
 73
4
 74
0
 40
0
 40
0
 40
0
 40
0
 40
1
 40
1
 40
1
 40
1
 10
24.410415
 20
118.898060
 30
0.0
 10
24.070569
 20
119.275496
 30
0.0
 10
23.894578
 20
119.772476
 30
0.0
 10
23.921159
 20
120.279672
 30
0.0
  0
SPLINE
  5
1f8
100
AcDbEntity
  8
Layer_1
 62
7
100
AcDbSpline
 70
8
 71
3
 72
8
 73
4
 74
0
 40
0
 40
0
 40
0
 40
0
 40
1
 40
1
 40
1
 40
1
 10
23.921159
 20
120.279672
 30
0.0
 10
23.947740
 20
120.786867
 30
0.0
 10
24.174715
 20
121.262729
 30
0.0
 10
24.552153
 20
121.602574
 30
0.0
  0
SPLINE
  5
1f9
100
AcDbEntity
  8
Layer_1
 62
7
100
AcDbSpline
 70
8
 71
3
 72
8
 73
4
 74
0
 40
0
 40
0
 40
0
 40
0
 40
1
 40
1
 40
1
 40
1
 10
24.552153
 20
121.602574
 30
0.0
 10
25.338123
 20
122.310261
 30
0.0
 10
26.548971
 20
122.246801
 30
0.0
 10
27.256659
 20
121.460831
 30
0.0
  0
LWPOLYLINE
  5
1fa
100
AcDbEntity
  8
Layer_1
 62
7
100
AcDbPolyline
 90
1
 70
1
 10
22.446945
 20
116.407365
 30
0.0
  0
SPLINE
  5
1fb
100
AcDbEntity
  8
Layer_1
 62
7
100
AcDbSpline
 70
8
 71
3
 72
8
 73
4
 74
0
 40
0
 40
0
 40
0
 40
0
 40
1
 40
1
 40
1
 40
1
 10
32.568257
 20
125.983862
 30
0.0
 10
33.189914
 20
125.128225
 30
0.0
 10
33.000235
 20
123.930642
 30
0.0
 10
32.144598
 20
123.308986
 30
0.0
  0
SPLINE
  5
1fc
100
AcDbEntity
  8
Layer_1
 62
7
100
AcDbSpline
 70
8
 71
3
 72
8
 73
4
 74
0
 40
0
 40
0
 40
0
 40
0
 40
1
 40
1
 40
1
 40
1
 10
32.144598
 20
123.308986
 30
0.0
 10
31.288962
 20
122.687329
 30
0.0
 10
30.091379
 20
122.877006
 30
0.0
 10
29.469722
 20
123.732642
 30
0.0
  0
SPLINE
  5
1fd
100
AcDbEntity
  8
Layer_1
 62
7
100
AcDbSpline
 70
8
 71
3
 72
8
 73
4
 74
0
 40
0
 40
0
 40
0
 40
0
 40
1
 40
1
 40
1
 40
1
 10
29.469722
 20
123.732642
 30
0.0
 10
29.171190
 20
124.143534
 30
0.0
 10
29.048112
 20
124.656188
 30
0.0
 10
29.127563
 20
125.157826
 30
0.0
  0
SPLINE
  5
1fe
100
AcDbEntity
  8
Layer_1
 62
7
100
AcDbSpline
 70
8
 71
3
 72
8
 73
4
 74
0
 40
0
 40
0
 40
0
 40
0
 40
1
 40
1
 40
1
 40
1
 10
29.127563
 20
125.157826
 30
0.0
 10
29.207015
 20
125.659464
 30
0.0
 10
29.482488
 20
126.108994
 30
0.0
 10
29.893380
 20
126.407524
 30
0.0
  0
SPLINE
  5
1ff
100
AcDbEntity
  8
Layer_1
 62
7
100
AcDbSpline
 70
8
 71
3
 72
8
 73
4
 74
0
 40
0
 40
0
 40
0
 40
0
 40
1
 40
1
 40
1
 40
1
 10
29.893380
 20
126.407524
 30
0.0
 10
30.749018
 20
127.029180
 30
0.0
 10
31.946601
 20
126.839500
 30
0.0
 10
32.568257
 20
125.983862
 30
0.0
  0
LWPOLYLINE
  5
200
100
AcDbEntity
  8
Layer_1
 62
7
100
AcDbPolyline
 90
1
 70
1
 10
27.256659
 20
121.460831
 30
0.0
  0
SPLINE
  5
201
100
AcDbEntity
  8
Layer_1
 62
7
100
AcDbSpline
 70
8
 71
3
 72
8
 73
4
 74
0
 40
0
 40
0
 40
0
 40
0
 40
1
 40
1
 40
1
 40
1
 10
38.323538
 20
129.926897
 30
0.0
 10
38.852348
 20
129.010968
 30
0.0
 10
38.538529
 20
127.839777
 30
0.0
 10
37.622603
 20
127.310962
 30
0.0
  0
SPLINE
  5
202
100
AcDbEntity
  8
Layer_1
 62
7
100
AcDbSpline
 70
8
 71
3
 72
8
 73
4
 74
0
 40
0
 40
0
 40
0
 40
0
 40
1
 40
1
 40
1
 40
1
 10
37.622603
 20
127.310962
 30
0.0
 10
37.182758
 20
127.057017
 30
0.0
 10
36.660048
 20
126.988200
 30
0.0
 10
36.169464
 20
127.119652
 30
0.0
  0
SPLINE
  5
203
100
AcDbEntity
  8
Layer_1
 62
7
100
AcDbSpline
 70
8
 71
3
 72
8
 73
4
 74
0
 40
0
 40
0
 40
0
 40
0
 40
1
 40
1
 40
1
 40
1
 10
36.169464
 20
127.119652
 30
0.0
 10
35.678880
 20
127.251103
 30
0.0
 10
35.260608
 20
127.572054
 30
0.0
 10
35.006662
 20
128.011899
 30
0.0
  0
SPLINE
  5
204
100
AcDbEntity
  8
Layer_1
 62
7
100
AcDbSpline
 70
8
 71
3
 72
8
 73
4
 74
0
 40
0
 40
0
 40
0
 40
0
 40
1
 40
1
 40
1
 40
1
 10
35.006662
 20
128.011899
 30
0.0
 10
34.477850
 20
128.927829
 30
0.0
 10
34.791670
 20
130.099025
 30
0.0
 10
35.707599
 20
130.627838
 30
0.0
  0
SPLINE
  5
205
100
AcDbEntity
  8
Layer_1
 62
7
100
AcDbSpline
 70
8
 71
3
 72
8
 73
4
 74
0
 40
0
 40
0
 40
0
 40
0
 40
1
 40
1
 40
1
 40
1
 10
35.707599
 20
130.627838
 30
0.0
 10
36.623530
 20
131.156650
 30
0.0
 10
37.794726
 20
130.842827
 30
0.0
 10
38.323538
 20
129.926897
 30
0.0
  0
LWPOLYLINE
  5
206
100
AcDbEntity
  8
Layer_1
 62
7
100
AcDbPolyline
 90
1
 70
1
 10
32.568257
 20
125.983862
 30
0.0
  0
SPLINE
  5
207
100
AcDbEntity
  8
Layer_1
 62
7
100
AcDbSpline
 70
8
 71
3
 72
8
 73
4
 74
0
 40
0
 40
0
 40
0
 40
0
 40
1
 40
1
 40
1
 40
1
 10
44.459453
 20
133.246746
 30
0.0
 10
44.889625
 20
132.280560
 30
0.0
 10
44.455103
 20
131.148587
 30
0.0
 10
43.488919
 20
130.718410
 30
0.0
  0
SPLINE
  5
208
100
AcDbEntity
  8
Layer_1
 62
7
100
AcDbSpline
 70
8
 71
3
 72
8
 73
4
 74
0
 40
0
 40
0
 40
0
 40
0
 40
1
 40
1
 40
1
 40
1
 10
43.488919
 20
130.718410
 30
0.0
 10
43.024939
 20
130.511832
 30
0.0
 10
42.497899
 20
130.498030
 30
0.0
 10
42.023743
 20
130.680041
 30
0.0
  0
SPLINE
  5
209
100
AcDbEntity
  8
Layer_1
 62
7
100
AcDbSpline
 70
8
 71
3
 72
8
 73
4
 74
0
 40
0
 40
0
 40
0
 40
0
 40
1
 40
1
 40
1
 40
1
 10
42.023743
 20
130.680041
 30
0.0
 10
41.549587
 20
130.862052
 30
0.0
 10
41.167154
 20
131.224966
 30
0.0
 10
40.960576
 20
131.688946
 30
0.0
  0
SPLINE
  5
20a
100
AcDbEntity
  8
Layer_1
 62
7
100
AcDbSpline
 70
8
 71
3
 72
8
 73
4
 74
0
 40
0
 40
0
 40
0
 40
0
 40
1
 40
1
 40
1
 40
1
 10
40.960576
 20
131.688946
 30
0.0
 10
40.753998
 20
132.152927
 30
0.0
 10
40.740198
 20
132.679967
 30
0.0
 10
40.922210
 20
133.154124
 30
0.0
  0
SPLINE
  5
20b
100
AcDbEntity
  8
Layer_1
 62
7
100
AcDbSpline
 70
8
 71
3
 72
8
 73
4
 74
0
 40
0
 40
0
 40
0
 40
0
 40
1
 40
1
 40
1
 40
1
 10
40.922210
 20
133.154124
 30
0.0
 10
41.104222
 20
133.628280
 30
0.0
 10
41.467137
 20
134.010712
 30
0.0
 10
41.931118
 20
134.217289
 30
0.0
  0
SPLINE
  5
20c
100
AcDbEntity
  8
Layer_1
 62
7
100
AcDbSpline
 70
8
 71
3
 72
8
 73
4
 74
0
 40
0
 40
0
 40
0
 40
0
 40
1
 40
1
 40
1
 40
1
 10
41.931118
 20
134.217289
 30
0.0
 10
42.897307
 20
134.647459
 30
0.0
 10
44.029279
 20
134.212933
 30
0.0
 10
44.459453
 20
133.246746
 30
0.0
  0
LWPOLYLINE
  5
20d
100
AcDbEntity
  8
Layer_1
 62
7
100
AcDbPolyline
 90
1
 70
1
 10
38.323538
 20
129.926897
 30
0.0
  0
SPLINE
  5
20e
100
AcDbEntity
  8
Layer_1
 62
7
100
AcDbSpline
 70
8
 71
3
 72
8
 73
4
 74
0
 40
0
 40
0
 40
0
 40
0
 40
1
 40
1
 40
1
 40
1
 10
50.908775
 20
135.907028
 30
0.0
 10
51.235597
 20
134.901168
 30
0.0
 10
50.685131
 20
133.820815
 30
0.0
 10
49.679272
 20
133.493990
 30
0.0
  0
SPLINE
  5
20f
100
AcDbEntity
  8
Layer_1
 62
7
100
AcDbSpline
 70
8
 71
3
 72
8
 73
4
 74
0
 40
0
 40
0
 40
0
 40
0
 40
1
 40
1
 40
1
 40
1
 10
49.679272
 20
133.493990
 30
0.0
 10
48.673411
 20
133.167165
 30
0.0
 10
47.593055
 20
133.717633
 30
0.0
 10
47.266230
 20
134.723494
 30
0.0
  0
SPLINE
  5
210
100
AcDbEntity
  8
Layer_1
 62
7
100
AcDbSpline
 70
8
 71
3
 72
8
 73
4
 74
0
 40
0
 40
0
 40
0
 40
0
 40
1
 40
1
 40
1
 40
1
 10
47.266230
 20
134.723494
 30
0.0
 10
46.939407
 20
135.729356
 30
0.0
 10
47.489876
 20
136.809710
 30
0.0
 10
48.495738
 20
137.136534
 30
0.0
  0
SPLINE
  5
211
100
AcDbEntity
  8
Layer_1
 62
7
100
AcDbSpline
 70
8
 71
3
 72
8
 73
4
 74
0
 40
0
 40
0
 40
0
 40
0
 40
1
 40
1
 40
1
 40
1
 10
48.495738
 20
137.136534
 30
0.0
 10
49.501598
 20
137.463355
 30
0.0
 10
50.581951
 20
136.912887
 30
0.0
 10
50.908775
 20
135.907028
 30
0.0
  0
LWPOLYLINE
  5
212
100
AcDbEntity
  8
Layer_1
 62
7
100
AcDbPolyline
 90
1
 70
1
 10
44.459453
 20
133.246746
 30
0.0
  0
SPLINE
  5
213
100
AcDbEntity
  8
Layer_1
 62
7
100
AcDbSpline
 70
8
 71
3
 72
8
 73
4
 74
0
 40
0
 40
0
 40
0
 40
0
 40
1
 40
1
 40
1
 40
1
 10
57.600842
 20
137.878601
 30
0.0
 10
57.820733
 20
136.844090
 30
0.0
 10
57.160356
 20
135.827195
 30
0.0
 10
56.125845
 20
135.607300
 30
0.0
  0
SPLINE
  5
214
100
AcDbEntity
  8
Layer_1
 62
7
100
AcDbSpline
 70
8
 71
3
 72
8
 73
4
 74
0
 40
0
 40
0
 40
0
 40
0
 40
1
 40
1
 40
1
 40
1
 10
56.125845
 20
135.607300
 30
0.0
 10
55.091332
 20
135.387406
 30
0.0
 10
54.074435
 20
136.047785
 30
0.0
 10
53.854540
 20
137.082297
 30
0.0
  0
SPLINE
  5
215
100
AcDbEntity
  8
Layer_1
 62
7
100
AcDbSpline
 70
8
 71
3
 72
8
 73
4
 74
0
 40
0
 40
0
 40
0
 40
0
 40
1
 40
1
 40
1
 40
1
 10
53.854540
 20
137.082297
 30
0.0
 10
53.748944
 20
137.579089
 30
0.0
 10
53.845022
 20
138.097481
 30
0.0
 10
54.121638
 20
138.523433
 30
0.0
  0
SPLINE
  5
216
100
AcDbEntity
  8
Layer_1
 62
7
100
AcDbSpline
 70
8
 71
3
 72
8
 73
4
 74
0
 40
0
 40
0
 40
0
 40
0
 40
1
 40
1
 40
1
 40
1
 10
54.121638
 20
138.523433
 30
0.0
 10
54.398255
 20
138.949386
 30
0.0
 10
54.832751
 20
139.248007
 30
0.0
 10
55.329542
 20
139.353603
 30
0.0
  0
SPLINE
  5
217
100
AcDbEntity
  8
Layer_1
 62
7
100
AcDbSpline
 70
8
 71
3
 72
8
 73
4
 74
0
 40
0
 40
0
 40
0
 40
0
 40
1
 40
1
 40
1
 40
1
 10
55.329542
 20
139.353603
 30
0.0
 10
56.364054
 20
139.573493
 30
0.0
 10
57.380949
 20
138.913113
 30
0.0
 10
57.600842
 20
137.878601
 30
0.0
  0
LWPOLYLINE
  5
218
100
AcDbEntity
  8
Layer_1
 62
7
100
AcDbPolyline
 90
1
 70
1
 10
50.908775
 20
135.907028
 30
0.0
  0
SPLINE
  5
219
100
AcDbEntity
  8
Layer_1
 62
7
100
AcDbSpline
 70
8
 71
3
 72
8
 73
4
 74
0
 40
0
 40
0
 40
0
 40
0
 40
1
 40
1
 40
1
 40
1
 10
64.462332
 20
139.139862
 30
0.0
 10
64.572885
 20
138.088031
 30
0.0
 10
63.809830
 20
137.145732
 30
0.0
 10
62.758000
 20
137.035177
 30
0.0
  0
SPLINE
  5
21a
100
AcDbEntity
  8
Layer_1
 62
7
100
AcDbSpline
 70
8
 71
3
 72
8
 73
4
 74
0
 40
0
 40
0
 40
0
 40
0
 40
1
 40
1
 40
1
 40
1
 10
62.758000
 20
137.035177
 30
0.0
 10
61.706168
 20
136.924624
 30
0.0
 10
60.763870
 20
137.687681
 30
0.0
 10
60.653316
 20
138.739512
 30
0.0
  0
SPLINE
  5
21b
100
AcDbEntity
  8
Layer_1
 62
7
100
AcDbSpline
 70
8
 71
3
 72
8
 73
4
 74
0
 40
0
 40
0
 40
0
 40
0
 40
1
 40
1
 40
1
 40
1
 10
60.653316
 20
138.739512
 30
0.0
 10
60.600226
 20
139.244621
 30
0.0
 10
60.749965
 20
139.750131
 30
0.0
 10
61.069591
 20
140.144836
 30
0.0
  0
SPLINE
  5
21c
100
AcDbEntity
  8
Layer_1
 62
7
100
AcDbSpline
 70
8
 71
3
 72
8
 73
4
 74
0
 40
0
 40
0
 40
0
 40
0
 40
1
 40
1
 40
1
 40
1
 10
61.069591
 20
140.144836
 30
0.0
 10
61.389216
 20
140.539541
 30
0.0
 10
61.852548
 20
140.791109
 30
0.0
 10
62.357656
 20
140.844198
 30
0.0
  0
SPLINE
  5
21d
100
AcDbEntity
  8
Layer_1
 62
7
100
AcDbSpline
 70
8
 71
3
 72
8
 73
4
 74
0
 40
0
 40
0
 40
0
 40
0
 40
1
 40
1
 40
1
 40
1
 10
62.357656
 20
140.844198
 30
0.0
 10
63.409485
 20
140.954746
 30
0.0
 10
64.351779
 20
140.191690
 30
0.0
 10
64.462332
 20
139.139862
 30
0.0
  0
LWPOLYLINE
  5
21e
100
AcDbEntity
  8
Layer_1
 62
7
100
AcDbPolyline
 90
1
 70
1
 10
57.600842
 20
137.878601
 30
0.0
  0
SPLINE
  5
21f
100
AcDbEntity
  8
Layer_1
 62
7
100
AcDbSpline
 70
8
 71
3
 72
8
 73
4
 74
0
 40
0
 40
0
 40
0
 40
0
 40
1
 40
1
 40
1
 40
1
 10
71.418077
 20
139.676988
 30
0.0
 10
71.418076
 20
138.619366
 30
0.0
 10
70.560705
 20
137.761994
 30
0.0
 10
69.503084
 20
137.761990
 30
0.0
  0
SPLINE
  5
220
100
AcDbEntity
  8
Layer_1
 62
7
100
AcDbSpline
 70
8
 71
3
 72
8
 73
4
 74
0
 40
0
 40
0
 40
0
 40
0
 40
1
 40
1
 40
1
 40
1
 10
69.503084
 20
137.761990
 30
0.0
 10
68.995194
 20
137.761989
 30
0.0
 10
68.508105
 20
137.963746
 30
0.0
 10
68.148971
 20
138.322878
 30
0.0
  0
SPLINE
  5
221
100
AcDbEntity
  8
Layer_1
 62
7
100
AcDbSpline
 70
8
 71
3
 72
8
 73
4
 74
0
 40
0
 40
0
 40
0
 40
0
 40
1
 40
1
 40
1
 40
1
 10
68.148971
 20
138.322878
 30
0.0
 10
67.789838
 20
138.682010
 30
0.0
 10
67.588078
 20
139.169098
 30
0.0
 10
67.588077
 20
139.676988
 30
0.0
  0
SPLINE
  5
222
100
AcDbEntity
  8
Layer_1
 62
7
100
AcDbSpline
 70
8
 71
3
 72
8
 73
4
 74
0
 40
0
 40
0
 40
0
 40
0
 40
1
 40
1
 40
1
 40
1
 10
67.588077
 20
139.676988
 30
0.0
 10
67.588077
 20
140.184879
 30
0.0
 10
67.789836
 20
140.671967
 30
0.0
 10
68.148969
 20
141.031100
 30
0.0
  0
SPLINE
  5
223
100
AcDbEntity
  8
Layer_1
 62
7
100
AcDbSpline
 70
8
 71
3
 72
8
 73
4
 74
0
 40
0
 40
0
 40
0
 40
0
 40
1
 40
1
 40
1
 40
1
 10
68.148969
 20
141.031100
 30
0.0
 10
68.508102
 20
141.390232
 30
0.0
 10
68.995191
 20
141.591990
 30
0.0
 10
69.503081
 20
141.591990
 30
0.0
  0
SPLINE
  5
224
100
AcDbEntity
  8
Layer_1
 62
7
100
AcDbSpline
 70
8
 71
3
 72
8
 73
4
 74
0
 40
0
 40
0
 40
0
 40
0
 40
1
 40
1
 40
1
 40
1
 10
69.503081
 20
141.591990
 30
0.0
 10
70.560706
 20
141.591987
 30
0.0
 10
71.418078
 20
140.734612
 30
0.0
 10
71.418077
 20
139.676988
 30
0.0
  0
LWPOLYLINE
  5
225
100
AcDbEntity
  8
Layer_1
 62
7
100
AcDbPolyline
 90
1
 70
1
 10
64.462332
 20
139.139862
 30
0.0
  0
SPLINE
  5
226
100
AcDbEntity
  8
Layer_1
 62
7
100
AcDbSpline
 70
8
 71
3
 72
8
 73
4
 74
0
 40
0
 40
0
 40
0
 40
0
 40
1
 40
1
 40
1
 40
1
 10
12.864676
 20
44.441430
 30
0.0
 10
13.830864
 20
44.871605
 30
0.0
 10
14.962839
 20
44.437081
 30
0.0
 10
15.393016
 20
43.470894
 30
0.0
  0
SPLINE
  5
227
100
AcDbEntity
  8
Layer_1
 62
7
100
AcDbSpline
 70
8
 71
3
 72
8
 73
4
 74
0
 40
0
 40
0
 40
0
 40
0
 40
1
 40
1
 40
1
 40
1
 10
15.393016
 20
43.470894
 30
0.0
 10
15.599594
 20
43.006913
 30
0.0
 10
15.613396
 20
42.479872
 30
0.0
 10
15.431384
 20
42.005715
 30
0.0
  0
SPLINE
  5
228
100
AcDbEntity
  8
Layer_1
 62
7
100
AcDbSpline
 70
8
 71
3
 72
8
 73
4
 74
0
 40
0
 40
0
 40
0
 40
0
 40
1
 40
1
 40
1
 40
1
 10
15.431384
 20
42.005715
 30
0.0
 10
15.249373
 20
41.531558
 30
0.0
 10
14.886458
 20
41.149126
 30
0.0
 10
14.422476
 20
40.942548
 30
0.0
  0
SPLINE
  5
229
100
AcDbEntity
  8
Layer_1
 62
7
100
AcDbSpline
 70
8
 71
3
 72
8
 73
4
 74
0
 40
0
 40
0
 40
0
 40
0
 40
1
 40
1
 40
1
 40
1
 10
14.422476
 20
40.942548
 30
0.0
 10
13.958495
 20
40.735971
 30
0.0
 10
13.431455
 20
40.722170
 30
0.0
 10
12.957299
 20
40.904182
 30
0.0
  0
SPLINE
  5
22a
100
AcDbEntity
  8
Layer_1
 62
7
100
AcDbSpline
 70
8
 71
3
 72
8
 73
4
 74
0
 40
0
 40
0
 40
0
 40
0
 40
1
 40
1
 40
1
 40
1
 10
12.957299
 20
40.904182
 30
0.0
 10
12.483143
 20
41.086194
 30
0.0
 10
12.100710
 20
41.449109
 30
0.0
 10
11.894134
 20
41.913090
 30
0.0
  0
SPLINE
  5
22b
100
AcDbEntity
  8
Layer_1
 62
7
100
AcDbSpline
 70
8
 71
3
 72
8
 73
4
 74
0
 40
0
 40
0
 40
0
 40
0
 40
1
 40
1
 40
1
 40
1
 10
11.894134
 20
41.913090
 30
0.0
 10
11.463960
 20
42.879280
 30
0.0
 10
11.898486
 20
44.011256
 30
0.0
 10
12.864676
 20
44.441430
 30
0.0
  0
LWPOLYLINE
  5
22c
100
AcDbEntity
  8
Layer_1
 62
7
100
AcDbPolyline
 90
1
 70
1
 10
71.418077
 20
139.676988
 30
0.0
  0
SPLINE
  5
22d
100
AcDbEntity
  8
Layer_1
 62
7
100
AcDbSpline
 70
8
 71
3
 72
8
 73
4
 74
0
 40
0
 40
0
 40
0
 40
0
 40
1
 40
1
 40
1
 40
1
 10
10.204393
 20
50.890750
 30
0.0
 10
11.210253
 20
51.217574
 30
0.0
 10
12.290607
 20
50.667107
 30
0.0
 10
12.617433
 20
49.661247
 30
0.0
  0
SPLINE
  5
22e
100
AcDbEntity
  8
Layer_1
 62
7
100
AcDbSpline
 70
8
 71
3
 72
8
 73
4
 74
0
 40
0
 40
0
 40
0
 40
0
 40
1
 40
1
 40
1
 40
1
 10
12.617433
 20
49.661247
 30
0.0
 10
12.944256
 20
48.655386
 30
0.0
 10
12.393788
 20
47.575032
 30
0.0
 10
11.387928
 20
47.248207
 30
0.0
  0
SPLINE
  5
22f
100
AcDbEntity
  8
Layer_1
 62
7
100
AcDbSpline
 70
8
 71
3
 72
8
 73
4
 74
0
 40
0
 40
0
 40
0
 40
0
 40
1
 40
1
 40
1
 40
1
 10
11.387928
 20
47.248207
 30
0.0
 10
10.904895
 20
47.091260
 30
0.0
 10
10.379300
 20
47.132625
 30
0.0
 10
9.926766
 20
47.363202
 30
0.0
  0
SPLINE
  5
230
100
AcDbEntity
  8
Layer_1
 62
7
100
AcDbSpline
 70
8
 71
3
 72
8
 73
4
 74
0
 40
0
 40
0
 40
0
 40
0
 40
1
 40
1
 40
1
 40
1
 10
9.926766
 20
47.363202
 30
0.0
 10
9.474233
 20
47.593779
 30
0.0
 10
9.131830
 20
47.994680
 30
0.0
 10
8.974883
 20
48.477713
 30
0.0
  0
SPLINE
  5
231
100
AcDbEntity
  8
Layer_1
 62
7
100
AcDbSpline
 70
8
 71
3
 72
8
 73
4
 74
0
 40
0
 40
0
 40
0
 40
0
 40
1
 40
1
 40
1
 40
1
 10
8.974883
 20
48.477713
 30
0.0
 10
8.648062
 20
49.483574
 30
0.0
 10
9.198532
 20
50.563927
 30
0.0
 10
10.204393
 20
50.890750
 30
0.0
  0
LWPOLYLINE
  5
232
100
AcDbEntity
  8
Layer_1
 62
7
100
AcDbPolyline
 90
1
 70
1
 10
12.864676
 20
44.441430
 30
0.0
  0
SPLINE
  5
233
100
AcDbEntity
  8
Layer_1
 62
7
100
AcDbSpline
 70
8
 71
3
 72
8
 73
4
 74
0
 40
0
 40
0
 40
0
 40
0
 40
1
 40
1
 40
1
 40
1
 10
8.232825
 20
57.582817
 30
0.0
 10
9.267335
 20
57.802705
 30
0.0
 10
10.284227
 20
57.142327
 30
0.0
 10
10.504121
 20
56.107818
 30
0.0
  0
SPLINE
  5
234
100
AcDbEntity
  8
Layer_1
 62
7
100
AcDbSpline
 70
8
 71
3
 72
8
 73
4
 74
0
 40
0
 40
0
 40
0
 40
0
 40
1
 40
1
 40
1
 40
1
 10
10.504121
 20
56.107818
 30
0.0
 10
10.724015
 20
55.073304
 30
0.0
 10
10.063635
 20
54.056407
 30
0.0
 10
9.029122
 20
53.836512
 30
0.0
  0
SPLINE
  5
235
100
AcDbEntity
  8
Layer_1
 62
7
100
AcDbSpline
 70
8
 71
3
 72
8
 73
4
 74
0
 40
0
 40
0
 40
0
 40
0
 40
1
 40
1
 40
1
 40
1
 10
9.029122
 20
53.836512
 30
0.0
 10
7.994608
 20
53.616620
 30
0.0
 10
6.977711
 20
54.277001
 30
0.0
 10
6.757818
 20
55.311514
 30
0.0
  0
SPLINE
  5
236
100
AcDbEntity
  8
Layer_1
 62
7
100
AcDbSpline
 70
8
 71
3
 72
8
 73
4
 74
0
 40
0
 40
0
 40
0
 40
0
 40
1
 40
1
 40
1
 40
1
 10
6.757818
 20
55.311514
 30
0.0
 10
6.652223
 20
55.808306
 30
0.0
 10
6.748302
 20
56.326698
 30
0.0
 10
7.024919
 20
56.752649
 30
0.0
  0
SPLINE
  5
237
100
AcDbEntity
  8
Layer_1
 62
7
100
AcDbSpline
 70
8
 71
3
 72
8
 73
4
 74
0
 40
0
 40
0
 40
0
 40
0
 40
1
 40
1
 40
1
 40
1
 10
7.024919
 20
56.752649
 30
0.0
 10
7.301536
 20
57.178601
 30
0.0
 10
7.736033
 20
57.477221
 30
0.0
 10
8.232825
 20
57.582817
 30
0.0
  0
LWPOLYLINE
  5
238
100
AcDbEntity
  8
Layer_1
 62
7
100
AcDbPolyline
 90
1
 70
1
 10
10.204393
 20
50.890750
 30
0.0
  0
SPLINE
  5
239
100
AcDbEntity
  8
Layer_1
 62
7
100
AcDbSpline
 70
8
 71
3
 72
8
 73
4
 74
0
 40
0
 40
0
 40
0
 40
0
 40
1
 40
1
 40
1
 40
1
 10
6.971562
 20
64.444307
 30
0.0
 10
8.023391
 20
64.554857
 30
0.0
 10
8.965686
 20
63.791803
 30
0.0
 10
9.076241
 20
62.739975
 30
0.0
  0
SPLINE
  5
23a
100
AcDbEntity
  8
Layer_1
 62
7
100
AcDbSpline
 70
8
 71
3
 72
8
 73
4
 74
0
 40
0
 40
0
 40
0
 40
0
 40
1
 40
1
 40
1
 40
1
 10
9.076241
 20
62.739975
 30
0.0
 10
9.186794
 20
61.688144
 30
0.0
 10
8.423739
 20
60.745845
 30
0.0
 10
7.371908
 20
60.635291
 30
0.0
  0
SPLINE
  5
23b
100
AcDbEntity
  8
Layer_1
 62
7
100
AcDbSpline
 70
8
 71
3
 72
8
 73
4
 74
0
 40
0
 40
0
 40
0
 40
0
 40
1
 40
1
 40
1
 40
1
 10
7.371908
 20
60.635291
 30
0.0
 10
6.866800
 20
60.582201
 30
0.0
 10
6.361289
 20
60.731940
 30
0.0
 10
5.966584
 20
61.051566
 30
0.0
  0
SPLINE
  5
23c
100
AcDbEntity
  8
Layer_1
 62
7
100
AcDbSpline
 70
8
 71
3
 72
8
 73
4
 74
0
 40
0
 40
0
 40
0
 40
0
 40
1
 40
1
 40
1
 40
1
 10
5.966584
 20
61.051566
 30
0.0
 10
5.571879
 20
61.371191
 30
0.0
 10
5.320311
 20
61.834523
 30
0.0
 10
5.267223
 20
62.339631
 30
0.0
  0
SPLINE
  5
23d
100
AcDbEntity
  8
Layer_1
 62
7
100
AcDbSpline
 70
8
 71
3
 72
8
 73
4
 74
0
 40
0
 40
0
 40
0
 40
0
 40
1
 40
1
 40
1
 40
1
 10
5.267223
 20
62.339631
 30
0.0
 10
5.156674
 20
63.391461
 30
0.0
 10
5.919732
 20
64.333756
 30
0.0
 10
6.971562
 20
64.444307
 30
0.0
  0
LWPOLYLINE
  5
23e
100
AcDbEntity
  8
Layer_1
 62
7
100
AcDbPolyline
 90
1
 70
1
 10
8.232825
 20
57.582817
 30
0.0
  0
SPLINE
  5
23f
100
AcDbEntity
  8
Layer_1
 62
7
100
AcDbSpline
 70
8
 71
3
 72
8
 73
4
 74
0
 40
0
 40
0
 40
0
 40
0
 40
1
 40
1
 40
1
 40
1
 10
6.434433
 20
71.400050
 30
0.0
 10
7.492056
 20
71.400048
 30
0.0
 10
8.349428
 20
70.542676
 30
0.0
 10
8.349431
 20
69.485054
 30
0.0
  0
SPLINE
  5
240
100
AcDbEntity
  8
Layer_1
 62
7
100
AcDbSpline
 70
8
 71
3
 72
8
 73
4
 74
0
 40
0
 40
0
 40
0
 40
0
 40
1
 40
1
 40
1
 40
1
 10
8.349431
 20
69.485054
 30
0.0
 10
8.349432
 20
68.977164
 30
0.0
 10
8.147674
 20
68.490075
 30
0.0
 10
7.788542
 20
68.130942
 30
0.0
  0
SPLINE
  5
241
100
AcDbEntity
  8
Layer_1
 62
7
100
AcDbSpline
 70
8
 71
3
 72
8
 73
4
 74
0
 40
0
 40
0
 40
0
 40
0
 40
1
 40
1
 40
1
 40
1
 10
7.788542
 20
68.130942
 30
0.0
 10
7.429411
 20
67.771810
 30
0.0
 10
6.942323
 20
67.570050
 30
0.0
 10
6.434433
 20
67.570050
 30
0.0
  0
SPLINE
  5
242
100
AcDbEntity
  8
Layer_1
 62
7
100
AcDbSpline
 70
8
 71
3
 72
8
 73
4
 74
0
 40
0
 40
0
 40
0
 40
0
 40
1
 40
1
 40
1
 40
1
 10
6.434433
 20
67.570050
 30
0.0
 10
5.926542
 20
67.570049
 30
0.0
 10
5.439453
 20
67.771807
 30
0.0
 10
5.080320
 20
68.130940
 30
0.0
  0
SPLINE
  5
243
100
AcDbEntity
  8
Layer_1
 62
7
100
AcDbSpline
 70
8
 71
3
 72
8
 73
4
 74
0
 40
0
 40
0
 40
0
 40
0
 40
1
 40
1
 40
1
 40
1
 10
5.080320
 20
68.130940
 30
0.0
 10
4.721187
 20
68.490073
 30
0.0
 10
4.519428
 20
68.977163
 30
0.0
 10
4.519429
 20
69.485054
 30
0.0
  0
SPLINE
  5
244
100
AcDbEntity
  8
Layer_1
 62
7
100
AcDbSpline
 70
8
 71
3
 72
8
 73
4
 74
0
 40
0
 40
0
 40
0
 40
0
 40
1
 40
1
 40
1
 40
1
 10
4.519429
 20
69.485054
 30
0.0
 10
4.519432
 20
70.542679
 30
0.0
 10
5.376808
 20
71.400051
 30
0.0
 10
6.434433
 20
71.400050
 30
0.0
  0
LWPOLYLINE
  5
245
100
AcDbEntity
  8
Layer_1
 62
7
100
AcDbPolyline
 90
1
 70
1
 10
6.971562
 20
64.444307
 30
0.0
  0
SPLINE
  5
246
100
AcDbEntity
  8
Layer_1
 62
7
100
AcDbSpline
 70
8
 71
3
 72
8
 73
4
 74
0
 40
0
 40
0
 40
0
 40
0
 40
1
 40
1
 40
1
 40
1
 10
6.627319
 20
78.373837
 30
0.0
 10
7.132427
 20
78.320748
 30
0.0
 10
7.595757
 20
78.069180
 30
0.0
 10
7.915382
 20
77.674475
 30
0.0
  0
SPLINE
  5
247
100
AcDbEntity
  8
Layer_1
 62
7
100
AcDbSpline
 70
8
 71
3
 72
8
 73
4
 74
0
 40
0
 40
0
 40
0
 40
0
 40
1
 40
1
 40
1
 40
1
 10
7.915382
 20
77.674475
 30
0.0
 10
8.235008
 20
77.279770
 30
0.0
 10
8.384746
 20
76.774261
 30
0.0
 10
8.331656
 20
76.269153
 30
0.0
  0
SPLINE
  5
248
100
AcDbEntity
  8
Layer_1
 62
7
100
AcDbSpline
 70
8
 71
3
 72
8
 73
4
 74
0
 40
0
 40
0
 40
0
 40
0
 40
1
 40
1
 40
1
 40
1
 10
8.331656
 20
76.269153
 30
0.0
 10
8.221104
 20
75.217322
 30
0.0
 10
7.278807
 20
74.454265
 30
0.0
 10
6.226977
 20
74.564816
 30
0.0
  0
SPLINE
  5
249
100
AcDbEntity
  8
Layer_1
 62
7
100
AcDbSpline
 70
8
 71
3
 72
8
 73
4
 74
0
 40
0
 40
0
 40
0
 40
0
 40
1
 40
1
 40
1
 40
1
 10
6.226977
 20
74.564816
 30
0.0
 10
5.721868
 20
74.617904
 30
0.0
 10
5.258537
 20
74.869471
 30
0.0
 10
4.938911
 20
75.264176
 30
0.0
  0
SPLINE
  5
24a
100
AcDbEntity
  8
Layer_1
 62
7
100
AcDbSpline
 70
8
 71
3
 72
8
 73
4
 74
0
 40
0
 40
0
 40
0
 40
0
 40
1
 40
1
 40
1
 40
1
 10
4.938911
 20
75.264176
 30
0.0
 10
4.619285
 20
75.658881
 30
0.0
 10
4.469546
 20
76.164391
 30
0.0
 10
4.522635
 20
76.669499
 30
0.0
  0
SPLINE
  5
24b
100
AcDbEntity
  8
Layer_1
 62
7
100
AcDbSpline
 70
8
 71
3
 72
8
 73
4
 74
0
 40
0
 40
0
 40
0
 40
0
 40
1
 40
1
 40
1
 40
1
 10
4.522635
 20
76.669499
 30
0.0
 10
4.575724
 20
77.174607
 30
0.0
 10
4.827292
 20
77.637937
 30
0.0
 10
5.221997
 20
77.957563
 30
0.0
  0
SPLINE
  5
24c
100
AcDbEntity
  8
Layer_1
 62
7
100
AcDbSpline
 70
8
 71
3
 72
8
 73
4
 74
0
 40
0
 40
0
 40
0
 40
0
 40
1
 40
1
 40
1
 40
1
 10
5.221997
 20
77.957563
 30
0.0
 10
5.616702
 20
78.277188
 30
0.0
 10
6.122211
 20
78.426926
 30
0.0
 10
6.627319
 20
78.373837
 30
0.0
  0
LWPOLYLINE
  5
24d
100
AcDbEntity
  8
Layer_1
 62
7
100
AcDbPolyline
 90
1
 70
1
 10
6.434433
 20
71.400050
 30
0.0
  0
SPLINE
  5
24e
100
AcDbEntity
  8
Layer_1
 62
7
100
AcDbSpline
 70
8
 71
3
 72
8
 73
4
 74
0
 40
0
 40
0
 40
0
 40
0
 40
1
 40
1
 40
1
 40
1
 10
7.548107
 20
85.289252
 30
0.0
 10
8.582619
 20
85.069359
 30
0.0
 10
9.242999
 20
84.052464
 30
0.0
 10
9.023109
 20
83.017952
 30
0.0
  0
SPLINE
  5
24f
100
AcDbEntity
  8
Layer_1
 62
7
100
AcDbSpline
 70
8
 71
3
 72
8
 73
4
 74
0
 40
0
 40
0
 40
0
 40
0
 40
1
 40
1
 40
1
 40
1
 10
9.023109
 20
83.017952
 30
0.0
 10
8.803217
 20
81.983438
 30
0.0
 10
7.786320
 20
81.323056
 30
0.0
 10
6.751806
 20
81.542947
 30
0.0
  0
SPLINE
  5
250
100
AcDbEntity
  8
Layer_1
 62
7
100
AcDbSpline
 70
8
 71
3
 72
8
 73
4
 74
0
 40
0
 40
0
 40
0
 40
0
 40
1
 40
1
 40
1
 40
1
 10
6.751806
 20
81.542947
 30
0.0
 10
6.255014
 20
81.648543
 30
0.0
 10
5.820518
 20
81.947164
 30
0.0
 10
5.543901
 20
82.373116
 30
0.0
  0
SPLINE
  5
251
100
AcDbEntity
  8
Layer_1
 62
7
100
AcDbSpline
 70
8
 71
3
 72
8
 73
4
 74
0
 40
0
 40
0
 40
0
 40
0
 40
1
 40
1
 40
1
 40
1
 10
5.543901
 20
82.373116
 30
0.0
 10
5.267284
 20
82.799069
 30
0.0
 10
5.171205
 20
83.317461
 30
0.0
 10
5.276802
 20
83.814253
 30
0.0
  0
SPLINE
  5
252
100
AcDbEntity
  8
Layer_1
 62
7
100
AcDbSpline
 70
8
 71
3
 72
8
 73
4
 74
0
 40
0
 40
0
 40
0
 40
0
 40
1
 40
1
 40
1
 40
1
 10
5.276802
 20
83.814253
 30
0.0
 10
5.496696
 20
84.848766
 30
0.0
 10
6.513594
 20
85.509145
 30
0.0
 10
7.548107
 20
85.289252
 30
0.0
  0
LWPOLYLINE
  5
253
100
AcDbEntity
  8
Layer_1
 62
7
100
AcDbPolyline
 90
1
 70
1
 10
6.627319
 20
78.373837
 30
0.0
  0
SPLINE
  5
254
100
AcDbEntity
  8
Layer_1
 62
7
100
AcDbSpline
 70
8
 71
3
 72
8
 73
4
 74
0
 40
0
 40
0
 40
0
 40
0
 40
1
 40
1
 40
1
 40
1
 10
9.186711
 20
92.070533
 30
0.0
 10
10.192568
 20
91.743708
 30
0.0
 10
10.743034
 20
90.663357
 30
0.0
 10
10.416214
 20
89.657499
 30
0.0
  0
SPLINE
  5
255
100
AcDbEntity
  8
Layer_1
 62
7
100
AcDbSpline
 70
8
 71
3
 72
8
 73
4
 74
0
 40
0
 40
0
 40
0
 40
0
 40
1
 40
1
 40
1
 40
1
 10
10.416214
 20
89.657499
 30
0.0
 10
10.089390
 20
88.651637
 30
0.0
 10
9.009036
 20
88.101168
 30
0.0
 10
8.003174
 20
88.427991
 30
0.0
  0
SPLINE
  5
256
100
AcDbEntity
  8
Layer_1
 62
7
100
AcDbSpline
 70
8
 71
3
 72
8
 73
4
 74
0
 40
0
 40
0
 40
0
 40
0
 40
1
 40
1
 40
1
 40
1
 10
8.003174
 20
88.427991
 30
0.0
 10
7.520142
 20
88.584937
 30
0.0
 10
7.119240
 20
88.927340
 30
0.0
 10
6.888663
 20
89.379873
 30
0.0
  0
SPLINE
  5
257
100
AcDbEntity
  8
Layer_1
 62
7
100
AcDbSpline
 70
8
 71
3
 72
8
 73
4
 74
0
 40
0
 40
0
 40
0
 40
0
 40
1
 40
1
 40
1
 40
1
 10
6.888663
 20
89.379873
 30
0.0
 10
6.658086
 20
89.832406
 30
0.0
 10
6.616721
 20
90.358001
 30
0.0
 10
6.773668
 20
90.841033
 30
0.0
  0
SPLINE
  5
258
100
AcDbEntity
  8
Layer_1
 62
7
100
AcDbSpline
 70
8
 71
3
 72
8
 73
4
 74
0
 40
0
 40
0
 40
0
 40
0
 40
1
 40
1
 40
1
 40
1
 10
6.773668
 20
90.841033
 30
0.0
 10
7.100495
 20
91.846894
 30
0.0
 10
8.180851
 20
92.397359
 30
0.0
 10
9.186711
 20
92.070533
 30
0.0
  0
LWPOLYLINE
  5
259
100
AcDbEntity
  8
Layer_1
 62
7
100
AcDbPolyline
 90
1
 70
1
 10
7.548107
 20
85.289252
 30
0.0
  0
SPLINE
  5
25a
100
AcDbEntity
  8
Layer_1
 62
7
100
AcDbSpline
 70
8
 71
3
 72
8
 73
4
 74
0
 40
0
 40
0
 40
0
 40
0
 40
1
 40
1
 40
1
 40
1
 10
35.232585
 20
18.173784
 30
0.0
 10
35.854241
 20
19.029420
 30
0.0
 10
37.051822
 20
19.219099
 30
0.0
 10
37.907459
 20
18.597445
 30
0.0
  0
SPLINE
  5
25b
100
AcDbEntity
  8
Layer_1
 62
7
100
AcDbSpline
 70
8
 71
3
 72
8
 73
4
 74
0
 40
0
 40
0
 40
0
 40
0
 40
1
 40
1
 40
1
 40
1
 10
37.907459
 20
18.597445
 30
0.0
 10
38.318352
 20
18.298915
 30
0.0
 10
38.593825
 20
17.849386
 30
0.0
 10
38.673277
 20
17.347748
 30
0.0
  0
SPLINE
  5
25c
100
AcDbEntity
  8
Layer_1
 62
7
100
AcDbSpline
 70
8
 71
3
 72
8
 73
4
 74
0
 40
0
 40
0
 40
0
 40
0
 40
1
 40
1
 40
1
 40
1
 10
38.673277
 20
17.347748
 30
0.0
 10
38.752729
 20
16.846110
 30
0.0
 10
38.629652
 20
16.333455
 30
0.0
 10
38.331120
 20
15.922563
 30
0.0
  0
SPLINE
  5
25d
100
AcDbEntity
  8
Layer_1
 62
7
100
AcDbSpline
 70
8
 71
3
 72
8
 73
4
 74
0
 40
0
 40
0
 40
0
 40
0
 40
1
 40
1
 40
1
 40
1
 10
38.331120
 20
15.922563
 30
0.0
 10
37.709463
 20
15.066927
 30
0.0
 10
36.511880
 20
14.877250
 30
0.0
 10
35.656244
 20
15.498907
 30
0.0
  0
SPLINE
  5
25e
100
AcDbEntity
  8
Layer_1
 62
7
100
AcDbSpline
 70
8
 71
3
 72
8
 73
4
 74
0
 40
0
 40
0
 40
0
 40
0
 40
1
 40
1
 40
1
 40
1
 10
35.656244
 20
15.498907
 30
0.0
 10
34.800607
 20
16.120564
 30
0.0
 10
34.610928
 20
17.318147
 30
0.0
 10
35.232585
 20
18.173784
 30
0.0
  0
LWPOLYLINE
  5
25f
100
AcDbEntity
  8
Layer_1
 62
7
100
AcDbPolyline
 90
1
 70
1
 10
9.186711
 20
92.070533
 30
0.0
  0
SPLINE
  5
260
100
AcDbEntity
  8
Layer_1
 62
7
100
AcDbSpline
 70
8
 71
3
 72
8
 73
4
 74
0
 40
0
 40
0
 40
0
 40
0
 40
1
 40
1
 40
1
 40
1
 10
29.704052
 20
22.428919
 30
0.0
 10
30.411742
 20
23.214886
 30
0.0
 10
31.622589
 20
23.278344
 30
0.0
 10
32.408557
 20
22.570656
 30
0.0
  0
SPLINE
  5
261
100
AcDbEntity
  8
Layer_1
 62
7
100
AcDbSpline
 70
8
 71
3
 72
8
 73
4
 74
0
 40
0
 40
0
 40
0
 40
0
 40
1
 40
1
 40
1
 40
1
 10
32.408557
 20
22.570656
 30
0.0
 10
33.194524
 20
21.862967
 30
0.0
 10
33.257982
 20
20.652120
 30
0.0
 10
32.550295
 20
19.866151
 30
0.0
  0
SPLINE
  5
262
100
AcDbEntity
  8
Layer_1
 62
7
100
AcDbSpline
 70
8
 71
3
 72
8
 73
4
 74
0
 40
0
 40
0
 40
0
 40
0
 40
1
 40
1
 40
1
 40
1
 10
32.550295
 20
19.866151
 30
0.0
 10
32.210450
 20
19.488715
 30
0.0
 10
31.734589
 20
19.261740
 30
0.0
 10
31.227395
 20
19.235159
 30
0.0
  0
SPLINE
  5
263
100
AcDbEntity
  8
Layer_1
 62
7
100
AcDbSpline
 70
8
 71
3
 72
8
 73
4
 74
0
 40
0
 40
0
 40
0
 40
0
 40
1
 40
1
 40
1
 40
1
 10
31.227395
 20
19.235159
 30
0.0
 10
30.720201
 20
19.208577
 30
0.0
 10
30.223221
 20
19.384567
 30
0.0
 10
29.845784
 20
19.724411
 30
0.0
  0
SPLINE
  5
264
100
AcDbEntity
  8
Layer_1
 62
7
100
AcDbSpline
 70
8
 71
3
 72
8
 73
4
 74
0
 40
0
 40
0
 40
0
 40
0
 40
1
 40
1
 40
1
 40
1
 10
29.845784
 20
19.724411
 30
0.0
 10
29.059818
 20
20.432103
 30
0.0
 10
28.996362
 20
21.642951
 30
0.0
 10
29.704052
 20
22.428919
 30
0.0
  0
LWPOLYLINE
  5
265
100
AcDbEntity
  8
Layer_1
 62
7
100
AcDbPolyline
 90
1
 70
1
 10
35.232585
 20
18.173784
 30
0.0
  0
SPLINE
  5
266
100
AcDbEntity
  8
Layer_1
 62
7
100
AcDbSpline
 70
8
 71
3
 72
8
 73
4
 74
0
 40
0
 40
0
 40
0
 40
0
 40
1
 40
1
 40
1
 40
1
 10
24.650594
 20
27.238634
 30
0.0
 10
25.436562
 20
27.946316
 30
0.0
 10
26.647404
 20
27.882857
 30
0.0
 10
27.355092
 20
27.096894
 30
0.0
  0
SPLINE
  5
267
100
AcDbEntity
  8
Layer_1
 62
7
100
AcDbSpline
 70
8
 71
3
 72
8
 73
4
 74
0
 40
0
 40
0
 40
0
 40
0
 40
1
 40
1
 40
1
 40
1
 10
27.355092
 20
27.096894
 30
0.0
 10
28.062782
 20
26.310926
 30
0.0
 10
27.999325
 20
25.100077
 30
0.0
 10
27.213357
 20
24.392387
 30
0.0
  0
SPLINE
  5
268
100
AcDbEntity
  8
Layer_1
 62
7
100
AcDbSpline
 70
8
 71
3
 72
8
 73
4
 74
0
 40
0
 40
0
 40
0
 40
0
 40
1
 40
1
 40
1
 40
1
 10
27.213357
 20
24.392387
 30
0.0
 10
26.427389
 20
23.684698
 30
0.0
 10
25.216541
 20
23.748156
 30
0.0
 10
24.508851
 20
24.534124
 30
0.0
  0
SPLINE
  5
269
100
AcDbEntity
  8
Layer_1
 62
7
100
AcDbSpline
 70
8
 71
3
 72
8
 73
4
 74
0
 40
0
 40
0
 40
0
 40
0
 40
1
 40
1
 40
1
 40
1
 10
24.508851
 20
24.534124
 30
0.0
 10
24.169007
 20
24.911560
 30
0.0
 10
23.993017
 20
25.408541
 30
0.0
 10
24.019599
 20
25.915735
 30
0.0
  0
SPLINE
  5
26a
100
AcDbEntity
  8
Layer_1
 62
7
100
AcDbSpline
 70
8
 71
3
 72
8
 73
4
 74
0
 40
0
 40
0
 40
0
 40
0
 40
1
 40
1
 40
1
 40
1
 10
24.019599
 20
25.915735
 30
0.0
 10
24.046181
 20
26.422929
 30
0.0
 10
24.273157
 20
26.898790
 30
0.0
 10
24.650594
 20
27.238634
 30
0.0
  0
LWPOLYLINE
  5
26b
100
AcDbEntity
  8
Layer_1
 62
7
100
AcDbPolyline
 90
1
 70
1
 10
29.704052
 20
22.428919
 30
0.0
  0
SPLINE
  5
26c
100
AcDbEntity
  8
Layer_1
 62
7
100
AcDbSpline
 70
8
 71
3
 72
8
 73
4
 74
0
 40
0
 40
0
 40
0
 40
0
 40
1
 40
1
 40
1
 40
1
 10
20.127563
 20
32.550227
 30
0.0
 10
20.983198
 20
33.171880
 30
0.0
 10
22.180777
 20
32.982203
 30
0.0
 10
22.802434
 20
32.126571
 30
0.0
  0
SPLINE
  5
26d
100
AcDbEntity
  8
Layer_1
 62
7
100
AcDbSpline
 70
8
 71
3
 72
8
 73
4
 74
0
 40
0
 40
0
 40
0
 40
0
 40
1
 40
1
 40
1
 40
1
 10
22.802434
 20
32.126571
 30
0.0
 10
23.424090
 20
31.270935
 30
0.0
 10
23.234414
 20
30.073355
 30
0.0
 10
22.378780
 20
29.451696
 30
0.0
  0
SPLINE
  5
26e
100
AcDbEntity
  8
Layer_1
 62
7
100
AcDbSpline
 70
8
 71
3
 72
8
 73
4
 74
0
 40
0
 40
0
 40
0
 40
0
 40
1
 40
1
 40
1
 40
1
 10
22.378780
 20
29.451696
 30
0.0
 10
21.967889
 20
29.153165
 30
0.0
 10
21.455235
 20
29.030087
 30
0.0
 10
20.953597
 20
29.109538
 30
0.0
  0
SPLINE
  5
26f
100
AcDbEntity
  8
Layer_1
 62
7
100
AcDbSpline
 70
8
 71
3
 72
8
 73
4
 74
0
 40
0
 40
0
 40
0
 40
0
 40
1
 40
1
 40
1
 40
1
 10
20.953597
 20
29.109538
 30
0.0
 10
20.451959
 20
29.188990
 30
0.0
 10
20.002429
 20
29.464462
 30
0.0
 10
19.703898
 20
29.875355
 30
0.0
  0
SPLINE
  5
270
100
AcDbEntity
  8
Layer_1
 62
7
100
AcDbSpline
 70
8
 71
3
 72
8
 73
4
 74
0
 40
0
 40
0
 40
0
 40
0
 40
1
 40
1
 40
1
 40
1
 10
19.703898
 20
29.875355
 30
0.0
 10
19.082247
 20
30.730993
 30
0.0
 10
19.271927
 20
31.928572
 30
0.0
 10
20.127563
 20
32.550227
 30
0.0
  0
LWPOLYLINE
  5
271
100
AcDbEntity
  8
Layer_1
 62
7
100
AcDbPolyline
 90
1
 70
1
 10
24.650594
 20
27.238634
 30
0.0
  0
SPLINE
  5
272
100
AcDbEntity
  8
Layer_1
 62
7
100
AcDbSpline
 70
8
 71
3
 72
8
 73
4
 74
0
 40
0
 40
0
 40
0
 40
0
 40
1
 40
1
 40
1
 40
1
 10
16.184525
 20
38.305512
 30
0.0
 10
17.100453
 20
38.834321
 30
0.0
 10
18.271644
 20
38.520502
 30
0.0
 10
18.800457
 20
37.604576
 30
0.0
  0
SPLINE
  5
273
100
AcDbEntity
  8
Layer_1
 62
7
100
AcDbSpline
 70
8
 71
3
 72
8
 73
4
 74
0
 40
0
 40
0
 40
0
 40
0
 40
1
 40
1
 40
1
 40
1
 10
18.800457
 20
37.604576
 30
0.0
 10
19.054403
 20
37.164731
 30
0.0
 10
19.123220
 20
36.642021
 30
0.0
 10
18.991769
 20
36.151437
 30
0.0
  0
SPLINE
  5
274
100
AcDbEntity
  8
Layer_1
 62
7
100
AcDbSpline
 70
8
 71
3
 72
8
 73
4
 74
0
 40
0
 40
0
 40
0
 40
0
 40
1
 40
1
 40
1
 40
1
 10
18.991769
 20
36.151437
 30
0.0
 10
18.860319
 20
35.660853
 30
0.0
 10
18.539368
 20
35.242580
 30
0.0
 10
18.099523
 20
34.988635
 30
0.0
  0
SPLINE
  5
275
100
AcDbEntity
  8
Layer_1
 62
7
100
AcDbSpline
 70
8
 71
3
 72
8
 73
4
 74
0
 40
0
 40
0
 40
0
 40
0
 40
1
 40
1
 40
1
 40
1
 10
18.099523
 20
34.988635
 30
0.0
 10
17.659677
 20
34.734689
 30
0.0
 10
17.136967
 20
34.665872
 30
0.0
 10
16.646382
 20
34.797324
 30
0.0
  0
SPLINE
  5
276
100
AcDbEntity
  8
Layer_1
 62
7
100
AcDbSpline
 70
8
 71
3
 72
8
 73
4
 74
0
 40
0
 40
0
 40
0
 40
0
 40
1
 40
1
 40
1
 40
1
 10
16.646382
 20
34.797324
 30
0.0
 10
16.155797
 20
34.928775
 30
0.0
 10
15.737525
 20
35.249728
 30
0.0
 10
15.483580
 20
35.689574
 30
0.0
  0
SPLINE
  5
277
100
AcDbEntity
  8
Layer_1
 62
7
100
AcDbSpline
 70
8
 71
3
 72
8
 73
4
 74
0
 40
0
 40
0
 40
0
 40
0
 40
1
 40
1
 40
1
 40
1
 10
15.483580
 20
35.689574
 30
0.0
 10
15.229636
 20
36.129420
 30
0.0
 10
15.160821
 20
36.652130
 30
0.0
 10
15.292274
 20
37.142714
 30
0.0
  0
SPLINE
  5
278
100
AcDbEntity
  8
Layer_1
 62
7
100
AcDbSpline
 70
8
 71
3
 72
8
 73
4
 74
0
 40
0
 40
0
 40
0
 40
0
 40
1
 40
1
 40
1
 40
1
 10
15.292274
 20
37.142714
 30
0.0
 10
15.423726
 20
37.633297
 30
0.0
 10
15.744679
 20
38.051569
 30
0.0
 10
16.184525
 20
38.305512
 30
0.0
  0
LWPOLYLINE
  5
279
100
AcDbEntity
  8
Layer_1
 62
7
100
AcDbPolyline
 90
1
 70
1
 10
20.127563
 20
32.550227
 30
0.0
  0
SPLINE
  5
27a
100
AcDbEntity
  8
Layer_1
 62
7
100
AcDbSpline
 70
8
 71
3
 72
8
 73
4
 74
0
 40
0
 40
0
 40
0
 40
0
 40
1
 40
1
 40
1
 40
1
 10
54.040889
 20
9.168684
 30
0.0
 10
54.367716
 20
10.174540
 30
0.0
 10
55.448065
 20
10.725005
 30
0.0
 10
56.453923
 20
10.398185
 30
0.0
  0
SPLINE
  5
27b
100
AcDbEntity
  8
Layer_1
 62
7
100
AcDbSpline
 70
8
 71
3
 72
8
 73
4
 74
0
 40
0
 40
0
 40
0
 40
0
 40
1
 40
1
 40
1
 40
1
 10
56.453923
 20
10.398185
 30
0.0
 10
57.459785
 20
10.071361
 30
0.0
 10
58.010255
 20
8.991007
 30
0.0
 10
57.683432
 20
7.985145
 30
0.0
  0
SPLINE
  5
27c
100
AcDbEntity
  8
Layer_1
 62
7
100
AcDbSpline
 70
8
 71
3
 72
8
 73
4
 74
0
 40
0
 40
0
 40
0
 40
0
 40
1
 40
1
 40
1
 40
1
 10
57.683432
 20
7.985145
 30
0.0
 10
57.356607
 20
6.979284
 30
0.0
 10
56.276253
 20
6.428816
 30
0.0
 10
55.270392
 20
6.755639
 30
0.0
  0
SPLINE
  5
27d
100
AcDbEntity
  8
Layer_1
 62
7
100
AcDbSpline
 70
8
 71
3
 72
8
 73
4
 74
0
 40
0
 40
0
 40
0
 40
0
 40
1
 40
1
 40
1
 40
1
 10
55.270392
 20
6.755639
 30
0.0
 10
54.787360
 20
6.912586
 30
0.0
 10
54.386458
 20
7.254989
 30
0.0
 10
54.155882
 20
7.707523
 30
0.0
  0
SPLINE
  5
27e
100
AcDbEntity
  8
Layer_1
 62
7
100
AcDbSpline
 70
8
 71
3
 72
8
 73
4
 74
0
 40
0
 40
0
 40
0
 40
0
 40
1
 40
1
 40
1
 40
1
 10
54.155882
 20
7.707523
 30
0.0
 10
53.925305
 20
8.160057
 30
0.0
 10
53.883941
 20
8.685652
 30
0.0
 10
54.040889
 20
9.168684
 30
0.0
  0
LWPOLYLINE
  5
27f
100
AcDbEntity
  8
Layer_1
 62
7
100
AcDbPolyline
 90
1
 70
1
 10
16.184525
 20
38.305512
 30
0.0
  0
SPLINE
  5
280
100
AcDbEntity
  8
Layer_1
 62
7
100
AcDbSpline
 70
8
 71
3
 72
8
 73
4
 74
0
 40
0
 40
0
 40
0
 40
0
 40
1
 40
1
 40
1
 40
1
 10
47.468033
 20
11.507143
 30
0.0
 10
47.898208
 20
12.473329
 30
0.0
 10
49.030180
 20
12.907853
 30
0.0
 10
49.996367
 20
12.477683
 30
0.0
  0
SPLINE
  5
281
100
AcDbEntity
  8
Layer_1
 62
7
100
AcDbSpline
 70
8
 71
3
 72
8
 73
4
 74
0
 40
0
 40
0
 40
0
 40
0
 40
1
 40
1
 40
1
 40
1
 10
49.996367
 20
12.477683
 30
0.0
 10
50.962554
 20
12.047509
 30
0.0
 10
51.397080
 20
10.915536
 30
0.0
 10
50.966909
 20
9.949348
 30
0.0
  0
SPLINE
  5
282
100
AcDbEntity
  8
Layer_1
 62
7
100
AcDbSpline
 70
8
 71
3
 72
8
 73
4
 74
0
 40
0
 40
0
 40
0
 40
0
 40
1
 40
1
 40
1
 40
1
 10
50.966909
 20
9.949348
 30
0.0
 10
50.760332
 20
9.485366
 30
0.0
 10
50.377900
 20
9.122450
 30
0.0
 10
49.903743
 20
8.940438
 30
0.0
  0
SPLINE
  5
283
100
AcDbEntity
  8
Layer_1
 62
7
100
AcDbSpline
 70
8
 71
3
 72
8
 73
4
 74
0
 40
0
 40
0
 40
0
 40
0
 40
1
 40
1
 40
1
 40
1
 10
49.903743
 20
8.940438
 30
0.0
 10
49.429586
 20
8.758426
 30
0.0
 10
48.902545
 20
8.772228
 30
0.0
 10
48.438564
 20
8.978806
 30
0.0
  0
SPLINE
  5
284
100
AcDbEntity
  8
Layer_1
 62
7
100
AcDbSpline
 70
8
 71
3
 72
8
 73
4
 74
0
 40
0
 40
0
 40
0
 40
0
 40
1
 40
1
 40
1
 40
1
 10
48.438564
 20
8.978806
 30
0.0
 10
47.472380
 20
9.408984
 30
0.0
 10
47.037859
 20
10.540957
 30
0.0
 10
47.468033
 20
11.507143
 30
0.0
  0
LWPOLYLINE
  5
285
100
AcDbEntity
  8
Layer_1
 62
7
100
AcDbPolyline
 90
1
 70
1
 10
54.040889
 20
9.168684
 30
0.0
  0
SPLINE
  5
286
100
AcDbEntity
  8
Layer_1
 62
7
100
AcDbSpline
 70
8
 71
3
 72
8
 73
4
 74
0
 40
0
 40
0
 40
0
 40
0
 40
1
 40
1
 40
1
 40
1
 10
41.175616
 20
14.519848
 30
0.0
 10
41.704429
 20
15.435777
 30
0.0
 10
42.875622
 20
15.749598
 30
0.0
 10
43.791552
 20
15.220788
 30
0.0
  0
SPLINE
  5
287
100
AcDbEntity
  8
Layer_1
 62
7
100
AcDbSpline
 70
8
 71
3
 72
8
 73
4
 74
0
 40
0
 40
0
 40
0
 40
0
 40
1
 40
1
 40
1
 40
1
 10
43.791552
 20
15.220788
 30
0.0
 10
44.231398
 20
14.966843
 30
0.0
 10
44.552350
 20
14.548571
 30
0.0
 10
44.683803
 20
14.057987
 30
0.0
  0
SPLINE
  5
288
100
AcDbEntity
  8
Layer_1
 62
7
100
AcDbSpline
 70
8
 71
3
 72
8
 73
4
 74
0
 40
0
 40
0
 40
0
 40
0
 40
1
 40
1
 40
1
 40
1
 10
44.683803
 20
14.057987
 30
0.0
 10
44.815255
 20
13.567403
 30
0.0
 10
44.746439
 20
13.044693
 30
0.0
 10
44.492494
 20
12.604847
 30
0.0
  0
SPLINE
  5
289
100
AcDbEntity
  8
Layer_1
 62
7
100
AcDbSpline
 70
8
 71
3
 72
8
 73
4
 74
0
 40
0
 40
0
 40
0
 40
0
 40
1
 40
1
 40
1
 40
1
 10
44.492494
 20
12.604847
 30
0.0
 10
44.238549
 20
12.165000
 30
0.0
 10
43.820277
 20
11.844048
 30
0.0
 10
43.329692
 20
11.712596
 30
0.0
  0
SPLINE
  5
28a
100
AcDbEntity
  8
Layer_1
 62
7
100
AcDbSpline
 70
8
 71
3
 72
8
 73
4
 74
0
 40
0
 40
0
 40
0
 40
0
 40
1
 40
1
 40
1
 40
1
 10
43.329692
 20
11.712596
 30
0.0
 10
42.839107
 20
11.581145
 30
0.0
 10
42.316396
 20
11.649961
 30
0.0
 10
41.876551
 20
11.903907
 30
0.0
  0
SPLINE
  5
28b
100
AcDbEntity
  8
Layer_1
 62
7
100
AcDbSpline
 70
8
 71
3
 72
8
 73
4
 74
0
 40
0
 40
0
 40
0
 40
0
 40
1
 40
1
 40
1
 40
1
 10
41.876551
 20
11.903907
 30
0.0
 10
41.436706
 20
12.157853
 30
0.0
 10
41.115755
 20
12.576125
 30
0.0
 10
40.984304
 20
13.066709
 30
0.0
  0
SPLINE
  5
28c
100
AcDbEntity
  8
Layer_1
 62
7
100
AcDbSpline
 70
8
 71
3
 72
8
 73
4
 74
0
 40
0
 40
0
 40
0
 40
0
 40
1
 40
1
 40
1
 40
1
 10
40.984304
 20
13.066709
 30
0.0
 10
40.852854
 20
13.557294
 30
0.0
 10
40.921671
 20
14.080003
 30
0.0
 10
41.175616
 20
14.519848
 30
0.0
  0
LWPOLYLINE
  5
28d
100
AcDbEntity
  8
Layer_1
 62
7
100
AcDbPolyline
 90
1
 70
1
 10
47.468033
 20
11.507143
 30
0.0
  0
LWPOLYLINE
  5
28e
100
AcDbEntity
  8
Layer_1
 62
7
100
AcDbPolyline
 90
1
 70
1
 10
41.175616
 20
14.519848
 30
0.0
  0
LWPOLYLINE
  5
28f
100
AcDbEntity
  8
Layer_1
 62
7
100
AcDbPolyline
 90
6
 70
1
 10
77.622985
 20
70.414984
 30
0.0
 10
73.064723
 20
67.783271
 30
0.0
 10
68.506462
 20
70.414984
 30
0.0
 10
68.506461
 20
75.678411
 30
0.0
 10
73.064723
 20
78.310124
 30
0.0
 10
77.622984
 20
75.678411
 30
0.0
  0
ENDSEC
  0
SECTION
  2
OBJECTS
  0
DICTIONARY
  5
C
330
0
100
AcDbDictionary
  3
ACAD_GROUP
350
D
  3
ACAD_MLINESTYLE
350
17
  0
DICTIONARY
  5
D
330
C
100
AcDbDictionary
  0
DICTIONARY
  5
1A
330
C
100
AcDbDictionary
  0
DICTIONARY
  5
17
330
C
100
AcDbDictionary
  3
STANDARD
350
18
  0
DICTIONARY
  5
19
330
C
100
AcDbDictionary
  0
ENDSEC
  0
EOF
