  0
SECTION
  2
HEADER
  9
$ACADVER
  1
AC1014
  9
$HANDSEED
  5
FFFF
  9
$MEASUREMENT
 70
     1
  0
ENDSEC
  0
SECTION
  2
TABLES
  0
TABLE
  2
VPORT
  5
8
330
0
100
AcDbSymbolTable
 70
     4
  0
VPORT
  5
2E
330
8
100
AcDbSymbolTableRecord
100
AcDbViewportTableRecord
  2
*ACTIVE
 70
     0
 10
0.0
 20
0.0
 11
1.0
 21
1.0
 12
210.0
 22
148.5
 13
0.0
 23
0.0
 14
10.0
 24
10.0
 15
10.0
 25
10.0
 16
0.0
 26
0.0
 36
1.0
 17
0.0
 27
0.0
 37
0.0
 40
341.0
 41
1.24
 42
50.0
 43
0.0
 44
0.0
 50
0.0
 51
0.0
 71
     0
 72
   100
 73
     1
 74
     3
 75
     0
 76
     0
 77
     0
 78
     0
  0
ENDTAB
  0
TABLE
  2
LTYPE
  5
5
330
0
100
AcDbSymbolTable
 70
     1
  0
LTYPE
  5
14
330
5
100
AcDbSymbolTableRecord
100
AcDbLinetypeTableRecord
  2
BYBLOCK
 70
     0
  3

 72
    65
 73
     0
 40
0.0
  0
LTYPE
  5
15
330
5
100
AcDbSymbolTableRecord
100
AcDbLinetypeTableRecord
  2
BYLAYER
 70
     0
  3

 72
    65
 73
     0
 40
0.0
  0
LTYPE
  5
16
330
5
100
AcDbSymbolTableRecord
100
AcDbLinetypeTableRecord
  2
CONTINUOUS
 70
     0
  3
Solid line
 72
    65
 73
     0
 40
0.0
  0
ENDTAB
  0
TABLE
  2
LAYER
  5
2
100
AcDbSymbolTable
 70
2
  0
LAYER
  5
50
100
AcDbSymbolTableRecord
100
AcDbLayerTableRecord
  2
0
 70
0
  6
CONTINUOUS
  0
LAYER
  5
51
100
AcDbSymbolTableRecord
100
AcDbLayerTableRecord
  2
Layer_1
 70
0
  6
CONTINUOUS
  0
ENDTAB
  0
TABLE
  2
STYLE
  5
3
330
0
100
AcDbSymbolTable
 70
     1
  0
STYLE
  5
11
330
3
100
AcDbSymbolTableRecord
100
AcDbTextStyleTableRecord
  2
STANDARD
 70
     0
 40
0.0
 41
1.0
 50
0.0
 71
     0
 42
2.5
  3
txt
  4

  0
ENDTAB
  0
TABLE
  2
VIEW
  5
6
330
0
100
AcDbSymbolTable
 70
     0
  0
ENDTAB
  0
TABLE
  2
UCS
  5
7
330
0
100
AcDbSymbolTable
 70
     0
  0
ENDTAB
  0
TABLE
  2
APPID
  5
9
330
0
100
AcDbSymbolTable
 70
     2
  0
APPID
  5
12
330
9
100
AcDbSymbolTableRecord
100
AcDbRegAppTableRecord
  2
ACAD
 70
     0
  0
ENDTAB
  0
TABLE
  2
DIMSTYLE
  5
A
330
0
100
AcDbSymbolTable
 70
     1
  0
DIMSTYLE
105
27
330
A
100
AcDbSymbolTableRecord
100
AcDbDimStyleTableRecord
  2
ISO-25
 70
     0
  3

  4

  5

  6

  7

 40
1.0
 41
2.5
 42
0.625
 43
3.75
 44
1.25
 45
0.0
 46
0.0
 47
0.0
 48
0.0
140
2.5
141
2.5
142
0.0
143
0.03937007874016
144
1.0
145
0.0
146
1.0
147
0.625
 71
     0
 72
     0
 73
     0
 74
     0
 75
     0
 76
     0
 77
     1
 78
     8
170
     0
171
     3
172
     1
173
     0
174
     0
175
     0
176
     0
177
     0
178
     0
270
     2
271
     2
272
     2
273
     2
274
     3
340
11
275
     0
280
     0
281
     0
282
     0
283
     0
284
     8
285
     0
286
     0
287
     3
288
     0
  0
ENDTAB
  0
TABLE
  2
BLOCK_RECORD
  5
1
330
0
100
AcDbSymbolTable
 70
     1
  0
BLOCK_RECORD
  5
1F
330
1
100
AcDbSymbolTableRecord
100
AcDbBlockTableRecord
  2
*MODEL_SPACE
  0
BLOCK_RECORD
  5
1B
330
1
100
AcDbSymbolTableRecord
100
AcDbBlockTableRecord
  2
*PAPER_SPACE
  0
ENDTAB
  0
ENDSEC
  0
SECTION
  2
BLOCKS
  0
BLOCK
  5
20
330
1F
100
AcDbEntity
  8
0
100
AcDbBlockBegin
  2
*MODEL_SPACE
 70
     0
 10
0.0
 20
0.0
 30
0.0
  3
*MODEL_SPACE
  1

  0
ENDBLK
  5
21
330
1F
100
AcDbEntity
  8
0
100
AcDbBlockEnd
  0
BLOCK
  5
1C
330
1B
100
AcDbEntity
 67
     1
  8
0
100
AcDbBlockBegin
  2
*PAPER_SPACE
  1

  0
ENDBLK
  5
1D
330
1B
100
AcDbEntity
 67
     1
  8
0
100
AcDbBlockEnd
  0
ENDSEC
  0
SECTION
  2
ENTITIES
  0
SPLINE
  5
100
100
AcDbEntity
  8
Layer_1
 62
7
100
AcDbSpline
 70
8
 71
3
 72
8
 73
4
 74
0
 40
0
 40
0
 40
0
 40
0
 40
1
 40
1
 40
1
 40
1
 10
189.489376
 20
85.131678
 30
0.0
 10
189.489376
 20
81.644080
 30
0.0
 10
188.103933
 20
78.299324
 30
0.0
 10
185.637829
 20
75.833220
 30
0.0
  0
SPLINE
  5
101
100
AcDbEntity
  8
Layer_1
 62
7
100
AcDbSpline
 70
8
 71
3
 72
8
 73
4
 74
0
 40
0
 40
0
 40
0
 40
0
 40
1
 40
1
 40
1
 40
1
 10
185.637829
 20
75.833220
 30
0.0
 10
183.171724
 20
73.367115
 30
0.0
 10
179.826969
 20
71.981672
 30
0.0
 10
176.339370
 20
71.981672
 30
0.0
  0
SPLINE
  5
102
100
AcDbEntity
  8
Layer_1
 62
7
100
AcDbSpline
 70
8
 71
3
 72
8
 73
4
 74
0
 40
0
 40
0
 40
0
 40
0
 40
1
 40
1
 40
1
 40
1
 10
176.339370
 20
71.981672
 30
0.0
 10
172.851772
 20
71.981672
 30
0.0
 10
169.507016
 20
73.367115
 30
0.0
 10
167.040912
 20
75.833220
 30
0.0
  0
SPLINE
  5
103
100
AcDbEntity
  8
Layer_1
 62
7
100
AcDbSpline
 70
8
 71
3
 72
8
 73
4
 74
0
 40
0
 40
0
 40
0
 40
0
 40
1
 40
1
 40
1
 40
1
 10
167.040912
 20
75.833220
 30
0.0
 10
164.574807
 20
78.299324
 30
0.0
 10
163.189364
 20
81.644080
 30
0.0
 10
163.189364
 20
85.131678
 30
0.0
  0
SPLINE
  5
104
100
AcDbEntity
  8
Layer_1
 62
7
100
AcDbSpline
 70
8
 71
3
 72
8
 73
4
 74
0
 40
0
 40
0
 40
0
 40
0
 40
1
 40
1
 40
1
 40
1
 10
163.189364
 20
85.131678
 30
0.0
 10
163.189364
 20
88.619277
 30
0.0
 10
164.574807
 20
91.964032
 30
0.0
 10
167.040912
 20
94.430136
 30
0.0
  0
SPLINE
  5
105
100
AcDbEntity
  8
Layer_1
 62
7
100
AcDbSpline
 70
8
 71
3
 72
8
 73
4
 74
0
 40
0
 40
0
 40
0
 40
0
 40
1
 40
1
 40
1
 40
1
 10
167.040912
 20
94.430136
 30
0.0
 10
169.507016
 20
96.896241
 30
0.0
 10
172.851772
 20
98.281684
 30
0.0
 10
176.339370
 20
98.281684
 30
0.0
  0
SPLINE
  5
106
100
AcDbEntity
  8
Layer_1
 62
7
100
AcDbSpline
 70
8
 71
3
 72
8
 73
4
 74
0
 40
0
 40
0
 40
0
 40
0
 40
1
 40
1
 40
1
 40
1
 10
176.339370
 20
98.281684
 30
0.0
 10
179.826969
 20
98.281684
 30
0.0
 10
183.171724
 20
96.896241
 30
0.0
 10
185.637829
 20
94.430136
 30
0.0
  0
SPLINE
  5
107
100
AcDbEntity
  8
Layer_1
 62
7
100
AcDbSpline
 70
8
 71
3
 72
8
 73
4
 74
0
 40
0
 40
0
 40
0
 40
0
 40
1
 40
1
 40
1
 40
1
 10
185.637829
 20
94.430136
 30
0.0
 10
188.103933
 20
91.964032
 30
0.0
 10
189.489376
 20
88.619277
 30
0.0
 10
189.489376
 20
85.131678
 30
0.0
  0
LWPOLYLINE
  5
108
100
AcDbEntity
  8
Layer_1
 62
7
100
AcDbPolyline
 90
4
 70
1
 10
3.000594
 20
227.000072
 30
0.0
 10
287.000109
 20
227.000072
 30
0.0
 10
287.000109
 20
2.999995
 30
0.0
 10
3.000594
 20
2.999995
 30
0.0
  0
SPLINE
  5
109
100
AcDbEntity
  8
Layer_1
 62
7
100
AcDbSpline
 70
8
 71
3
 72
8
 73
4
 74
0
 40
0
 40
0
 40
0
 40
0
 40
1
 40
1
 40
1
 40
1
 10
162.447398
 20
100.660744
 30
0.0
 10
162.447398
 20
99.777089
 30
0.0
 10
161.731054
 20
99.060745
 30
0.0
 10
160.847399
 20
99.060745
 30
0.0
  0
SPLINE
  5
10a
100
AcDbEntity
  8
Layer_1
 62
7
100
AcDbSpline
 70
8
 71
3
 72
8
 73
4
 74
0
 40
0
 40
0
 40
0
 40
0
 40
1
 40
1
 40
1
 40
1
 10
160.847399
 20
99.060745
 30
0.0
 10
159.963744
 20
99.060745
 30
0.0
 10
159.247400
 20
99.777089
 30
0.0
 10
159.247399
 20
100.660744
 30
0.0
  0
SPLINE
  5
10b
100
AcDbEntity
  8
Layer_1
 62
7
100
AcDbSpline
 70
8
 71
3
 72
8
 73
4
 74
0
 40
0
 40
0
 40
0
 40
0
 40
1
 40
1
 40
1
 40
1
 10
159.247399
 20
100.660744
 30
0.0
 10
159.247400
 20
101.544399
 30
0.0
 10
159.963744
 20
102.260743
 30
0.0
 10
160.847399
 20
102.260744
 30
0.0
  0
SPLINE
  5
10c
100
AcDbEntity
  8
Layer_1
 62
7
100
AcDbSpline
 70
8
 71
3
 72
8
 73
4
 74
0
 40
0
 40
0
 40
0
 40
0
 40
1
 40
1
 40
1
 40
1
 10
160.847399
 20
102.260744
 30
0.0
 10
161.731054
 20
102.260743
 30
0.0
 10
162.447398
 20
101.544399
 30
0.0
 10
162.447398
 20
100.660744
 30
0.0
  0
LWPOLYLINE
  5
10d
100
AcDbEntity
  8
Layer_1
 62
7
100
AcDbPolyline
 90
1
 70
1
 10
189.489376
 20
85.131678
 30
0.0
  0
SPLINE
  5
10e
100
AcDbEntity
  8
Layer_1
 62
7
100
AcDbSpline
 70
8
 71
3
 72
8
 73
4
 74
0
 40
0
 40
0
 40
0
 40
0
 40
1
 40
1
 40
1
 40
1
 10
193.431148
 20
100.660744
 30
0.0
 10
193.431148
 20
100.236398
 30
0.0
 10
193.262576
 20
99.829431
 30
0.0
 10
192.962518
 20
99.529373
 30
0.0
  0
SPLINE
  5
10f
100
AcDbEntity
  8
Layer_1
 62
7
100
AcDbSpline
 70
8
 71
3
 72
8
 73
4
 74
0
 40
0
 40
0
 40
0
 40
0
 40
1
 40
1
 40
1
 40
1
 10
192.962518
 20
99.529373
 30
0.0
 10
192.662459
 20
99.229315
 30
0.0
 10
192.255492
 20
99.060744
 30
0.0
 10
191.831146
 20
99.060745
 30
0.0
  0
SPLINE
  5
110
100
AcDbEntity
  8
Layer_1
 62
7
100
AcDbSpline
 70
8
 71
3
 72
8
 73
4
 74
0
 40
0
 40
0
 40
0
 40
0
 40
1
 40
1
 40
1
 40
1
 10
191.831146
 20
99.060745
 30
0.0
 10
190.947491
 20
99.060745
 30
0.0
 10
190.231147
 20
99.777089
 30
0.0
 10
190.231146
 20
100.660744
 30
0.0
  0
SPLINE
  5
111
100
AcDbEntity
  8
Layer_1
 62
7
100
AcDbSpline
 70
8
 71
3
 72
8
 73
4
 74
0
 40
0
 40
0
 40
0
 40
0
 40
1
 40
1
 40
1
 40
1
 10
190.231146
 20
100.660744
 30
0.0
 10
190.231147
 20
101.544399
 30
0.0
 10
190.947491
 20
102.260743
 30
0.0
 10
191.831146
 20
102.260744
 30
0.0
  0
SPLINE
  5
112
100
AcDbEntity
  8
Layer_1
 62
7
100
AcDbSpline
 70
8
 71
3
 72
8
 73
4
 74
0
 40
0
 40
0
 40
0
 40
0
 40
1
 40
1
 40
1
 40
1
 10
191.831146
 20
102.260744
 30
0.0
 10
192.255492
 20
102.260744
 30
0.0
 10
192.662459
 20
102.092173
 30
0.0
 10
192.962518
 20
101.792115
 30
0.0
  0
SPLINE
  5
113
100
AcDbEntity
  8
Layer_1
 62
7
100
AcDbSpline
 70
8
 71
3
 72
8
 73
4
 74
0
 40
0
 40
0
 40
0
 40
0
 40
1
 40
1
 40
1
 40
1
 10
192.962518
 20
101.792115
 30
0.0
 10
193.262576
 20
101.492057
 30
0.0
 10
193.431148
 20
101.085091
 30
0.0
 10
193.431148
 20
100.660744
 30
0.0
  0
LWPOLYLINE
  5
114
100
AcDbEntity
  8
Layer_1
 62
7
100
AcDbPolyline
 90
1
 70
1
 10
162.447398
 20
100.660744
 30
0.0
  0
SPLINE
  5
115
100
AcDbEntity
  8
Layer_1
 62
7
100
AcDbSpline
 70
8
 71
3
 72
8
 73
4
 74
0
 40
0
 40
0
 40
0
 40
0
 40
1
 40
1
 40
1
 40
1
 10
162.447398
 20
69.620749
 30
0.0
 10
162.447398
 20
68.737094
 30
0.0
 10
161.731054
 20
68.020750
 30
0.0
 10
160.847399
 20
68.020750
 30
0.0
  0
SPLINE
  5
116
100
AcDbEntity
  8
Layer_1
 62
7
100
AcDbSpline
 70
8
 71
3
 72
8
 73
4
 74
0
 40
0
 40
0
 40
0
 40
0
 40
1
 40
1
 40
1
 40
1
 10
160.847399
 20
68.020750
 30
0.0
 10
159.963744
 20
68.020750
 30
0.0
 10
159.247400
 20
68.737094
 30
0.0
 10
159.247399
 20
69.620749
 30
0.0
  0
SPLINE
  5
117
100
AcDbEntity
  8
Layer_1
 62
7
100
AcDbSpline
 70
8
 71
3
 72
8
 73
4
 74
0
 40
0
 40
0
 40
0
 40
0
 40
1
 40
1
 40
1
 40
1
 10
159.247399
 20
69.620749
 30
0.0
 10
159.247399
 20
70.045096
 30
0.0
 10
159.415970
 20
70.452063
 30
0.0
 10
159.716028
 20
70.752121
 30
0.0
  0
SPLINE
  5
118
100
AcDbEntity
  8
Layer_1
 62
7
100
AcDbSpline
 70
8
 71
3
 72
8
 73
4
 74
0
 40
0
 40
0
 40
0
 40
0
 40
1
 40
1
 40
1
 40
1
 10
159.716028
 20
70.752121
 30
0.0
 10
160.016086
 20
71.052180
 30
0.0
 10
160.423052
 20
71.220751
 30
0.0
 10
160.847399
 20
71.220752
 30
0.0
  0
SPLINE
  5
119
100
AcDbEntity
  8
Layer_1
 62
7
100
AcDbSpline
 70
8
 71
3
 72
8
 73
4
 74
0
 40
0
 40
0
 40
0
 40
0
 40
1
 40
1
 40
1
 40
1
 10
160.847399
 20
71.220752
 30
0.0
 10
161.271745
 20
71.220751
 30
0.0
 10
161.678712
 20
71.052180
 30
0.0
 10
161.978770
 20
70.752121
 30
0.0
  0
SPLINE
  5
11a
100
AcDbEntity
  8
Layer_1
 62
7
100
AcDbSpline
 70
8
 71
3
 72
8
 73
4
 74
0
 40
0
 40
0
 40
0
 40
0
 40
1
 40
1
 40
1
 40
1
 10
161.978770
 20
70.752121
 30
0.0
 10
162.278828
 20
70.452063
 30
0.0
 10
162.447399
 20
70.045096
 30
0.0
 10
162.447398
 20
69.620749
 30
0.0
  0
LWPOLYLINE
  5
11b
100
AcDbEntity
  8
Layer_1
 62
7
100
AcDbPolyline
 90
1
 70
1
 10
193.431148
 20
100.660744
 30
0.0
  0
SPLINE
  5
11c
100
AcDbEntity
  8
Layer_1
 62
7
100
AcDbSpline
 70
8
 71
3
 72
8
 73
4
 74
0
 40
0
 40
0
 40
0
 40
0
 40
1
 40
1
 40
1
 40
1
 10
193.431148
 20
69.620749
 30
0.0
 10
193.431148
 20
69.196403
 30
0.0
 10
193.262576
 20
68.789436
 30
0.0
 10
192.962518
 20
68.489378
 30
0.0
  0
SPLINE
  5
11d
100
AcDbEntity
  8
Layer_1
 62
7
100
AcDbSpline
 70
8
 71
3
 72
8
 73
4
 74
0
 40
0
 40
0
 40
0
 40
0
 40
1
 40
1
 40
1
 40
1
 10
192.962518
 20
68.489378
 30
0.0
 10
192.662459
 20
68.189320
 30
0.0
 10
192.255492
 20
68.020749
 30
0.0
 10
191.831146
 20
68.020750
 30
0.0
  0
SPLINE
  5
11e
100
AcDbEntity
  8
Layer_1
 62
7
100
AcDbSpline
 70
8
 71
3
 72
8
 73
4
 74
0
 40
0
 40
0
 40
0
 40
0
 40
1
 40
1
 40
1
 40
1
 10
191.831146
 20
68.020750
 30
0.0
 10
190.947491
 20
68.020750
 30
0.0
 10
190.231147
 20
68.737094
 30
0.0
 10
190.231146
 20
69.620749
 30
0.0
  0
SPLINE
  5
11f
100
AcDbEntity
  8
Layer_1
 62
7
100
AcDbSpline
 70
8
 71
3
 72
8
 73
4
 74
0
 40
0
 40
0
 40
0
 40
0
 40
1
 40
1
 40
1
 40
1
 10
190.231146
 20
69.620749
 30
0.0
 10
190.231146
 20
70.045096
 30
0.0
 10
190.399717
 20
70.452063
 30
0.0
 10
190.699775
 20
70.752121
 30
0.0
  0
SPLINE
  5
120
100
AcDbEntity
  8
Layer_1
 62
7
100
AcDbSpline
 70
8
 71
3
 72
8
 73
4
 74
0
 40
0
 40
0
 40
0
 40
0
 40
1
 40
1
 40
1
 40
1
 10
190.699775
 20
70.752121
 30
0.0
 10
190.999833
 20
71.052180
 30
0.0
 10
191.406799
 20
71.220751
 30
0.0
 10
191.831146
 20
71.220752
 30
0.0
  0
SPLINE
  5
121
100
AcDbEntity
  8
Layer_1
 62
7
100
AcDbSpline
 70
8
 71
3
 72
8
 73
4
 74
0
 40
0
 40
0
 40
0
 40
0
 40
1
 40
1
 40
1
 40
1
 10
191.831146
 20
71.220752
 30
0.0
 10
192.255493
 20
71.220752
 30
0.0
 10
192.662460
 20
71.052181
 30
0.0
 10
192.962519
 20
70.752122
 30
0.0
  0
SPLINE
  5
122
100
AcDbEntity
  8
Layer_1
 62
7
100
AcDbSpline
 70
8
 71
3
 72
8
 73
4
 74
0
 40
0
 40
0
 40
0
 40
0
 40
1
 40
1
 40
1
 40
1
 10
192.962519
 20
70.752122
 30
0.0
 10
193.262577
 20
70.452064
 30
0.0
 10
193.431148
 20
70.045096
 30
0.0
 10
193.431148
 20
69.620749
 30
0.0
  0
LWPOLYLINE
  5
123
100
AcDbEntity
  8
Layer_1
 62
7
100
AcDbPolyline
 90
1
 70
1
 10
162.447398
 20
69.620749
 30
0.0
  0
SPLINE
  5
124
100
AcDbEntity
  8
Layer_1
 62
7
100
AcDbSpline
 70
8
 71
3
 72
8
 73
4
 74
0
 40
0
 40
0
 40
0
 40
0
 40
1
 40
1
 40
1
 40
1
 10
125.803802
 20
152.384933
 30
0.0
 10
125.803802
 20
151.973847
 30
0.0
 10
125.640499
 20
151.579598
 30
0.0
 10
125.349817
 20
151.288916
 30
0.0
  0
SPLINE
  5
125
100
AcDbEntity
  8
Layer_1
 62
7
100
AcDbSpline
 70
8
 71
3
 72
8
 73
4
 74
0
 40
0
 40
0
 40
0
 40
0
 40
1
 40
1
 40
1
 40
1
 10
125.349817
 20
151.288916
 30
0.0
 10
125.059135
 20
150.998235
 30
0.0
 10
124.664886
 20
150.834931
 30
0.0
 10
124.253800
 20
150.834932
 30
0.0
  0
SPLINE
  5
126
100
AcDbEntity
  8
Layer_1
 62
7
100
AcDbSpline
 70
8
 71
3
 72
8
 73
4
 74
0
 40
0
 40
0
 40
0
 40
0
 40
1
 40
1
 40
1
 40
1
 10
124.253800
 20
150.834932
 30
0.0
 10
123.397759
 20
150.834933
 30
0.0
 10
122.703802
 20
151.528892
 30
0.0
 10
122.703802
 20
152.384933
 30
0.0
  0
SPLINE
  5
127
100
AcDbEntity
  8
Layer_1
 62
7
100
AcDbSpline
 70
8
 71
3
 72
8
 73
4
 74
0
 40
0
 40
0
 40
0
 40
0
 40
1
 40
1
 40
1
 40
1
 10
122.703802
 20
152.384933
 30
0.0
 10
122.703802
 20
153.240974
 30
0.0
 10
123.397759
 20
153.934933
 30
0.0
 10
124.253800
 20
153.934934
 30
0.0
  0
SPLINE
  5
128
100
AcDbEntity
  8
Layer_1
 62
7
100
AcDbSpline
 70
8
 71
3
 72
8
 73
4
 74
0
 40
0
 40
0
 40
0
 40
0
 40
1
 40
1
 40
1
 40
1
 10
124.253800
 20
153.934934
 30
0.0
 10
124.664886
 20
153.934934
 30
0.0
 10
125.059135
 20
153.771631
 30
0.0
 10
125.349817
 20
153.480949
 30
0.0
  0
SPLINE
  5
129
100
AcDbEntity
  8
Layer_1
 62
7
100
AcDbSpline
 70
8
 71
3
 72
8
 73
4
 74
0
 40
0
 40
0
 40
0
 40
0
 40
1
 40
1
 40
1
 40
1
 10
125.349817
 20
153.480949
 30
0.0
 10
125.640499
 20
153.190268
 30
0.0
 10
125.803802
 20
152.796019
 30
0.0
 10
125.803802
 20
152.384933
 30
0.0
  0
LWPOLYLINE
  5
12a
100
AcDbEntity
  8
Layer_1
 62
7
100
AcDbPolyline
 90
1
 70
1
 10
193.431148
 20
69.620749
 30
0.0
  0
SPLINE
  5
12b
100
AcDbEntity
  8
Layer_1
 62
7
100
AcDbSpline
 70
8
 71
3
 72
8
 73
4
 74
0
 40
0
 40
0
 40
0
 40
0
 40
1
 40
1
 40
1
 40
1
 10
163.869323
 20
152.358974
 30
0.0
 10
163.869323
 20
151.947889
 30
0.0
 10
163.706020
 20
151.553640
 30
0.0
 10
163.415338
 20
151.262958
 30
0.0
  0
SPLINE
  5
12c
100
AcDbEntity
  8
Layer_1
 62
7
100
AcDbSpline
 70
8
 71
3
 72
8
 73
4
 74
0
 40
0
 40
0
 40
0
 40
0
 40
1
 40
1
 40
1
 40
1
 10
163.415338
 20
151.262958
 30
0.0
 10
163.124656
 20
150.972276
 30
0.0
 10
162.730407
 20
150.808973
 30
0.0
 10
162.319321
 20
150.808973
 30
0.0
  0
SPLINE
  5
12d
100
AcDbEntity
  8
Layer_1
 62
7
100
AcDbSpline
 70
8
 71
3
 72
8
 73
4
 74
0
 40
0
 40
0
 40
0
 40
0
 40
1
 40
1
 40
1
 40
1
 10
162.319321
 20
150.808973
 30
0.0
 10
161.908236
 20
150.808973
 30
0.0
 10
161.513987
 20
150.972276
 30
0.0
 10
161.223305
 20
151.262958
 30
0.0
  0
SPLINE
  5
12e
100
AcDbEntity
  8
Layer_1
 62
7
100
AcDbSpline
 70
8
 71
3
 72
8
 73
4
 74
0
 40
0
 40
0
 40
0
 40
0
 40
1
 40
1
 40
1
 40
1
 10
161.223305
 20
151.262958
 30
0.0
 10
160.932623
 20
151.553640
 30
0.0
 10
160.769320
 20
151.947889
 30
0.0
 10
160.769320
 20
152.358974
 30
0.0
  0
SPLINE
  5
12f
100
AcDbEntity
  8
Layer_1
 62
7
100
AcDbSpline
 70
8
 71
3
 72
8
 73
4
 74
0
 40
0
 40
0
 40
0
 40
0
 40
1
 40
1
 40
1
 40
1
 10
160.769320
 20
152.358974
 30
0.0
 10
160.769321
 20
153.215016
 30
0.0
 10
161.463280
 20
153.908973
 30
0.0
 10
162.319321
 20
153.908973
 30
0.0
  0
SPLINE
  5
130
100
AcDbEntity
  8
Layer_1
 62
7
100
AcDbSpline
 70
8
 71
3
 72
8
 73
4
 74
0
 40
0
 40
0
 40
0
 40
0
 40
1
 40
1
 40
1
 40
1
 10
162.319321
 20
153.908973
 30
0.0
 10
163.175363
 20
153.908973
 30
0.0
 10
163.869322
 20
153.215016
 30
0.0
 10
163.869323
 20
152.358974
 30
0.0
  0
LWPOLYLINE
  5
131
100
AcDbEntity
  8
Layer_1
 62
7
100
AcDbPolyline
 90
1
 70
1
 10
125.803802
 20
152.384933
 30
0.0
  0
SPLINE
  5
132
100
AcDbEntity
  8
Layer_1
 62
7
100
AcDbSpline
 70
8
 71
3
 72
8
 73
4
 74
0
 40
0
 40
0
 40
0
 40
0
 40
1
 40
1
 40
1
 40
1
 10
125.785447
 20
204.440365
 30
0.0
 10
125.785447
 20
203.584325
 30
0.0
 10
125.091490
 20
202.890366
 30
0.0
 10
124.235449
 20
202.890365
 30
0.0
  0
SPLINE
  5
133
100
AcDbEntity
  8
Layer_1
 62
7
100
AcDbSpline
 70
8
 71
3
 72
8
 73
4
 74
0
 40
0
 40
0
 40
0
 40
0
 40
1
 40
1
 40
1
 40
1
 10
124.235449
 20
202.890365
 30
0.0
 10
123.379407
 20
202.890365
 30
0.0
 10
122.685448
 20
203.584324
 30
0.0
 10
122.685448
 20
204.440365
 30
0.0
  0
SPLINE
  5
134
100
AcDbEntity
  8
Layer_1
 62
7
100
AcDbSpline
 70
8
 71
3
 72
8
 73
4
 74
0
 40
0
 40
0
 40
0
 40
0
 40
1
 40
1
 40
1
 40
1
 10
122.685448
 20
204.440365
 30
0.0
 10
122.685448
 20
204.851451
 30
0.0
 10
122.848751
 20
205.245700
 30
0.0
 10
123.139433
 20
205.536381
 30
0.0
  0
SPLINE
  5
135
100
AcDbEntity
  8
Layer_1
 62
7
100
AcDbSpline
 70
8
 71
3
 72
8
 73
4
 74
0
 40
0
 40
0
 40
0
 40
0
 40
1
 40
1
 40
1
 40
1
 10
123.139433
 20
205.536381
 30
0.0
 10
123.430114
 20
205.827063
 30
0.0
 10
123.824363
 20
205.990366
 30
0.0
 10
124.235449
 20
205.990366
 30
0.0
  0
SPLINE
  5
136
100
AcDbEntity
  8
Layer_1
 62
7
100
AcDbSpline
 70
8
 71
3
 72
8
 73
4
 74
0
 40
0
 40
0
 40
0
 40
0
 40
1
 40
1
 40
1
 40
1
 10
124.235449
 20
205.990366
 30
0.0
 10
125.091490
 20
205.990364
 30
0.0
 10
125.785447
 20
205.296406
 30
0.0
 10
125.785447
 20
204.440365
 30
0.0
  0
LWPOLYLINE
  5
137
100
AcDbEntity
  8
Layer_1
 62
7
100
AcDbPolyline
 90
1
 70
1
 10
163.869323
 20
152.358974
 30
0.0
  0
SPLINE
  5
138
100
AcDbEntity
  8
Layer_1
 62
7
100
AcDbSpline
 70
8
 71
3
 72
8
 73
4
 74
0
 40
0
 40
0
 40
0
 40
0
 40
1
 40
1
 40
1
 40
1
 10
163.850961
 20
204.438881
 30
0.0
 10
163.850960
 20
203.582841
 30
0.0
 10
163.157003
 20
202.888882
 30
0.0
 10
162.300962
 20
202.888881
 30
0.0
  0
SPLINE
  5
139
100
AcDbEntity
  8
Layer_1
 62
7
100
AcDbSpline
 70
8
 71
3
 72
8
 73
4
 74
0
 40
0
 40
0
 40
0
 40
0
 40
1
 40
1
 40
1
 40
1
 10
162.300962
 20
202.888881
 30
0.0
 10
161.889876
 20
202.888881
 30
0.0
 10
161.495627
 20
203.052184
 30
0.0
 10
161.204946
 20
203.342865
 30
0.0
  0
SPLINE
  5
13a
100
AcDbEntity
  8
Layer_1
 62
7
100
AcDbSpline
 70
8
 71
3
 72
8
 73
4
 74
0
 40
0
 40
0
 40
0
 40
0
 40
1
 40
1
 40
1
 40
1
 10
161.204946
 20
203.342865
 30
0.0
 10
160.914264
 20
203.633547
 30
0.0
 10
160.750961
 20
204.027796
 30
0.0
 10
160.750961
 20
204.438881
 30
0.0
  0
SPLINE
  5
13b
100
AcDbEntity
  8
Layer_1
 62
7
100
AcDbSpline
 70
8
 71
3
 72
8
 73
4
 74
0
 40
0
 40
0
 40
0
 40
0
 40
1
 40
1
 40
1
 40
1
 10
160.750961
 20
204.438881
 30
0.0
 10
160.750961
 20
204.849967
 30
0.0
 10
160.914264
 20
205.244216
 30
0.0
 10
161.204946
 20
205.534898
 30
0.0
  0
SPLINE
  5
13c
100
AcDbEntity
  8
Layer_1
 62
7
100
AcDbSpline
 70
8
 71
3
 72
8
 73
4
 74
0
 40
0
 40
0
 40
0
 40
0
 40
1
 40
1
 40
1
 40
1
 10
161.204946
 20
205.534898
 30
0.0
 10
161.495627
 20
205.825579
 30
0.0
 10
161.889876
 20
205.988882
 30
0.0
 10
162.300962
 20
205.988882
 30
0.0
  0
SPLINE
  5
13d
100
AcDbEntity
  8
Layer_1
 62
7
100
AcDbSpline
 70
8
 71
3
 72
8
 73
4
 74
0
 40
0
 40
0
 40
0
 40
0
 40
1
 40
1
 40
1
 40
1
 10
162.300962
 20
205.988882
 30
0.0
 10
163.157003
 20
205.988881
 30
0.0
 10
163.850961
 20
205.294922
 30
0.0
 10
163.850961
 20
204.438881
 30
0.0
  0
LWPOLYLINE
  5
13e
100
AcDbEntity
  8
Layer_1
 62
7
100
AcDbPolyline
 90
1
 70
1
 10
125.785447
 20
204.440365
 30
0.0
  0
SPLINE
  5
13f
100
AcDbEntity
  8
Layer_1
 62
7
100
AcDbSpline
 70
8
 71
3
 72
8
 73
4
 74
0
 40
0
 40
0
 40
0
 40
0
 40
1
 40
1
 40
1
 40
1
 10
16.155242
 20
217.170232
 30
0.0
 10
16.155242
 20
215.734292
 30
0.0
 10
14.991182
 20
214.570231
 30
0.0
 10
13.555241
 20
214.570231
 30
0.0
  0
SPLINE
  5
140
100
AcDbEntity
  8
Layer_1
 62
7
100
AcDbSpline
 70
8
 71
3
 72
8
 73
4
 74
0
 40
0
 40
0
 40
0
 40
0
 40
1
 40
1
 40
1
 40
1
 10
13.555241
 20
214.570231
 30
0.0
 10
12.865678
 20
214.570231
 30
0.0
 10
12.204358
 20
214.844159
 30
0.0
 10
11.716763
 20
215.331754
 30
0.0
  0
SPLINE
  5
141
100
AcDbEntity
  8
Layer_1
 62
7
100
AcDbSpline
 70
8
 71
3
 72
8
 73
4
 74
0
 40
0
 40
0
 40
0
 40
0
 40
1
 40
1
 40
1
 40
1
 10
11.716763
 20
215.331754
 30
0.0
 10
11.229168
 20
215.819349
 30
0.0
 10
10.955240
 20
216.480669
 30
0.0
 10
10.955240
 20
217.170232
 30
0.0
  0
SPLINE
  5
142
100
AcDbEntity
  8
Layer_1
 62
7
100
AcDbSpline
 70
8
 71
3
 72
8
 73
4
 74
0
 40
0
 40
0
 40
0
 40
0
 40
1
 40
1
 40
1
 40
1
 10
10.955240
 20
217.170232
 30
0.0
 10
10.955240
 20
217.859796
 30
0.0
 10
11.229168
 20
218.521116
 30
0.0
 10
11.716763
 20
219.008711
 30
0.0
  0
SPLINE
  5
143
100
AcDbEntity
  8
Layer_1
 62
7
100
AcDbSpline
 70
8
 71
3
 72
8
 73
4
 74
0
 40
0
 40
0
 40
0
 40
0
 40
1
 40
1
 40
1
 40
1
 10
11.716763
 20
219.008711
 30
0.0
 10
12.204358
 20
219.496306
 30
0.0
 10
12.865678
 20
219.770234
 30
0.0
 10
13.555241
 20
219.770233
 30
0.0
  0
SPLINE
  5
144
100
AcDbEntity
  8
Layer_1
 62
7
100
AcDbSpline
 70
8
 71
3
 72
8
 73
4
 74
0
 40
0
 40
0
 40
0
 40
0
 40
1
 40
1
 40
1
 40
1
 10
13.555241
 20
219.770233
 30
0.0
 10
14.991182
 20
219.770233
 30
0.0
 10
16.155242
 20
218.606173
 30
0.0
 10
16.155242
 20
217.170232
 30
0.0
  0
LWPOLYLINE
  5
145
100
AcDbEntity
  8
Layer_1
 62
7
100
AcDbPolyline
 90
1
 70
1
 10
163.850961
 20
204.438881
 30
0.0
  0
SPLINE
  5
146
100
AcDbEntity
  8
Layer_1
 62
7
100
AcDbSpline
 70
8
 71
3
 72
8
 73
4
 74
0
 40
0
 40
0
 40
0
 40
0
 40
1
 40
1
 40
1
 40
1
 10
16.169324
 20
13.071514
 30
0.0
 10
16.169324
 20
11.635573
 30
0.0
 10
15.005264
 20
10.471513
 30
0.0
 10
13.569323
 20
10.471514
 30
0.0
  0
SPLINE
  5
147
100
AcDbEntity
  8
Layer_1
 62
7
100
AcDbSpline
 70
8
 71
3
 72
8
 73
4
 74
0
 40
0
 40
0
 40
0
 40
0
 40
1
 40
1
 40
1
 40
1
 10
13.569323
 20
10.471514
 30
0.0
 10
12.133382
 20
10.471513
 30
0.0
 10
10.969322
 20
11.635573
 30
0.0
 10
10.969322
 20
13.071514
 30
0.0
  0
SPLINE
  5
148
100
AcDbEntity
  8
Layer_1
 62
7
100
AcDbSpline
 70
8
 71
3
 72
8
 73
4
 74
0
 40
0
 40
0
 40
0
 40
0
 40
1
 40
1
 40
1
 40
1
 10
10.969322
 20
13.071514
 30
0.0
 10
10.969322
 20
14.507455
 30
0.0
 10
12.133382
 20
15.671515
 30
0.0
 10
13.569323
 20
15.671515
 30
0.0
  0
SPLINE
  5
149
100
AcDbEntity
  8
Layer_1
 62
7
100
AcDbSpline
 70
8
 71
3
 72
8
 73
4
 74
0
 40
0
 40
0
 40
0
 40
0
 40
1
 40
1
 40
1
 40
1
 10
13.569323
 20
15.671515
 30
0.0
 10
15.005264
 20
15.671515
 30
0.0
 10
16.169324
 20
14.507455
 30
0.0
 10
16.169324
 20
13.071514
 30
0.0
  0
LWPOLYLINE
  5
14a
100
AcDbEntity
  8
Layer_1
 62
7
100
AcDbPolyline
 90
1
 70
1
 10
16.155242
 20
217.170232
 30
0.0
  0
SPLINE
  5
14b
100
AcDbEntity
  8
Layer_1
 62
7
100
AcDbSpline
 70
8
 71
3
 72
8
 73
4
 74
0
 40
0
 40
0
 40
0
 40
0
 40
1
 40
1
 40
1
 40
1
 10
45.305262
 20
48.984712
 30
0.0
 10
45.305257
 20
50.227347
 30
0.0
 10
44.297906
 20
51.234698
 30
0.0
 10
43.055271
 20
51.234704
 30
0.0
  0
SPLINE
  5
14c
100
AcDbEntity
  8
Layer_1
 62
7
100
AcDbSpline
 70
8
 71
3
 72
8
 73
4
 74
0
 40
0
 40
0
 40
0
 40
0
 40
1
 40
1
 40
1
 40
1
 10
43.055271
 20
51.234704
 30
0.0
 10
41.812636
 20
51.234698
 30
0.0
 10
40.805283
 20
50.227347
 30
0.0
 10
40.805277
 20
48.984712
 30
0.0
  0
SPLINE
  5
14d
100
AcDbEntity
  8
Layer_1
 62
7
100
AcDbSpline
 70
8
 71
3
 72
8
 73
4
 74
0
 40
0
 40
0
 40
0
 40
0
 40
1
 40
1
 40
1
 40
1
 10
40.805277
 20
48.984712
 30
0.0
 10
40.805283
 20
47.742078
 30
0.0
 10
40.805283
 20
38.919506
 30
0.0
 10
40.805277
 20
37.676871
 30
0.0
  0
SPLINE
  5
14e
100
AcDbEntity
  8
Layer_1
 62
7
100
AcDbSpline
 70
8
 71
3
 72
8
 73
4
 74
0
 40
0
 40
0
 40
0
 40
0
 40
1
 40
1
 40
1
 40
1
 10
40.805277
 20
37.676871
 30
0.0
 10
40.805283
 20
36.434237
 30
0.0
 10
41.812636
 20
35.426883
 30
0.0
 10
43.055271
 20
35.426878
 30
0.0
  0
SPLINE
  5
14f
100
AcDbEntity
  8
Layer_1
 62
7
100
AcDbSpline
 70
8
 71
3
 72
8
 73
4
 74
0
 40
0
 40
0
 40
0
 40
0
 40
1
 40
1
 40
1
 40
1
 10
43.055271
 20
35.426878
 30
0.0
 10
44.297906
 20
35.426883
 30
0.0
 10
45.305257
 20
36.434237
 30
0.0
 10
45.305262
 20
37.676871
 30
0.0
  0
SPLINE
  5
150
100
AcDbEntity
  8
Layer_1
 62
7
100
AcDbSpline
 70
8
 71
3
 72
8
 73
4
 74
0
 40
0
 40
0
 40
0
 40
0
 40
1
 40
1
 40
1
 40
1
 10
45.305262
 20
37.676871
 30
0.0
 10
45.305257
 20
38.919506
 30
0.0
 10
45.305257
 20
47.742078
 30
0.0
 10
45.305262
 20
48.984712
 30
0.0
  0
LWPOLYLINE
  5
151
100
AcDbEntity
  8
Layer_1
 62
7
100
AcDbPolyline
 90
1
 70
1
 10
16.169324
 20
13.071514
 30
0.0
  0
SPLINE
  5
152
100
AcDbEntity
  8
Layer_1
 62
7
100
AcDbSpline
 70
8
 71
3
 72
8
 73
4
 74
0
 40
0
 40
0
 40
0
 40
0
 40
1
 40
1
 40
1
 40
1
 10
280.861826
 20
12.545287
 30
0.0
 10
280.861826
 20
11.109353
 30
0.0
 10
279.697778
 20
9.945297
 30
0.0
 10
278.261844
 20
9.945286
 30
0.0
  0
SPLINE
  5
153
100
AcDbEntity
  8
Layer_1
 62
7
100
AcDbSpline
 70
8
 71
3
 72
8
 73
4
 74
0
 40
0
 40
0
 40
0
 40
0
 40
1
 40
1
 40
1
 40
1
 10
278.261844
 20
9.945286
 30
0.0
 10
277.572280
 20
9.945284
 30
0.0
 10
276.910958
 20
10.219211
 30
0.0
 10
276.423361
 20
10.706806
 30
0.0
  0
SPLINE
  5
154
100
AcDbEntity
  8
Layer_1
 62
7
100
AcDbSpline
 70
8
 71
3
 72
8
 73
4
 74
0
 40
0
 40
0
 40
0
 40
0
 40
1
 40
1
 40
1
 40
1
 10
276.423361
 20
10.706806
 30
0.0
 10
275.935765
 20
11.194401
 30
0.0
 10
275.661836
 20
11.855722
 30
0.0
 10
275.661836
 20
12.545287
 30
0.0
  0
SPLINE
  5
155
100
AcDbEntity
  8
Layer_1
 62
7
100
AcDbSpline
 70
8
 71
3
 72
8
 73
4
 74
0
 40
0
 40
0
 40
0
 40
0
 40
1
 40
1
 40
1
 40
1
 10
275.661836
 20
12.545287
 30
0.0
 10
275.661836
 20
13.234851
 30
0.0
 10
275.935765
 20
13.896173
 30
0.0
 10
276.423361
 20
14.383767
 30
0.0
  0
SPLINE
  5
156
100
AcDbEntity
  8
Layer_1
 62
7
100
AcDbSpline
 70
8
 71
3
 72
8
 73
4
 74
0
 40
0
 40
0
 40
0
 40
0
 40
1
 40
1
 40
1
 40
1
 10
276.423361
 20
14.383767
 30
0.0
 10
276.910958
 20
14.871362
 30
0.0
 10
277.572280
 20
15.145289
 30
0.0
 10
278.261844
 20
15.145287
 30
0.0
  0
SPLINE
  5
157
100
AcDbEntity
  8
Layer_1
 62
7
100
AcDbSpline
 70
8
 71
3
 72
8
 73
4
 74
0
 40
0
 40
0
 40
0
 40
0
 40
1
 40
1
 40
1
 40
1
 10
278.261844
 20
15.145287
 30
0.0
 10
279.697778
 20
15.145277
 30
0.0
 10
280.861826
 20
13.981220
 30
0.0
 10
280.861826
 20
12.545287
 30
0.0
  0
LWPOLYLINE
  5
158
100
AcDbEntity
  8
Layer_1
 62
7
100
AcDbPolyline
 90
1
 70
1
 10
45.305262
 20
48.984712
 30
0.0
  0
SPLINE
  5
159
100
AcDbEntity
  8
Layer_1
 62
7
100
AcDbSpline
 70
8
 71
3
 72
8
 73
4
 74
0
 40
0
 40
0
 40
0
 40
0
 40
1
 40
1
 40
1
 40
1
 10
279.589101
 20
216.929683
 30
0.0
 10
279.589101
 20
215.493749
 30
0.0
 10
278.425052
 20
214.329692
 30
0.0
 10
276.989119
 20
214.329682
 30
0.0
  0
SPLINE
  5
15a
100
AcDbEntity
  8
Layer_1
 62
7
100
AcDbSpline
 70
8
 71
3
 72
8
 73
4
 74
0
 40
0
 40
0
 40
0
 40
0
 40
1
 40
1
 40
1
 40
1
 10
276.989119
 20
214.329682
 30
0.0
 10
276.299554
 20
214.329680
 30
0.0
 10
275.638232
 20
214.603607
 30
0.0
 10
275.150635
 20
215.091202
 30
0.0
  0
SPLINE
  5
15b
100
AcDbEntity
  8
Layer_1
 62
7
100
AcDbSpline
 70
8
 71
3
 72
8
 73
4
 74
0
 40
0
 40
0
 40
0
 40
0
 40
1
 40
1
 40
1
 40
1
 10
275.150635
 20
215.091202
 30
0.0
 10
274.663039
 20
215.578797
 30
0.0
 10
274.389110
 20
216.240118
 30
0.0
 10
274.389110
 20
216.929683
 30
0.0
  0
SPLINE
  5
15c
100
AcDbEntity
  8
Layer_1
 62
7
100
AcDbSpline
 70
8
 71
3
 72
8
 73
4
 74
0
 40
0
 40
0
 40
0
 40
0
 40
1
 40
1
 40
1
 40
1
 10
274.389110
 20
216.929683
 30
0.0
 10
274.389110
 20
217.619247
 30
0.0
 10
274.663039
 20
218.280569
 30
0.0
 10
275.150636
 20
218.768164
 30
0.0
  0
SPLINE
  5
15d
100
AcDbEntity
  8
Layer_1
 62
7
100
AcDbSpline
 70
8
 71
3
 72
8
 73
4
 74
0
 40
0
 40
0
 40
0
 40
0
 40
1
 40
1
 40
1
 40
1
 10
275.150636
 20
218.768164
 30
0.0
 10
275.638232
 20
219.255758
 30
0.0
 10
276.299554
 20
219.529685
 30
0.0
 10
276.989119
 20
219.529683
 30
0.0
  0
SPLINE
  5
15e
100
AcDbEntity
  8
Layer_1
 62
7
100
AcDbSpline
 70
8
 71
3
 72
8
 73
4
 74
0
 40
0
 40
0
 40
0
 40
0
 40
1
 40
1
 40
1
 40
1
 10
276.989119
 20
219.529683
 30
0.0
 10
278.425052
 20
219.529673
 30
0.0
 10
279.589101
 20
218.365616
 30
0.0
 10
279.589101
 20
216.929683
 30
0.0
  0
LWPOLYLINE
  5
15f
100
AcDbEntity
  8
Layer_1
 62
7
100
AcDbPolyline
 90
1
 70
1
 10
280.861826
 20
12.545287
 30
0.0
  0
LWPOLYLINE
  5
160
100
AcDbEntity
  8
Layer_1
 62
7
100
AcDbPolyline
 90
1
 70
1
 10
279.589101
 20
216.929683
 30
0.0
  0
ENDSEC
  0
SECTION
  2
OBJECTS
  0
DICTIONARY
  5
C
330
0
100
AcDbDictionary
  3
ACAD_GROUP
350
D
  3
ACAD_MLINESTYLE
350
17
  0
DICTIONARY
  5
D
330
C
100
AcDbDictionary
  0
DICTIONARY
  5
1A
330
C
100
AcDbDictionary
  0
DICTIONARY
  5
17
330
C
100
AcDbDictionary
  3
STANDARD
350
18
  0
DICTIONARY
  5
19
330
C
100
AcDbDictionary
  0
ENDSEC
  0
EOF
